<?xml version="1.0" encoding="UTF-8" standalone="no"?>
<!-- Created with Inkscape (http://www.inkscape.org/) -->

<svg
   xmlns:dc="http://purl.org/dc/elements/1.1/"
   xmlns:cc="http://creativecommons.org/ns#"
   xmlns:rdf="http://www.w3.org/1999/02/22-rdf-syntax-ns#"
   xmlns:svg="http://www.w3.org/2000/svg"
   xmlns="http://www.w3.org/2000/svg"
   xmlns:sodipodi="http://sodipodi.sourceforge.net/DTD/sodipodi-0.dtd"
   xmlns:inkscape="http://www.inkscape.org/namespaces/inkscape"
   width="297mm"
   height="210mm"
   viewBox="0 0 1052.3622 744.09448"
   id="svg2"
   version="1.1"
   inkscape:version="0.91 r13725"
   sodipodi:docname="cave.svg"
   inkscape:export-filename="/Users/joseph/Documents/Stud 4. Semester/PyRasp/repository/planet_of_the_grizzlies/resources/cave.png"
   inkscape:export-xdpi="211.62"
   inkscape:export-ydpi="211.62">
  <defs
     id="defs4">
    <inkscape:path-effect
       effect="skeletal"
       id="path-effect5831"
       is_visible="true"
       pattern="m -354.18548,-51.822921 c 0,-2.76 2.24,-5 5,-5 2.76,0 5,2.24 5,5 0,2.76 -2.24,5 -5,5 -2.76,0 -5,-2.24 -5,-5 z"
       copytype="single_stretched"
       prop_scale="1"
       scale_y_rel="false"
       spacing="0"
       normal_offset="0"
       tang_offset="0"
       prop_units="false"
       vertical_pattern="false"
       fuse_tolerance="0" />
    <inkscape:path-effect
       effect="skeletal"
       id="path-effect5809"
       is_visible="true"
       pattern="m -354.18548,-51.822921 c 0,-2.76 2.24,-5 5,-5 2.76,0 5,2.24 5,5 0,2.76 -2.24,5 -5,5 -2.76,0 -5,-2.24 -5,-5 z"
       copytype="single_stretched"
       prop_scale="1"
       scale_y_rel="false"
       spacing="0"
       normal_offset="0"
       tang_offset="0"
       prop_units="false"
       vertical_pattern="false"
       fuse_tolerance="0" />
    <inkscape:path-effect
       effect="skeletal"
       id="path-effect5805"
       is_visible="true"
       pattern="m -259.89976,-528.96578 c 0,-2.76 2.24,-5 5,-5 2.75999,0 4.99999,2.24 4.99999,5 0,2.76 -2.24,5 -4.99999,5 -2.76,0 -5,-2.24 -5,-5 z"
       copytype="single_stretched"
       prop_scale="1"
       scale_y_rel="false"
       spacing="0"
       normal_offset="0"
       tang_offset="0"
       prop_units="false"
       vertical_pattern="false"
       fuse_tolerance="0" />
    <inkscape:path-effect
       effect="skeletal"
       id="path-effect5665"
       is_visible="true"
       pattern="m -354.18548,-51.822921 c 0,-2.76 2.24,-5 5,-5 2.76,0 5,2.24 5,5 0,2.76 -2.24,5 -5,5 -2.76,0 -5,-2.24 -5,-5 z"
       copytype="single_stretched"
       prop_scale="1"
       scale_y_rel="false"
       spacing="0"
       normal_offset="0"
       tang_offset="0"
       prop_units="false"
       vertical_pattern="false"
       fuse_tolerance="0" />
    <inkscape:path-effect
       effect="skeletal"
       id="path-effect5661"
       is_visible="true"
       pattern="m -354.18548,-51.822921 c 0,-2.76 2.24,-5 5,-5 2.76,0 5,2.24 5,5 0,2.76 -2.24,5 -5,5 -2.76,0 -5,-2.24 -5,-5 z"
       copytype="single_stretched"
       prop_scale="1"
       scale_y_rel="false"
       spacing="0"
       normal_offset="0"
       tang_offset="0"
       prop_units="false"
       vertical_pattern="false"
       fuse_tolerance="0" />
    <inkscape:path-effect
       effect="skeletal"
       id="path-effect5657"
       is_visible="true"
       pattern="m -399.89976,59.605649 c 0,-2.76 2.24,-5 5,-5 2.76,0 5,2.24 5,5 0,2.76 -2.24,5 -5,5 -2.76,0 -5,-2.24 -5,-5 z"
       copytype="single_stretched"
       prop_scale="1"
       scale_y_rel="false"
       spacing="0"
       normal_offset="0"
       tang_offset="0"
       prop_units="false"
       vertical_pattern="false"
       fuse_tolerance="0" />
    <inkscape:path-effect
       effect="skeletal"
       id="path-effect5835"
       is_visible="true"
       pattern="m -362.75691,-43.251491 c 0,-2.76 2.24,-5 5,-5 2.76,0 5,2.24 5,5 0,2.76 -2.24,5 -5,5 -2.76,0 -5,-2.24 -5,-5 z"
       copytype="single_stretched"
       prop_scale="1"
       scale_y_rel="false"
       spacing="0"
       normal_offset="0"
       tang_offset="0"
       prop_units="false"
       vertical_pattern="false"
       fuse_tolerance="0" />
  </defs>
  <sodipodi:namedview
     id="base"
     pagecolor="#ffffff"
     bordercolor="#666666"
     borderopacity="1.0"
     inkscape:pageopacity="0.0"
     inkscape:pageshadow="2"
     inkscape:zoom="0.7"
     inkscape:cx="443.37706"
     inkscape:cy="460.96251"
     inkscape:document-units="px"
     inkscape:current-layer="g4146"
     showgrid="false"
     showguides="false"
     inkscape:window-width="1920"
     inkscape:window-height="1102"
     inkscape:window-x="21"
     inkscape:window-y="49"
     inkscape:window-maximized="0" />
  <metadata
     id="metadata7">
    <rdf:RDF>
      <cc:Work
         rdf:about="">
        <dc:format>image/svg+xml</dc:format>
        <dc:type
           rdf:resource="http://purl.org/dc/dcmitype/StillImage" />
        <dc:title></dc:title>
      </cc:Work>
    </rdf:RDF>
  </metadata>
  <g
     inkscape:label="Layer 1"
     inkscape:groupmode="layer"
     id="layer1"
     transform="translate(0,-308.26772)">
    <g
       id="g4146"
       transform="matrix(1,0,0,-0.85549137,-2.8175051e-7,1171.4697)"
       style="fill:#b3b3b3">
      <g
         id="g4166"
         style="fill:#333333">
        <path
           style="fill:#333333;fill-rule:evenodd;stroke:#000000;stroke-width:0;stroke-linecap:butt;stroke-linejoin:miter;stroke-miterlimit:4;stroke-dasharray:none;stroke-opacity:1"
           d="m 454.28571,1010.9068 29.58905,-266.30339 9.86301,226.71759 16.43836,-313.08619 11.50684,298.69139 26.30138,-417.4482 4.93151,457.03392 23.01369,-215.9216 1.64384,219.52028 23.0137,-295.0928 11.50685,298.6916 29.58904,-374.26411 6.57534,374.26411 9.86301,-248.30992 8.21919,251.90852 14.79452,-316.68496 6.57534,313.08636 19.72603,-352.67198 9.86301,352.67198 9.86302,-176.3361 9.86301,169.13862 29.58904,-309.48758 8.21918,323.88246 27.94521,-226.71779 18.08219,212.32291 18.0822,-287.89543 8.21918,287.89543 13.15068,-172.73731 8.21918,187.13219 21.36987,-320.28376 6.57534,320.28376 21.36987,-345.4746 11.50685,331.07972 9.86299,-212.32291 4.93151,201.52679 21.36989,-295.09276 3.28764,309.48756 11.50686,-183.53336 6.57533,179.93468 18.08224,-259.1059 6.5753,255.50722 16.4384,-291.49414 9.863,295.09282 6.5753,-367.06663 9.8631,381.46151 z"
           id="path4144"
           inkscape:connector-curvature="0"
           sodipodi:nodetypes="cccccccccccccccccccccccccccccccccccccccccccccc" />
        <path
           sodipodi:nodetypes="cccccccccccccccccccccccccccccccccccccccccccccc"
           inkscape:connector-curvature="0"
           id="path4142"
           d="M -2.8571437,1002.0765 26.731899,735.77331 36.594913,962.4909 53.03327,649.40471 64.540114,948.0961 90.84149,530.6479 l 4.931511,457.0338 23.013689,-215.92148 1.64384,219.52008 23.0137,-295.0926 11.50685,298.6914 29.58904,-374.26391 6.57534,374.26391 9.86301,-248.30972 8.21919,251.90832 14.79452,-316.68476 6.57534,313.08616 19.72603,-352.67178 9.86301,352.67178 9.86302,-176.3359 9.86301,169.1385 29.58904,-309.48746 8.21918,323.88226 27.94521,-226.71759 18.08219,212.32279 18.0822,-287.89531 8.21918,287.89531 13.15068,-172.73719 8.21918,187.13199 21.36987,-320.28356 6.57534,320.28356 21.36987,-345.4744 11.50685,331.0796 9.86299,-212.32279 4.93151,201.52679 21.36989,-295.09276 3.28764,309.48736 11.50686,-183.53316 6.57533,179.93456 18.0822,-259.10578 6.57534,255.50718 16.43836,-291.4941 9.86303,295.0927 6.5753,-367.06651 9.86307,381.46131 z"
           style="fill:#333333;fill-rule:evenodd;stroke:#000000;stroke-width:0;stroke-linecap:butt;stroke-linejoin:miter;stroke-miterlimit:4;stroke-dasharray:none;stroke-opacity:1" />
      </g>
    </g>
    <g
       style="fill:#333333"
       transform="matrix(1,0,0,0.99421965,5.7142857,22.781563)"
       id="g4150">
      <path
         style="fill:#333333;fill-rule:evenodd;stroke:#000000;stroke-width:0;stroke-linecap:butt;stroke-linejoin:miter;stroke-miterlimit:4;stroke-dasharray:none;stroke-opacity:1"
         d="m 454.28571,1024.9336 29.58905,-266.30315 9.86301,226.71759 16.43836,-313.08619 11.50684,298.69139 26.30138,-417.4482 4.93151,457.03376 23.01369,-215.92144 1.64384,219.52004 23.0137,-295.09256 11.50685,298.69136 29.58904,-374.26387 6.57534,374.26387 9.86301,-248.30968 8.21919,251.90828 14.79452,-316.68472 6.57534,313.08612 19.72603,-352.67174 9.86301,352.67174 9.86302,-176.33586 9.86301,169.13846 29.58904,-309.48742 8.21918,323.88222 27.94521,-226.71755 18.08219,212.32275 18.0822,-287.89527 8.21918,287.89527 13.15068,-172.73715 8.21918,187.13195 21.36987,-320.28352 6.57534,320.28352 21.36987,-345.47436 11.50685,331.07956 9.86299,-212.32275 4.93151,201.52679 21.36989,-295.09276 3.28764,309.48732 11.50686,-183.53312 6.57533,179.93452 18.08224,-259.10574 6.5753,255.50714 16.4384,-291.49406 9.863,295.09266 6.5753,-367.06647 9.8631,381.46127 z"
         id="path4152"
         inkscape:connector-curvature="0"
         sodipodi:nodetypes="cccccccccccccccccccccccccccccccccccccccccccccc" />
      <path
         sodipodi:nodetypes="cccccccccccccccccccccccccccccccccccccccccccccc"
         inkscape:connector-curvature="0"
         id="path4154"
         d="M -2.8571437,1002.0765 26.731899,735.77331 36.594913,962.4909 53.03327,649.40471 64.540114,948.0961 90.84149,530.6479 l 4.931511,457.0338 23.013689,-215.92148 1.64384,219.52008 23.0137,-295.0926 11.50685,298.6914 29.58904,-374.26391 6.57534,374.26391 9.86301,-248.30972 8.21919,251.90832 14.79452,-316.68476 6.57534,313.08616 19.72603,-352.67178 9.86301,352.67178 9.86302,-176.3359 9.86301,169.1385 29.58904,-309.48746 8.21918,323.88226 27.94521,-226.71759 18.08219,212.32279 18.0822,-287.89531 8.21918,287.89531 13.15068,-172.73719 8.21918,187.13199 21.36987,-320.28356 6.57534,320.28356 21.36987,-345.4744 11.50685,331.0796 9.86299,-212.32279 4.93151,201.52679 21.36989,-295.09276 3.28764,309.48736 11.50686,-183.53316 6.57533,179.93456 18.0822,-259.10578 6.57534,255.50718 16.43836,-291.4941 9.86303,295.0927 6.5753,-367.06651 9.86307,381.46131 z"
         style="fill:#333333;fill-rule:evenodd;stroke:#000000;stroke-width:0;stroke-linecap:butt;stroke-linejoin:miter;stroke-miterlimit:4;stroke-dasharray:none;stroke-opacity:1" />
    </g>
    <path
       inkscape:connector-curvature="0"
       id="path4138"
       d="M 942.85716,1054.3498 925.86826,856.83426 903.21639,1054.3498 857.91274,663.04544 832.42943,1050.6231 809.77759,897.82805 789.95723,1050.6231 747.48504,812.11375 716.33877,1054.3498 614.4055,633.23178 577.59627,1046.8964 537.95555,845.65413 509.64076,1046.8964 444.51673,696.58582 396.38158,1043.1696 339.75199,841.92743 311.43718,1031.9895 254.80759,681.67897 226.49281,1031.9895 184.0206,845.65413 161.36877,1039.443 121.72805,759.93984 118.89658,1031.9895 104.73917,909.00817 90.581774,1020.8095 31.120688,543.79078 -2.8571142,1058.0765 Z"
       style="fill:#1a1a1a;fill-rule:evenodd;stroke:#000000;stroke-width:0;stroke-linecap:butt;stroke-linejoin:miter;stroke-miterlimit:4;stroke-dasharray:none;stroke-opacity:1" />
    <path
       style="fill:#1a1a1a;fill-rule:evenodd;stroke:#000000;stroke-width:0;stroke-linecap:butt;stroke-linejoin:miter;stroke-miterlimit:4;stroke-dasharray:none;stroke-opacity:1"
       d="m -3.2335085,306.78717 51.4285715,211.42857 17.142857,-180 28.571431,248.57143 19.999989,-237.14286 45.71429,331.42857 8.57143,-362.85714 40,171.42857 2.85714,-174.28571 40,234.28571 20,-237.14285 51.42857,297.14285 11.42857,-297.14285 17.14286,197.14285 14.28572,-200 25.71428,251.42857 11.42857,-248.57142 34.28572,280 17.14285,-280 17.14286,140 17.14286,-134.28572 51.42857,245.71429 14.28571,-257.14286 48.57143,180 31.42857,-168.57143 31.42858,228.57143 14.28571,-228.57143 22.85714,137.14286 14.28572,-148.57143 37.14285,254.28571 11.42858,-254.28571 37.14285,274.28571 20,-262.85714 17.14286,168.57143 8.57143,-160 37.14286,234.28571 5.71428,-245.71428 20,145.71428 11.42857,-142.85714 31.42857,205.71429 11.42858,-202.85715 28.57147,231.42858 17.14271,-234.28572 11.4285,291.42857 17.1429,-302.85714 z"
       id="path4140"
       inkscape:connector-curvature="0"
       sodipodi:nodetypes="cccccccccccccccccccccccccccccccccccccccccccccc" />
    <path
       style="fill:#000000;fill-rule:evenodd;stroke:#000000;stroke-width:0;stroke-linecap:butt;stroke-linejoin:miter;stroke-miterlimit:4;stroke-dasharray:none;stroke-opacity:1"
       d="M -4.7144492e-8,1055.2194 18.990592,903.79078 44.311378,1055.2194 94.952955,755.21935 l 28.485885,297.14285 25.32079,-117.14285 22.15569,117.14285 47.47647,-182.85714 34.81608,185.71434 113.94354,-322.85719 41.14628,317.14289 44.31138,-154.28575 31.65098,154.28575 72.79726,-268.57146 53.80667,265.71426 63.30197,-154.28569 31.65099,145.71429 63.30197,-268.57144 31.65097,268.57144 47.47649,-142.85715 25.32078,148.57145 44.31138,-214.28574 3.16509,208.57144 15.8255,-94.28572 15.82549,85.71432 66.46709,-365.71432 37.9812,394.28572 z"
       id="path4136"
       inkscape:connector-curvature="0" />
  </g>
</svg>
