<?xml version="1.0" encoding="UTF-8" standalone="no"?>
<!-- Created with Inkscape (http://www.inkscape.org/) -->

<svg
   xmlns:osb="http://www.openswatchbook.org/uri/2009/osb"
   xmlns:dc="http://purl.org/dc/elements/1.1/"
   xmlns:cc="http://creativecommons.org/ns#"
   xmlns:rdf="http://www.w3.org/1999/02/22-rdf-syntax-ns#"
   xmlns:svg="http://www.w3.org/2000/svg"
   xmlns="http://www.w3.org/2000/svg"
   xmlns:sodipodi="http://sodipodi.sourceforge.net/DTD/sodipodi-0.dtd"
   xmlns:inkscape="http://www.inkscape.org/namespaces/inkscape"
   width="210mm"
   height="297mm"
   viewBox="0 0 744.09448819 1052.3622047"
   id="svg2"
   version="1.1"
   inkscape:version="0.91 r13725"
   sodipodi:docname="doktor.svg">
  <defs
     id="defs4">
    <inkscape:path-effect
       effect="skeletal"
       id="path-effect5902"
       is_visible="true"
       pattern="M 0,5 C 0,2.24 2.24,0 5,0 7.76,0 10,2.24 10,5 10,7.76 7.76,10 5,10 2.24,10 0,7.76 0,5 Z"
       copytype="single_stretched"
       prop_scale="1"
       scale_y_rel="false"
       spacing="0"
       normal_offset="0"
       tang_offset="0"
       prop_units="false"
       vertical_pattern="false"
       fuse_tolerance="0" />
    <inkscape:path-effect
       effect="skeletal"
       id="path-effect5898"
       is_visible="true"
       pattern="M 0,5 C 0,2.24 2.24,0 5,0 7.76,0 10,2.24 10,5 10,7.76 7.76,10 5,10 2.24,10 0,7.76 0,5 Z"
       copytype="single_stretched"
       prop_scale="1"
       scale_y_rel="false"
       spacing="0"
       normal_offset="0"
       tang_offset="0"
       prop_units="false"
       vertical_pattern="false"
       fuse_tolerance="0" />
    <inkscape:path-effect
       effect="skeletal"
       id="path-effect5890"
       is_visible="true"
       pattern="M 0,5 C 0,2.24 2.24,0 5,0 7.76,0 10,2.24 10,5 10,7.76 7.76,10 5,10 2.24,10 0,7.76 0,5 Z"
       copytype="single_stretched"
       prop_scale="1"
       scale_y_rel="false"
       spacing="0"
       normal_offset="0"
       tang_offset="0"
       prop_units="false"
       vertical_pattern="false"
       fuse_tolerance="0" />
    <inkscape:path-effect
       effect="skeletal"
       id="path-effect5839"
       is_visible="true"
       pattern="M 0,5 C 0,2.24 2.24,0 5,0 7.76,0 10,2.24 10,5 10,7.76 7.76,10 5,10 2.24,10 0,7.76 0,5 Z"
       copytype="single_stretched"
       prop_scale="1"
       scale_y_rel="false"
       spacing="0"
       normal_offset="0"
       tang_offset="0"
       prop_units="false"
       vertical_pattern="false"
       fuse_tolerance="0" />
    <inkscape:path-effect
       effect="skeletal"
       id="path-effect5835"
       is_visible="true"
       pattern="m -8.5714286,13.571429 c 0,-2.76 2.24,-5.0000004 5,-5.0000004 2.76000003,0 5,2.2400004 5,5.0000004 0,2.76 -2.23999997,5 -5,5 -2.76,0 -5,-2.24 -5,-5 z"
       copytype="single_stretched"
       prop_scale="1"
       scale_y_rel="false"
       spacing="0"
       normal_offset="0"
       tang_offset="0"
       prop_units="false"
       vertical_pattern="false"
       fuse_tolerance="0" />
    <inkscape:path-effect
       effect="skeletal"
       id="path-effect5831"
       is_visible="true"
       pattern="M 0,5 C 0,2.24 2.24,0 5,0 7.76,0 10,2.24 10,5 10,7.76 7.76,10 5,10 2.24,10 0,7.76 0,5 Z"
       copytype="single_stretched"
       prop_scale="1"
       scale_y_rel="false"
       spacing="0"
       normal_offset="0"
       tang_offset="0"
       prop_units="false"
       vertical_pattern="false"
       fuse_tolerance="0" />
    <inkscape:path-effect
       effect="skeletal"
       id="path-effect5809"
       is_visible="true"
       pattern="M 0,5 C 0,2.24 2.24,0 5,0 7.76,0 10,2.24 10,5 10,7.76 7.76,10 5,10 2.24,10 0,7.76 0,5 Z"
       copytype="single_stretched"
       prop_scale="1"
       scale_y_rel="false"
       spacing="0"
       normal_offset="0"
       tang_offset="0"
       prop_units="false"
       vertical_pattern="false"
       fuse_tolerance="0" />
    <inkscape:path-effect
       effect="skeletal"
       id="path-effect5805"
       is_visible="true"
       pattern="m 94.285714,-472.14286 c 0,-2.76 2.24,-5 5,-5 2.759996,0 4.999996,2.24 4.999996,5 0,2.76 -2.24,5 -4.999996,5 -2.76,0 -5,-2.24 -5,-5 z"
       copytype="single_stretched"
       prop_scale="1"
       scale_y_rel="false"
       spacing="0"
       normal_offset="0"
       tang_offset="0"
       prop_units="false"
       vertical_pattern="false"
       fuse_tolerance="0" />
    <inkscape:path-effect
       effect="skeletal"
       id="path-effect5801"
       is_visible="true"
       pattern="M 0,5 C 0,2.24 2.24,0 5,0 7.76,0 10,2.24 10,5 10,7.76 7.76,10 5,10 2.24,10 0,7.76 0,5 Z"
       copytype="single_stretched"
       prop_scale="1"
       scale_y_rel="false"
       spacing="0"
       normal_offset="0"
       tang_offset="0"
       prop_units="false"
       vertical_pattern="false"
       fuse_tolerance="0" />
    <inkscape:path-effect
       effect="skeletal"
       id="path-effect5774"
       is_visible="true"
       pattern="M 0,5 C 0,2.24 2.24,0 5,0 7.76,0 10,2.24 10,5 10,7.76 7.76,10 5,10 2.24,10 0,7.76 0,5 Z"
       copytype="single_stretched"
       prop_scale="1"
       scale_y_rel="false"
       spacing="0"
       normal_offset="0"
       tang_offset="0"
       prop_units="false"
       vertical_pattern="false"
       fuse_tolerance="0" />
    <inkscape:path-effect
       effect="skeletal"
       id="path-effect5717"
       is_visible="true"
       pattern="M 0,5 C 0,2.24 2.24,0 5,0 7.76,0 10,2.24 10,5 10,7.76 7.76,10 5,10 2.24,10 0,7.76 0,5 Z"
       copytype="single_stretched"
       prop_scale="1"
       scale_y_rel="false"
       spacing="0"
       normal_offset="0"
       tang_offset="0"
       prop_units="false"
       vertical_pattern="false"
       fuse_tolerance="0" />
    <inkscape:path-effect
       effect="skeletal"
       id="path-effect5665"
       is_visible="true"
       pattern="M 0,5 C 0,2.24 2.24,0 5,0 7.76,0 10,2.24 10,5 10,7.76 7.76,10 5,10 2.24,10 0,7.76 0,5 Z"
       copytype="single_stretched"
       prop_scale="1"
       scale_y_rel="false"
       spacing="0"
       normal_offset="0"
       tang_offset="0"
       prop_units="false"
       vertical_pattern="false"
       fuse_tolerance="0" />
    <inkscape:path-effect
       effect="skeletal"
       id="path-effect5661"
       is_visible="true"
       pattern="M 0,5 C 0,2.24 2.24,0 5,0 7.76,0 10,2.24 10,5 10,7.76 7.76,10 5,10 2.24,10 0,7.76 0,5 Z"
       copytype="single_stretched"
       prop_scale="1"
       scale_y_rel="false"
       spacing="0"
       normal_offset="0"
       tang_offset="0"
       prop_units="false"
       vertical_pattern="false"
       fuse_tolerance="0" />
    <inkscape:path-effect
       effect="skeletal"
       id="path-effect5657"
       is_visible="true"
       pattern="m -45.714286,116.42857 c 0,-2.76 2.24,-5 5,-5 2.76,0 5,2.24 5,5 0,2.76 -2.24,5 -5,5 -2.76,0 -5,-2.24 -5,-5 z"
       copytype="single_stretched"
       prop_scale="1"
       scale_y_rel="false"
       spacing="0"
       normal_offset="0"
       tang_offset="0"
       prop_units="false"
       vertical_pattern="false"
       fuse_tolerance="0" />
    <inkscape:path-effect
       effect="skeletal"
       id="path-effect5653"
       is_visible="true"
       pattern="M 0,5 C 0,2.24 2.24,0 5,0 7.76,0 10,2.24 10,5 10,7.76 7.76,10 5,10 2.24,10 0,7.76 0,5 Z"
       copytype="single_stretched"
       prop_scale="1"
       scale_y_rel="false"
       spacing="0"
       normal_offset="0"
       tang_offset="0"
       prop_units="false"
       vertical_pattern="false"
       fuse_tolerance="0" />
    <inkscape:path-effect
       effect="skeletal"
       id="path-effect5649"
       is_visible="true"
       pattern="M 0,5 C 0,2.24 2.24,0 5,0 7.76,0 10,2.24 10,5 10,7.76 7.76,10 5,10 2.24,10 0,7.76 0,5 Z"
       copytype="single_stretched"
       prop_scale="1"
       scale_y_rel="false"
       spacing="0"
       normal_offset="0"
       tang_offset="0"
       prop_units="false"
       vertical_pattern="false"
       fuse_tolerance="0" />
    <linearGradient
       id="linearGradient5627"
       osb:paint="solid">
      <stop
         style="stop-color:#000000;stop-opacity:1;"
         offset="0"
         id="stop5629" />
    </linearGradient>
    <inkscape:path-effect
       effect="skeletal"
       id="path-effect5809-4"
       is_visible="true"
       pattern="m 181.26009,-1.9905154 c 0,-2.76 2.24,-5 5,-5 2.76,0 5,2.24 5,5 0,2.75999997 -2.24,5 -5,5 -2.76,0 -5,-2.24000003 -5,-5 z"
       copytype="single_stretched"
       prop_scale="1"
       scale_y_rel="false"
       spacing="0"
       normal_offset="0"
       tang_offset="0"
       prop_units="false"
       vertical_pattern="false"
       fuse_tolerance="0" />
  </defs>
  <sodipodi:namedview
     id="base"
     pagecolor="#ffffff"
     bordercolor="#666666"
     borderopacity="1.0"
     inkscape:pageopacity="0.0"
     inkscape:pageshadow="2"
     inkscape:zoom="0.35"
     inkscape:cx="-112.14286"
     inkscape:cy="520"
     inkscape:document-units="px"
     inkscape:current-layer="layer1"
     showgrid="false"
     inkscape:window-width="1920"
     inkscape:window-height="1017"
     inkscape:window-x="-8"
     inkscape:window-y="-8"
     inkscape:window-maximized="1" />
  <metadata
     id="metadata7">
    <rdf:RDF>
      <cc:Work
         rdf:about="">
        <dc:format>image/svg+xml</dc:format>
        <dc:type
           rdf:resource="http://purl.org/dc/dcmitype/StillImage" />
        <dc:title></dc:title>
      </cc:Work>
    </rdf:RDF>
  </metadata>
  <g
     inkscape:label="Ebene 1"
     inkscape:groupmode="layer"
     id="layer1">
    <path
       style="fill:#b3b3b3;fill-rule:evenodd;stroke:none;stroke-width:1px;stroke-linecap:butt;stroke-linejoin:miter;stroke-opacity:1;fill-opacity:1"
       d="m 459.97015,529.45446 c -1.10739,-2.32938 59.10266,-31.53105 146.13471,-71.004 1.15198,22.83383 3.35295,65.25444 4.69011,92.07584 -2e-5,-4.2e-4 0.0264,0.53045 0.0264,0.53003 -36.59217,26.88409 -88.3381,64.61589 -114.84116,84.00167 -23.9903,-63.54042 -37.87111,-104.94191 -36.01008,-105.60354 1.86798,-0.66411 17.10894,39.89167 37.41014,100.91163 23.09731,-18.21165 73.78327,-58.32512 105.41954,-83.17728 0,-4.1e-4 0.003,-0.48108 0.003,-0.48149 0.0975,-15.06632 0.5551,-72.12307 0.63454,-83.92564 -82.19394,40.9653 -142.35538,69.01176 -143.46733,66.67278 z"
       id="path5833"
       inkscape:path-effect="#path-effect5835"
       inkscape:original-d="m 459.97015,529.45446 144.80102,-68.83839 2.03944,88.5065 -110.13034,83.58948 z"
       inkscape:connector-curvature="0" />
    <path
       style="fill:#ffffff;fill-opacity:1;stroke:#000000;stroke-width:18.6;stroke-miterlimit:4;stroke-dasharray:none;stroke-opacity:1"
       id="path5709"
       sodipodi:type="arc"
       sodipodi:cx="332.85715"
       sodipodi:cy="369.50507"
       sodipodi:rx="50"
       sodipodi:ry="60"
       sodipodi:start="0"
       sodipodi:end="6.2678613"
       sodipodi:open="true"
       d="m 382.85715,369.50507 a 50,60 0 0 1 -49.80845,59.99956 50,60 0 0 1 -50.19009,-59.53985 50,60 0 0 1 49.4239,-60.45575 50,60 0 0 1 50.56877,59.07663" />
    <path
       style="fill:#ffffff;fill-opacity:1;stroke:#000000;stroke-width:10.19999981;stroke-miterlimit:4;stroke-dasharray:none;stroke-opacity:1"
       id="path5711"
       sodipodi:type="arc"
       sodipodi:cx="455.71429"
       sodipodi:cy="359.50507"
       sodipodi:rx="55.714287"
       sodipodi:ry="70"
       sodipodi:start="0"
       sodipodi:end="6.2678613"
       sodipodi:open="true"
       d="m 511.42858,359.50507 a 55.714287,70 0 0 1 -55.50084,69.99948 55.714287,70 0 0 1 -55.9261,-69.46315 55.714287,70 0 0 1 55.07234,-70.53171 55.714287,70 0 0 1 56.34806,68.92274" />
    <path
       style="fill:#000000;fill-rule:evenodd;stroke:#000000;stroke-width:6.776;stroke-linecap:butt;stroke-linejoin:miter;stroke-opacity:1;fill-opacity:1;stroke-miterlimit:4;stroke-dasharray:none"
       d="m 331.42655,592.36357 8.57547,231.42583"
       id="path3338"
       inkscape:connector-curvature="0" />
    <path
       style="fill:#b3b3b3;fill-rule:evenodd;stroke:#000000;stroke-width:1.7;stroke-linecap:butt;stroke-linejoin:miter;stroke-opacity:1;stroke-miterlimit:4;stroke-dasharray:none"
       d="m 277.14286,480.93363 -145.71429,351.42857 460,-5.71428 -137.14286,-348.57143 -125.71428,120 z"
       id="path3336"
       inkscape:connector-curvature="0" />
    <path
       style="fill:none;fill-rule:evenodd;stroke:#000000;stroke-width:2.5;stroke-linecap:butt;stroke-linejoin:miter;stroke-opacity:1;stroke-miterlimit:4;stroke-dasharray:none"
       d="m 337.14286,606.64792 28.57143,34.28571 105.71428,-97.14285"
       id="path4148"
       inkscape:connector-curvature="0" />
    <path
       style="fill:none;fill-rule:evenodd;stroke:#000000;stroke-width:2.5;stroke-linecap:butt;stroke-linejoin:miter;stroke-opacity:1;stroke-miterlimit:4;stroke-dasharray:none"
       d="m 322.85714,595.21935 -34.28571,51.42857 -40,-88.57143"
       id="path4150"
       inkscape:connector-curvature="0" />
    <path
       style="fill:none;fill-rule:evenodd;stroke:#000000;stroke-width:2;stroke-linecap:butt;stroke-linejoin:miter;stroke-opacity:1;stroke-miterlimit:4;stroke-dasharray:none"
       d="m 414.28571,652.3622 57.14286,2.85715"
       id="path4152"
       inkscape:connector-curvature="0" />
    <path
       style="fill:none;fill-rule:evenodd;stroke:#000000;stroke-width:2.5;stroke-linecap:butt;stroke-linejoin:miter;stroke-opacity:1;stroke-miterlimit:4;stroke-dasharray:none"
       d="m 448.57143,635.21935 0,60"
       id="path4154"
       inkscape:connector-curvature="0" />
    <path
       style="fill:none;fill-rule:evenodd;stroke:#000000;stroke-width:2.8;stroke-linecap:butt;stroke-linejoin:miter;stroke-opacity:1;stroke-miterlimit:4;stroke-dasharray:none"
       d="m 425.71429,638.07649 0,60"
       id="path4156"
       inkscape:connector-curvature="0" />
    <path
       style="fill:#000000;fill-opacity:1;stroke-width:2.79999995;stroke-miterlimit:4;stroke-dasharray:none"
       id="path4160"
       sodipodi:type="arc"
       sodipodi:cx="367.14285"
       sodipodi:cy="685.21936"
       sodipodi:rx="8.9609146"
       sodipodi:ry="11.350492"
       sodipodi:start="0"
       sodipodi:end="6.267868"
       d="m 376.10377,685.21936 a 8.9609146,11.350492 0 0 1 -8.9266,11.35041 8.9609146,11.350492 0 0 1 -8.99497,-11.26348 8.9609146,11.350492 0 0 1 8.85771,-11.43667 8.9609146,11.350492 0 0 1 9.06281,11.17589"
       sodipodi:open="true" />
    <path
       style="fill:#000000;fill-opacity:1;stroke-width:2.79999995;stroke-miterlimit:4;stroke-dasharray:none"
       id="path4160-7"
       sodipodi:type="arc"
       sodipodi:cx="371.42859"
       sodipodi:cy="783.79077"
       sodipodi:rx="8.9609146"
       sodipodi:ry="11.350492"
       sodipodi:start="0"
       sodipodi:end="6.267868"
       d="m 380.3895,783.79077 a 8.9609146,11.350492 0 0 1 -8.9266,11.35041 8.9609146,11.350492 0 0 1 -8.99496,-11.26348 8.9609146,11.350492 0 0 1 8.85771,-11.43667 8.9609146,11.350492 0 0 1 9.0628,11.17589"
       sodipodi:open="true" />
    <path
       style="fill:#000000;fill-opacity:1;stroke-width:2.79999995;stroke-miterlimit:4;stroke-dasharray:none"
       id="path4160-3"
       sodipodi:type="arc"
       sodipodi:cx="368.57144"
       sodipodi:cy="735.2193"
       sodipodi:rx="8.9609146"
       sodipodi:ry="11.350492"
       sodipodi:start="0"
       sodipodi:end="6.267868"
       d="m 377.53236,735.2193 a 8.9609146,11.350492 0 0 1 -8.9266,11.35041 8.9609146,11.350492 0 0 1 -8.99497,-11.26348 8.9609146,11.350492 0 0 1 8.85771,-11.43667 8.9609146,11.350492 0 0 1 9.06281,11.17589"
       sodipodi:open="true" />
    <path
       style="fill:#000000;fill-rule:evenodd;stroke:none;stroke-width:1px;stroke-linecap:butt;stroke-linejoin:miter;stroke-opacity:1"
       d="m 360,278.07649 c 0.43224,0.39156 -5.70966,7.60327 -16.78526,21.25108 -10.08962,12.43284 -28.10741,34.89089 -44.67535,60.79395 -10.58566,16.56685 -22.8148,37.6228 -30.29311,60.78378 -4.25412,13.2561 -7.38362,28.26416 -5.65585,43.03834 0.61116,5.35764 1.85977,10.72305 3.89276,15.81661 1.77735,4.46613 4.1649,8.76044 7.10994,12.70804 5.31162,7.15961 12.50962,13.13441 20.73405,17.89178 7.30549,4.21466 15.35944,7.4179 23.8759,9.85353 6.37206,1.816 12.95763,3.17981 19.6904,4.06869 1.97784,0.2606 3.95656,0.47953 5.9314,0.63649 0,0 4e-5,0 4e-5,0 0.53352,0.0424 1.05961,0.08 1.57789,0.10964 0.13475,0.008 0.26507,0.0147 0.39093,0.0206 0.10587,1.47758 0.20946,2.95525 0.31077,4.43295 l 0,3e-5 c -0.005,-0.045 0.0595,0.57587 0.0548,0.53089 -0.003,0.002 0.0159,1.13389 0.0159,1.13391 -0.003,0.93179 -0.006,1.86378 -0.009,2.79597 10e-6,0 -0.57582,0.0873 -0.5758,0.0873 -0.73699,0.11171 -1.47472,0.2235 -2.21344,0.33542 -2.70699,0.41013 -5.42468,0.82156 -8.15469,1.23457 -8.90145,1.34667 -17.92668,2.70902 -27.06479,4.08522 -20.58971,3.10083 -42.19692,6.34368 -63.90129,9.56271 -5.86756,0.87029 -11.87434,1.77227 -17.85151,2.6222 0,0 -4e-5,10e-6 -4e-5,10e-6 -0.43852,0.0628 -0.92718,0.13478 -1.46699,0.20144 -0.21972,-1.59331 -0.5305,-3.17873 -0.93253,-4.75836 l -1e-5,-2e-5 c -0.0164,-0.0972 -0.0331,-0.19362 -0.0496,-0.29245 0,0 -1.3e-4,-7.4e-4 -1.3e-4,-7.4e-4 -0.0188,-0.51648 -0.0445,-1.02633 -0.072,-1.53675 -0.0491,-1.00999 -0.10461,-2.01816 -0.16676,-3.0252 1.89101,-0.31878 3.73942,-0.59212 5.55557,-0.87207 0,0 5e-5,-10e-6 5e-5,-10e-6 37.16979,-5.73417 73.39949,-11.12327 112.84908,-17.01788 11.75533,-1.76555 23.56522,-3.96513 35.23919,-6.79429 16.1914,-3.92395 31.79572,-8.98025 46.58246,-15.59531 19.1325,-8.57124 36.64325,-19.68606 50.5589,-34.03649 l 0,0 c 11.58681,-11.91236 20.53012,-26.01356 26.15619,-41.05547 l 0,0 c 5.33716,-14.21079 7.81088,-29.29924 8.21688,-44.10908 l 0,0 c 0.39474,-14.53255 -1.18978,-28.94953 -3.95518,-42.78267 l 0,0 c -2.531,-12.64053 -6.08098,-24.88162 -10.29119,-36.58173 l 0,0 c -3.16993,-8.80395 -6.7017,-17.29373 -10.60103,-25.44526 l 0,0 c -1.14022,-2.38335 -2.30376,-4.72317 -3.51205,-7.01679 l 0,0 c 0,0 -1e-5,-3e-5 -1e-5,-3e-5 -0.3219,-0.61126 -0.64373,-1.21351 -0.96878,-1.80589 0.334,-1.23915 0.66739,-2.47666 1.0002,-3.71262 l 4e-5,-9e-5 c 6.93444,-2.54054 13.76291,-5.01986 20.48923,-7.43844 l 0,0 c 5.56916,-1.28796 11.02093,-2.56488 16.4302,-3.86535 4.90446,-1.17941 9.65613,-2.3368 14.36915,-3.58921 1.64537,-0.43782 3.23926,-0.86921 4.78535,-1.3432 0.5191,-0.15989 0.99834,-0.31033 1.43367,-0.46817 l 0,0 c 0.33039,-0.1378 0.46335,-0.16353 0.36898,-0.1309 0.12304,0.75144 -0.0936,1.90726 -0.67514,3.44439 l 0,0 c 0.30129,0.31806 0.57324,0.61277 0.80582,0.88519 0.19992,0.23415 0.36845,0.45432 0.51273,0.66463 0.55287,0.8059 0.77999,1.42961 0.71258,1.83 -4e-5,1e-4 -2e-5,1e-4 -2e-5,1e-4 0.18297,0.0148 0.22648,0.0245 0.13302,0.0143 l 0,0 c 0,0 -2e-5,0 -2e-5,0 -0.27698,-0.009 -0.66328,0.0278 -1.15545,0.067 l 0,0 c -0.76414,0.0674 -1.55272,0.16108 -2.36326,0.26289 l 0,0 c -7.07614,0.89139 -14.30762,2.17146 -21.17708,3.34695 l 0,0 c -14.82829,2.53972 -29.85377,5.27731 -43.16728,7.70936 l 0,0 c -87.85386,16.05128 -79.39131,14.34953 -130.02302,24.34875 l 0,0 c -15.10656,2.98738 -6.52172,1.23844 -16.59272,3.36364 l 0,0 c -0.001,2.8e-4 -2.8288,0.57845 -2.17796,0.45274 l -1e-5,0 c -0.19226,-0.002 -0.24218,-0.001 -0.32665,0.0166 l 0,0 0,0 c -0.0334,-0.003 -0.0516,0.001 -0.0623,0.006 0,0 0,0 0,0 -0.004,0.002 -0.007,0.004 -0.008,0.006 -0.002,0.004 -0.002,0.004 -0.002,0.004 0,0 -4e-5,6e-5 -4.7e-4,-8.4e-4 0.002,-0.004 0.005,-0.0144 0.005,-0.0151 0,0 0,0 0,0 0.003,-0.009 0.011,-0.0346 0.0156,-0.0614 l 0,0 0,0 c 0.0666,-0.0995 0.0991,-0.11756 0.23269,-0.2801 l 0,0 c 0.40899,-0.30769 0.97971,-0.58472 2.05292,-1.01676 l 0,0 c 3.54186,-1.42944 7.7005,-2.65723 16.30005,-4.923 l 0,0 c 29.98933,-7.90555 62.0454,-14.77153 129.34425,-28.36253 13.34685,-2.69565 28.20296,-5.66157 43.11993,-8.45002 l 0,0 c 6.83009,-1.2782 14.13871,-2.67872 21.45857,-3.70718 l 0,0 c 0.84803,-0.11937 1.72707,-0.23504 2.63609,-0.32898 l 0,0 c 0.51853,-0.0583 1.14843,-0.1139 1.88963,-0.12315 0,0 5e-5,-1e-5 5e-5,-1e-5 0.18651,-0.0102 0.51087,0.005 0.97113,0.0594 0,0 6e-5,1e-5 6e-5,1e-5 0.0756,0.42122 0.45887,1.0615 1.12011,1.96309 0.17246,0.23516 0.36206,0.49103 0.56113,0.76278 0.2317,0.31629 0.47974,0.65121 0.75399,1.00372 -0.68412,1.6671 -1.04997,2.90698 -1.07063,3.7406 -0.68918,0.37302 -1.20608,0.58326 -1.51975,0.68333 -0.62696,0.23453 -1.22544,0.43371 -1.79008,0.61388 -1.69965,0.54448 -3.38234,1.02532 -5.04802,1.49058 -4.8003,1.34233 -9.60162,2.57702 -14.50666,3.81979 -5.42769,1.3754 -10.89506,2.72444 -16.4684,4.08051 l 0,0 c -5.84677,0.51907 -11.76117,1.01709 -17.74754,1.49549 0.57411,-0.80756 1.14885,-1.61638 1.72429,-2.42654 0.36509,0.6491 0.72033,1.29699 1.06895,1.94253 0,0 2e-5,4e-5 2e-5,4e-5 1.29424,2.39702 2.53209,4.8228 3.7343,7.27335 l 0,0 c 4.11273,8.38244 7.84079,17.10744 11.18569,26.14786 4.4502,12.02104 8.22331,24.65529 10.95512,37.7726 l 0,0 c 2.99424,14.3563 4.74286,29.44602 4.43166,44.82579 -0.31404,15.69948 -2.8949,31.82812 -8.57477,47.24638 l 0,0 c -6.04504,16.34617 -15.6377,31.62042 -28.13303,44.54006 l 0,0 c -14.99814,15.46368 -33.51399,27.35003 -53.54688,36.29188 -15.4392,6.90071 -31.61639,12.16773 -48.29081,16.22088 -12.02314,2.92253 -24.12828,5.17113 -36.12891,6.9437 -40.96136,6.08076 -74.20031,10.92943 -112.86071,16.73144 0,0 -5e-5,0 -5e-5,0 -1.85827,0.2792 -3.66234,0.53766 -5.42421,0.82762 -0.18885,-0.98592 -0.37107,-1.97282 -0.54652,-2.96 -0.086,-0.4999 -0.17054,-1.00091 -0.25261,-1.49892 -0.006,0.003 -0.006,0.002 -0.006,0.002 -0.004,-0.0965 -0.008,-0.19547 -0.0119,-0.29365 l 0,-10e-6 c -0.32793,-1.58539 -0.56492,-3.18023 -0.71084,-4.78244 0.37945,-0.0442 0.8077,-0.10632 1.28532,-0.17176 0,0 4e-5,0 4e-5,0 5.92854,-0.81683 11.9275,-1.68959 17.80869,-2.53266 19.90785,-2.85387 45.13853,-6.48657 63.94511,-9.1857 9.14923,-1.3131 18.17893,-2.60776 27.09263,-3.88435 2.73197,-0.39127 5.4548,-0.78109 8.16379,-1.16882 0.73929,-0.10581 1.47832,-0.21158 2.21588,-0.31713 2e-5,-10e-6 0.57639,-0.0825 0.5764,-0.0825 0.0952,0.91773 0.19047,1.83527 0.28569,2.75261 0,-2e-5 0.0936,1.12063 0.0936,1.12061 0.003,0.002 0.001,0.52208 0.001,0.52601 l 0,1e-5 c 0.0269,1.47425 0.056,2.94821 0.0875,4.42196 -0.16528,-0.009 -0.32596,-0.0191 -0.48204,-0.0294 -0.60056,-0.0396 -1.1917,-0.0866 -1.77323,-0.13799 0,0 -5e-5,0 -5e-5,0 -2.15355,-0.19012 -4.28204,-0.4433 -6.38175,-0.73919 -7.14842,-1.00562 -14.13969,-2.52078 -20.90655,-4.5182 -9.05396,-2.66398 -17.71797,-6.23197 -25.68562,-10.92145 -9.01927,-5.2956 -16.97326,-12.11947 -22.99652,-20.36018 -3.3168,-4.56015 -5.97895,-9.49574 -7.94515,-14.62459 -2.23685,-5.85034 -3.56693,-11.89736 -4.15628,-17.86861 -1.57636,-16.40741 1.92707,-32.32839 6.66199,-46.03429 8.23182,-23.95975 21.0999,-45.14151 32.24222,-61.63252 17.58928,-26.05878 36.08911,-47.51307 47.06706,-59.66718 C 352.79961,284.32649 359.67436,277.7815 360,278.07649 Z"
       id="path5655"
       inkscape:path-effect="#path-effect5657"
       inkscape:original-d="m 360,278.07649 c -220,242.85714 -14.28572,251.42857 -14.28572,251.42857 0,0 -271.428566,40 -2.85714,0 268.57143,-40 140,-262.85714 140,-262.85714 0,0 137.14286,-31.42857 -11.42857,-2.85715 -148.57143,28.57143 -148.57143,31.42858 -148.57143,31.42858"
       inkscape:connector-curvature="0" />
    <path
       style="fill:#000000;fill-rule:evenodd;stroke:#000000;stroke-width:1px;stroke-linecap:butt;stroke-linejoin:miter;stroke-opacity:1"
       d="m 265.71429,400.93363 c -1.2385,0.70002 -43.74788,-73.27628 -111.56061,-197.341 0,0 -3e-5,-4e-5 -3e-5,-4e-5 29.88749,38.41306 62.7507,80.64824 99.89695,128.38586 -26.47791,-56.49232 -54.93147,-117.20398 -85.68677,-182.82989 31.42446,44.3374 63.1086,89.03978 97.04872,136.92491 -20.34396,-55.60601 -40.87643,-111.73094 -62.36843,-170.47933 -3.91962,-10.71426 -7.84908,-21.455465 -11.73482,-32.077164 28.59227,56.065084 55.79238,109.401624 82.71869,162.209594 -2.88206,-39.0794 -5.66475,-76.79954 -8.39908,-113.83884 12.93616,44.66162 25.27457,87.26766 37.14879,128.28223 0,0 1e-5,-7e-5 1e-5,-7e-5 4.13875,-55.41157 7.93197,-106.22559 11.49127,-153.94677 12.65975,74.03556 22.87406,135.83968 30.90075,186.68679 -49.81772,69.39846 -78.68018,108.57456 -79.45544,108.02372 -0.77499,-0.55065 26.68607,-40.64583 74.83026,-109.11914 -7.57825,-50.58498 -16.28326,-111.75639 -26.24211,-184.74177 -3.52504,47.91741 -7.27658,98.95772 -11.36586,154.62452 0,0 0,6e-5 0,6e-5 -11.86961,-41.17564 -24.20401,-83.9755 -37.13691,-128.86063 2.84277,37.32211 5.74049,75.34086 8.74376,114.7326 -27.01085,-53.20646 -54.30311,-106.97561 -82.99559,-163.504694 3.90548,10.654315 7.85515,21.429214 11.79457,32.176154 21.60131,58.92949 42.23573,115.22182 62.67362,170.98164 -34.00446,-48.03663 -65.75252,-92.88559 -97.237,-137.3608 30.78598,65.66214 59.25839,126.39257 85.74179,182.88438 -37.22565,-47.88338 -70.15742,-90.24174 -100.10305,-128.75698 0,0 2e-5,4e-5 2e-5,4e-5 71.09338,121.693 112.53533,196.24441 111.2965,196.94462 z"
       id="path5659"
       inkscape:path-effect="#path-effect5661"
       inkscape:original-d="m 265.71429,400.93363 -111.42858,-197.14285 100,128.57142 -85.71428,-182.85714 97.14286,137.14286 -74.28572,-202.857144 82.85714,162.857144 -8.57142,-114.28572 37.14285,128.57143 11.42857,-154.28571 28.57143,185.71428 z"
       inkscape:connector-curvature="0" />
    <path
       style="fill:#808080;fill-rule:evenodd;stroke:#000000;stroke-width:1px;stroke-linecap:butt;stroke-linejoin:miter;stroke-opacity:1"
       d="m 468.57143,263.79078 c -1.23858,-0.90512 39.55411,-57.73397 108.75043,-148.87908 0,0 2e-5,-3e-5 2e-5,-3e-5 -16.1193,35.83843 -31.71877,70.5216 -51.34645,114.16113 31.84485,-40.68099 65.87859,-84.15375 102.81689,-131.333861 0,0 3e-5,-4e-5 3e-5,-4e-5 -32.67546,60.684521 -59.25074,110.050571 -94.98073,176.412351 -0.55736,1.03518 -1.11438,2.06974 -1.67107,3.10369 26.23656,-19.44891 51.9359,-38.49856 77.17085,-57.2026 -17.33809,35.38136 -33.96174,69.28212 -50.24412,102.43556 35.60396,-2.66852 69.3411,-5.20673 102.05207,-7.6862 -57.42087,42.1872 -107.17954,78.68731 -150.37826,110.29636 0.27557,-39.7125 0.78925,-73.14798 1.48542,-100.64482 -28.43047,-38.05391 -44.31907,-60.15656 -43.65508,-60.66246 0.66433,-0.50616 17.78226,20.71368 47.77347,59.33751 -0.86507,27.147 -2.2499,60.15946 -4.22885,99.35521 42.49232,-31.01132 91.02383,-66.33865 146.76459,-106.84652 -33.20672,3.01368 -67.48323,6.1433 -103.66219,9.4567 16.99427,-33.39989 34.41222,-67.58236 52.61301,-103.27876 -25.22182,18.67135 -50.90247,37.68095 -77.11487,57.08312 0.56222,-1.03933 1.12477,-2.07927 1.68767,-3.11985 36.05937,-66.6598 62.97245,-116.40431 95.94625,-177.364109 0,0 -3e-5,4e-5 -3e-5,4e-5 -36.98041,47.271579 -71.04165,90.809059 -102.89733,131.523199 19.68093,-43.71297 35.34521,-78.50475 51.51069,-114.41029 0,0 -2e-5,3e-5 -2e-5,3e-5 -65.42587,93.07337 -107.15316,149.16931 -108.39239,148.26372 z"
       id="path5663"
       inkscape:path-effect="#path-effect5665"
       inkscape:original-d="M 468.57143,263.79078 577.14286,115.21935 525.71429,229.50506 628.57143,98.07649 l -97.14286,180 77.14286,-57.14286 L 557.14286,323.79078 660,315.21935 511.42857,423.79078 l 2.85714,-100 z"
       inkscape:connector-curvature="0" />
    <path
       style="fill:#808080;fill-opacity:1;stroke:#000000;stroke-width:0.2857143;stroke-miterlimit:4;stroke-dasharray:none;stroke-opacity:1"
       d="m 517.5672,371.43954 c 0.22759,-37.36934 -0.57564,-47.588 -4.19456,-53.36305 -2.46183,-3.92857 -8.56524,-16.47252 -13.56312,-27.87545 l -9.08706,-20.73258 7.56734,-1.569 c 4.16204,-0.86295 14.9602,-3.28258 23.99591,-5.37695 9.03572,-2.09437 16.42858,-3.2448 16.42858,-2.55652 0,0.68828 -1.96159,5.04471 -4.35909,9.68096 -2.3975,4.63625 -3.56155,8.42954 -2.58679,8.42954 0.97477,0 16.64948,-10.92974 34.83269,-24.2883 18.18321,-13.35857 33.54493,-23.80377 34.13714,-23.21156 0.59221,0.59221 -9.5852,21.68134 -22.61646,46.86473 -13.03127,25.18339 -23.02125,46.47912 -22.19998,47.32383 0.82128,0.84472 21.27842,-0.35277 45.46032,-2.66108 24.18189,-2.30831 45.22508,-3.7776 46.76264,-3.26508 1.53755,0.51252 -23.41959,20.04575 -55.46032,43.40717 -32.04073,23.36143 -62.11301,45.38642 -66.8273,48.94443 l -8.57143,6.46911 0.28149,-46.2202 z"
       id="path5667"
       inkscape:connector-curvature="0" />
    <path
       style="fill:#808080;fill-opacity:1;stroke:#000000;stroke-width:0.2857143;stroke-miterlimit:4;stroke-dasharray:none;stroke-opacity:1"
       d="m 257.44683,380.5388 c -4.53071,-8.4257 -23.5471,-42.12135 -42.25866,-74.87922 -18.71156,-32.75787 -33.54424,-60.03654 -32.96151,-60.61927 0.58272,-0.58273 17.03304,19.56967 36.55626,44.78311 19.52322,25.21343 35.8717,44.71777 36.32997,43.34298 C 255.57115,331.7916 241.12035,299.28686 223,260.93363 204.87965,222.58041 190.4625,189.9747 190.9619,188.4765 c 0.4994,-1.4982 17.51066,20.75375 37.80279,49.44877 20.29214,28.69502 37.27444,51.03383 37.73845,49.64179 0.46402,-1.39204 -11.38437,-35.80598 -26.32974,-76.47544 -14.94537,-40.66945 -27.10469,-75.3425 -27.02071,-77.05122 0.084,-1.70872 13.65948,23.7106 30.16776,56.48738 16.50829,32.77677 30.73983,58.86938 31.62564,57.98357 0.88581,-0.88581 0.0904,-20.44757 -1.76752,-43.47057 -1.85794,-23.02301 -2.84527,-42.39283 -2.19406,-43.04404 0.65121,-0.6512 7.30511,20.3789 14.78645,46.73358 7.48135,26.35468 14.55416,49.67595 15.71737,51.82505 2.7605,5.10019 4.66449,-11.18138 9.0527,-77.41205 1.94976,-29.42753 3.92927,-53.12033 4.39892,-52.65069 0.46965,0.46965 5.43539,33.54672 11.03497,73.5046 5.59959,39.95788 10.86448,75.41771 11.69977,78.79963 1.25949,5.09945 -0.10706,6.53205 -8.00656,8.39353 -9.37051,2.20812 -9.40367,2.27069 -2.04062,3.85106 7.38393,1.58485 7.07634,2.18488 -22.85715,44.58833 -16.68798,23.64003 -32.30921,45.96236 -34.71384,49.60517 -4.36953,6.61949 -4.37679,6.61449 -12.60969,-8.69615 z"
       id="path5679"
       inkscape:connector-curvature="0" />
    <path
       style="fill:#241c1c;fill-opacity:1;stroke:#000000;stroke-width:0.2857143;stroke-miterlimit:4;stroke-dasharray:none;stroke-opacity:1"
       d="m 479.09053,256.14613 c 2.18085,-5.24322 80.47838,-112.45311 81.43102,-111.50047 0.54819,0.54819 -7.38055,19.44816 -17.61941,41.99994 -10.23887,22.55178 -18.23799,42.13762 -17.77584,43.52408 0.46215,1.38646 17.99535,-19.48048 38.96266,-46.37098 20.96731,-26.89051 38.76094,-48.25326 39.54141,-47.4728 2.55203,2.55204 -58.65835,111.77304 -62.1657,110.92562 -3.33823,-0.80654 -47.51133,6.66806 -58.08842,9.82924 -2.93592,0.87746 -4.86449,0.45688 -4.28572,-0.93463 z"
       id="path5681"
       inkscape:connector-curvature="0" />
    <path
       style="fill:#241c1c;fill-opacity:1;stroke:#000000;stroke-width:0.2857143;stroke-miterlimit:4;stroke-dasharray:none;stroke-opacity:1"
       d="m 262.26791,390.4029 c -1.97407,-0.76224 -2.86248,-2.5618 -1.97424,-3.99901 0.88825,-1.43721 0.2534,-2.61311 -1.41076,-2.61311 -1.66417,0 -2.70434,-1.03386 -2.31148,-2.29747 1.0219,-3.28691 -10.12,-23.41682 -12.9612,-23.41682 -1.30682,0 -1.58143,-1.28571 -0.61023,-2.85714 0.9712,-1.57143 0.40422,-2.85715 -1.25995,-2.85715 -1.66417,0 -3.02576,-1.45593 -3.02576,-3.23541 0,-5.53184 -37.6272,-71.0503 -40.80413,-71.0503 -1.65297,0 -2.19349,-0.81191 -1.20116,-1.80424 0.99233,-0.99233 0.45959,-4.31673 -1.18387,-7.38756 -6.98486,-13.05133 0.69785,-6.32549 18.649,16.32629 10.58896,13.36175 20.51822,24.29408 22.06502,24.29408 1.54681,0 2.1078,1.14004 1.24664,2.53341 -0.86115,1.39337 0.40318,4.16746 2.80962,6.16463 3.31405,2.75042 5.17761,2.82894 7.68282,0.32373 2.50522,-2.50521 2.43494,-3.30748 -0.28971,-3.30748 -1.97845,0 -2.80257,-1.28572 -1.83138,-2.85715 0.9712,-1.57142 0.67783,-2.85714 -0.65194,-2.85714 -1.32976,0 -2.61857,-2.25 -2.86402,-5 -0.24546,-2.75 -10.82006,-27.37758 -23.49912,-54.72795 -12.67906,-27.35037 -22.49321,-50.28756 -21.80924,-50.97154 0.68398,-0.68397 7.87384,7.87217 15.97748,19.01367 8.10363,11.14148 15.99232,20.25725 17.53041,20.25725 1.53809,0 2.0827,1.155 1.21025,2.56666 -0.87246,1.41167 2.09678,6.5094 6.59831,11.32831 4.50153,4.8189 7.52689,9.41935 6.72301,10.22322 -0.80387,0.80388 0.65101,2.27227 3.23307,3.2631 2.58206,0.99082 4.69465,3.3684 4.69465,5.2835 0,1.91509 3.38878,6.59896 7.53062,10.4086 6.87101,6.3199 7.2552,6.39643 4.38624,0.8737 -1.72941,-3.32909 -2.33247,-6.86481 -1.34015,-7.85714 0.99234,-0.99233 0.34459,-1.80424 -1.43942,-1.80424 -1.85154,0 -2.46064,-2.04051 -1.41922,-4.75441 1.33325,-3.47441 0.79378,-4.11744 -2.00378,-2.38844 -2.7825,1.71968 -3.33945,1.09224 -2.0389,-2.29695 0.98413,-2.5646 0.5388,-5.43578 -0.98964,-6.3804 -1.52843,-0.94463 -2.03925,-2.91437 -1.13516,-4.37722 0.90408,-1.46284 0.32255,-2.65972 -1.2923,-2.65972 -1.61485,0 -2.19603,-1.92857 -1.29151,-4.28571 0.90452,-2.35715 0.26166,-4.28572 -1.42857,-4.28572 -1.69024,0 -2.33309,-1.92857 -1.42857,-4.28571 0.90452,-2.35714 0.14543,-4.28572 -1.68686,-4.28572 -1.8323,0 -2.63564,-1.12584 -1.7852,-2.50187 0.85043,-1.37603 -4.21655,-18.17189 -11.25995,-37.32412 -7.04341,-19.15223 -12.7859,-36.34782 -12.76109,-38.21241 0.0248,-1.86459 10.42741,16.5384 23.11689,40.89555 29.10799,55.87204 30.2955,57.19344 30.35371,33.77622 0.0316,-12.71331 -0.60947,-15.94675 -2.16489,-10.91908 -1.77748,5.74547 -2.21654,4.62755 -2.24429,-5.71429 -0.0383,-14.28139 4.19413,-45.15949 4.79743,-35 0.20997,3.53572 1.62712,6.42858 3.14922,6.42858 1.52212,0 1.94648,2.13948 0.94304,4.75441 -1.29719,3.38043 -0.76997,4.10272 1.82434,2.49935 2.70366,-1.67096 3.14958,-0.68227 1.72157,3.81701 -1.1922,3.75628 -0.69067,6.07208 1.31501,6.07208 2.00568,0 2.50721,2.3158 1.31501,6.07209 -1.38383,4.36005 -0.94902,5.46753 1.54213,3.92791 2.51993,-1.5574 2.91087,-0.38459 1.42858,4.28572 -1.5117,4.76291 -1.11266,5.85628 1.53916,4.21736 2.68981,-1.66239 3.09265,-0.27103 1.62015,5.59588 -1.38727,5.52735 -1.00226,7.21663 1.31798,5.78264 2.29146,-1.4162 2.66368,-0.091 1.23699,4.40412 -1.5202,4.78974 -1.11908,5.86025 1.57254,4.19673 2.64896,-1.63714 3.16756,-0.52859 1.94314,4.1536 -1.21484,4.64554 -0.60893,5.97952 2.22248,4.893 2.14096,-0.82156 4.56002,0.0412 5.37568,1.91717 0.81567,1.87601 0.92182,-6.87479 0.2359,-19.44622 -0.8715,-15.97264 -0.45321,-20.70573 1.38876,-15.71428 2.10625,5.70764 2.70275,3.41129 2.96867,-11.42857 0.32237,-17.98986 1.70572,-48.39317 2.59999,-57.14286 0.70828,-6.92979 6.43869,4.76425 7.49526,15.29556 0.88086,8.77979 2.36912,20.23015 5.25569,40.43615 l 2.85714,20 c 0.78571,5.5 2.03044,14.17465 2.76607,19.277 0.73562,5.10235 1.97097,13.777 2.74524,19.277 0.77426,5.5 1.69371,11.28572 2.04322,12.85715 1.67026,7.50953 -0.44926,15.71428 -4.05944,15.71428 -2.55257,0 -3.49617,1.99636 -2.58696,5.47319 0.89493,3.4222 -2.95265,11.92881 -10.26748,22.70037 -6.43432,9.47496 -11.69876,17.87435 -11.69876,18.66532 0,0.79098 -3.21428,4.90641 -7.14285,9.14541 -3.92857,4.239 -7.14286,9.31054 -7.14286,11.27009 0,1.95956 -2.11259,4.37351 -4.69465,5.36434 -2.58206,0.99082 -4.02018,2.47598 -3.19582,3.30033 0.82435,0.82436 -0.89408,4.32981 -3.81875,7.78989 -2.92467,3.46008 -7.59369,9.0549 -10.37561,12.43293 -2.78191,3.37803 -6.67318,5.51822 -8.64726,4.75597 z m -8.89328,-61.87501 c -1.75021,-2.10887 -2.22906,-4.88643 -1.06413,-6.17236 1.16494,-1.28592 0.4485,-1.37459 -1.59209,-0.19703 -2.85851,1.64955 -2.94217,3.0664 -0.36445,6.17236 1.84015,2.21724 3.98858,4.03134 4.77429,4.03134 0.78572,0 -0.003,-1.72544 -1.75362,-3.83431 z m 48.72061,-73.92759 c -2.05018,-2.05018 -3.38095,-2.21887 -3.38095,-0.42857 0,1.62381 0.85714,3.80952 1.90476,4.85714 1.04762,1.04762 2.56904,1.24048 3.38095,0.42857 0.81191,-0.8119 -0.0452,-2.99762 -1.90476,-4.85714 z"
       id="path5683"
       inkscape:connector-curvature="0" />
    <path
       style="fill:#ff00ff;fill-opacity:1;stroke:#000000;stroke-width:0.2857143;stroke-miterlimit:4;stroke-dasharray:none;stroke-opacity:1"
       d="m 518.53865,407.42807 c -0.0966,-4.35765 -0.10623,-22.88072 -0.0214,-41.16236 0.12334,-26.57785 -0.72746,-33.97111 -4.2453,-36.89065 -2.6241,-2.17782 -3.25814,-4.35673 -1.57115,-5.39935 2.92016,-1.80476 -15.39537,-45.79662 -20.44787,-49.11351 -4.01681,-2.63697 0.14015,-4.42895 22.07457,-9.51588 13.4432,-3.11769 20.59464,-3.63344 22.59833,-1.62974 2.00369,2.00369 1.9518,2.93134 -0.164,2.93134 -1.70243,0 -3.76778,2.57143 -4.58965,5.71428 -2.0012,7.65261 -0.95714,7.33898 14.26726,-4.28571 7.20313,-5.5 14.27331,-10 15.7115,-10 1.4382,0 1.82029,-1.28571 0.84909,-2.85714 -0.9712,-1.57143 0.59496,-2.85715 3.48035,-2.85715 2.88538,0 9.38984,-3.78466 14.45433,-8.41036 5.0645,-4.62571 9.20818,-7.68256 9.20818,-6.79302 0,0.88955 1.92857,0.0168 4.28571,-1.93947 2.35714,-1.95626 4.28572,-2.91727 4.28572,-2.1356 0,0.78168 -9.64286,21.62893 -21.42858,46.32722 -11.78571,24.69829 -21.42857,45.58788 -21.42857,46.42131 0,0.83343 1.81411,0.01 4.03135,-1.8304 2.65591,-2.20421 4.64334,-2.3555 5.82507,-0.44343 1.84343,2.98273 16.53803,1.26171 24.70588,-2.89353 2.61943,-1.33258 5.84607,-1.03721 7.57687,0.6936 1.96644,1.96644 7.33399,2.16748 15.43771,0.57822 6.83272,-1.34 16.69883,-2.02517 21.9247,-1.52261 l 9.50159,0.91375 -13.07302,10.18509 c -7.19015,5.6018 -13.073,11.37469 -13.073,12.82864 0,1.45395 -1.06527,1.98518 -2.36727,1.1805 -1.30199,-0.80468 -6.5242,2.33373 -11.60491,6.97424 -5.0807,4.6405 -10.12258,8.45782 -11.20416,8.48292 -1.08159,0.0251 -6.46652,3.86851 -11.96652,8.54091 -5.5,4.67241 -11.55288,9.79473 -13.45084,11.38294 -1.89796,1.58821 -4.46939,2.90819 -5.71429,2.93329 -1.24489,0.0251 -6.76344,3.86851 -12.26344,8.54092 -12.70381,10.79223 -14.06969,11.83123 -23.57143,17.93032 l -7.85714,5.04343 -0.17564,-7.92301 z"
       id="path5685"
       inkscape:connector-curvature="0" />
    <path
       style="fill:#ff00ff;fill-opacity:1;stroke:#000000;stroke-width:0.2857143;stroke-miterlimit:4;stroke-dasharray:none;stroke-opacity:1"
       d="m 491.68533,240.21935 c 31.7592,-44.73157 59.56983,-81.98294 60.50646,-81.0463 0.58569,0.58568 -4.65887,13.97434 -11.65456,29.75257 -15.00646,33.8459 -17.33534,40.57944 -14.03489,40.57944 1.35236,0 17.03477,-18.04709 34.84979,-40.10464 17.81503,-22.05755 32.87414,-39.62146 33.4647,-39.03091 1.30546,1.30546 -21.86654,44.24362 -39.62427,73.42452 l -12.9399,21.26387 -26.76919,4.87252 c -14.72305,2.67989 -28.49693,4.96622 -30.60863,5.08073 -2.26627,0.12289 0.52426,-5.93791 6.81049,-14.7918 z"
       id="path5687"
       inkscape:connector-curvature="0" />
    <path
       style="fill:#88aa00;fill-opacity:1;stroke:#000000;stroke-width:0.2857143;stroke-miterlimit:4;stroke-dasharray:none;stroke-opacity:1"
       d="m 254.12052,373.0534 c -26.90303,-49.7053 -38.05435,-69.60512 -48.04331,-85.73453 -6.09717,-9.84527 -10.44725,-18.539 -9.66684,-19.31942 0.78041,-0.78041 11.48103,10.81052 23.77916,25.75763 12.29812,14.9471 23.21153,27.17655 24.25202,27.17655 6.76563,0 4.18676,-7.25217 -28.34572,-79.71269 -8.04256,-17.9134 -14.22334,-32.96932 -13.73507,-33.45759 0.48827,-0.48827 7.26042,7.45016 15.04922,17.64096 36.95902,48.35686 47.58528,61.6293 48.56091,60.65367 0.58094,-0.58094 -7.28072,-25.32182 -17.47036,-54.97973 -10.18965,-29.6579 -18.16719,-54.93493 -17.72786,-56.17116 0.43932,-1.23624 9.19154,13.34017 19.44938,32.39201 10.25784,19.05184 20.3562,35.20824 22.4408,35.9031 3.07504,1.02501 3.40002,-4.46074 1.72237,-29.07402 -1.31424,-19.28174 -1.04913,-30.3374 0.7275,-30.3374 1.53741,0 7.01526,14.78571 12.17299,32.85714 7.0742,24.78624 10.53205,32.85714 14.07713,32.85714 3.93394,0 5.2648,-5.93385 8.17031,-36.42857 1.90899,-20.03571 3.55699,-43.5 3.66224,-52.14286 0.32675,-26.83329 4.60697,-8.82303 14.22154,59.84126 8.15452,58.23701 8.56086,64.4329 4.42402,67.45783 -2.50538,1.83198 -4.55524,5.99773 -4.55524,9.25723 0,8.66107 -56.48942,92.06003 -62.30984,91.99203 -1.08673,-0.0126 -5.97164,-7.40556 -10.85535,-16.42858 z m -0.28426,-46.37335 c -0.81726,-3.12518 -2.56931,-5.01257 -3.89345,-4.19421 -2.81221,1.73804 -0.26155,9.87636 3.09539,9.87636 1.25619,0 1.61531,-2.55696 0.79806,-5.68215 z m 50.59231,-68.43494 c 0,-1.47869 -1.28571,-3.48314 -2.85714,-4.45433 -1.57143,-0.9712 -2.85714,0.23864 -2.85714,2.68852 0,2.44988 1.28571,4.45433 2.85714,4.45433 1.57143,0 2.85714,-1.20983 2.85714,-2.68852 z"
       id="path5689"
       inkscape:connector-curvature="0" />
    <path
       style="fill:#88aa00;fill-opacity:1;stroke:#000000;stroke-width:0.2857143;stroke-miterlimit:4;stroke-dasharray:none;stroke-opacity:1"
       d="m 517.93868,371.87864 c -1.15973,-44.19827 -3.50352,-56.29792 -15.97902,-82.49066 l -8.09508,-16.9959 10.282,-2.89714 c 5.65509,-1.59342 15.42485,-3.6931 21.71056,-4.66596 9.43047,-1.45958 10.80417,-1.10553 7.85715,2.02505 -4.10054,4.35595 -4.76443,11.22246 -1.08505,11.22246 2.37677,0 32.95076,-21.10162 49.79808,-34.36975 4.39931,-3.46468 8.77961,-5.51855 9.734,-4.56416 0.95439,0.95438 -6.82362,19.81064 -17.28446,41.90278 -10.46085,22.09215 -19.01972,41.3438 -19.01972,42.78145 0,1.43765 7.39286,2.09171 16.42857,1.45348 9.03572,-0.63824 28.47488,-1.81058 43.19813,-2.60521 l 26.76955,-1.44477 -12.28324,10.56595 c -6.75579,5.81127 -15.5878,12.75616 -19.6267,15.4331 -4.0389,2.67694 -12.17109,8.46265 -18.07154,12.85714 -5.90045,4.3945 -16.18617,11.81984 -22.85714,16.50078 -6.67098,4.68093 -17.27191,12.53713 -23.55763,17.45821 -6.28571,4.92108 -14.89706,11.15933 -19.13633,13.86279 l -7.70777,4.91537 -1.07436,-40.94501 z"
       id="path5691"
       inkscape:connector-curvature="0" />
    <path
       style="fill:#c87137;fill-opacity:1;stroke:#000000;stroke-width:0.2857143;stroke-miterlimit:4;stroke-dasharray:none;stroke-opacity:1"
       d="m 487.28571,250.99718 c 0,-2.92425 55.13472,-78.73835 56.36595,-77.50713 0.56988,0.56988 -3.52218,12.0479 -9.09347,25.50671 -17.06456,41.2236 -13.20039,41.04066 21.64009,-1.0245 14.36439,-17.34305 26.70589,-30.94398 27.42557,-30.22431 1.35842,1.35843 -4.74146,12.62408 -28.2894,52.24666 -13.36923,22.49553 -14.36781,23.45054 -27.39048,26.19525 -22.84527,4.81495 -40.65826,6.92111 -40.65826,4.80732 z"
       id="path5693"
       inkscape:connector-curvature="0" />
    <path
       style="fill:#c87137;fill-opacity:1;stroke:#000000;stroke-width:0.2857143;stroke-miterlimit:4;stroke-dasharray:none;stroke-opacity:1"
       d="m 520.45421,405.00045 c -0.95696,-2.49379 -1.73992,-17.75353 -1.73992,-33.91053 0,-36.05609 -3.13009,-53.41043 -14.09952,-78.17291 l -8.47264,-19.12623 10.57179,-3.35186 c 16.58843,-5.25946 23.42894,-4.69792 23.42894,1.92328 0,8.97911 5.32954,6.9002 32.75639,-12.77732 14.08744,-10.10711 26.04001,-17.95008 26.56127,-17.42882 0.52125,0.52125 -6.82627,18.27338 -16.32782,39.44917 -9.50156,21.17579 -17.27556,40.11778 -17.27556,42.09331 0,2.80415 8.92897,3.18038 40.71429,1.71552 l 40.71428,-1.87636 -10,8.37918 c -5.5,4.60854 -25.42857,19.60457 -44.28571,33.3245 -18.85714,13.71994 -40.25275,29.29862 -47.54579,34.61929 -11.07009,8.07625 -13.54743,8.92511 -15,5.13978 z"
       id="path5695"
       inkscape:connector-curvature="0" />
    <path
       style="fill:#ff2a2a;fill-opacity:1;stroke:#000000;stroke-width:0.2857143;stroke-miterlimit:4;stroke-dasharray:none;stroke-opacity:1"
       d="m 257.87311,376.14368 c -3.79078,-6.00838 -9.67741,-16.38662 -13.08139,-23.06276 -3.40398,-6.67614 -13.23537,-24.34354 -21.84753,-39.26091 -8.61216,-14.91736 -15.65786,-28.09793 -15.6571,-29.29014 0.002,-2.8079 39.4563,39.44083 41.28664,44.2106 0.76438,1.99195 2.71585,3.62173 4.3366,3.62173 4.57233,0 3.47117,-8.54955 -1.3389,-10.39535 -2.35714,-0.90452 -4.28572,-3.90162 -4.28572,-6.66022 0,-5.12536 -8.21286,-25.86292 -27.00916,-68.1984 -5.81797,-13.10398 -10.03401,-24.36952 -9.36899,-25.03454 0.95973,-0.95973 42.94737,50.58656 51.2228,62.88387 1.09313,1.6244 2.77805,2.1629 3.74427,1.19668 0.96623,-0.96622 -4.85797,-21.92774 -12.94266,-46.58115 -8.08468,-24.65341 -14.17684,-45.34696 -13.53814,-45.98567 0.63871,-0.63871 4.13232,4.28861 7.76357,10.9496 11.80811,21.66022 23.52425,39.25376 26.14045,39.25376 1.40761,0 2.68898,-12.53572 2.84748,-27.85715 l 0.28818,-27.85714 9.90757,30.88608 c 7.74083,24.13143 10.9334,30.68853 14.59822,29.98275 6.02267,-1.15986 8.41783,-12.7996 10.90846,-53.01169 1.09497,-17.67857 2.85126,-32.14285 3.90287,-32.14285 1.94974,0 8.79652,42.58298 14.7005,91.42857 l 3.28076,27.14285 -11.65488,22.24825 c -12.05066,23.00373 -45.26741,72.46181 -52.94681,78.83515 -3.69581,3.06724 -5.42107,1.94815 -11.25709,-7.30192 z m 46.55546,-119.49576 c 0,-2.35714 -1.28571,-4.28572 -2.85714,-4.28572 -1.57143,0 -2.85714,1.92858 -2.85714,4.28572 0,2.35714 1.28571,4.28571 2.85714,4.28571 1.57143,0 2.85714,-1.92857 2.85714,-4.28571 z"
       id="path5697"
       inkscape:connector-curvature="0" />
    <path
       style="fill:#ff2a2a;fill-opacity:1;stroke:#000000;stroke-width:0.2857143;stroke-miterlimit:4;stroke-dasharray:none;stroke-opacity:1"
       d="m 521.48392,397.64278 c -0.0481,-5.26146 -1.22182,-25.16647 -2.6082,-44.23336 -2.08659,-28.69683 -4.03518,-38.27166 -11.31481,-55.59768 -4.98457,-11.86365 -7.71766,-22.00707 -6.30918,-23.41555 1.36671,-1.36671 7.76006,-3.19248 14.20745,-4.05725 9.17327,-1.2304 12.11096,-0.56004 13.50877,3.08262 2.75984,7.192 6.57981,5.85255 32.16997,-11.28019 13.09075,-8.76432 24.17035,-15.51432 24.62136,-15 0.451,0.51431 -6.01786,16.36369 -14.37524,35.22083 -8.35738,18.85715 -15.26986,36.4984 -15.36107,39.20279 -0.14751,4.37371 4.01754,5.00517 37.69132,5.71429 l 37.85714,0.79721 -45.84768,33.77145 c -25.21623,18.5743 -49.96623,36.37913 -55,39.56629 l -9.15232,5.79484 -0.0875,-9.56629 z"
       id="path5699"
       inkscape:connector-curvature="0" />
    <path
       style="fill:#ff2a2a;fill-opacity:1;stroke:#000000;stroke-width:0.2857143;stroke-miterlimit:4;stroke-dasharray:none;stroke-opacity:1"
       d=""
       id="path5701"
       inkscape:connector-curvature="0" />
    <path
       style="fill:#ff2a2a;fill-opacity:1;stroke:#000000;stroke-width:0.2857143;stroke-miterlimit:4;stroke-dasharray:none;stroke-opacity:1"
       d="m 491.59365,246.35094 c 5.95315,-10.30688 45.00841,-62.76763 45.99437,-61.78167 0.61423,0.61423 -2.09537,9.02195 -6.02133,18.6838 -14.09555,34.68935 -8.69613,34.31773 22.8571,-1.57319 12.56879,-14.29665 23.21565,-25.63062 23.65968,-25.18659 0.44402,0.44403 -7.55942,14.98848 -17.78545,32.32101 -20.55396,34.83779 -22.1174,35.994 -53.46751,39.54086 -14.57874,1.6494 -17.15167,1.31096 -15.23686,-2.00422 z"
       id="path5703"
       inkscape:connector-curvature="0" />
    <path
       sodipodi:type="spiral"
       style="fill:none;fill-rule:evenodd;stroke:#000000;stroke-width:6.4;stroke-linecap:butt;stroke-linejoin:miter;stroke-miterlimit:4;stroke-dasharray:none;stroke-opacity:1"
       id="path5705"
       sodipodi:cx="334.28571"
       sodipodi:cy="360.93365"
       sodipodi:expansion="1"
       sodipodi:revolution="3"
       sodipodi:radius="50.869984"
       sodipodi:argument="-16.612791"
       sodipodi:t0="0"
       d="m 334.28571,360.93365 c -1.57578,2.00554 -3.48086,-1.13465 -3.33334,-2.61904 0.39978,-4.02261 5.34293,-5.25474 8.57143,-4.04763 5.77502,2.15924 7.28822,9.38432 4.76191,14.52381 -3.70746,7.54241 -13.47758,9.37384 -20.47619,5.47621 -9.32803,-5.19493 -11.48116,-17.58889 -6.19049,-26.42857 6.65777,-11.12384 21.70868,-13.59964 32.38095,-6.90479 12.92554,8.10836 15.72453,25.83325 7.61907,38.33333 -9.552,14.73091 -29.96078,17.85346 -44.28571,8.33337 -16.53869,-10.99133 -19.98508,-34.09031 -9.04765,-50.23809 12.4278,-18.34814 38.22121,-22.11859 56.19047,-9.76195 20.15879,13.86229 24.25346,42.35315 10.47623,62.14285 -15.29533,21.97033 -46.48584,26.38936 -68.09523,11.19053" />
    <path
       sodipodi:type="spiral"
       style="fill:none;fill-rule:evenodd;stroke:#000000;stroke-width:10.19999981;stroke-linecap:butt;stroke-linejoin:miter;stroke-miterlimit:4;stroke-dasharray:none;stroke-opacity:1"
       id="path5707"
       sodipodi:cx="-456.35846"
       sodipodi:cy="-365.86755"
       sodipodi:expansion="1"
       sodipodi:revolution="3"
       sodipodi:radius="64.206299"
       sodipodi:argument="-16.715443"
       sodipodi:t0="0"
       d="m -456.35846,-365.86755 c -1.71903,2.72179 -4.51704,-0.97439 -4.52381,-2.85715 -0.0183,-5.10217 6.02854,-7.28846 10.2381,-6.19047 7.52993,1.96405 10.36425,10.83958 7.85713,17.61905 -3.67929,9.94916 -15.70901,13.51218 -25,9.5238 -12.38343,-5.3159 -16.68972,-20.59828 -11.19046,-32.38096 6.92026,-14.8273 25.49678,-19.88233 39.76192,-12.85712 17.27698,8.50848 23.08363,30.40043 14.52377,47.14287 -10.08749,19.73038 -35.30729,26.29039 -54.52382,16.19044 -22.18624,-11.6608 -29.50078,-40.2163 -17.8571,-61.90478 13.23029,-24.64383 45.1268,-32.71371 69.28573,-19.52376 27.10266,14.79713 35.92849,50.03841 21.19042,76.66668 -16.36205,29.56243 -54.95084,39.14466 -84.04763,22.85709"
       transform="scale(-1,-1)" />
    <path
       style="fill:#333333;fill-opacity:1;stroke:#000000;stroke-width:18.45152473;stroke-miterlimit:4;stroke-dasharray:none;stroke-opacity:1"
       d="m 514.60887,355.81182 c -2.21505,-1.86609 -4.06499,-3.59542 -4.11095,-3.843 -0.046,-0.24758 1.67972,-11.63002 3.83487,-25.29428 4.25926,-27.00503 4.55647,-27.54888 10.90222,-19.95 2.21336,2.65054 2.14115,3.57611 -2.1543,27.61127 l -4.44446,24.86891 -4.02738,-3.3929 z"
       id="path5719"
       inkscape:connector-curvature="0" />
    <path
       style="fill:#333333;fill-opacity:1;stroke:#000000;stroke-width:14.5714283;stroke-miterlimit:4;stroke-dasharray:none;stroke-opacity:1"
       d="m 483.69842,413.09613 c -0.36731,-2.94643 -0.59836,-5.44247 -0.51344,-5.54676 0.0849,-0.1043 6.05866,-0.46098 13.27498,-0.79263 14.26181,-0.65546 14.66301,-0.42423 14.71706,8.48224 0.0188,3.10653 -0.43024,3.21429 -13.39563,3.21429 l -13.41514,0 -0.66783,-5.35714 z"
       id="path5719-0"
       inkscape:connector-curvature="0" />
    <path
       style="fill:#333333;fill-opacity:1;stroke:#000000;stroke-width:14.5714283;stroke-miterlimit:4;stroke-dasharray:none;stroke-opacity:1"
       d="m 483.69842,413.09613 c -0.36731,-2.94643 -0.59836,-5.44247 -0.51344,-5.54676 0.0849,-0.1043 6.05866,-0.46098 13.27498,-0.79263 14.26181,-0.65546 14.66301,-0.42423 14.71706,8.48224 0.0188,3.10653 -0.43024,3.21429 -13.39563,3.21429 l -13.41514,0 -0.66783,-5.35714 z"
       id="path5719-03"
       inkscape:connector-curvature="0" />
    <path
       style="fill:#333333;fill-opacity:1;stroke:#000000;stroke-width:14.5714283;stroke-miterlimit:4;stroke-dasharray:none;stroke-opacity:1"
       d="m 375.12699,367.38184 c -0.36731,-2.94643 -0.59836,-5.44247 -0.51344,-5.54676 0.0849,-0.1043 6.05866,-0.46098 13.27498,-0.79263 14.26181,-0.65546 14.66301,-0.42423 14.71706,8.48224 0.0188,3.10653 -0.43024,3.21429 -13.39563,3.21429 l -13.41514,0 -0.66783,-5.35714 z"
       id="path5719-5"
       inkscape:connector-curvature="0" />
    <path
       style="fill:#333333;fill-opacity:1;stroke:#000000;stroke-width:16.37275314;stroke-miterlimit:4;stroke-dasharray:none;stroke-opacity:1"
       d="m 289.71817,355.63262 c -2.49985,1.25177 -4.62982,2.19911 -4.73328,2.1052 -0.10349,-0.0939 -1.32665,-8.43691 -2.71819,-18.54001 -2.75015,-19.96704 -2.61093,-20.59087 5.10716,-22.8838 2.69204,-0.7997 2.85421,-0.1927 4.83745,18.10759 l 2.05202,18.93511 -4.54516,2.27591 z"
       id="path5719-54"
       inkscape:connector-curvature="0" />
    <path
       style="fill:#000000;fill-opacity:1;stroke:#000000;stroke-width:29.1428566;stroke-miterlimit:4;stroke-dasharray:none;stroke-opacity:1"
       d=""
       id="path5776"
       inkscape:connector-curvature="0" />
    <path
       style="fill:#000000;fill-opacity:1;stroke:#000000;stroke-width:23.57435036;stroke-miterlimit:4;stroke-dasharray:none;stroke-opacity:1"
       d="m 364.72967,340.87038 c -13.30193,-5.01654 -24.46809,-9.34676 -24.8137,-9.62272 -1.15455,-0.92189 13.10032,-34.18127 14.36255,-33.51062 0.68393,0.36338 7.72618,9.80452 15.64943,20.9803 7.92326,11.17578 16.31144,22.8913 18.64039,26.03449 5.28212,7.12885 5.41291,7.15015 -23.83867,-3.88145 z"
       id="path5778"
       inkscape:connector-curvature="0" />
    <path
       style="fill:#000000;fill-opacity:1;stroke:#000000;stroke-width:23.57435036;stroke-miterlimit:4;stroke-dasharray:none;stroke-opacity:1"
       d="m 417.11739,312.91342 c 7.25019,-12.22874 13.45362,-22.47332 13.78539,-22.76576 1.10837,-0.97691 31.38711,18.83681 30.50749,19.96341 -0.47658,0.61044 -10.99721,5.90628 -23.37906,11.7685 -12.38186,5.86221 -25.37598,12.08859 -28.87584,13.83634 -7.93777,3.96395 -7.98146,4.08906 7.96202,-22.80249 z"
       id="path5778-1"
       inkscape:connector-curvature="0" />
    <path
       style="fill:#000000;fill-rule:evenodd;stroke:none;stroke-width:1px;stroke-linecap:butt;stroke-linejoin:miter;stroke-opacity:1"
       d="m 432.08542,437.2796 c 0.0431,0.015 0.0844,0.0344 0.12406,0.0584 0.0377,0.0266 0.0732,0.059 0.10657,0.0972 0.0665,0.0762 0.12424,0.17517 0.17336,0.29653 0,0 0,0 0,0 l 0,0 c 0.0976,0.24169 0.16023,0.57111 0.18842,0.98425 l 0,0 c 0.0557,0.81597 -0.0246,1.95212 -0.24328,3.37581 l 0,0 c -0.42267,2.75156 -1.36147,6.5644 -2.86297,11.14194 l 0,0 c -2.62896,8.0372 -7.17394,19.13693 -14.26915,30.00098 -1.00266,1.53987 -2.07201,3.09051 -3.21595,4.62832 -2.34216,3.14859 -4.86157,6.06088 -7.61801,8.69078 -3.84257,3.7414 -8.25434,6.71123 -13.21437,8.37041 -2.47027,0.80564 -5.00286,1.15173 -7.46358,1.05604 0,0 0,0 0,0 -2.80759,-0.12958 -5.33375,-0.85288 -7.46316,-1.87122 -2.9257,-1.41535 -5.13028,-3.28658 -6.70415,-4.98366 -4.38468,-4.71642 -5.10347,-8.43305 -4.46921,-8.90917 1.01083,-0.7588 3.38493,1.78298 8.06238,4.59392 1.63272,0.97575 3.63709,2.02463 5.72945,2.56206 1.4994,0.39248 3.1505,0.58623 4.77442,0.41883 0,0 0,0 0,0 1.44046,-0.12928 2.94756,-0.54791 4.48002,-1.20788 3.22895,-1.33985 6.18048,-3.80797 9.39884,-7.01253 2.2448,-2.2899 4.35758,-4.84782 6.45411,-7.67477 1.02196,-1.37799 2.01247,-2.78259 2.97316,-4.18455 6.57372,-9.6239 12.22146,-20.32669 16.06142,-27.28788 l 0,0 c 2.25781,-4.09842 4.148,-7.45469 5.63839,-9.7413 l 0,0 c 0.77137,-1.1835 1.44132,-2.08874 1.99842,-2.66955 l 0,0 c 0.28278,-0.29483 0.53822,-0.50744 0.76415,-0.63239 l 0,0 c 0,0 0,0 0,0 0.11381,-0.063 0.22048,-0.1039 0.31958,-0.1219 0.0497,-0.009 0.0976,-0.0123 0.14361,-0.01 0.0459,0.006 0.0904,0.0161 0.13347,0.0311 z"
       id="path5803"
       inkscape:path-effect="#path-effect5805"
       inkscape:original-d="m 432.08708,437.27478 c 0,0 -33.46654,97.52376 -66.93308,52.94142"
       inkscape:connector-curvature="0" />
    <path
       style="fill:#000000;fill-rule:evenodd;stroke:none;stroke-width:1px;stroke-linecap:butt;stroke-linejoin:miter;stroke-opacity:1"
       d="m 237.14286,829.50506 c 1.83801,1.05029 -11.2458,25.18624 -32.51287,58.9326 -0.0514,0.003 68.90646,-4.32411 74.15283,-4.64026 3.4524,-0.20804 6.87296,-0.41117 10.26743,-0.60906 14.45951,-31.0461 9.86825,-20.98828 23.12565,-49.48087 -44.13131,-0.14083 -75.11589,-1.96535 -75.03304,-4.20241 0.0823,-2.22219 31.5381,-1.76388 79.25266,1.51187 -4.90738,12.81367 -16.21385,42.49033 -22.58863,59.09057 -3.74569,0.0324 -7.52694,0.0616 -11.34664,0.0882 -21.6604,0.15054 -66.4143,0.29398 -81.37596,0.3768 19.89169,-38.3117 34.23359,-62.11025 36.05857,-61.0674 z"
       id="path5807"
       inkscape:path-effect="#path-effect5809"
       inkscape:original-d="m 237.14286,829.50506 -34.28572,60 88.57143,-2.85714 22.85714,-54.28572 z"
       inkscape:connector-curvature="0" />
    <path
       style="fill:#000000;fill-rule:evenodd;stroke:none;stroke-width:1px;stroke-linecap:butt;stroke-linejoin:miter;stroke-opacity:1"
       d="m 420,826.64792 c 1.86741,-0.51872 8.56253,19.53139 16.22785,48.75477 17.3899,-0.70715 36.09801,-1.15076 57.5369,-1.54536 1.29345,-0.0238 2.5827,-0.0472 3.86614,-0.0702 -8.41652,-16.14176 -15.7364,-30.36358 -22.44313,-44.05839 C 442.78573,829.8517 420,828.62187 420,826.64792 c 0,-1.97246 23.16365,-3.20527 59.09796,-3.08082 7.12229,15.69071 14.7505,33.23589 23.27115,53.08447 -1.47757,0.097 -2.96305,0.19429 -4.4545,0.29156 -24.71498,1.61199 -46.49582,2.92897 -65.57104,3.80716 C 422.83201,848.15761 418.13793,827.16516 420,826.64792 Z"
       id="path5829"
       inkscape:path-effect="#path-effect5831"
       inkscape:original-d="M 420,826.64792 434.28571,878.07649 500,875.21935 477.14286,826.64792 Z"
       inkscape:connector-curvature="0" />
    <path
       style="fill:#b3b3b3;fill-opacity:1;stroke:#000000;stroke-width:0;stroke-miterlimit:4;stroke-dasharray:none;stroke-opacity:1"
       d="m 493.56626,571.77748 c -9.81491,-25.27017 -17.49322,-46.2416 -17.06292,-46.60318 1.53334,-1.28843 122.65894,-58.52638 123.85216,-58.52638 0.66876,0 1.21593,17.99511 1.21593,39.98912 l 0,39.98913 -42.14286,33.30628 c -23.17857,18.31845 -43.46454,34.3153 -45.07993,35.54854 -1.85414,1.4155 -9.5169,-14.69861 -20.78238,-43.70351 z"
       id="path5843"
       inkscape:connector-curvature="0" />
    <path
       style="fill:#b3b3b3;fill-opacity:1;stroke:#000000;stroke-width:0;stroke-miterlimit:4;stroke-dasharray:none;stroke-opacity:1"
       d="m 235.11472,592.21241 c -8.72492,25.66703 -16.32301,46.66763 -16.88507,46.66793 -2.00279,0 -131.582266,-34.0098 -132.496346,-34.7768 -0.51229,-0.4299 10.63559,-14.56665 24.773076,-31.41503 l 25.70451,-30.63345 53.69213,1.57486 c 29.5307,0.8661 55.35325,1.65142 57.38343,1.74502 2.33028,0.10751 -2.15774,17.37708 -12.17173,46.83747 z"
       id="path5843-6"
       inkscape:connector-curvature="0" />
    <path
       style="fill:#b3b3b3;fill-opacity:1;stroke:#000000;stroke-width:0;stroke-miterlimit:4;stroke-dasharray:none;stroke-opacity:1"
       d="m 223.6843,859.46096 16.29884,-27.74443 14.36557,1.72658 c 7.90107,0.94961 23.5784,1.73774 34.83852,1.7514 l 20.47295,0.0248 -10.33759,22.75728 c -11.90067,26.19827 -8.41916,24.56777 -58.41557,27.35798 l -33.52155,1.87078 16.29883,-27.74443 z"
       id="path5860"
       inkscape:connector-curvature="0" />
    <path
       style="fill:#784421;fill-opacity:1;stroke:#000000;stroke-width:0;stroke-miterlimit:4;stroke-dasharray:none;stroke-opacity:1"
       d="m 432.00224,856.15291 c -2.87844,-10.72774 -5.8672,-21.11213 -6.64169,-23.07642 -1.57456,-3.99342 14.8846,-4.81874 36.63772,-1.83715 12.18118,1.66962 13.05455,2.46861 23.42338,21.42857 l 10.77042,19.69429 -21.2389,0 c -11.68138,0 -24.94655,0.74154 -29.47814,1.64786 -8.08198,1.61639 -8.33917,1.2755 -13.47279,-17.85715 z"
       id="path5862"
       inkscape:connector-curvature="0" />
    <path
       style="fill:#784421;fill-opacity:1;stroke:#000000;stroke-width:0;stroke-miterlimit:4;stroke-dasharray:none;stroke-opacity:1"
       d="m 247.28571,887.55518 c 35.20671,-1.60921 42.48974,-3.43608 47.02898,-11.79669 4.96545,-9.14561 5.83463,-3.95757 1.08384,6.46928 -3.28704,7.21427 -3.59015,7.27252 -35,6.72678 -18.6507,-0.32406 -24.04475,-0.8997 -13.11282,-1.39937 z"
       id="path5864"
       inkscape:connector-curvature="0" />
    <path
       style="fill:#ffb380;fill-opacity:1;stroke:#000000;stroke-width:0;stroke-miterlimit:4;stroke-dasharray:none;stroke-opacity:1"
       d="m 210.69435,884.20849 c 0.48239,-1.09319 7.23471,-12.90242 15.00514,-26.24273 l 14.12806,-24.25511 32.59648,0.57413 c 17.92807,0.31577 33.1354,1.11305 33.79408,1.77173 1.8858,1.8858 -14.74317,37.36765 -19.20698,40.98265 -2.20612,1.78662 -9.15399,4.07265 -15.4397,5.08008 -17.51772,2.80761 -61.86568,4.3296 -60.87708,2.08925 z"
       id="path5866"
       inkscape:connector-curvature="0" />
    <path
       style="fill:#ffb380;fill-opacity:1;stroke:#000000;stroke-width:0;stroke-miterlimit:4;stroke-dasharray:none;stroke-opacity:1"
       d="m 322.229,519.36107 c -24.64918,-6.63617 -30.64449,-10.99767 -37.7173,-27.43887 -5.75371,-13.37487 -6.85028,-14.46437 -10.09373,-10.02868 -3.3016,4.51521 -3.93298,4.1323 -6.81408,-4.13243 -4.98381,-14.29658 -3.74159,-37.83962 3.09548,-58.66678 5.37869,-16.38462 6.69972,-18.32547 9.28572,-13.64257 1.6582,3.00278 8.17986,10.79874 14.49259,17.32436 31.89282,32.96842 82.67567,16.13608 96.06813,-31.84247 l 3.19011,-11.42857 5.26465,12.22641 c 15.65971,36.36746 47.529,52.23703 78.72584,39.20216 11.47017,-4.79254 20.98788,-5.58802 20.98788,-1.75415 0,1.39236 -5.21148,10.3358 -11.58105,19.87432 -12.64334,18.93355 -28.96854,34.5168 -30.70447,29.30901 -0.5906,-1.77182 -7.21242,2.29765 -14.71516,9.04325 -14.87549,13.37434 -42.09393,24.34029 -79.61468,32.07568 -24.29399,5.00853 -20.77868,5.01917 -39.86993,-0.12065 z m 76.10082,-16.80005 c 14.42007,-7.45691 35.88702,-45.82891 34.13563,-61.01718 -0.7951,-6.89519 -2.27912,-5.382 -13.41191,13.67551 -16.29123,27.88793 -27.75954,40 -37.87397,40 -4.31328,0 -8.63694,-1.28572 -9.60814,-2.85715 -2.62894,-4.25372 -7.14286,-3.45332 -7.14286,1.26656 0,5.53833 11.118,13.01916 19.34905,13.01916 3.65695,0 10.20544,-1.8391 14.5522,-4.0869 z"
       id="path5868"
       inkscape:connector-curvature="0" />
    <path
       style="fill:#ffb380;fill-opacity:1;stroke:#000000;stroke-width:0;stroke-miterlimit:4;stroke-dasharray:none;stroke-opacity:1"
       d="m 378.0447,307.84517 c -8.58593,-11.77676 -12.23855,-18.97377 -10,-19.70367 5.80229,-1.89187 48.13001,-10.06501 52.12553,-10.06501 2.14865,0 -1.56916,8.02528 -8.86087,19.12712 -6.90951,10.51991 -13.29951,21.44849 -14.20001,24.28571 -0.90051,2.83723 -2.51492,5.10258 -3.5876,5.0341 -1.07268,-0.0685 -8.03735,-8.47368 -15.47705,-18.67825 z"
       id="path5870"
       inkscape:connector-curvature="0" />
    <path
       style="fill:#ffb380;fill-opacity:1;stroke:#000000;stroke-width:0;stroke-miterlimit:4;stroke-dasharray:none;stroke-opacity:1"
       d=""
       id="path5874"
       inkscape:connector-curvature="0" />
    <path
       style="fill:#ffb380;fill-opacity:1;stroke:#000000;stroke-width:0;stroke-miterlimit:4;stroke-dasharray:none;stroke-opacity:1"
       d="m 474.42857,286.64792 c -3.14286,-1.35053 -10.21428,-2.56524 -15.71428,-2.69935 -5.5,-0.13411 -14.9519,-1.96786 -21.00421,-4.075 l -11.00421,-3.83117 12.43278,-1.91669 c 6.83803,-1.05418 16.38238,-2.62522 21.20966,-3.49119 7.56854,-1.35772 9.85034,-0.16712 16.57398,8.64803 7.96931,10.44831 7.55162,11.682 -2.49372,7.36537 z"
       id="path5876"
       inkscape:connector-curvature="0" />
    <path
       style="fill:#28170b;fill-opacity:1;stroke:#000000;stroke-width:0;stroke-miterlimit:4;stroke-dasharray:none;stroke-opacity:1"
       d="m 315.39885,562.61404 c -12.86284,-29.48552 -12.92025,-29.7591 -6.50217,-30.98599 3.56138,-0.6808 13.54013,0.0427 22.175,1.60786 13.0305,2.36187 20.19322,1.79773 42.12902,-3.31807 14.5361,-3.39007 26.87833,-5.7147 27.42718,-5.16585 1.02009,1.02009 -69.00511,67.61021 -71.09791,67.61021 -0.63453,0 -6.99353,-13.38667 -14.13112,-29.74816 z"
       id="path5878"
       inkscape:connector-curvature="0" />
    <path
       style="fill:#28170b;fill-opacity:1;stroke:#000000;stroke-width:0;stroke-miterlimit:4;stroke-dasharray:none;stroke-opacity:1"
       d=""
       id="path5880"
       inkscape:connector-curvature="0" />
    <path
       style="fill:#280b0b;fill-opacity:1;stroke:#000000;stroke-width:0;stroke-miterlimit:4;stroke-dasharray:none;stroke-opacity:1"
       d="m 213.33533,882.00838 c 0.60128,-1.44514 6.64759,-12.56388 13.43623,-24.70829 l 12.34299,-22.08074 32.65701,0 c 25.39402,0 32.65701,0.85166 32.65701,3.82936 0,8.67521 -17.46701,38.4533 -23.6364,40.29577 -10.81814,3.23081 -68.64282,5.51434 -67.45684,2.6639 z"
       id="path5882"
       inkscape:connector-curvature="0" />
    <path
       style="fill:#280b0b;fill-opacity:1;stroke:#000000;stroke-width:0;stroke-miterlimit:4;stroke-dasharray:none;stroke-opacity:1"
       d="m 437.80424,870.21935 c -0.68601,-1.17857 -3.42427,-9.72505 -6.08503,-18.99217 -3.77388,-13.14398 -4.06155,-17.32904 -1.30814,-19.03074 4.18031,-2.58357 33.37126,-0.11984 40.22674,3.39515 4.27327,2.19103 22.36219,30.48297 22.36219,34.97555 0,2.56789 -53.69557,2.22956 -55.19576,-0.34779 z"
       id="path5884"
       inkscape:connector-curvature="0" />
    <path
       style="fill:#0000ff;fill-opacity:1;stroke:#000000;stroke-width:0;stroke-miterlimit:4;stroke-dasharray:none;stroke-opacity:1"
       d="m 317.83106,564.54269 c -5.8616,-13.77069 -10.63223,-26.65227 -10.6014,-28.62573 0.0426,-2.72821 5.70493,-3.1701 23.62748,-1.84391 17.00829,1.25854 29.0582,0.45198 43.27707,-2.89674 10.8381,-2.55251 20.22252,-4.12404 20.85427,-3.49229 1.18258,1.18258 -60.50884,59.79821 -64.35287,61.14439 -1.18091,0.41355 -6.94296,-10.51502 -12.80455,-24.28572 z"
       id="path5886"
       inkscape:connector-curvature="0" />
    <path
       style="fill:#000000;fill-rule:evenodd;stroke:#000000;stroke-width:5;stroke-linecap:butt;stroke-linejoin:miter;stroke-opacity:1;stroke-miterlimit:4;stroke-dasharray:none"
       d="M 622.77148 409.4668 C 621.48931 409.34943 607.76867 418.07869 584.06836 434.85938 C 594.56197 452.65944 608.29506 475.45053 624.92188 502.6875 C 624.99936 502.19637 625.07679 501.70507 625.16016 501.21484 C 625.01048 500.91919 624.84856 500.63084 624.71289 500.32617 C 624.54917 499.9585 624.49612 499.53209 624.52148 499.06641 C 610.00767 473.90668 597.55463 452.62289 587.36133 435.57812 C 609.27801 420.77092 622.10392 411.15335 622.82812 409.66992 C 623.12343 411.85885 639.22232 434.65548 667.24609 472.05273 C 670.3925 473.92756 672.59714 476.79044 673.26562 480.08203 C 673.36592 480.21522 673.45021 480.32937 673.55078 480.46289 C 675.52771 480.17361 677.54029 479.88375 679.58789 479.5957 C 683.13857 478.55533 686.83974 477.69484 690.6875 477.01367 C 695.75723 476.11487 701.06374 475.53796 706.5 475.44336 C 712.41969 475.34307 718.55799 475.80433 724.61133 477.12695 C 730.82865 478.4855 737.05233 480.76795 742.74414 484.16992 C 748.84646 487.79888 754.38924 492.76812 758.98438 498.74219 C 764.46213 505.83892 768.53281 514.28112 771.55469 523.49805 C 775.40246 535.26559 777.3535 547.90055 778.23242 561.25586 C 778.27693 561.94383 778.32249 562.66938 778.36719 563.36133 C 777.60592 563.88427 776.80638 564.43324 776.04102 564.95898 C 775.72207 564.84177 775.40289 564.72464 775.08398 564.60742 C 775.11464 564.92326 775.14503 565.23945 775.17578 565.55469 C 765.58875 572.1402 755.81497 578.85232 746.09375 585.5332 C 729.24581 597.11191 712.86937 608.37672 696.69727 619.53125 C 694.30846 618.02399 691.92646 616.52563 689.55078 615.0332 C 682.24863 611.17425 675.58724 606.296 669.80859 600.66406 C 661.50142 592.60677 655.07318 582.92425 650.89648 572.60938 C 644.93547 558.01234 643.46536 541.99079 644.44922 526.97656 C 644.5661 525.25074 644.6752 523.60927 644.78906 521.91602 C 644.19773 521.73955 643.35391 521.12326 642.26953 520.08008 C 640.66303 519.3936 638.72619 518.38031 636.30469 517.02539 C 636.24498 517.75994 636.18502 518.48725 636.125 519.23047 C 635.44019 518.03609 634.81954 516.96123 634.16016 515.81445 C 633.55583 515.47075 632.95905 515.13381 632.30078 514.75781 C 633.56876 516.82834 634.6979 518.68673 635.99805 520.80664 C 635.84777 522.66928 635.70198 524.43849 635.55078 526.31836 C 634.23508 542.34739 635.70257 559.72637 642.13086 576.11328 C 646.70488 587.6827 653.78008 598.52594 663.02539 607.60938 C 669.52845 613.971 677.01508 619.48514 685.24414 623.87305 C 689.33748 625.25981 693.45233 626.65141 697.58984 628.04883 C 713.21096 616.18065 729.00891 604.14845 745.26953 591.75195 C 755.34945 584.06739 765.57726 576.26764 775.48633 568.71484 C 775.50216 568.87543 775.51736 569.03677 775.5332 569.19727 C 775.65444 570.4253 775.78014 571.6391 775.90234 572.86328 C 776.00145 572.75615 776.09354 572.65357 776.19336 572.54688 C 776.14971 572.58628 776.15312 572.57093 776.2832 572.41992 C 781.0503 566.88606 783.60226 564.35786 787.6875 563.48047 C 787.61829 562.53692 787.55222 561.54384 787.48242 560.61133 C 786.46095 546.72753 784.19543 533.34831 779.91016 520.71289 C 776.54969 510.77977 771.86499 501.52923 765.58008 493.58398 C 760.25745 486.87531 753.83163 481.34494 746.75 477.29492 C 740.14192 473.53284 733.09014 471.09782 726.12891 469.74609 C 719.37052 468.43386 712.6644 468.07878 706.28516 468.35352 C 700.43147 468.60322 694.78093 469.3688 689.42969 470.47461 C 685.34155 471.31999 681.4051 472.36108 677.62891 473.59375 C 676.76272 474.30441 675.89234 475.00394 675.01953 475.69141 C 643.73859 433.79595 623.83283 408.7743 622.85742 409.50586 C 622.84203 409.48363 622.81284 409.47058 622.77148 409.4668 z M 626.98633 504.2207 C 626.78187 504.53315 626.58311 504.84105 626.41211 505.125 C 627.35306 506.66538 628.31129 508.23281 629.27148 509.80273 C 629.66628 509.70939 630.07921 509.60214 630.51367 509.47656 C 629.97254 508.53707 629.4153 507.56765 628.86719 506.61523 C 628.19721 505.84468 627.57429 505.04377 626.98633 504.2207 z M 781.27344 570.625 C 781.2226 570.61572 780.93847 570.68387 780.63867 570.75586 C 780.3758 570.96519 780.19176 571.10376 779.94727 571.29688 C 780.36717 571.10445 780.78845 570.91524 781.19336 570.69727 C 781.27797 570.65172 781.29967 570.62979 781.27344 570.625 z "
       id="path5896" />
    <path
       style="fill:#00ff00;fill-rule:evenodd;stroke:none;stroke-width:1px;stroke-linecap:butt;stroke-linejoin:miter;stroke-opacity:1"
       d="M 716.69531 485.7832 C 719.33799 497.48754 721.87594 508.73957 724.99805 522.58398 C 716.62093 514.90932 708.32846 507.29946 699.17969 498.9043 C 698.54248 508.05063 697.89918 517.38633 697.24023 527.00391 C 697.02604 530.12995 696.81422 533.24138 696.60352 536.32617 C 688.07878 525.91062 681.74558 518.17911 673.80664 508.47656 C 676.77438 523.85602 679.50999 537.95162 682.0918 551.12305 C 672.55091 543.42251 664.07382 536.64788 656.54102 530.70898 C 649.70686 556.71787 647.20011 572.0673 648.57227 572.36133 C 649.95261 572.65712 653.90604 557.77979 657.74609 534.01562 C 665.40232 539.89044 673.98805 546.3875 683.62305 553.60156 C 680.926 540.3787 677.99474 526.13804 674.76562 510.5332 C 682.6551 520.6134 689.21954 529.01293 697.68164 539.82812 C 697.94137 536.79742 698.20399 533.73894 698.4668 530.66406 C 699.27532 521.20444 700.05874 512.0007 700.82031 502.96289 C 709.91772 510.78627 718.12024 517.84049 726.42969 524.99805 C 723.11425 510.94572 720.39489 499.41686 717.58984 487.51367 C 726.40111 497.93218 733.90277 506.65931 740.23438 513.86523 C 748.87696 496.93093 752.45467 487.10486 751.42773 486.64844 C 750.39494 486.18942 745.55331 495.34134 739.76562 510.85938 C 733.31511 503.68542 725.67229 495.37648 716.69531 485.7832 z "
       id="path5900" />
    <path
       style="fill:#00ff00;fill-opacity:1;stroke:#000000;stroke-width:0;stroke-miterlimit:4;stroke-dasharray:none;stroke-opacity:1"
       d="M 752.0625 491.06836 L 746.57422 503.85742 L 741.08594 516.64844 L 730.94727 505.21875 C 721.9766 495.10718 720.98726 494.61386 722.36328 500.93359 C 723.21866 504.86216 724.82314 512.46206 725.92969 517.82227 L 727.94141 527.56836 L 715.13086 517.07031 L 702.31836 506.57227 L 700.30664 524.35352 L 698.29492 542.13672 L 688.31445 530.82031 C 679.39314 520.70505 678.48551 520.26322 679.75781 526.64844 C 680.5406 530.57701 682.10306 538.86274 683.22852 545.0625 L 685.27344 556.33594 L 672.87109 547.21484 C 658.53442 536.67153 657.02886 537.7021 654.24805 559.95898 C 652.56217 573.45235 653.20529 575.91611 661.5918 588.10547 C 666.6471 595.4531 676.58259 605.14402 683.66992 609.63867 L 696.55469 617.81055 L 735.49219 591.09961 C 770.11498 567.34917 774.52807 563.40046 775.32812 555.45898 C 776.55531 543.27785 768.46607 516.226 759.4707 502.42969 L 752.0625 491.06836 z "
       id="path5904" />
  </g>
</svg>
