<?xml version="1.0" encoding="UTF-8" standalone="no"?>
<!-- Created with Inkscape (http://www.inkscape.org/) -->

<svg
   xmlns:dc="http://purl.org/dc/elements/1.1/"
   xmlns:cc="http://creativecommons.org/ns#"
   xmlns:rdf="http://www.w3.org/1999/02/22-rdf-syntax-ns#"
   xmlns:svg="http://www.w3.org/2000/svg"
   xmlns="http://www.w3.org/2000/svg"
   xmlns:xlink="http://www.w3.org/1999/xlink"
   xmlns:sodipodi="http://sodipodi.sourceforge.net/DTD/sodipodi-0.dtd"
   xmlns:inkscape="http://www.inkscape.org/namespaces/inkscape"
   width="297mm"
   height="210mm"
   viewBox="0 0 1052.3622 744.09448"
   id="svg2"
   version="1.1"
   inkscape:version="0.91 r13725"
   sodipodi:docname="drevil_banner.svg"
   inkscape:export-filename="/Users/joseph/Documents/Stud 4. Semester/PyRasp/repository/planet_of_the_grizzlies/resources/drevil.png"
   inkscape:export-xdpi="164.2"
   inkscape:export-ydpi="164.2">
  <defs
     id="defs4">
    <linearGradient
       inkscape:collect="always"
       id="linearGradient4158">
      <stop
         style="stop-color:#000000;stop-opacity:1"
         offset="0"
         id="stop4160" />
      <stop
         style="stop-color:#68f800;stop-opacity:1"
         offset="1"
         id="stop4162" />
    </linearGradient>
    <radialGradient
       inkscape:collect="always"
       xlink:href="#linearGradient4158"
       id="radialGradient4164"
       cx="528.30981"
       cy="-583.79309"
       fx="528.30981"
       fy="-583.79309"
       r="529.31995"
       gradientTransform="matrix(2.3662729,-0.00440774,0.00131567,0.9650836,-721.04736,-18.055329)"
       gradientUnits="userSpaceOnUse" />
    <inkscape:path-effect
       effect="skeletal"
       id="path-effect5831"
       is_visible="true"
       pattern="m -354.18548,-51.822921 c 0,-2.76 2.24,-5 5,-5 2.76,0 5,2.24 5,5 0,2.76 -2.24,5 -5,5 -2.76,0 -5,-2.24 -5,-5 z"
       copytype="single_stretched"
       prop_scale="1"
       scale_y_rel="false"
       spacing="0"
       normal_offset="0"
       tang_offset="0"
       prop_units="false"
       vertical_pattern="false"
       fuse_tolerance="0" />
    <inkscape:path-effect
       effect="skeletal"
       id="path-effect5809"
       is_visible="true"
       pattern="m -354.18548,-51.822921 c 0,-2.76 2.24,-5 5,-5 2.76,0 5,2.24 5,5 0,2.76 -2.24,5 -5,5 -2.76,0 -5,-2.24 -5,-5 z"
       copytype="single_stretched"
       prop_scale="1"
       scale_y_rel="false"
       spacing="0"
       normal_offset="0"
       tang_offset="0"
       prop_units="false"
       vertical_pattern="false"
       fuse_tolerance="0" />
    <inkscape:path-effect
       effect="skeletal"
       id="path-effect5805"
       is_visible="true"
       pattern="m -259.89976,-528.96578 c 0,-2.76 2.24,-5 5,-5 2.75999,0 4.99999,2.24 4.99999,5 0,2.76 -2.24,5 -4.99999,5 -2.76,0 -5,-2.24 -5,-5 z"
       copytype="single_stretched"
       prop_scale="1"
       scale_y_rel="false"
       spacing="0"
       normal_offset="0"
       tang_offset="0"
       prop_units="false"
       vertical_pattern="false"
       fuse_tolerance="0" />
    <inkscape:path-effect
       effect="skeletal"
       id="path-effect5665"
       is_visible="true"
       pattern="m -354.18548,-51.822921 c 0,-2.76 2.24,-5 5,-5 2.76,0 5,2.24 5,5 0,2.76 -2.24,5 -5,5 -2.76,0 -5,-2.24 -5,-5 z"
       copytype="single_stretched"
       prop_scale="1"
       scale_y_rel="false"
       spacing="0"
       normal_offset="0"
       tang_offset="0"
       prop_units="false"
       vertical_pattern="false"
       fuse_tolerance="0" />
    <inkscape:path-effect
       effect="skeletal"
       id="path-effect5661"
       is_visible="true"
       pattern="m -354.18548,-51.822921 c 0,-2.76 2.24,-5 5,-5 2.76,0 5,2.24 5,5 0,2.76 -2.24,5 -5,5 -2.76,0 -5,-2.24 -5,-5 z"
       copytype="single_stretched"
       prop_scale="1"
       scale_y_rel="false"
       spacing="0"
       normal_offset="0"
       tang_offset="0"
       prop_units="false"
       vertical_pattern="false"
       fuse_tolerance="0" />
    <inkscape:path-effect
       effect="skeletal"
       id="path-effect5657"
       is_visible="true"
       pattern="m -399.89976,59.605649 c 0,-2.76 2.24,-5 5,-5 2.76,0 5,2.24 5,5 0,2.76 -2.24,5 -5,5 -2.76,0 -5,-2.24 -5,-5 z"
       copytype="single_stretched"
       prop_scale="1"
       scale_y_rel="false"
       spacing="0"
       normal_offset="0"
       tang_offset="0"
       prop_units="false"
       vertical_pattern="false"
       fuse_tolerance="0" />
    <inkscape:path-effect
       effect="skeletal"
       id="path-effect5835"
       is_visible="true"
       pattern="m -362.75691,-43.251491 c 0,-2.76 2.24,-5 5,-5 2.76,0 5,2.24 5,5 0,2.76 -2.24,5 -5,5 -2.76,0 -5,-2.24 -5,-5 z"
       copytype="single_stretched"
       prop_scale="1"
       scale_y_rel="false"
       spacing="0"
       normal_offset="0"
       tang_offset="0"
       prop_units="false"
       vertical_pattern="false"
       fuse_tolerance="0" />
    <filter
       inkscape:collect="always"
       style="color-interpolation-filters:sRGB"
       id="filter4535"
       x="-0.020212486"
       width="1.0404249"
       y="-0.22945093"
       height="1.4589019">
      <feGaussianBlur
         inkscape:collect="always"
         stdDeviation="7.7597824"
         id="feGaussianBlur4537" />
    </filter>
  </defs>
  <sodipodi:namedview
     id="base"
     pagecolor="#ffffff"
     bordercolor="#666666"
     borderopacity="1.0"
     inkscape:pageopacity="0.0"
     inkscape:pageshadow="2"
     inkscape:zoom="0.7"
     inkscape:cx="443.37706"
     inkscape:cy="460.96251"
     inkscape:document-units="px"
     inkscape:current-layer="layer1"
     showgrid="false"
     showguides="false"
     inkscape:window-width="1920"
     inkscape:window-height="1102"
     inkscape:window-x="-4"
     inkscape:window-y="0"
     inkscape:window-maximized="0" />
  <metadata
     id="metadata7">
    <rdf:RDF>
      <cc:Work
         rdf:about="">
        <dc:format>image/svg+xml</dc:format>
        <dc:type
           rdf:resource="http://purl.org/dc/dcmitype/StillImage" />
        <dc:title />
      </cc:Work>
    </rdf:RDF>
  </metadata>
  <g
     inkscape:label="Layer 1"
     inkscape:groupmode="layer"
     id="layer1"
     transform="translate(0,-308.26772)">
    <g
       id="g4146"
       transform="matrix(1,0,0,-0.85549137,-2.8175051e-7,1171.4697)"
       style="fill:#b3b3b3">
      <rect
         style="fill:url(#radialGradient4164);stroke-width:0;stroke-miterlimit:4;stroke-dasharray:none;fill-opacity:1"
         id="rect4156"
         width="1058.6399"
         height="851.34705"
         x="-1.0101523"
         y="-1009.4666"
         transform="scale(1,-1)" />
      <g
         id="g4166"
         style="fill:#333333">
        <path
           style="fill:#333333;fill-rule:evenodd;stroke:#000000;stroke-width:0;stroke-linecap:butt;stroke-linejoin:miter;stroke-miterlimit:4;stroke-dasharray:none;stroke-opacity:1"
           d="m 454.28571,1010.9068 29.58905,-266.30339 9.86301,226.71759 16.43836,-313.08619 11.50684,298.69139 26.30138,-417.4482 4.93151,457.03392 23.01369,-215.9216 1.64384,219.52028 23.0137,-295.0928 11.50685,298.6916 29.58904,-374.26411 6.57534,374.26411 9.86301,-248.30992 8.21919,251.90852 14.79452,-316.68496 6.57534,313.08636 19.72603,-352.67198 9.86301,352.67198 9.86302,-176.3361 9.86301,169.13862 29.58904,-309.48758 8.21918,323.88246 27.94521,-226.71779 18.08219,212.32291 18.0822,-287.89543 8.21918,287.89543 13.15068,-172.73731 8.21918,187.13219 21.36987,-320.28376 6.57534,320.28376 21.36987,-345.4746 11.50685,331.07972 9.86299,-212.32291 4.93151,201.52679 21.36989,-295.09276 3.28764,309.48756 11.50686,-183.53336 6.57533,179.93468 18.08224,-259.1059 6.5753,255.50722 16.4384,-291.49414 9.863,295.09282 6.5753,-367.06663 9.8631,381.46151 z"
           id="path4144"
           inkscape:connector-curvature="0"
           sodipodi:nodetypes="cccccccccccccccccccccccccccccccccccccccccccccc" />
        <path
           sodipodi:nodetypes="cccccccccccccccccccccccccccccccccccccccccccccc"
           inkscape:connector-curvature="0"
           id="path4142"
           d="M -2.8571437,1002.0765 26.731899,735.77331 36.594913,962.4909 53.03327,649.40471 64.540114,948.0961 90.84149,530.6479 l 4.931511,457.0338 23.013689,-215.92148 1.64384,219.52008 23.0137,-295.0926 11.50685,298.6914 29.58904,-374.26391 6.57534,374.26391 9.86301,-248.30972 8.21919,251.90832 14.79452,-316.68476 6.57534,313.08616 19.72603,-352.67178 9.86301,352.67178 9.86302,-176.3359 9.86301,169.1385 29.58904,-309.48746 8.21918,323.88226 27.94521,-226.71759 18.08219,212.32279 18.0822,-287.89531 8.21918,287.89531 13.15068,-172.73719 8.21918,187.13199 21.36987,-320.28356 6.57534,320.28356 21.36987,-345.4744 11.50685,331.0796 9.86299,-212.32279 4.93151,201.52679 21.36989,-295.09276 3.28764,309.48736 11.50686,-183.53316 6.57533,179.93456 18.0822,-259.10578 6.57534,255.50718 16.43836,-291.4941 9.86303,295.0927 6.5753,-367.06651 9.86307,381.46131 z"
           style="fill:#333333;fill-rule:evenodd;stroke:#000000;stroke-width:0;stroke-linecap:butt;stroke-linejoin:miter;stroke-miterlimit:4;stroke-dasharray:none;stroke-opacity:1" />
      </g>
    </g>
    <g
       style="fill:#333333"
       transform="matrix(1,0,0,0.99421965,5.7142857,22.781563)"
       id="g4150">
      <path
         style="fill:#333333;fill-rule:evenodd;stroke:#000000;stroke-width:0;stroke-linecap:butt;stroke-linejoin:miter;stroke-miterlimit:4;stroke-dasharray:none;stroke-opacity:1"
         d="m 454.28571,1024.9336 29.58905,-266.30315 9.86301,226.71759 16.43836,-313.08619 11.50684,298.69139 26.30138,-417.4482 4.93151,457.03376 23.01369,-215.92144 1.64384,219.52004 23.0137,-295.09256 11.50685,298.69136 29.58904,-374.26387 6.57534,374.26387 9.86301,-248.30968 8.21919,251.90828 14.79452,-316.68472 6.57534,313.08612 19.72603,-352.67174 9.86301,352.67174 9.86302,-176.33586 9.86301,169.13846 29.58904,-309.48742 8.21918,323.88222 27.94521,-226.71755 18.08219,212.32275 18.0822,-287.89527 8.21918,287.89527 13.15068,-172.73715 8.21918,187.13195 21.36987,-320.28352 6.57534,320.28352 21.36987,-345.47436 11.50685,331.07956 9.86299,-212.32275 4.93151,201.52679 21.36989,-295.09276 3.28764,309.48732 11.50686,-183.53312 6.57533,179.93452 18.08224,-259.10574 6.5753,255.50714 16.4384,-291.49406 9.863,295.09266 6.5753,-367.06647 9.8631,381.46127 z"
         id="path4152"
         inkscape:connector-curvature="0"
         sodipodi:nodetypes="cccccccccccccccccccccccccccccccccccccccccccccc" />
      <path
         sodipodi:nodetypes="cccccccccccccccccccccccccccccccccccccccccccccc"
         inkscape:connector-curvature="0"
         id="path4154"
         d="M -2.8571437,1002.0765 26.731899,735.77331 36.594913,962.4909 53.03327,649.40471 64.540114,948.0961 90.84149,530.6479 l 4.931511,457.0338 23.013689,-215.92148 1.64384,219.52008 23.0137,-295.0926 11.50685,298.6914 29.58904,-374.26391 6.57534,374.26391 9.86301,-248.30972 8.21919,251.90832 14.79452,-316.68476 6.57534,313.08616 19.72603,-352.67178 9.86301,352.67178 9.86302,-176.3359 9.86301,169.1385 29.58904,-309.48746 8.21918,323.88226 27.94521,-226.71759 18.08219,212.32279 18.0822,-287.89531 8.21918,287.89531 13.15068,-172.73719 8.21918,187.13199 21.36987,-320.28356 6.57534,320.28356 21.36987,-345.4744 11.50685,331.0796 9.86299,-212.32279 4.93151,201.52679 21.36989,-295.09276 3.28764,309.48736 11.50686,-183.53316 6.57533,179.93456 18.0822,-259.10578 6.57534,255.50718 16.43836,-291.4941 9.86303,295.0927 6.5753,-367.06651 9.86307,381.46131 z"
         style="fill:#333333;fill-rule:evenodd;stroke:#000000;stroke-width:0;stroke-linecap:butt;stroke-linejoin:miter;stroke-miterlimit:4;stroke-dasharray:none;stroke-opacity:1" />
    </g>
    <path
       inkscape:connector-curvature="0"
       id="path4138"
       d="M 942.85716,1054.3498 925.86826,856.83426 903.21639,1054.3498 857.91274,663.04544 832.42943,1050.6231 809.77759,897.82805 789.95723,1050.6231 747.48504,812.11375 716.33877,1054.3498 614.4055,633.23178 577.59627,1046.8964 537.95555,845.65413 509.64076,1046.8964 444.51673,696.58582 396.38158,1043.1696 339.75199,841.92743 311.43718,1031.9895 254.80759,681.67897 226.49281,1031.9895 184.0206,845.65413 161.36877,1039.443 121.72805,759.93984 118.89658,1031.9895 104.73917,909.00817 90.581774,1020.8095 31.120688,543.79078 -2.8571142,1058.0765 Z"
       style="fill:#1a1a1a;fill-rule:evenodd;stroke:#000000;stroke-width:0;stroke-linecap:butt;stroke-linejoin:miter;stroke-miterlimit:4;stroke-dasharray:none;stroke-opacity:1" />
    <path
       style="fill:#1a1a1a;fill-rule:evenodd;stroke:#000000;stroke-width:0;stroke-linecap:butt;stroke-linejoin:miter;stroke-miterlimit:4;stroke-dasharray:none;stroke-opacity:1"
       d="m -3.2335085,306.78717 51.4285715,211.42857 17.142857,-180 28.571431,248.57143 19.999989,-237.14286 45.71429,331.42857 8.57143,-362.85714 40,171.42857 2.85714,-174.28571 40,234.28571 20,-237.14285 51.42857,297.14285 11.42857,-297.14285 17.14286,197.14285 14.28572,-200 25.71428,251.42857 11.42857,-248.57142 34.28572,280 17.14285,-280 17.14286,140 17.14286,-134.28572 51.42857,245.71429 14.28571,-257.14286 48.57143,180 31.42857,-168.57143 31.42858,228.57143 14.28571,-228.57143 22.85714,137.14286 14.28572,-148.57143 37.14285,254.28571 11.42858,-254.28571 37.14285,274.28571 20,-262.85714 17.14286,168.57143 8.57143,-160 37.14286,234.28571 5.71428,-245.71428 20,145.71428 11.42857,-142.85714 31.42857,205.71429 11.42858,-202.85715 28.57147,231.42858 17.14271,-234.28572 11.4285,291.42857 17.1429,-302.85714 z"
       id="path4140"
       inkscape:connector-curvature="0"
       sodipodi:nodetypes="cccccccccccccccccccccccccccccccccccccccccccccc" />
    <path
       style="fill:#000000;fill-rule:evenodd;stroke:#000000;stroke-width:0;stroke-linecap:butt;stroke-linejoin:miter;stroke-miterlimit:4;stroke-dasharray:none;stroke-opacity:1"
       d="M -4.7144492e-8,1055.2194 18.990592,903.79078 44.311378,1055.2194 94.952955,755.21935 l 28.485885,297.14285 25.32079,-117.14285 22.15569,117.14285 47.47647,-182.85714 34.81608,185.71434 113.94354,-322.85719 41.14628,317.14289 44.31138,-154.28575 31.65098,154.28575 72.79726,-268.57146 53.80667,265.71426 63.30197,-154.28569 31.65099,145.71429 63.30197,-268.57144 31.65097,268.57144 47.47649,-142.85715 25.32078,148.57145 44.31138,-214.28574 3.16509,208.57144 15.8255,-94.28572 15.82549,85.71432 66.46709,-365.71432 37.9812,394.28572 z"
       id="path4136"
       inkscape:connector-curvature="0" />
    <text
       transform="matrix(1.6315035,0,0,2.007569,-86.833512,-312.54801)"
       sodipodi:linespacing="125%"
       id="text4410"
       y="479.62384"
       x="91.421402"
       style="font-style:normal;font-variant:normal;font-weight:bold;font-stretch:normal;font-size:115.29177094px;line-height:125%;font-family:'American Typewriter';-inkscape-font-specification:'American Typewriter, Bold';text-align:start;letter-spacing:0px;word-spacing:0px;writing-mode:lr-tb;text-anchor:start;fill:#2bff00;fill-opacity:1;stroke:none;stroke-width:1px;stroke-linecap:butt;stroke-linejoin:miter;stroke-opacity:1;filter:url(#filter4535)"
       xml:space="preserve"><tspan
         style="font-style:normal;font-variant:normal;font-weight:bold;font-stretch:normal;font-size:115.29177094px;line-height:125%;font-family:'American Typewriter';-inkscape-font-specification:'American Typewriter, Bold';text-align:start;writing-mode:lr-tb;text-anchor:start;fill:#2bff00;fill-opacity:1"
         id="tspan4414"
         y="479.62384"
         x="91.421402"
         sodipodi:role="line">DR. EVIL</tspan></text>
    <text
       xml:space="preserve"
       style="font-style:normal;font-variant:normal;font-weight:bold;font-stretch:normal;font-size:208.65440369px;line-height:125%;font-family:'American Typewriter';-inkscape-font-specification:'American Typewriter, Bold';text-align:start;letter-spacing:0px;word-spacing:0px;writing-mode:lr-tb;text-anchor:start;opacity:0.428;fill:#000000;fill-opacity:1;stroke:none;stroke-width:1px;stroke-linecap:butt;stroke-linejoin:miter;stroke-opacity:1"
       x="77.294167"
       y="587.22162"
       id="text4519"
       sodipodi:linespacing="125%"
       transform="scale(0.90148554,1.1092801)"><tspan
         sodipodi:role="line"
         x="77.294167"
         y="587.22162"
         id="tspan4521"
         style="font-style:normal;font-variant:normal;font-weight:bold;font-stretch:normal;font-size:208.65440369px;line-height:125%;font-family:'American Typewriter';-inkscape-font-specification:'American Typewriter, Bold';text-align:start;writing-mode:lr-tb;text-anchor:start;fill:#000000;fill-opacity:1">DR. EVIL</tspan></text>
    <g
       id="g4302"
       transform="matrix(0.7950176,0.00625177,0.13548047,0.73390281,603.86447,549.25572)">
      <path
         inkscape:connector-curvature="0"
         inkscape:original-d="m 105.78467,472.63154 144.80102,-68.83839 2.03944,88.5065 -110.13034,83.58948 z"
         inkscape:path-effect="#path-effect5835"
         id="path5833"
         d="m 105.78467,472.63154 c -1.10739,-2.32938 59.10266,-31.53105 146.13471,-71.004 1.15198,22.83383 3.35295,65.25444 4.69011,92.07584 -2e-5,-4.2e-4 0.0264,0.53045 0.0264,0.53003 -36.59217,26.88409 -88.3381,64.61589 -114.84116,84.00167 -23.9903,-63.54042 -37.87111,-104.94191 -36.01008,-105.60354 1.86798,-0.66411 17.10894,39.89167 37.41014,100.91163 23.09731,-18.21165 73.78327,-58.32512 105.41954,-83.17728 0,-4.1e-4 0.003,-0.48108 0.003,-0.48149 0.0975,-15.06632 0.5551,-72.12307 0.63454,-83.92564 -82.19394,40.9653 -142.35538,69.01176 -143.46733,66.67278 z"
         style="fill:#b3b3b3;fill-opacity:1;fill-rule:evenodd;stroke:none;stroke-width:1px;stroke-linecap:butt;stroke-linejoin:miter;stroke-opacity:1" />
      <path
         d="m 28.671671,312.68216 a 50,60 0 0 1 -49.80845,59.99956 50,60 0 0 1 -50.190082,-59.53984 50,60 0 0 1 49.423894,-60.45576 50,60 0 0 1 50.568767,59.07663"
         sodipodi:open="true"
         sodipodi:end="6.2678613"
         sodipodi:start="0"
         sodipodi:ry="60"
         sodipodi:rx="50"
         sodipodi:cy="312.68216"
         sodipodi:cx="-21.328329"
         sodipodi:type="arc"
         id="path5709"
         style="fill:#ffffff;fill-opacity:1;stroke:#000000;stroke-width:18.60000038;stroke-miterlimit:4;stroke-dasharray:none;stroke-opacity:1" />
      <path
         d="m 157.24309,302.68216 a 55.714287,70 0 0 1 -55.50085,69.99949 55.714287,70 0 0 1 -55.92609,-69.46316 55.714287,70 0 0 1 55.07234,-70.53171 55.714287,70 0 0 1 56.34806,68.92274"
         sodipodi:open="true"
         sodipodi:end="6.2678613"
         sodipodi:start="0"
         sodipodi:ry="70"
         sodipodi:rx="55.714287"
         sodipodi:cy="302.68216"
         sodipodi:cx="101.5288"
         sodipodi:type="arc"
         id="path5711"
         style="fill:#ffffff;fill-opacity:1;stroke:#000000;stroke-width:10.19999981;stroke-miterlimit:4;stroke-dasharray:none;stroke-opacity:1" />
      <path
         inkscape:connector-curvature="0"
         id="path3338"
         d="m -22.758932,535.54065 8.57547,231.42583"
         style="fill:#000000;fill-opacity:1;fill-rule:evenodd;stroke:#000000;stroke-width:6.77600002;stroke-linecap:butt;stroke-linejoin:miter;stroke-miterlimit:4;stroke-dasharray:none;stroke-opacity:1" />
      <path
         inkscape:connector-curvature="0"
         id="path3336"
         d="m -77.042622,424.11071 -145.714288,351.42857 460,-5.7143 -137.14286,-348.57141 -125.714282,120 z"
         style="fill:#b3b3b3;fill-rule:evenodd;stroke:#000000;stroke-width:1.70000005;stroke-linecap:butt;stroke-linejoin:miter;stroke-miterlimit:4;stroke-dasharray:none;stroke-opacity:1" />
      <path
         inkscape:connector-curvature="0"
         id="path4148"
         d="m -17.042622,549.825 28.57143,34.28571 105.714282,-97.14285"
         style="fill:none;fill-rule:evenodd;stroke:#000000;stroke-width:2.5;stroke-linecap:butt;stroke-linejoin:miter;stroke-miterlimit:4;stroke-dasharray:none;stroke-opacity:1" />
      <path
         inkscape:connector-curvature="0"
         id="path4150"
         d="M -31.328342,538.39643 -65.614052,589.825 -105.61405,501.25357"
         style="fill:none;fill-rule:evenodd;stroke:#000000;stroke-width:2.5;stroke-linecap:butt;stroke-linejoin:miter;stroke-miterlimit:4;stroke-dasharray:none;stroke-opacity:1" />
      <path
         inkscape:connector-curvature="0"
         id="path4152-5"
         d="m 60.100228,595.53928 57.142862,2.85715"
         style="fill:none;fill-rule:evenodd;stroke:#000000;stroke-width:2;stroke-linecap:butt;stroke-linejoin:miter;stroke-miterlimit:4;stroke-dasharray:none;stroke-opacity:1" />
      <path
         inkscape:connector-curvature="0"
         id="path4154-8"
         d="m 94.385948,578.39643 0,60"
         style="fill:none;fill-rule:evenodd;stroke:#000000;stroke-width:2.5;stroke-linecap:butt;stroke-linejoin:miter;stroke-miterlimit:4;stroke-dasharray:none;stroke-opacity:1" />
      <path
         inkscape:connector-curvature="0"
         id="path4156"
         d="m 71.528808,581.25357 0,60"
         style="fill:none;fill-rule:evenodd;stroke:#000000;stroke-width:2.79999995;stroke-linecap:butt;stroke-linejoin:miter;stroke-miterlimit:4;stroke-dasharray:none;stroke-opacity:1" />
      <path
         sodipodi:open="true"
         d="m 21.918277,628.39642 a 8.9609146,11.350492 0 0 1 -8.926601,11.35041 8.9609146,11.350492 0 0 1 -8.9949656,-11.26348 8.9609146,11.350492 0 0 1 8.8577116,-11.43667 8.9609146,11.350492 0 0 1 9.062804,11.17589"
         sodipodi:end="6.267868"
         sodipodi:start="0"
         sodipodi:ry="11.350492"
         sodipodi:rx="8.9609146"
         sodipodi:cy="628.39642"
         sodipodi:cx="12.957362"
         sodipodi:type="arc"
         id="path4160"
         style="fill:#000000;fill-opacity:1;stroke-width:2.79999995;stroke-miterlimit:4;stroke-dasharray:none" />
      <path
         sodipodi:open="true"
         d="m 26.204012,726.96783 a 8.9609146,11.350492 0 0 1 -8.926601,11.35041 8.9609146,11.350492 0 0 1 -8.9949655,-11.26348 8.9609146,11.350492 0 0 1 8.8577115,-11.43667 8.9609146,11.350492 0 0 1 9.062804,11.17589"
         sodipodi:end="6.267868"
         sodipodi:start="0"
         sodipodi:ry="11.350492"
         sodipodi:rx="8.9609146"
         sodipodi:cy="726.96783"
         sodipodi:cx="17.243097"
         sodipodi:type="arc"
         id="path4160-7"
         style="fill:#000000;fill-opacity:1;stroke-width:2.79999995;stroke-miterlimit:4;stroke-dasharray:none" />
      <path
         sodipodi:open="true"
         d="m 23.346866,678.39636 a 8.9609146,11.350492 0 0 1 -8.926601,11.35041 8.9609146,11.350492 0 0 1 -8.9949658,-11.26348 8.9609146,11.350492 0 0 1 8.8577108,-11.43667 8.9609146,11.350492 0 0 1 9.062804,11.17589"
         sodipodi:end="6.267868"
         sodipodi:start="0"
         sodipodi:ry="11.350492"
         sodipodi:rx="8.9609146"
         sodipodi:cy="678.39636"
         sodipodi:cx="14.385951"
         sodipodi:type="arc"
         id="path4160-3"
         style="fill:#000000;fill-opacity:1;stroke-width:2.79999995;stroke-miterlimit:4;stroke-dasharray:none" />
      <path
         inkscape:connector-curvature="0"
         inkscape:original-d="m 5.8145184,221.25357 c -219.9999984,242.85714 -14.28572,251.42857 -14.28572,251.42857 0,0 -271.4285584,40 -2.8571404,0 268.571432,-40 140.000002,-262.85714 140.000002,-262.85714 0,0 137.14286,-31.42857 -11.42857,-2.85715 -148.571432,28.57143 -148.571432,31.42858 -148.571432,31.42858"
         inkscape:path-effect="#path-effect5657"
         id="path5655"
         d="m 5.8145184,221.25357 c 0.432241,0.39156 -5.70966323,7.60327 -16.7852564,21.25108 -10.089621,12.43284 -28.107416,34.89089 -44.675358,60.79395 -10.585658,16.56685 -22.814794,37.6228 -30.293102,60.78378 -4.254126,13.2561 -7.38362,28.26416 -5.655849,43.03834 0.611161,5.35764 1.859769,10.72305 3.892753,15.81661 1.777355,4.46613 4.164907,8.76044 7.109947,12.70804 5.311619,7.15961 12.50962,13.13441 20.734049,17.89178 7.30549,4.21466 15.359442,7.4179 23.875899,9.85353 6.372058,1.816 12.957623,3.17981 19.690397,4.06869 1.977844,0.2606 3.95656,0.47953 5.931403,0.63648 0,0 4e-5,1e-5 4e-5,1e-5 0.5335168,0.0424 1.0596032,0.08 1.5778878,0.10964 0.1347511,0.008 0.2650687,0.0147 0.3909296,0.0206 0.105874,1.47758 0.2094634,2.95525 0.3107688,4.43295 l 2.4e-6,3e-5 c -0.00464,-0.045 0.059463,0.57587 0.054818,0.53089 -0.00299,0.002 0.01594,1.13389 0.01594,1.13391 -0.00286,0.93179 -0.00571,1.86378 -0.00855,2.79597 1.23e-5,0 -0.5758184,0.0873 -0.5758061,0.0873 -0.7369897,0.11171 -1.4747167,0.2235 -2.2134387,0.33542 -2.706987,0.41013 -5.42468,0.82156 -8.154685,1.23457 -8.901446,1.34667 -17.92668,2.70902 -27.064788,4.08522 -20.589716,3.10083 -42.196923,6.34368 -63.901292,9.56271 -5.86756,0.87029 -11.87434,1.77227 -17.8515,2.6222 0,0 -5e-5,1e-5 -5e-5,1e-5 -0.43852,0.0628 -0.92718,0.13478 -1.46699,0.20144 -0.21972,-1.59331 -0.53049,-3.17873 -0.93253,-4.75836 l -10e-6,-2e-5 c -0.0164,-0.0972 -0.0331,-0.19362 -0.0496,-0.29245 0,0 -1.2e-4,-7.4e-4 -1.2e-4,-7.4e-4 -0.0188,-0.51648 -0.0445,-1.02633 -0.072,-1.53675 -0.0491,-1.00999 -0.10461,-2.01816 -0.16676,-3.0252 1.89101,-0.31878 3.73942,-0.59212 5.55557,-0.87207 0,0 5e-5,-10e-6 5e-5,-10e-6 37.169794,-5.73417 73.399492,-11.12327 112.849078,-17.01788 11.75529024,-1.76555 23.565133,-3.96511 35.239067,-6.79426 16.191442,-3.92395 31.795806,-8.98027 46.582588,-15.59534 19.132493,-8.57124 36.643247,-19.68606 50.558897,-34.03649 11.58681,-11.91236 20.53012,-26.01356 26.15619,-41.05547 5.33716,-14.21079 7.81088,-29.29924 8.21688,-44.10908 0.39474,-14.53255 -1.18978,-28.94953 -3.95518,-42.78267 -2.531,-12.64053 -6.08098,-24.88162 -10.29119,-36.58173 -3.16993,-8.80395 -6.7017,-17.29373 -10.60103,-25.44526 -1.14022,-2.38335 -2.30376,-4.72317 -3.51205,-7.01679 -0.32378,-0.61461 -0.64748,-1.2202 -0.9744,-1.81591 -0.0845,-0.15395 -0.16764,-0.30456 -0.2499,-0.45169 0.43055,-1.06802 0.86205,-2.13475 1.2942,-3.19963 0,0 1.5e-4,-3.8e-4 1.5e-4,-3.8e-4 0.0296,-0.0913 0.0593,-0.18275 0.0891,-0.27423 0,0 0.0305,-0.0938 0.0305,-0.0938 0.007,-0.002 0.10493,-0.1868 0.10493,-0.1868 0.10179,-0.18124 0.20357,-0.36245 0.30534,-0.54364 0.39745,-0.7076 0.79475,-1.41483 1.19192,-2.12169 0.37201,-0.0834 0.74405,-0.16704 1.11591,-0.2507 0,0 4e-5,-1e-5 4e-5,-1e-5 1.3703,-0.30829 2.73783,-0.61725 4.10063,-0.92604 4.55008,-1.031 9.04873,-2.06025 13.50547,-3.09093 5.57155,-1.28851 11.0256,-2.56597 16.43709,-3.86696 4.90446,-1.17941 9.65613,-2.33679 14.36915,-3.58921 1.64537,-0.43782 3.23926,-0.86921 4.78535,-1.3432 0.5191,-0.15989 0.99834,-0.31033 1.43367,-0.46817 0.33039,-0.1378 0.46335,-0.16353 0.36898,-0.13089 0.12304,0.75143 -0.0936,1.90725 -0.67513,3.44438 0.30129,0.31807 0.57322,0.61277 0.80581,0.88519 0.19992,0.23414 0.36845,0.45432 0.51273,0.66463 0.55287,0.8059 0.77999,1.42961 0.71258,1.83 -4e-5,1e-4 -2e-5,1e-4 -2e-5,1e-4 0.18297,0.0148 0.22648,0.0245 0.13302,0.0143 0,0 -2e-5,0 -2e-5,0 -0.27698,-0.009 -0.66328,0.0278 -1.15545,0.067 -0.76414,0.0674 -1.55272,0.16108 -2.36326,0.26288 -7.07614,0.8914 -14.30763,2.17147 -21.17708,3.34696 -14.82828,2.53971 -29.85378,5.27731 -43.16728,7.70936 -87.854421,16.05138 -79.390932,14.34946 -130.02302,24.34874 -15.109002,2.98787 -6.519452,1.23799 -16.592727,3.36363 0.623897,-0.13057 -3.431467,0.69505 -2.169286,0.44724 -0.201535,0.0305 -0.351813,0.0646 -0.402626,0.0409 0,0 -1e-6,0 -1e-6,0 -0.0051,-0.004 -0.0052,-0.003 -0.0052,-0.003 0,0 -1.76e-4,5.3e-4 -0.0051,-0.004 0,0 -1e-6,-1e-5 -1e-6,-1e-5 -0.03484,-0.0333 0.0335,-0.12951 0.249251,-0.34826 0.406152,-0.30604 0.977087,-0.58301 2.061604,-1.02226 3.541768,-1.42942 7.700413,-2.65722 16.300045,-4.92302 29.989243,-7.90553 62.045316,-14.77151 129.344252,-28.36253 13.34685,-2.69565 28.20296,-5.66157 43.11993,-8.45002 6.83009,-1.2782 14.13871,-2.67872 21.45857,-3.70718 0.84803,-0.11937 1.72707,-0.23504 2.63609,-0.32898 0.51853,-0.0583 1.14843,-0.11389 1.88963,-0.12315 0,0 5e-5,0 5e-5,0 0.18651,-0.0103 0.51087,0.005 0.97113,0.0594 0,0 6e-5,1e-5 6e-5,1e-5 0.0755,0.42122 0.45887,1.0615 1.12011,1.96309 0.17246,0.23516 0.36206,0.49103 0.56113,0.76278 0.2317,0.31629 0.47974,0.65121 0.75399,1.00372 -0.68412,1.6671 -1.04997,2.90698 -1.07063,3.7406 -0.68918,0.37301 -1.20608,0.58326 -1.51975,0.68332 -0.62696,0.23454 -1.22544,0.43372 -1.79008,0.61389 -1.69965,0.54448 -3.38234,1.02531 -5.04802,1.49058 -4.8003,1.34233 -9.60162,2.57702 -14.50666,3.81979 -5.42547,1.37488 -10.89056,2.72338 -16.46151,4.07889 -4.4579,1.0847 -8.95814,2.16696 -13.50871,3.2497 -1.36308,0.32432 -2.73157,0.64889 -4.10373,0.97288 0,0 -4e-5,10e-6 -4e-5,10e-6 -0.37236,0.0879 -0.74537,0.17588 -1.11884,0.26378 0.20295,-0.66222 0.406,-1.32484 0.60913,-1.98784 -2e-5,8e-5 0.15609,-0.50948 0.15606,-0.50939 0,0 0.0602,-0.17656 0.0602,-0.17656 -0.007,0.002 0.0359,-0.0713 0.0359,-0.0713 0.0415,-0.071 0.0829,-0.14198 0.1244,-0.21298 -1.1e-4,2.6e-4 6e-5,-1e-4 6e-5,-1e-4 0.47849,-0.98383 0.95612,-1.96939 1.43294,-2.95671 0.0983,0.17256 0.19427,0.3421 0.28811,0.50898 0.36319,0.64587 0.71656,1.29043 1.0633,1.93263 1.29424,2.39702 2.53209,4.8228 3.73429,7.27335 4.11274,8.38244 7.8408,17.10744 11.1857,26.14786 4.4502,12.02104 8.22331,24.65529 10.95512,37.7726 2.99423,14.3563 4.74286,29.44602 4.43166,44.82579 -0.31404,15.69948 -2.8949,31.82812 -8.57477,47.24638 -6.04504,16.34617 -15.6377,31.62042 -28.13303,44.54006 -14.99814,15.46368 -33.51399,27.35003 -53.54688,36.29188 -15.439246,6.90072 -31.616477,12.16776 -48.290939,16.22091 -12.0231,2.92252 -24.1281993,5.17111 -36.128783,6.94367 -40.961357,6.08076 -74.200304,10.92943 -112.860708,16.73144 0,0 -4e-5,1e-5 -4e-5,1e-5 -1.85828,0.27919 -3.66235,0.53765 -5.42422,0.82761 -0.18885,-0.98592 -0.37107,-1.97282 -0.54652,-2.96 -0.086,-0.4999 -0.17054,-1.00091 -0.25261,-1.49892 -0.006,0.003 -0.006,0.002 -0.006,0.002 -0.004,-0.0965 -0.008,-0.19547 -0.012,-0.29365 l 0,-1e-5 c -0.32793,-1.58539 -0.56492,-3.18023 -0.71084,-4.78245 0.37945,-0.0442 0.8077,-0.10631 1.28532,-0.17175 0,0 5e-5,0 5e-5,0 5.92853,-0.81683 11.92749,-1.68959 17.80868,-2.53266 19.907854,-2.85387 45.138527,-6.48657 63.945108,-9.1857 9.149232,-1.3131 18.178931,-2.60776 27.092631,-3.88435 2.731972,-0.39127 5.454799,-0.78109 8.163786,-1.16882 0.73929,-0.10581 1.478322,-0.21158 2.2158862,-0.31713 1.23e-5,-1e-5 0.5763857,-0.0825 0.576398,-0.0825 0.095243,0.91773 0.1904711,1.83527 0.2856859,2.75261 -4e-7,-2e-5 0.093564,1.12063 0.093562,1.12061 0.00298,0.002 0.00109,0.52208 0.00108,0.52601 l -10e-8,10e-6 c 0.026873,1.47425 0.056045,2.94821 0.087513,4.42196 -0.1652785,-0.009 -0.32596,-0.0191 -0.4820445,-0.0294 -0.6005561,-0.0396 -1.1916995,-0.0866 -1.7732315,-0.13799 0,0 -4.4e-5,0 -4.4e-5,0 -2.153547,-0.19012 -4.282036,-0.4433 -6.381755,-0.73919 -7.148416,-1.00562 -14.139685,-2.52078 -20.906543,-4.5182 -9.05396,-2.66398 -17.717976,-6.23197 -25.685621,-10.92145 -9.019274,-5.2956 -16.973264,-12.11947 -22.996525,-20.36018 -3.316798,-4.56015 -5.978943,-9.49574 -7.945144,-14.62459 -2.236856,-5.85034 -3.566936,-11.89736 -4.156283,-17.86861 -1.576358,-16.40741 1.927071,-32.32839 6.661991,-46.03429 8.231823,-23.95975 21.099901,-45.14151 32.242215,-61.63252 17.589284,-26.05878 36.089115,-47.51307 47.067059,-59.66718 11.8202449,-13.08665 18.6949968,-19.63164 19.0206354,-19.33665 z"
         style="fill:#000000;fill-rule:evenodd;stroke:none;stroke-width:1px;stroke-linecap:butt;stroke-linejoin:miter;stroke-opacity:1" />
      <path
         inkscape:connector-curvature="0"
         inkscape:original-d="M -88.471192,344.11071 -199.89977,146.96786 -99.899772,275.53928 -185.61405,92.682139 -88.471192,229.825 -162.75691,26.967859 -79.899772,189.825 l -8.57142,-114.285721 37.14285,128.571431 11.42857,-154.285711 28.57143,185.714281 z"
         inkscape:path-effect="#path-effect5661"
         id="path5659"
         d="m -88.471192,344.11071 c -1.238504,0.70002 -43.747878,-73.27628 -111.560608,-197.341 0,0 -3e-5,-4e-5 -3e-5,-4e-5 29.88749,38.41306 62.7507,80.64824 99.89694,128.38586 -26.4779,-56.49232 -54.93146,-117.20398 -85.68676,-182.829896 31.42446,44.337406 63.1086,89.039786 97.048713,136.924916 -20.343953,-55.60601 -40.876423,-111.73094 -62.368423,-170.479328 -3.91962,-10.714258 -7.84908,-21.455465 -11.73482,-32.077163 28.59227,56.065088 55.79237,109.401621 82.718689,162.209591 -2.882062,-39.0794 -5.664755,-76.79954 -8.399085,-113.838843 12.936161,44.661623 25.274573,87.267663 37.148797,128.282233 0,0 5e-6,-7e-5 5e-6,-7e-5 4.138749,-55.41157 7.931976,-106.225595 11.491275,-153.946774 12.659746,74.035564 22.874058,135.839684 30.9007459,186.686794 -49.8177199,69.39846 -78.6801779,108.57456 -79.4554389,108.02372 -0.774993,-0.55065 26.686065,-40.64583 74.830261,-109.11914 -7.578248,-50.58498 -16.283257,-111.75639 -26.242114,-184.741768 -3.52504,47.917404 -7.276577,98.957718 -11.365856,154.624518 0,0 -4e-6,6e-5 -4e-6,6e-5 -11.86961,-41.17564 -24.204008,-83.9755 -37.136907,-128.860629 2.842774,37.322109 5.740491,75.340859 8.743764,114.732599 C -106.6529,137.53989 -133.94516,83.770746 -162.63764,27.241659 c 3.90548,10.654314 7.85515,21.429209 11.79457,32.176152 21.60131,58.929489 42.23572,115.221819 62.673623,170.981639 -34.004463,-48.03663 -65.752523,-92.88559 -97.237003,-137.360805 30.78598,65.662145 59.25839,126.392575 85.741792,182.884385 -37.225652,-47.88338 -70.157422,-90.24174 -100.103052,-128.75698 0,0 2e-5,4e-5 2e-5,4e-5 71.09338,121.693 112.535333,196.24441 111.296498,196.94462 z"
         style="fill:#000000;fill-rule:evenodd;stroke:#000000;stroke-width:1px;stroke-linecap:butt;stroke-linejoin:miter;stroke-opacity:1" />
      <path
         inkscape:connector-curvature="0"
         inkscape:original-d="M 114.38595,206.96786 222.95738,58.396429 171.52881,172.68214 274.38595,41.253569 177.24309,221.25357 l 77.14286,-57.14286 -51.42857,102.85715 102.85714,-8.57143 -148.57143,108.57143 2.85714,-100 z"
         inkscape:path-effect="#path-effect5665"
         id="path5663"
         d="m 114.38595,206.96786 c -1.23858,-0.90512 39.55411,-57.73397 108.75043,-148.879082 0,0 2e-5,-2.9e-5 2e-5,-2.9e-5 -16.1193,35.838429 -31.71877,70.521601 -51.34645,114.161131 31.84485,-40.68099 65.87859,-84.153754 102.81689,-131.333862 0,0 3e-5,-4e-5 3e-5,-4e-5 -32.67546,60.684522 -59.25074,110.050572 -94.98073,176.412352 -0.55736,1.03518 -1.11438,2.06974 -1.67107,3.10369 26.23656,-19.44891 51.9359,-38.49856 77.17085,-57.2026 -17.33809,35.38136 -33.96174,69.28212 -50.24412,102.43556 35.60396,-2.66852 69.3411,-5.20673 102.05207,-7.6862 -57.42087,42.1872 -107.17954,78.68731 -150.37826,110.29636 0.27557,-39.7125 0.78925,-73.14798 1.48542,-100.64482 -28.43047,-38.05391 -44.31907,-60.15656 -43.65508,-60.66246 0.66433,-0.50616 17.78226,20.71368 47.77347,59.33751 -0.86507,27.147 -2.2499,60.15946 -4.22885,99.35521 42.49232,-31.01132 91.02383,-66.33865 146.76459,-106.84652 -33.20672,3.01368 -67.48323,6.1433 -103.66219,9.4567 16.99427,-33.39989 34.41222,-67.58236 52.61301,-103.27876 -25.22182,18.67135 -50.90247,37.68095 -77.11487,57.08312 0.56222,-1.03933 1.12477,-2.07927 1.68767,-3.11985 36.05937,-66.6598 62.97245,-116.40431 95.94625,-177.36411 0,0 -3e-5,4e-5 -3e-5,4e-5 -36.98041,47.27158 -71.04165,90.80906 -102.89733,131.5232 19.68093,-43.71297 35.34521,-78.50475 51.51069,-114.410291 0,0 -2e-5,2.9e-5 -2e-5,2.9e-5 C 157.35247,151.77751 115.62518,207.87345 114.38595,206.96786 Z"
         style="fill:#808080;fill-rule:evenodd;stroke:#000000;stroke-width:1px;stroke-linecap:butt;stroke-linejoin:miter;stroke-opacity:1" />
      <path
         inkscape:connector-curvature="0"
         id="path5667"
         d="m 163.38172,314.61662 c 0.22759,-37.36934 -0.57564,-47.588 -4.19456,-53.36305 -2.46183,-3.92857 -8.56524,-16.47252 -13.56312,-27.87545 l -9.08706,-20.73258 7.56734,-1.569 c 4.16204,-0.86295 14.9602,-3.28258 23.99591,-5.37695 9.03572,-2.09437 16.42858,-3.2448 16.42858,-2.55652 0,0.68828 -1.96159,5.04471 -4.35909,9.68096 -2.3975,4.63625 -3.56155,8.42954 -2.58679,8.42954 0.97477,0 16.64948,-10.92974 34.83269,-24.2883 18.18321,-13.35857 33.54493,-23.80377 34.13714,-23.21156 0.59221,0.59221 -9.5852,21.68134 -22.61646,46.86473 -13.03127,25.18339 -23.02125,46.47912 -22.19998,47.32383 0.82128,0.84472 21.27842,-0.35277 45.46032,-2.66108 24.18189,-2.30831 45.22508,-3.7776 46.76264,-3.26508 1.53755,0.51252 -23.41959,20.04575 -55.46032,43.40717 -32.04073,23.36143 -62.11301,45.38642 -66.8273,48.94443 l -8.57143,6.46911 0.28149,-46.2202 z"
         style="fill:#808080;fill-opacity:1;stroke:#000000;stroke-width:0.2857143;stroke-miterlimit:4;stroke-dasharray:none;stroke-opacity:1" />
      <path
         inkscape:connector-curvature="0"
         id="path5679"
         d="m -96.738652,323.71588 c -4.530708,-8.4257 -23.547098,-42.12135 -42.258658,-74.87922 -18.71156,-32.75787 -33.54424,-60.03654 -32.96151,-60.61927 0.58272,-0.58273 17.03304,19.56967 36.55626,44.78311 19.52322,25.21343 35.871698,44.71777 36.329968,43.34298 0.45826,-1.3748 -13.992538,-33.87954 -32.112888,-72.23277 -18.12035,-38.35322 -32.5375,-70.95893 -32.0381,-72.45713 0.4994,-1.4982 17.51066,20.75375 37.80279,49.44877 20.29214,28.69502 37.274438,51.03383 37.738448,49.64179 0.46402,-1.39204 -11.38437,-35.80598 -26.329738,-76.47544 -14.94537,-40.66945 -27.10469,-75.342501 -27.02071,-77.051221 0.084,-1.70872 13.65948,23.710601 30.16776,56.487381 16.508288,32.77677 30.739828,58.86938 31.625638,57.98357 0.88581,-0.88581 0.0904,-20.44757 -1.76752,-43.47057 -1.85794,-23.02301 -2.84527,-42.39283 -2.19406,-43.04404 0.65121,-0.6512 7.30511,20.3789 14.78645,46.73358 7.48135,26.35468 14.55416,49.67595 15.71737,51.82505 2.7605,5.10019 4.66449,-11.18138 9.0527,-77.41205 1.94976,-29.427531 3.92927,-53.120331 4.39892,-52.650691 0.46965,0.46965 5.43539,33.546721 11.03497,73.504601 5.59959,39.95788 10.86448,75.41771 11.69977,78.79963 1.25949,5.09945 -0.10706,6.53205 -8.00656,8.39353 -9.37051,2.20812 -9.40367,2.27069 -2.04062,3.85106 7.38393,1.58485 7.07634,2.18488 -22.85715,44.58833 -16.68798,23.64003 -32.30921,45.96236 -34.71384,49.60517 -4.36953,6.61949 -4.37679,6.61449 -12.60969,-8.69615 z"
         style="fill:#808080;fill-opacity:1;stroke:#000000;stroke-width:0.2857143;stroke-miterlimit:4;stroke-dasharray:none;stroke-opacity:1" />
      <path
         inkscape:connector-curvature="0"
         id="path5681"
         d="m 124.90505,199.32321 c 2.18085,-5.24322 80.47838,-112.453111 81.43102,-111.500471 0.54819,0.54819 -7.38055,19.448161 -17.61941,41.999941 -10.23887,22.55178 -18.23799,42.13762 -17.77584,43.52408 0.46215,1.38646 17.99535,-19.48048 38.96266,-46.37098 20.96731,-26.89051 38.76094,-48.253261 39.54141,-47.472801 2.55203,2.55204 -58.65835,111.773041 -62.1657,110.925621 -3.33823,-0.80654 -47.51133,6.66806 -58.08842,9.82924 -2.93592,0.87746 -4.86449,0.45688 -4.28572,-0.93463 z"
         style="fill:#241c1c;fill-opacity:1;stroke:#000000;stroke-width:0.2857143;stroke-miterlimit:4;stroke-dasharray:none;stroke-opacity:1" />
      <path
         inkscape:connector-curvature="0"
         id="path5683"
         d="m -91.917572,333.57998 c -1.97407,-0.76224 -2.86248,-2.5618 -1.97424,-3.99901 0.88825,-1.43721 0.2534,-2.61311 -1.41076,-2.61311 -1.66417,0 -2.70434,-1.03386 -2.31148,-2.29747 1.0219,-3.28691 -10.119998,-23.41682 -12.961198,-23.41682 -1.30682,0 -1.58143,-1.28571 -0.61023,-2.85714 0.9712,-1.57143 0.40422,-2.85715 -1.25995,-2.85715 -1.66417,0 -3.02576,-1.45593 -3.02576,-3.23541 0,-5.53184 -37.6272,-71.0503 -40.80413,-71.0503 -1.65297,0 -2.19349,-0.81191 -1.20116,-1.80424 0.99233,-0.99233 0.45959,-4.31673 -1.18387,-7.38756 -6.98486,-13.05133 0.69785,-6.32549 18.649,16.32629 10.58896,13.36175 20.51822,24.29408 22.06502,24.29408 1.54681,0 2.1078,1.14004 1.24664,2.53341 -0.86115,1.39337 0.40318,4.16746 2.80962,6.16463 3.31405,2.75042 5.17761,2.82894 7.68282,0.32373 2.50522,-2.50521 2.43494,-3.30748 -0.28971,-3.30748 -1.97845,0 -2.80257,-1.28572 -1.83138,-2.85715 0.9712,-1.57142 0.67783,-2.85714 -0.65194,-2.85714 -1.32976,0 -2.61857,-2.25 -2.86402,-5 -0.24546,-2.75 -10.82006,-27.37758 -23.49912,-54.72795 -12.67906,-27.35037 -22.49321,-50.28756 -21.80924,-50.97154 0.68398,-0.68397 7.87384,7.87217 15.97748,19.01367 8.10363,11.14148 15.99232,20.25725 17.53041,20.25725 1.53809,0 2.0827,1.155 1.21025,2.56666 -0.87246,1.41167 2.09678,6.5094 6.59831,11.32831 4.50153,4.8189 7.52689,9.41935 6.72301,10.22322 -0.80387,0.80388 0.65101,2.27227 3.23307,3.2631 2.58206,0.99082 4.69465,3.3684 4.69465,5.2835 0,1.91509 3.388778,6.59896 7.530618,10.4086 6.87101,6.3199 7.2552,6.39643 4.38624,0.8737 -1.72941,-3.32909 -2.33247,-6.86481 -1.34015,-7.85714 0.99234,-0.99233 0.34459,-1.80424 -1.43942,-1.80424 -1.85154,0 -2.46064,-2.04051 -1.41922,-4.75441 1.33325,-3.47441 0.79378,-4.11744 -2.00378,-2.38844 -2.7825,1.71968 -3.33945,1.09224 -2.0389,-2.29695 0.98413,-2.5646 0.5388,-5.43578 -0.98964,-6.3804 -1.528428,-0.94463 -2.039248,-2.91437 -1.13516,-4.37722 0.90408,-1.46284 0.32255,-2.65972 -1.292298,-2.65972 -1.61485,0 -2.19603,-1.92857 -1.29151,-4.28571 0.90452,-2.35715 0.26166,-4.28572 -1.42857,-4.28572 -1.69024,0 -2.33309,-1.92857 -1.42857,-4.28571 0.90452,-2.35714 0.14543,-4.28572 -1.68686,-4.28572 -1.8323,0 -2.63564,-1.12584 -1.7852,-2.50187 0.85043,-1.37603 -4.21655,-18.17189 -11.25995,-37.32412 -7.04341,-19.15223 -12.7859,-36.347821 -12.76109,-38.212411 0.0248,-1.86459 10.42741,16.538401 23.11689,40.895551 29.107988,55.87204 30.295498,57.19344 30.353708,33.77622 0.0316,-12.71331 -0.60947,-15.94675 -2.16489,-10.91908 -1.77748,5.74547 -2.21654,4.62755 -2.24429,-5.71429 -0.0383,-14.28139 4.19413,-45.15949 4.79743,-35 0.20997,3.53572 1.62712,6.42858 3.14922,6.42858 1.52212,0 1.94648,2.13948 0.94304,4.75441 -1.29719,3.38043 -0.76997,4.10272 1.82434,2.49935 2.70366,-1.67096 3.14958,-0.68227 1.72157,3.81701 -1.1922,3.75628 -0.69067,6.07208 1.31501,6.07208 2.00568,0 2.50721,2.3158 1.31501,6.07209 -1.38383,4.36005 -0.94902,5.46753 1.54213,3.92791 2.51993,-1.5574 2.91087,-0.38459 1.42858,4.28572 -1.5117,4.76291 -1.11266,5.85628 1.53916,4.21736 2.68981,-1.66239 3.09265,-0.27103 1.62015,5.59588 -1.38727,5.52735 -1.00226,7.21663 1.31798,5.78264 2.29146,-1.4162 2.66368,-0.091 1.23699,4.40412 -1.5202,4.78974 -1.11908,5.86025 1.57254,4.19673 2.64896,-1.63714 3.16756,-0.52859 1.94314,4.1536 -1.21484,4.64554 -0.60893,5.97952 2.22248,4.893 2.14096,-0.82156 4.56002,0.0412 5.37568,1.91717 0.81567,1.87601 0.92182,-6.87479 0.2359,-19.44622 -0.8715,-15.97264 -0.45321,-20.70573 1.38876,-15.71428 2.10625,5.70764 2.70275,3.41129 2.96867,-11.42857 0.32237,-17.98986 1.70572,-48.393171 2.59999,-57.142861 0.70828,-6.92979 6.43869,4.76425 7.49526,15.295561 0.88086,8.77979 2.36912,20.23015 5.25569,40.43615 l 2.85714,20 c 0.78571,5.5 2.03044,14.17465 2.76607,19.277 0.73562,5.10235 1.97097,13.777 2.74524,19.277 0.77426,5.5 1.69371,11.28572 2.04322,12.85715 1.67026,7.50953 -0.44926,15.71428 -4.05944,15.71428 -2.55257,0 -3.49617,1.99636 -2.58696,5.47319 0.89493,3.4222 -2.95265,11.92881 -10.26748,22.70037 -6.43432,9.47496 -11.69876,17.87435 -11.69876,18.66532 0,0.79098 -3.21428,4.90641 -7.14285,9.14541 -3.92857,4.239 -7.14286,9.31054 -7.14286,11.27009 0,1.95956 -2.11259,4.37351 -4.69465,5.36434 -2.58206,0.99082 -4.02018,2.47598 -3.19582,3.30033 0.82435,0.82436 -0.89408,4.32981 -3.81875,7.78989 -2.92467,3.46008 -7.59369,9.0549 -10.37561,12.43293 -2.78191,3.37803 -6.67318,5.51822 -8.64726,4.75597 z m -8.893278,-61.87501 c -1.75021,-2.10887 -2.22906,-4.88643 -1.06413,-6.17236 1.16494,-1.28592 0.4485,-1.37459 -1.59209,-0.19703 -2.85851,1.64955 -2.94217,3.0664 -0.36445,6.17236 1.84015,2.21724 3.988578,4.03134 4.774288,4.03134 0.78572,0 -0.003,-1.72544 -1.753618,-3.83431 z m 48.720608,-73.92759 c -2.05018,-2.05018 -3.38095,-2.21887 -3.38095,-0.42857 0,1.62381 0.85714,3.80952 1.90476,4.85714 1.04762,1.04762 2.56904,1.24048 3.38095,0.42857 0.81191,-0.8119 -0.0452,-2.99762 -1.90476,-4.85714 z"
         style="fill:#241c1c;fill-opacity:1;stroke:#000000;stroke-width:0.2857143;stroke-miterlimit:4;stroke-dasharray:none;stroke-opacity:1" />
      <path
         inkscape:connector-curvature="0"
         id="path5685"
         d="m 164.35317,350.60515 c -0.0966,-4.35765 -0.10623,-22.88072 -0.0214,-41.16236 0.12334,-26.57785 -0.72746,-33.97111 -4.2453,-36.89065 -2.6241,-2.17782 -3.25814,-4.35673 -1.57115,-5.39935 2.92016,-1.80476 -15.39537,-45.79662 -20.44787,-49.11351 -4.01681,-2.63697 0.14015,-4.42895 22.07457,-9.51588 13.4432,-3.11769 20.59464,-3.63344 22.59833,-1.62974 2.00369,2.00369 1.9518,2.93134 -0.164,2.93134 -1.70243,0 -3.76778,2.57143 -4.58965,5.71428 -2.0012,7.65261 -0.95714,7.33898 14.26726,-4.28571 7.20313,-5.5 14.27331,-10 15.7115,-10 1.4382,0 1.82029,-1.28571 0.84909,-2.85714 -0.9712,-1.57143 0.59496,-2.85715 3.48035,-2.85715 2.88538,0 9.38984,-3.78466 14.45433,-8.41036 5.0645,-4.62571 9.20818,-7.68256 9.20818,-6.79302 0,0.88955 1.92857,0.0168 4.28571,-1.93947 2.35714,-1.95626 4.28572,-2.91727 4.28572,-2.1356 0,0.78168 -9.64286,21.62893 -21.42858,46.32722 -11.78571,24.69829 -21.42857,45.58788 -21.42857,46.42131 0,0.83343 1.81411,0.01 4.03135,-1.8304 2.65591,-2.20421 4.64334,-2.3555 5.82507,-0.44343 1.84343,2.98273 16.53803,1.26171 24.70588,-2.89353 2.61943,-1.33258 5.84607,-1.03721 7.57687,0.6936 1.96644,1.96644 7.33399,2.16748 15.43771,0.57822 6.83272,-1.34 16.69883,-2.02517 21.9247,-1.52261 l 9.50159,0.91375 -13.07302,10.18509 c -7.19015,5.6018 -13.073,11.37469 -13.073,12.82864 0,1.45395 -1.06527,1.98518 -2.36727,1.1805 -1.30199,-0.80468 -6.5242,2.33373 -11.60491,6.97424 -5.0807,4.6405 -10.12258,8.45782 -11.20416,8.48292 -1.08159,0.0251 -6.46652,3.86851 -11.96652,8.54091 -5.5,4.67241 -11.55288,9.79473 -13.45084,11.38294 -1.89796,1.58821 -4.46939,2.90819 -5.71429,2.93329 -1.24489,0.0251 -6.76344,3.86851 -12.26344,8.54092 -12.70381,10.79223 -14.06969,11.83123 -23.57143,17.93032 l -7.85714,5.04343 -0.17564,-7.92301 z"
         style="fill:#ff00ff;fill-opacity:1;stroke:#000000;stroke-width:0.2857143;stroke-miterlimit:4;stroke-dasharray:none;stroke-opacity:1" />
      <path
         inkscape:connector-curvature="0"
         id="path5687"
         d="m 137.49985,183.39643 c 31.7592,-44.73157 59.56983,-81.98294 60.50646,-81.0463 0.58569,0.58568 -4.65887,13.97434 -11.65456,29.75257 -15.00646,33.8459 -17.33534,40.57944 -14.03489,40.57944 1.35236,0 17.03477,-18.04709 34.84979,-40.10464 17.81503,-22.05755 32.87414,-39.621461 33.4647,-39.030911 1.30546,1.30546 -21.86654,44.243621 -39.62427,73.424521 l -12.9399,21.26387 -26.76919,4.87252 c -14.72305,2.67989 -28.49693,4.96622 -30.60863,5.08073 -2.26627,0.12289 0.52426,-5.93791 6.81049,-14.7918 z"
         style="fill:#ff00ff;fill-opacity:1;stroke:#000000;stroke-width:0.2857143;stroke-miterlimit:4;stroke-dasharray:none;stroke-opacity:1" />
      <path
         inkscape:connector-curvature="0"
         id="path5689"
         d="m -100.06496,316.23048 c -26.90303,-49.7053 -38.05435,-69.60512 -48.04331,-85.73453 -6.09717,-9.84527 -10.44725,-18.539 -9.66684,-19.31942 0.78041,-0.78041 11.48103,10.81052 23.77916,25.75763 12.29812,14.9471 23.21153,27.17655 24.25202,27.17655 6.76563,0 4.18676,-7.25217 -28.34572,-79.71269 -8.04256,-17.9134 -14.22334,-32.96932 -13.73507,-33.45759 0.48827,-0.48827 7.26042,7.45016 15.04922,17.64096 36.959018,48.35686 47.585278,61.6293 48.560908,60.65367 0.58094,-0.58094 -7.28072,-25.32182 -17.470358,-54.97973 -10.18965,-29.6579 -18.16719,-54.93493 -17.72786,-56.17116 0.43932,-1.23624 9.19154,13.34017 19.44938,32.39201 10.257838,19.05184 20.356198,35.20824 22.440798,35.9031 3.07504,1.02501 3.40002,-4.46074 1.72237,-29.07402 -1.31424,-19.28174 -1.04913,-30.3374 0.7275,-30.3374 1.53741,0 7.01526,14.78571 12.17299,32.85714 7.0742,24.78624 10.53205,32.85714 14.07713,32.85714 3.93394,0 5.2648,-5.93385 8.17031,-36.42857 1.90899,-20.03571 3.55699,-43.5 3.66224,-52.14286 0.32675,-26.833291 4.60697,-8.823031 14.22154,59.84126 8.15452,58.23701 8.56086,64.4329 4.42402,67.45783 -2.50538,1.83198 -4.55524,5.99773 -4.55524,9.25723 0,8.66107 -56.48942,92.06003 -62.30984,91.99203 -1.08673,-0.0126 -5.97164,-7.40556 -10.855348,-16.42858 z m -0.28426,-46.37335 c -0.81726,-3.12518 -2.56931,-5.01257 -3.89345,-4.19421 -2.81221,1.73804 -0.26155,9.87636 3.09539,9.87636 1.256188,0 1.615308,-2.55696 0.79806,-5.68215 z m 50.592308,-68.43494 c 0,-1.47869 -1.28571,-3.48314 -2.85714,-4.45433 -1.57143,-0.9712 -2.85714,0.23864 -2.85714,2.68852 0,2.44988 1.28571,4.45433 2.85714,4.45433 1.57143,0 2.85714,-1.20983 2.85714,-2.68852 z"
         style="fill:#88aa00;fill-opacity:1;stroke:#000000;stroke-width:0.2857143;stroke-miterlimit:4;stroke-dasharray:none;stroke-opacity:1" />
      <path
         inkscape:connector-curvature="0"
         id="path5691"
         d="m 163.7532,315.05572 c -1.15973,-44.19827 -3.50352,-56.29792 -15.97902,-82.49066 l -8.09508,-16.9959 10.282,-2.89714 c 5.65509,-1.59342 15.42485,-3.6931 21.71056,-4.66596 9.43047,-1.45958 10.80417,-1.10553 7.85715,2.02505 -4.10054,4.35595 -4.76443,11.22246 -1.08505,11.22246 2.37677,0 32.95076,-21.10162 49.79808,-34.36975 4.39931,-3.46468 8.77961,-5.51855 9.734,-4.56416 0.95439,0.95438 -6.82362,19.81064 -17.28446,41.90278 -10.46085,22.09215 -19.01972,41.3438 -19.01972,42.78145 0,1.43765 7.39286,2.09171 16.42857,1.45348 9.03572,-0.63824 28.47488,-1.81058 43.19813,-2.60521 l 26.76955,-1.44477 -12.28324,10.56595 c -6.75579,5.81127 -15.5878,12.75616 -19.6267,15.4331 -4.0389,2.67694 -12.17109,8.46265 -18.07154,12.85714 -5.90045,4.3945 -16.18617,11.81984 -22.85714,16.50078 -6.67098,4.68093 -17.27191,12.53713 -23.55763,17.45821 -6.28571,4.92108 -14.89706,11.15933 -19.13633,13.86279 l -7.70777,4.91537 -1.07436,-40.94501 z"
         style="fill:#88aa00;fill-opacity:1;stroke:#000000;stroke-width:0.2857143;stroke-miterlimit:4;stroke-dasharray:none;stroke-opacity:1" />
      <path
         inkscape:connector-curvature="0"
         id="path5693"
         d="m 133.10023,194.17426 c 0,-2.92425 55.13472,-78.73835 56.36595,-77.50713 0.56988,0.56988 -3.52218,12.0479 -9.09347,25.50671 -17.06456,41.2236 -13.20039,41.04066 21.64009,-1.0245 14.36439,-17.34305 26.70589,-30.94398 27.42557,-30.22431 1.35842,1.35843 -4.74146,12.62408 -28.2894,52.24666 -13.36923,22.49553 -14.36781,23.45054 -27.39048,26.19525 -22.84527,4.81495 -40.65826,6.92111 -40.65826,4.80732 z"
         style="fill:#c87137;fill-opacity:1;stroke:#000000;stroke-width:0.2857143;stroke-miterlimit:4;stroke-dasharray:none;stroke-opacity:1" />
      <path
         inkscape:connector-curvature="0"
         id="path5695"
         d="m 166.26873,348.17753 c -0.95696,-2.49379 -1.73992,-17.75353 -1.73992,-33.91053 0,-36.05609 -3.13009,-53.41043 -14.09952,-78.17291 l -8.47264,-19.12623 10.57179,-3.35186 c 16.58843,-5.25946 23.42894,-4.69792 23.42894,1.92328 0,8.97911 5.32954,6.9002 32.75639,-12.77732 14.08744,-10.10711 26.04001,-17.95008 26.56127,-17.42882 0.52125,0.52125 -6.82627,18.27338 -16.32782,39.44917 -9.50156,21.17579 -17.27556,40.11778 -17.27556,42.09331 0,2.80415 8.92897,3.18038 40.71429,1.71552 l 40.71428,-1.87636 -10,8.37918 c -5.5,4.60854 -25.42857,19.60457 -44.28571,33.3245 -18.85714,13.71994 -40.25275,29.29862 -47.54579,34.61929 -11.07009,8.07625 -13.54743,8.92511 -15,5.13978 z"
         style="fill:#c87137;fill-opacity:1;stroke:#000000;stroke-width:0.2857143;stroke-miterlimit:4;stroke-dasharray:none;stroke-opacity:1" />
      <path
         inkscape:connector-curvature="0"
         id="path5697"
         d="m -96.312372,319.32076 c -3.790778,-6.00838 -9.677408,-16.38662 -13.081388,-23.06276 -3.40398,-6.67614 -13.23537,-24.34354 -21.84753,-39.26091 -8.61216,-14.91736 -15.65786,-28.09793 -15.6571,-29.29014 0.002,-2.8079 39.4563,39.44083 41.28664,44.2106 0.76438,1.99195 2.71585,3.62173 4.3366,3.62173 4.572328,0 3.471168,-8.54955 -1.3389,-10.39535 -2.35714,-0.90452 -4.28572,-3.90162 -4.28572,-6.66022 0,-5.12536 -8.21286,-25.86292 -27.00916,-68.1984 -5.81797,-13.10398 -10.03401,-24.36952 -9.36899,-25.03454 0.95973,-0.95973 42.94737,50.58656 51.222798,62.88387 1.09313,1.6244 2.77805,2.1629 3.74427,1.19668 0.96623,-0.96622 -4.85797,-21.92774 -12.942658,-46.58115 -8.08468,-24.65341 -14.17684,-45.34696 -13.53814,-45.98567 0.63871,-0.63871 4.13232,4.28861 7.76357,10.9496 11.808108,21.66022 23.524248,39.25376 26.140448,39.25376 1.40761,0 2.68898,-12.53572 2.84748,-27.85715 l 0.28818,-27.85714 9.90757,30.88608 c 7.74083,24.13143 10.9334,30.68853 14.59822,29.98275 6.02267,-1.15986 8.41783,-12.7996 10.90846,-53.01169 1.09497,-17.67857 2.85126,-32.14285 3.90287,-32.14285 1.94974,0 8.79652,42.58298 14.7005,91.42857 l 3.28076,27.14285 -11.65488,22.24825 c -12.05066,23.00373 -45.26741,72.46181 -52.94681,78.83515 -3.69581,3.06724 -5.42107,1.94815 -11.25709,-7.30192 z M -49.756912,199.825 c 0,-2.35714 -1.28571,-4.28572 -2.85714,-4.28572 -1.57143,0 -2.85714,1.92858 -2.85714,4.28572 0,2.35714 1.28571,4.28571 2.85714,4.28571 1.57143,0 2.85714,-1.92857 2.85714,-4.28571 z"
         style="fill:#ff2a2a;fill-opacity:1;stroke:#000000;stroke-width:0.2857143;stroke-miterlimit:4;stroke-dasharray:none;stroke-opacity:1" />
      <path
         inkscape:connector-curvature="0"
         id="path5699"
         d="m 167.29844,340.81986 c -0.0481,-5.26146 -1.22182,-25.16647 -2.6082,-44.23336 -2.08659,-28.69683 -4.03518,-38.27166 -11.31481,-55.59768 -4.98457,-11.86365 -7.71766,-22.00707 -6.30918,-23.41555 1.36671,-1.36671 7.76006,-3.19248 14.20745,-4.05725 9.17327,-1.2304 12.11096,-0.56004 13.50877,3.08262 2.75984,7.192 6.57981,5.85255 32.16997,-11.28019 13.09075,-8.76432 24.17035,-15.51432 24.62136,-15 0.451,0.51431 -6.01786,16.36369 -14.37524,35.22083 -8.35738,18.85715 -15.26986,36.4984 -15.36107,39.20279 -0.14751,4.37371 4.01754,5.00517 37.69132,5.71429 l 37.85714,0.79721 -45.84768,33.77145 c -25.21623,18.5743 -49.96623,36.37913 -55,39.56629 l -9.15232,5.79484 -0.0875,-9.56629 z"
         style="fill:#ff2a2a;fill-opacity:1;stroke:#000000;stroke-width:0.2857143;stroke-miterlimit:4;stroke-dasharray:none;stroke-opacity:1" />
      <path
         inkscape:connector-curvature="0"
         id="path5703"
         d="m 137.40817,189.52802 c 5.95315,-10.30688 45.00841,-62.76763 45.99437,-61.78167 0.61423,0.61423 -2.09537,9.02195 -6.02133,18.6838 -14.09555,34.68935 -8.69613,34.31773 22.8571,-1.57319 12.56879,-14.29665 23.21565,-25.63062 23.65968,-25.18659 0.44402,0.44403 -7.55942,14.98848 -17.78545,32.32101 -20.55396,34.83779 -22.1174,35.994 -53.46751,39.54086 -14.57874,1.6494 -17.15167,1.31096 -15.23686,-2.00422 z"
         style="fill:#ff2a2a;fill-opacity:1;stroke:#000000;stroke-width:0.2857143;stroke-miterlimit:4;stroke-dasharray:none;stroke-opacity:1" />
      <path
         d="m -19.899771,304.11075 c -1.575777,2.00554 -3.480857,-1.13466 -3.333335,-2.61905 0.399776,-4.0226 5.342929,-5.25473 8.571426,-4.04762 5.7750229,2.15924 7.2882255,9.38431 4.7619151,14.5238 -3.7074621,7.54241 -13.4775851,9.37384 -20.4761871,5.47621 -9.328036,-5.19493 -11.481168,-17.58888 -6.190495,-26.42857 6.657772,-11.12384 21.708682,-13.59963 32.3809483,-6.90478 12.9255445,8.10836 15.7245307,25.83325 7.6190748,38.33333 -9.551999,14.73091 -29.9607851,17.85346 -44.2857091,8.33336 -16.538693,-10.99133 -19.985082,-34.0903 -9.047655,-50.23809 12.4278,-18.34814 38.221216,-22.11859 56.1904707,-9.76194 20.1587883,13.86228 24.2534583,42.35314 10.4762343,62.14285 -15.29533,21.97032 -46.48584,26.38935 -68.095232,11.19052"
         sodipodi:t0="0"
         sodipodi:argument="-16.612791"
         sodipodi:radius="50.869984"
         sodipodi:revolution="3"
         sodipodi:expansion="1"
         sodipodi:cy="304.11075"
         sodipodi:cx="-19.899771"
         id="path5705"
         style="fill:none;fill-rule:evenodd;stroke:#000000;stroke-width:6.4000001;stroke-linecap:butt;stroke-linejoin:miter;stroke-miterlimit:4;stroke-dasharray:none;stroke-opacity:1"
         sodipodi:type="spiral" />
      <path
         transform="scale(-1,-1)"
         d="m -102.17297,-309.04465 c -1.71904,2.7218 -4.51704,-0.97438 -4.52381,-2.85714 -0.0183,-5.10217 6.02853,-7.28846 10.238098,-6.19047 7.529927,1.96405 10.364246,10.83957 7.857131,17.61905 -3.679292,9.94916 -15.709009,13.51218 -25.000009,9.52379 -12.38343,-5.31589 -16.68971,-20.59828 -11.19045,-32.38096 6.92026,-14.8273 25.496777,-19.88233 39.761911,-12.85711 17.276989,8.50848 23.083637,30.40043 14.523778,47.14286 -10.087498,19.73038 -35.307289,26.29039 -54.523819,16.19044 -22.18624,-11.66079 -29.50078,-40.21629 -17.8571,-61.90477 13.23029,-24.64383 45.126798,-32.71371 69.285725,-19.52376 27.102664,14.79713 35.928495,50.0384 21.190424,76.66668 -16.362053,29.56243 -54.950839,39.14466 -84.047629,22.85708"
         sodipodi:t0="0"
         sodipodi:argument="-16.715443"
         sodipodi:radius="64.206299"
         sodipodi:revolution="3"
         sodipodi:expansion="1"
         sodipodi:cy="-309.04465"
         sodipodi:cx="-102.17297"
         id="path5707"
         style="fill:none;fill-rule:evenodd;stroke:#000000;stroke-width:10.19999981;stroke-linecap:butt;stroke-linejoin:miter;stroke-miterlimit:4;stroke-dasharray:none;stroke-opacity:1"
         sodipodi:type="spiral" />
      <path
         inkscape:connector-curvature="0"
         id="path5719"
         d="m 160.42339,298.9889 c -2.21505,-1.86609 -4.06499,-3.59542 -4.11095,-3.843 -0.046,-0.24758 1.67972,-11.63002 3.83487,-25.29428 4.25926,-27.00503 4.55647,-27.54888 10.90222,-19.95 2.21336,2.65054 2.14115,3.57611 -2.1543,27.61127 l -4.44446,24.86891 -4.02738,-3.3929 z"
         style="fill:#333333;fill-opacity:1;stroke:#000000;stroke-width:18.45152473;stroke-miterlimit:4;stroke-dasharray:none;stroke-opacity:1" />
      <path
         inkscape:connector-curvature="0"
         id="path5719-0"
         d="m 129.51294,356.27321 c -0.36731,-2.94643 -0.59836,-5.44247 -0.51344,-5.54676 0.0849,-0.1043 6.05866,-0.46098 13.27498,-0.79263 14.26181,-0.65546 14.66301,-0.42423 14.71706,8.48224 0.0188,3.10653 -0.43024,3.21429 -13.39563,3.21429 l -13.41514,0 -0.66783,-5.35714 z"
         style="fill:#333333;fill-opacity:1;stroke:#000000;stroke-width:14.5714283;stroke-miterlimit:4;stroke-dasharray:none;stroke-opacity:1" />
      <path
         inkscape:connector-curvature="0"
         id="path5719-03"
         d="m 129.51294,356.27321 c -0.36731,-2.94643 -0.59836,-5.44247 -0.51344,-5.54676 0.0849,-0.1043 6.05866,-0.46098 13.27498,-0.79263 14.26181,-0.65546 14.66301,-0.42423 14.71706,8.48224 0.0188,3.10653 -0.43024,3.21429 -13.39563,3.21429 l -13.41514,0 -0.66783,-5.35714 z"
         style="fill:#333333;fill-opacity:1;stroke:#000000;stroke-width:14.5714283;stroke-miterlimit:4;stroke-dasharray:none;stroke-opacity:1" />
      <path
         inkscape:connector-curvature="0"
         id="path5719-5"
         d="m 20.941508,310.55892 c -0.36731,-2.94643 -0.59836,-5.44247 -0.51344,-5.54676 0.0849,-0.1043 6.05866,-0.46098 13.27498,-0.79263 14.26181,-0.65546 14.66301,-0.42423 14.71706,8.48224 0.0188,3.10653 -0.43024,3.21429 -13.39563,3.21429 l -13.41514,0 -0.66783,-5.35714 z"
         style="fill:#333333;fill-opacity:1;stroke:#000000;stroke-width:14.5714283;stroke-miterlimit:4;stroke-dasharray:none;stroke-opacity:1" />
      <path
         inkscape:connector-curvature="0"
         id="path5719-54"
         d="m -64.467312,298.8097 c -2.49985,1.25177 -4.62982,2.19911 -4.73328,2.1052 -0.10349,-0.0939 -1.32665,-8.43691 -2.71819,-18.54001 -2.75015,-19.96704 -2.61093,-20.59087 5.10716,-22.8838 2.69204,-0.7997 2.85421,-0.1927 4.83745,18.10759 l 2.05202,18.93511 -4.54516,2.27591 z"
         style="fill:#333333;fill-opacity:1;stroke:#000000;stroke-width:16.37275314;stroke-miterlimit:4;stroke-dasharray:none;stroke-opacity:1" />
      <path
         inkscape:connector-curvature="0"
         id="path5778"
         d="m 10.544188,284.04746 c -13.3019296,-5.01654 -24.46809,-9.34676 -24.8137,-9.62272 -1.15455,-0.92189 13.1003204,-34.18127 14.36255038,-33.51062 0.68393,0.36338 7.72618002,9.80452 15.64942962,20.9803 7.92326,11.17578 16.31144,22.8913 18.64039,26.03449 5.28212,7.12885 5.41291,7.15015 -23.83867,-3.88145 z"
         style="fill:#000000;fill-opacity:1;stroke:#000000;stroke-width:23.57435036;stroke-miterlimit:4;stroke-dasharray:none;stroke-opacity:1" />
      <path
         inkscape:connector-curvature="0"
         id="path5778-1"
         d="m 62.931908,256.0905 c 7.25019,-12.22874 13.45362,-22.47332 13.78539,-22.76576 1.10837,-0.97691 31.387112,18.83681 30.507492,19.96341 -0.47658,0.61044 -10.997212,5.90628 -23.379062,11.7685 -12.38186,5.86221 -25.37598,12.08859 -28.87584,13.83634 -7.93777,3.96395 -7.98146,4.08906 7.96202,-22.80249 z"
         style="fill:#000000;fill-opacity:1;stroke:#000000;stroke-width:23.57435036;stroke-miterlimit:4;stroke-dasharray:none;stroke-opacity:1" />
      <path
         inkscape:connector-curvature="0"
         inkscape:original-d="m 77.901598,380.45186 c 0,0 -33.46654,97.52376 -66.93308,52.94142"
         inkscape:path-effect="#path-effect5805"
         id="path5803"
         d="m 77.899939,380.45668 c 0.04306,0.015 0.08441,0.0344 0.124058,0.0584 0.03771,0.0266 0.07323,0.059 0.106576,0.0972 0.06652,0.0762 0.124235,0.17517 0.173352,0.29653 0,0 0,0 0,0 l 0,0 c 0.0976,0.24169 0.16023,0.57111 0.188425,0.98425 l 0,0 c 0.05568,0.81597 -0.02458,1.95212 -0.243281,3.37581 l 0,0 c -0.422675,2.75156 -1.36147,6.5644 -2.862971,11.14194 l 0,0 c -2.628962,8.0372 -7.17394,19.13693 -14.269147,30.00098 -1.002666,1.53988 -2.072028,3.09053 -3.215976,4.62835 -2.342149,3.14858 -4.861552,6.06085 -7.617984,8.69075 -3.84257,3.7414 -8.254346,6.71123 -13.214372,8.37041 -2.470267,0.80564 -5.002863,1.15173 -7.463579,1.05604 0,0 -5e-6,0 -5e-6,0 -2.807592,-0.12958 -5.333747,-0.85288 -7.463161,-1.87122 -2.925691,-1.41535 -5.130273,-3.28658 -6.704147,-4.98366 -4.384678,-4.71642 -5.103465,-8.43305 -4.469209,-8.90917 1.01083,-0.7588 3.384928,1.78298 8.062381,4.59392 1.632718,0.97575 3.637086,2.02463 5.729445,2.56206 1.499402,0.39248 3.1505,0.58623 4.774425,0.41883 0,0 3e-6,0 3e-6,0 1.440458,-0.12928 2.947559,-0.54791 4.480016,-1.20788 3.228946,-1.33985 6.180482,-3.80797 9.398836,-7.01253 2.2448,-2.2899 4.357573,-4.8478 6.454099,-7.67474 1.021961,-1.378 2.012476,-2.78261 2.973172,-4.18458 6.573724,-9.6239 12.221468,-20.32669 16.061426,-27.28788 l 0,0 c 2.257807,-4.09842 4.147994,-7.45469 5.638386,-9.7413 l 0,0 c 0.77137,-1.1835 1.441323,-2.08874 1.998418,-2.66955 l 0,0 c 0.282784,-0.29483 0.538222,-0.50744 0.764156,-0.63239 l 0,0 c 0,0 0,0 0,0 0.11381,-0.063 0.220474,-0.1039 0.319578,-0.1219 0.04973,-0.009 0.09762,-0.0123 0.143609,-0.01 0.0459,0.006 0.09041,0.0161 0.133471,0.0311 z"
         style="fill:#000000;fill-rule:evenodd;stroke:none;stroke-width:1px;stroke-linecap:butt;stroke-linejoin:miter;stroke-opacity:1" />
      <path
         inkscape:connector-curvature="0"
         inkscape:original-d="m -117.04262,772.68218 -34.28572,60 88.571428,-2.8572 22.85714,-54.2857 z"
         inkscape:path-effect="#path-effect5809"
         id="path5807"
         d="m -117.04262,772.68218 c 1.83801,1.05029 -11.2458,25.18624 -32.51287,58.9326 -0.0518,0.003 68.906913,-4.32419 74.152818,-4.64031 3.452398,-0.20804 6.872966,-0.41118 10.267438,-0.60907 14.459211,-31.04545 9.868552,-20.98891 23.125649,-49.48085 -44.131307,-0.14081 -75.115885,-1.96531 -75.033035,-4.20237 0.0823,-2.22219 31.538095,-1.7639 79.252661,1.51183 -4.907353,12.81358 -16.213885,42.4904 -22.588631,59.09055 -3.745692,0.0324 -7.526952,0.0616 -11.346656,0.0882 -21.660317,0.15055 -66.414354,0.29402 -81.375944,0.37685 19.8917,-38.3117 34.23359,-62.11025 36.05857,-61.0674 z"
         style="fill:#000000;fill-rule:evenodd;stroke:none;stroke-width:1px;stroke-linecap:butt;stroke-linejoin:miter;stroke-opacity:1" />
      <path
         inkscape:connector-curvature="0"
         inkscape:original-d="m 65.814518,769.82498 14.28571,51.4286 65.714292,-2.8571 -22.85714,-48.5715 z"
         inkscape:path-effect="#path-effect5831"
         id="path5829"
         d="m 65.814518,769.82498 c 1.86741,-0.51872 8.562533,19.53141 16.227856,48.7548 17.389903,-0.70714 36.098016,-1.15074 57.536906,-1.54532 1.29345,-0.0238 2.5827,-0.0472 3.86613,-0.0702 -8.41652,-16.14178 -15.73641,-30.36362 -22.44313,-44.05845 -32.402035,0.12296 -55.187762,-1.10687 -55.187762,-3.08082 0,-1.97246 23.163649,-3.20527 59.097962,-3.08082 7.12229,15.69074 14.7505,33.23593 23.27115,53.08455 -1.47757,0.097 -2.96304,0.19428 -4.45448,0.29155 -24.71499,1.61198 -46.495841,2.92894 -65.571068,3.80712 -9.51155,-32.5927 -14.205636,-53.58516 -12.343564,-54.1024 z"
         style="fill:#000000;fill-rule:evenodd;stroke:none;stroke-width:1px;stroke-linecap:butt;stroke-linejoin:miter;stroke-opacity:1" />
      <path
         inkscape:connector-curvature="0"
         id="path5843"
         d="m 139.38078,514.95456 c -9.81491,-25.27017 -17.49322,-46.2416 -17.06292,-46.60318 1.53334,-1.28843 122.65894,-58.52638 123.85216,-58.52638 0.66876,0 1.21593,17.99511 1.21593,39.98912 l 0,39.98913 -42.14286,33.30628 c -23.17857,18.31845 -43.46454,34.3153 -45.07993,35.54854 -1.85414,1.4155 -9.5169,-14.69861 -20.78238,-43.70351 z"
         style="fill:#b3b3b3;fill-opacity:1;stroke:#000000;stroke-width:0;stroke-miterlimit:4;stroke-dasharray:none;stroke-opacity:1" />
      <path
         inkscape:connector-curvature="0"
         id="path5843-6"
         d="m -119.07076,535.38949 c -8.72492,25.66703 -16.32301,46.66763 -16.88507,46.66793 -2.00279,0 -131.58226,-34.0098 -132.49634,-34.7768 -0.51229,-0.4299 10.63559,-14.56665 24.77307,-31.41503 l 25.70451,-30.63345 53.69213,1.57486 c 29.5307,0.8661 55.35325,1.65142 57.38343,1.74502 2.33028,0.10751 -2.15774,17.37708 -12.17173,46.83747 z"
         style="fill:#b3b3b3;fill-opacity:1;stroke:#000000;stroke-width:0;stroke-miterlimit:4;stroke-dasharray:none;stroke-opacity:1" />
      <path
         inkscape:connector-curvature="0"
         id="path5860"
         d="m -130.50118,802.63808 16.29884,-27.7445 14.365568,1.7266 c 7.90107,0.9496 23.5784,1.7378 34.83852,1.7514 l 20.47295,0.025 -10.33759,22.7573 c -11.90067,26.1983 -8.41916,24.5678 -58.415568,27.358 l -33.52155,1.8708 16.29883,-27.7445 z"
         style="fill:#b3b3b3;fill-opacity:1;stroke:#000000;stroke-width:0;stroke-miterlimit:4;stroke-dasharray:none;stroke-opacity:1" />
      <path
         inkscape:connector-curvature="0"
         id="path5862"
         d="m 77.816758,799.32998 c -2.87844,-10.7277 -5.8672,-21.1121 -6.64169,-23.0764 -1.57456,-3.9934 14.8846,-4.8187 36.637722,-1.8372 12.18118,1.6697 13.05455,2.4687 23.42338,21.4286 l 10.77042,19.6943 -21.2389,0 c -11.68138,0 -24.946552,0.7415 -29.478142,1.6479 -8.08198,1.6164 -8.33917,1.2755 -13.47279,-17.8572 z"
         style="fill:#784421;fill-opacity:1;stroke:#000000;stroke-width:0;stroke-miterlimit:4;stroke-dasharray:none;stroke-opacity:1" />
      <path
         inkscape:connector-curvature="0"
         id="path5864"
         d="m -106.89977,830.73228 c 35.206708,-1.6092 42.489738,-3.4361 47.028978,-11.7967 4.96545,-9.1456 5.83463,-3.9576 1.08384,6.4693 -3.28704,7.2142 -3.59015,7.2725 -35,6.7268 -18.650698,-0.3241 -24.044748,-0.8998 -13.112818,-1.3994 z"
         style="fill:#784421;fill-opacity:1;stroke:#000000;stroke-width:0;stroke-miterlimit:4;stroke-dasharray:none;stroke-opacity:1" />
      <path
         inkscape:connector-curvature="0"
         id="path5866"
         d="m -143.49113,827.38558 c 0.48239,-1.0932 7.23471,-12.9024 15.00514,-26.2427 l 14.12806,-24.2551 32.596478,0.5741 c 17.92807,0.3158 33.1354,1.113 33.79408,1.7717 1.8858,1.8858 -14.74317,37.3677 -19.20698,40.9827 -2.20612,1.7866 -9.15399,4.0726 -15.4397,5.08 -17.517718,2.8077 -61.865678,4.3296 -60.877078,2.0893 z"
         style="fill:#ffb380;fill-opacity:1;stroke:#000000;stroke-width:0;stroke-miterlimit:4;stroke-dasharray:none;stroke-opacity:1" />
      <path
         inkscape:connector-curvature="0"
         id="path5868"
         d="m -31.956482,462.53815 c -24.64918,-6.63617 -30.64449,-10.99767 -37.7173,-27.43887 -5.75371,-13.37487 -6.85028,-14.46437 -10.09373,-10.02868 -3.3016,4.51521 -3.93298,4.1323 -6.81408,-4.13243 -4.98381,-14.29658 -3.74159,-37.83962 3.09548,-58.66678 5.37869,-16.38462 6.69972,-18.32547 9.28572,-13.64257 1.6582,3.00278 8.17986,10.79874 14.49259,17.32436 31.89282,32.96842 82.67567,16.13608 96.06813,-31.84247 l 3.19011,-11.42857 5.26465,12.22641 c 15.65971,36.36746 47.529,52.23703 78.725842,39.20216 11.47017,-4.79254 20.98788,-5.58802 20.98788,-1.75415 0,1.39236 -5.21148,10.3358 -11.58105,19.87432 -12.64334,18.93355 -28.96854,34.5168 -30.70447,29.30901 -0.5906,-1.77182 -7.212422,2.29765 -14.715162,9.04325 -14.87549,13.37434 -42.09393,24.34029 -79.6146796,32.07568 -24.2939904,5.00853 -20.7786804,5.01917 -39.8699304,-0.12065 z m 76.10082,-16.80005 c 14.42007,-7.45691 35.88702,-45.82891 34.13563,-61.01718 -0.7951,-6.89519 -2.27912,-5.382 -13.41191,13.67551 -16.29123,27.88793 -27.75954,40 -37.87397,40 -4.31328,0 -8.63694,-1.28572 -9.60814,-2.85715 -2.62894,-4.25372 -7.14286,-3.45332 -7.14286,1.26656 0,5.53833 11.118,13.01916 19.34905,13.01916 3.65695,0 10.20544,-1.8391 14.5522,-4.0869 z"
         style="fill:#ffb380;fill-opacity:1;stroke:#000000;stroke-width:0;stroke-miterlimit:4;stroke-dasharray:none;stroke-opacity:1" />
      <path
         inkscape:connector-curvature="0"
         id="path5870"
         d="m 23.859218,251.02225 c -8.58593,-11.77676 -12.23855,-18.97377 -10,-19.70367 5.80229,-1.89187 48.13001,-10.06501 52.12553,-10.06501 2.14865,0 -1.56916,8.02528 -8.86087,19.12712 -6.90951,10.51991 -13.29951,21.44849 -14.20001,24.28571 -0.90051,2.83723 -2.51492,5.10258 -3.5876,5.0341 -1.07268,-0.0685 -8.03735,-8.47368 -15.47705,-18.67825 z"
         style="fill:#ffb380;fill-opacity:1;stroke:#000000;stroke-width:0;stroke-miterlimit:4;stroke-dasharray:none;stroke-opacity:1" />
      <path
         inkscape:connector-curvature="0"
         id="path5876"
         d="m 120.24309,229.825 c -3.14286,-1.35053 -10.21428,-2.56524 -15.71428,-2.69935 -5.500002,-0.13411 -14.951902,-1.96786 -21.004212,-4.075 l -11.00421,-3.83117 12.43278,-1.91669 c 6.83803,-1.05418 16.382382,-2.62522 21.209662,-3.49119 7.56854,-1.35772 9.85034,-0.16712 16.57398,8.64803 7.96931,10.44831 7.55162,11.682 -2.49372,7.36537 z"
         style="fill:#ffb380;fill-opacity:1;stroke:#000000;stroke-width:0;stroke-miterlimit:4;stroke-dasharray:none;stroke-opacity:1" />
      <path
         inkscape:connector-curvature="0"
         id="path5878"
         d="m -38.786632,505.79112 c -12.86284,-29.48552 -12.92025,-29.7591 -6.50217,-30.98599 3.56138,-0.6808 13.54013,0.0427 22.175,1.60786 13.0305,2.36187 20.1932204,1.79773 42.12902,-3.31807 14.5361,-3.39007 26.87833,-5.7147 27.42718,-5.16585 1.02009,1.02009 -69.00511,67.61021 -71.09791,67.61021 -0.63453,0 -6.99353,-13.38667 -14.13112,-29.74816 z"
         style="fill:#28170b;fill-opacity:1;stroke:#000000;stroke-width:0;stroke-miterlimit:4;stroke-dasharray:none;stroke-opacity:1" />
      <path
         inkscape:connector-curvature="0"
         id="path5882"
         d="m -140.85015,825.18548 c 0.60128,-1.4452 6.64759,-12.5639 13.43623,-24.7083 l 12.34299,-22.0807 32.657008,0 c 25.39402,0 32.65701,0.8516 32.65701,3.8293 0,8.6752 -17.46701,38.4533 -23.6364,40.2958 -10.81814,3.2308 -68.642818,5.5143 -67.456838,2.6639 z"
         style="fill:#280b0b;fill-opacity:1;stroke:#000000;stroke-width:0;stroke-miterlimit:4;stroke-dasharray:none;stroke-opacity:1" />
      <path
         inkscape:connector-curvature="0"
         id="path5884"
         d="m 83.618758,813.39648 c -0.68601,-1.1786 -3.42427,-9.7251 -6.08503,-18.9922 -3.77388,-13.144 -4.06155,-17.3291 -1.30814,-19.0308 4.18031,-2.5835 33.371262,-0.1198 40.226742,3.3952 4.27327,2.191 22.36219,30.483 22.36219,34.9755 0,2.5679 -53.695572,2.2296 -55.195762,-0.3477 z"
         style="fill:#280b0b;fill-opacity:1;stroke:#000000;stroke-width:0;stroke-miterlimit:4;stroke-dasharray:none;stroke-opacity:1" />
      <path
         inkscape:connector-curvature="0"
         id="path5886"
         d="m -36.354422,507.71977 c -5.8616,-13.77069 -10.63223,-26.65227 -10.6014,-28.62573 0.0426,-2.72821 5.70493,-3.1701 23.62748,-1.84391 17.0082904,1.25854 29.0582004,0.45198 43.27707,-2.89674 10.8381,-2.55251 20.22252,-4.12404 20.85427,-3.49229 1.18258,1.18258 -60.50884,59.79821 -64.35287,61.14439 -1.18091,0.41355 -6.94296,-10.51502 -12.80455,-24.28572 z"
         style="fill:#0000ff;fill-opacity:1;stroke:#000000;stroke-width:0;stroke-miterlimit:4;stroke-dasharray:none;stroke-opacity:1" />
      <path
         id="path5896"
         d="m 268.586,352.64388 c -1.28217,-0.11737 -15.00281,8.61189 -38.70312,25.39258 10.49361,17.80006 24.2267,40.59115 40.85352,67.82812 0.0775,-0.49113 0.15491,-0.98243 0.23828,-1.47266 -0.14968,-0.29565 -0.3116,-0.584 -0.44727,-0.88867 -0.16372,-0.36767 -0.21677,-0.79408 -0.19141,-1.25976 -14.51381,-25.15973 -26.96685,-46.44352 -37.16015,-63.48829 21.91668,-14.8072 34.74259,-24.42477 35.46679,-25.9082 0.29531,2.18893 16.3942,24.98556 44.41797,62.38281 3.14641,1.87483 5.35105,4.73771 6.01953,8.0293 0.1003,0.13319 0.18459,0.24734 0.28516,0.38086 1.97693,-0.28928 3.98951,-0.57914 6.03711,-0.86719 3.55068,-1.04037 7.25185,-1.90086 11.09961,-2.58203 5.06973,-0.8988 10.37624,-1.47571 15.8125,-1.57031 5.91969,-0.10029 12.05799,0.36097 18.11133,1.68359 6.21732,1.35855 12.441,3.641 18.13281,7.04297 6.10232,3.62896 11.6451,8.5982 16.24024,14.57227 5.47775,7.09673 9.54843,15.53893 12.57031,24.75586 3.84777,11.76754 5.79881,24.4025 6.67773,37.75781 0.0445,0.68797 0.0901,1.41352 0.13477,2.10547 -0.76127,0.52294 -1.56081,1.07191 -2.32617,1.59765 -0.31895,-0.11721 -0.63813,-0.23434 -0.95704,-0.35156 0.0307,0.31584 0.0611,0.63203 0.0918,0.94727 -9.58703,6.58551 -19.36081,13.29763 -29.08203,19.97851 -16.84794,11.57871 -33.22438,22.84352 -49.39648,33.99805 -2.38881,-1.50726 -4.77081,-3.00562 -7.14649,-4.49805 -7.30215,-3.85895 -13.96354,-8.7372 -19.74219,-14.36914 -8.30717,-8.05729 -14.73541,-17.73981 -18.91211,-28.05468 -5.96101,-14.59704 -7.43112,-30.61859 -6.44726,-45.63282 0.11688,-1.72582 0.22598,-3.36729 0.33984,-5.06054 -0.59133,-0.17647 -1.43515,-0.79276 -2.51953,-1.83594 -1.6065,-0.68648 -3.54334,-1.69977 -5.96484,-3.05469 -0.0597,0.73455 -0.11967,1.46186 -0.17969,2.20508 -0.68481,-1.19438 -1.30546,-2.26924 -1.96484,-3.41602 -0.60433,-0.3437 -1.20111,-0.68064 -1.85938,-1.05664 1.26798,2.07053 2.39712,3.92892 3.69727,6.04883 -0.15028,1.86264 -0.29607,3.63185 -0.44727,5.51172 -1.3157,16.02903 0.15179,33.40801 6.58008,49.79492 4.57402,11.56942 11.64922,22.41266 20.89453,31.4961 6.50306,6.36162 13.98969,11.87576 22.21875,16.26367 4.09334,1.38676 8.20819,2.77836 12.3457,4.17578 15.62112,-11.86818 31.41907,-23.90038 47.67969,-36.29688 10.07992,-7.68456 20.30773,-15.48431 30.2168,-23.03711 0.0158,0.16059 0.031,0.32193 0.0469,0.48243 0.12124,1.22803 0.24694,2.44183 0.36914,3.66601 0.0991,-0.10713 0.1912,-0.20971 0.29102,-0.3164 -0.0436,0.0394 -0.0402,0.024 0.0898,-0.12696 4.7671,-5.53386 7.31906,-8.06206 11.4043,-8.93945 -0.0692,-0.94355 -0.13528,-1.93663 -0.20508,-2.86914 -1.02147,-13.8838 -3.28699,-27.26302 -7.57226,-39.89844 -3.36047,-9.93312 -8.04517,-19.18366 -14.33008,-27.12891 -5.32263,-6.70867 -11.74845,-12.23904 -18.83008,-16.28906 -6.60808,-3.76208 -13.65986,-6.1971 -20.62109,-7.54883 -6.75839,-1.31223 -13.46451,-1.66731 -19.84375,-1.39257 -5.85369,0.2497 -11.50423,1.01528 -16.85547,2.12109 -4.08814,0.84538 -8.02459,1.88647 -11.80078,3.11914 -0.86619,0.71066 -1.73657,1.41019 -2.60938,2.09766 -31.28094,-41.89546 -51.1867,-66.91711 -52.16211,-66.18555 -0.0154,-0.0222 -0.0446,-0.0353 -0.0859,-0.0391 z m 4.21485,94.7539 c -0.20446,0.31245 -0.40322,0.62035 -0.57422,0.9043 0.94095,1.54038 1.89918,3.10781 2.85937,4.67773 0.3948,-0.0933 0.80773,-0.20059 1.24219,-0.32617 -0.54113,-0.93949 -1.09837,-1.90891 -1.64648,-2.86133 -0.66998,-0.77055 -1.2929,-1.57146 -1.88086,-2.39453 z m 154.28711,66.4043 c -0.0508,-0.009 -0.33497,0.0589 -0.63477,0.13086 -0.26287,0.20933 -0.44691,0.3479 -0.6914,0.54102 0.4199,-0.19243 0.84118,-0.38164 1.24609,-0.59961 0.0846,-0.0456 0.10631,-0.0675 0.0801,-0.0723 z"
         style="fill:#000000;fill-rule:evenodd;stroke:#000000;stroke-width:5;stroke-linecap:butt;stroke-linejoin:miter;stroke-miterlimit:4;stroke-dasharray:none;stroke-opacity:1"
         inkscape:connector-curvature="0" />
      <path
         id="path5900"
         d="m 362.50983,428.96028 c 2.64268,11.70434 5.18063,22.95637 8.30274,36.80078 -8.37712,-7.67466 -16.66959,-15.28452 -25.81836,-23.67968 -0.63721,9.14633 -1.28051,18.48203 -1.93946,28.09961 -0.21419,3.12604 -0.42601,6.23747 -0.63671,9.32226 -8.52474,-10.41555 -14.85794,-18.14706 -22.79688,-27.84961 2.96774,15.37946 5.70335,29.47506 8.28516,42.64649 -9.54089,-7.70054 -18.01798,-14.47517 -25.55078,-20.41407 -6.83416,26.00889 -9.34091,41.35832 -7.96875,41.65235 1.38034,0.29579 5.33377,-14.58154 9.17382,-38.34571 7.65623,5.87482 16.24196,12.37188 25.87696,19.58594 -2.69705,-13.22286 -5.62831,-27.46352 -8.85743,-43.06836 7.88948,10.0802 14.45392,18.47973 22.91602,29.29492 0.25973,-3.0307 0.52235,-6.08918 0.78516,-9.16406 0.80852,-9.45962 1.59194,-18.66336 2.35351,-27.70117 9.09741,7.82338 17.29993,14.8776 25.60938,22.03516 -3.31544,-14.05233 -6.0348,-25.58119 -8.83985,-37.48438 8.81127,10.41851 16.31293,19.14564 22.64454,26.35156 8.64258,-16.9343 12.22029,-26.76037 11.19335,-27.21679 -1.03279,-0.45902 -5.87442,8.6929 -11.66211,24.21094 -6.45051,-7.17396 -14.09333,-15.4829 -23.07031,-25.07618 z"
         style="fill:#00ff00;fill-rule:evenodd;stroke:none;stroke-width:1px;stroke-linecap:butt;stroke-linejoin:miter;stroke-opacity:1"
         inkscape:connector-curvature="0" />
      <path
         id="path5904"
         d="m 397.87702,434.24544 -5.48828,12.78906 -5.48828,12.79102 -10.13867,-11.42969 c -8.97067,-10.11157 -9.96001,-10.60489 -8.58399,-4.28516 0.85538,3.92857 2.45986,11.52847 3.56641,16.88868 l 2.01172,9.74609 -12.81055,-10.49805 -12.8125,-10.49804 -2.01172,17.78125 -2.01172,17.7832 -9.98047,-11.31641 c -8.92131,-10.11526 -9.82894,-10.55709 -8.55664,-4.17187 0.78279,3.92857 2.34525,12.2143 3.47071,18.41406 l 2.04492,11.27344 -12.40235,-9.1211 c -14.33667,-10.54331 -15.84223,-9.51274 -18.62304,12.74414 -1.68588,13.49337 -1.04276,15.95713 7.34375,28.14649 5.0553,7.34763 14.99079,17.03855 22.07812,21.5332 l 12.88477,8.17188 38.9375,-26.71094 c 34.62279,-23.75044 39.03588,-27.69915 39.83593,-35.64063 1.22719,-12.18113 -6.86205,-39.23298 -15.85742,-53.02929 l -7.4082,-11.36133 z"
         style="fill:#00ff00;fill-opacity:1;stroke:#000000;stroke-width:0;stroke-miterlimit:4;stroke-dasharray:none;stroke-opacity:1"
         inkscape:connector-curvature="0" />
    </g>
  </g>
</svg>
