<?xml version="1.0" encoding="UTF-8" standalone="no"?>
<!-- Created with Inkscape (http://www.inkscape.org/) -->

<svg
   xmlns:dc="http://purl.org/dc/elements/1.1/"
   xmlns:cc="http://creativecommons.org/ns#"
   xmlns:rdf="http://www.w3.org/1999/02/22-rdf-syntax-ns#"
   xmlns:svg="http://www.w3.org/2000/svg"
   xmlns="http://www.w3.org/2000/svg"
   xmlns:xlink="http://www.w3.org/1999/xlink"
   xmlns:sodipodi="http://sodipodi.sourceforge.net/DTD/sodipodi-0.dtd"
   xmlns:inkscape="http://www.inkscape.org/namespaces/inkscape"
   width="210mm"
   height="297mm"
   viewBox="0 0 744.09448819 1052.3622047"
   id="svg5119"
   version="1.1"
   inkscape:version="0.91 r13725"
   sodipodi:docname="fenster1.svg">
  <defs
     id="defs5121">
    <inkscape:path-effect
       effect="skeletal"
       id="path-effect5249"
       is_visible="true"
       pattern="M 0,5 C 0,2.24 2.24,0 5,0 7.76,0 10,2.24 10,5 10,7.76 7.76,10 5,10 2.24,10 0,7.76 0,5 Z"
       copytype="single_stretched"
       prop_scale="1"
       scale_y_rel="false"
       spacing="0"
       normal_offset="0"
       tang_offset="0"
       prop_units="false"
       vertical_pattern="false"
       fuse_tolerance="0" />
    <inkscape:path-effect
       effect="skeletal"
       id="path-effect5245"
       is_visible="true"
       pattern="M 0,5 C 0,2.24 2.24,0 5,0 7.76,0 10,2.24 10,5 10,7.76 7.76,10 5,10 2.24,10 0,7.76 0,5 Z"
       copytype="single_stretched"
       prop_scale="1"
       scale_y_rel="false"
       spacing="0"
       normal_offset="0"
       tang_offset="0"
       prop_units="false"
       vertical_pattern="false"
       fuse_tolerance="0" />
    <inkscape:path-effect
       effect="skeletal"
       id="path-effect5241"
       is_visible="true"
       pattern="M 0,5 C 0,2.24 2.24,0 5,0 7.76,0 10,2.24 10,5 10,7.76 7.76,10 5,10 2.24,10 0,7.76 0,5 Z"
       copytype="single_stretched"
       prop_scale="1"
       scale_y_rel="false"
       spacing="0"
       normal_offset="0"
       tang_offset="0"
       prop_units="false"
       vertical_pattern="false"
       fuse_tolerance="0" />
    <inkscape:path-effect
       effect="skeletal"
       id="path-effect5237"
       is_visible="true"
       pattern="M 0,5 C 0,2.24 2.24,0 5,0 7.76,0 10,2.24 10,5 10,7.76 7.76,10 5,10 2.24,10 0,7.76 0,5 Z"
       copytype="single_stretched"
       prop_scale="1"
       scale_y_rel="false"
       spacing="0"
       normal_offset="0"
       tang_offset="0"
       prop_units="false"
       vertical_pattern="false"
       fuse_tolerance="0" />
    <inkscape:path-effect
       effect="skeletal"
       id="path-effect5233"
       is_visible="true"
       pattern="M 0,5 C 0,2.24 2.24,0 5,0 7.76,0 10,2.24 10,5 10,7.76 7.76,10 5,10 2.24,10 0,7.76 0,5 Z"
       copytype="single_stretched"
       prop_scale="1"
       scale_y_rel="false"
       spacing="0"
       normal_offset="0"
       tang_offset="0"
       prop_units="false"
       vertical_pattern="false"
       fuse_tolerance="0" />
    <inkscape:path-effect
       effect="skeletal"
       id="path-effect5229"
       is_visible="true"
       pattern="M 0,5 C 0,2.24 2.24,0 5,0 7.76,0 10,2.24 10,5 10,7.76 7.76,10 5,10 2.24,10 0,7.76 0,5 Z"
       copytype="single_stretched"
       prop_scale="1"
       scale_y_rel="false"
       spacing="0"
       normal_offset="0"
       tang_offset="0"
       prop_units="false"
       vertical_pattern="false"
       fuse_tolerance="0" />
    <inkscape:path-effect
       effect="skeletal"
       id="path-effect5225"
       is_visible="true"
       pattern="M 0,5 C 0,2.24 2.24,0 5,0 7.76,0 10,2.24 10,5 10,7.76 7.76,10 5,10 2.24,10 0,7.76 0,5 Z"
       copytype="single_stretched"
       prop_scale="1"
       scale_y_rel="false"
       spacing="0"
       normal_offset="0"
       tang_offset="0"
       prop_units="false"
       vertical_pattern="false"
       fuse_tolerance="0" />
    <inkscape:path-effect
       effect="skeletal"
       id="path-effect5221"
       is_visible="true"
       pattern="M 0,5 C 0,2.24 2.24,0 5,0 7.76,0 10,2.24 10,5 10,7.76 7.76,10 5,10 2.24,10 0,7.76 0,5 Z"
       copytype="single_stretched"
       prop_scale="1"
       scale_y_rel="false"
       spacing="0"
       normal_offset="0"
       tang_offset="0"
       prop_units="false"
       vertical_pattern="false"
       fuse_tolerance="0" />
    <inkscape:path-effect
       effect="skeletal"
       id="path-effect5217"
       is_visible="true"
       pattern="M 0,5 C 0,2.24 2.24,0 5,0 7.76,0 10,2.24 10,5 10,7.76 7.76,10 5,10 2.24,10 0,7.76 0,5 Z"
       copytype="single_stretched"
       prop_scale="1"
       scale_y_rel="false"
       spacing="0"
       normal_offset="0"
       tang_offset="0"
       prop_units="false"
       vertical_pattern="false"
       fuse_tolerance="0" />
    <inkscape:path-effect
       effect="skeletal"
       id="path-effect5213"
       is_visible="true"
       pattern="M 0,5 C 0,2.24 2.24,0 5,0 7.76,0 10,2.24 10,5 10,7.76 7.76,10 5,10 2.24,10 0,7.76 0,5 Z"
       copytype="single_stretched"
       prop_scale="1"
       scale_y_rel="false"
       spacing="0"
       normal_offset="0"
       tang_offset="0"
       prop_units="false"
       vertical_pattern="false"
       fuse_tolerance="0" />
    <inkscape:path-effect
       effect="skeletal"
       id="path-effect5209"
       is_visible="true"
       pattern="M 0,5 C 0,2.24 2.24,0 5,0 7.76,0 10,2.24 10,5 10,7.76 7.76,10 5,10 2.24,10 0,7.76 0,5 Z"
       copytype="single_stretched"
       prop_scale="1"
       scale_y_rel="false"
       spacing="0"
       normal_offset="0"
       tang_offset="0"
       prop_units="false"
       vertical_pattern="false"
       fuse_tolerance="0" />
    <inkscape:path-effect
       effect="skeletal"
       id="path-effect5205"
       is_visible="true"
       pattern="M 0,5 C 0,2.24 2.24,0 5,0 7.76,0 10,2.24 10,5 10,7.76 7.76,10 5,10 2.24,10 0,7.76 0,5 Z"
       copytype="single_stretched"
       prop_scale="1"
       scale_y_rel="false"
       spacing="0"
       normal_offset="0"
       tang_offset="0"
       prop_units="false"
       vertical_pattern="false"
       fuse_tolerance="0" />
    <inkscape:path-effect
       effect="skeletal"
       id="path-effect5201"
       is_visible="true"
       pattern="M 0,5 C 0,2.24 2.24,0 5,0 7.76,0 10,2.24 10,5 10,7.76 7.76,10 5,10 2.24,10 0,7.76 0,5 Z"
       copytype="single_stretched"
       prop_scale="1"
       scale_y_rel="false"
       spacing="0"
       normal_offset="0"
       tang_offset="0"
       prop_units="false"
       vertical_pattern="false"
       fuse_tolerance="0" />
    <inkscape:path-effect
       effect="skeletal"
       id="path-effect5197"
       is_visible="true"
       pattern="M 0,5 C 0,2.24 2.24,0 5,0 7.76,0 10,2.24 10,5 10,7.76 7.76,10 5,10 2.24,10 0,7.76 0,5 Z"
       copytype="single_stretched"
       prop_scale="1"
       scale_y_rel="false"
       spacing="0"
       normal_offset="0"
       tang_offset="0"
       prop_units="false"
       vertical_pattern="false"
       fuse_tolerance="0" />
    <inkscape:path-effect
       effect="skeletal"
       id="path-effect5193"
       is_visible="true"
       pattern="M 0,5 C 0,2.24 2.24,0 5,0 7.76,0 10,2.24 10,5 10,7.76 7.76,10 5,10 2.24,10 0,7.76 0,5 Z"
       copytype="single_stretched"
       prop_scale="1"
       scale_y_rel="false"
       spacing="0"
       normal_offset="0"
       tang_offset="0"
       prop_units="false"
       vertical_pattern="false"
       fuse_tolerance="0" />
    <inkscape:path-effect
       effect="skeletal"
       id="path-effect5189"
       is_visible="true"
       pattern="M 0,5 C 0,2.24 2.24,0 5,0 7.76,0 10,2.24 10,5 10,7.76 7.76,10 5,10 2.24,10 0,7.76 0,5 Z"
       copytype="single_stretched"
       prop_scale="1"
       scale_y_rel="false"
       spacing="0"
       normal_offset="0"
       tang_offset="0"
       prop_units="false"
       vertical_pattern="false"
       fuse_tolerance="0" />
    <inkscape:path-effect
       effect="skeletal"
       id="path-effect5185"
       is_visible="true"
       pattern="M 0,5 C 0,2.24 2.24,0 5,0 7.76,0 10,2.24 10,5 10,7.76 7.76,10 5,10 2.24,10 0,7.76 0,5 Z"
       copytype="single_stretched"
       prop_scale="1"
       scale_y_rel="false"
       spacing="0"
       normal_offset="0"
       tang_offset="0"
       prop_units="false"
       vertical_pattern="false"
       fuse_tolerance="0" />
    <inkscape:path-effect
       effect="spiro"
       id="path-effect5179"
       is_visible="true" />
    <inkscape:path-effect
       effect="spiro"
       id="path-effect5175"
       is_visible="true" />
    <inkscape:path-effect
       effect="spiro"
       id="path-effect5171"
       is_visible="true" />
    <inkscape:path-effect
       effect="spiro"
       id="path-effect5167"
       is_visible="true" />
    <inkscape:path-effect
       effect="spiro"
       id="path-effect5163"
       is_visible="true" />
    <linearGradient
       inkscape:collect="always"
       id="linearGradient5147">
      <stop
         style="stop-color:#e5ff80;stop-opacity:1;"
         offset="0"
         id="stop5149" />
      <stop
         style="stop-color:#e5ff80;stop-opacity:0;"
         offset="1"
         id="stop5151" />
    </linearGradient>
    <inkscape:path-effect
       effect="skeletal"
       id="path-effect5145"
       is_visible="true"
       pattern="M 0,5 C 0,2.24 2.24,0 5,0 7.76,0 10,2.24 10,5 10,7.76 7.76,10 5,10 2.24,10 0,7.76 0,5 Z"
       copytype="single_stretched"
       prop_scale="1"
       scale_y_rel="false"
       spacing="0"
       normal_offset="0"
       tang_offset="0"
       prop_units="false"
       vertical_pattern="false"
       fuse_tolerance="0" />
    <inkscape:path-effect
       effect="skeletal"
       id="path-effect5137"
       is_visible="true"
       pattern="M 0,5 C 0,2.24 2.24,0 5,0 7.76,0 10,2.24 10,5 10,7.76 7.76,10 5,10 2.24,10 0,7.76 0,5 Z"
       copytype="single_stretched"
       prop_scale="1"
       scale_y_rel="false"
       spacing="0"
       normal_offset="0"
       tang_offset="0"
       prop_units="false"
       vertical_pattern="false"
       fuse_tolerance="0" />
    <linearGradient
       inkscape:collect="always"
       xlink:href="#linearGradient5147"
       id="linearGradient5153"
       x1="557.14288"
       y1="646.64795"
       x2="11.428572"
       y2="838.07648"
       gradientUnits="userSpaceOnUse" />
  </defs>
  <sodipodi:namedview
     id="base"
     pagecolor="#ffffff"
     bordercolor="#666666"
     borderopacity="1.0"
     inkscape:pageopacity="0.0"
     inkscape:pageshadow="2"
     inkscape:zoom="0.35"
     inkscape:cx="-112.14286"
     inkscape:cy="520"
     inkscape:document-units="px"
     inkscape:current-layer="layer1"
     showgrid="false"
     showguides="true"
     inkscape:guide-bbox="true"
     inkscape:window-width="1920"
     inkscape:window-height="1017"
     inkscape:window-x="-8"
     inkscape:window-y="-8"
     inkscape:window-maximized="1" />
  <metadata
     id="metadata5124">
    <rdf:RDF>
      <cc:Work
         rdf:about="">
        <dc:format>image/svg+xml</dc:format>
        <dc:type
           rdf:resource="http://purl.org/dc/dcmitype/StillImage" />
        <dc:title></dc:title>
      </cc:Work>
    </rdf:RDF>
  </metadata>
  <g
     inkscape:label="Ebene 1"
     inkscape:groupmode="layer"
     id="layer1">
    <rect
       style="opacity:0.77520004;fill:#a05a2c;fill-opacity:1;stroke:#000000;stroke-width:5;stroke-miterlimit:4;stroke-dasharray:none;stroke-opacity:1"
       id="rect5141"
       width="457.14285"
       height="725.71429"
       x="137.14285"
       y="115.21935" />
    <rect
       style="opacity:0.77520004;fill:#a05a2c;fill-opacity:1;stroke:#000000;stroke-width:5;stroke-miterlimit:4;stroke-dasharray:none;stroke-opacity:1"
       id="rect5139"
       width="517.14288"
       height="60"
       x="114.28571"
       y="798.07648" />
    <rect
       style="opacity:0.77520004;fill:url(#linearGradient5153);fill-opacity:1;stroke:#000000;stroke-width:5;stroke-miterlimit:4;stroke-dasharray:none;stroke-opacity:1"
       id="rect5131"
       width="431.42856"
       height="694.28571"
       x="151.42857"
       y="132.3622" />
    <rect
       style="opacity:0.77520004;fill:#eef4d7;fill-opacity:1;stroke:#000000;stroke-width:5;stroke-miterlimit:4;stroke-dasharray:none;stroke-opacity:1"
       id="rect5133"
       width="428.57144"
       height="468.57144"
       x="151.42857"
       y="132.3622" />
    <path
       style="fill:#000000;fill-rule:evenodd;stroke:none;stroke-width:1px;stroke-linecap:butt;stroke-linejoin:miter;stroke-opacity:1"
       d="m 380,132.3622 c 2.76,0 5,104.32 5,232.85715 0,128.53714 -2.24,232.85714 -5,232.85714 -2.76,0 -5,-104.32 -5,-232.85714 0,-128.53715 2.24,-232.85715 5,-232.85715 z"
       id="path5135"
       inkscape:path-effect="#path-effect5137"
       inkscape:original-d="m 380,132.3622 0,465.71429"
       inkscape:connector-curvature="0" />
    <path
       style="fill:#000000;fill-rule:evenodd;stroke:none;stroke-width:1px;stroke-linecap:butt;stroke-linejoin:miter;stroke-opacity:1"
       d="m 154.28571,600.93363 c 0.0183,-2.75994 96.67311,-4.35989 215.7474,-3.57132 119.07429,0.78858 215.69946,3.66853 215.68118,6.42847 -0.0183,2.75994 -96.67311,4.35989 -215.7474,3.57132 -119.07429,-0.78858 -215.69946,-3.66853 -215.68118,-6.42847 z"
       id="path5143"
       inkscape:path-effect="#path-effect5145"
       inkscape:original-d="m 154.28571,600.93363 431.42858,2.85715"
       inkscape:connector-curvature="0" />
    <path
       style="fill:none;fill-rule:evenodd;stroke:#000000;stroke-width:1px;stroke-linecap:butt;stroke-linejoin:miter;stroke-opacity:1"
       d="m 520,109.50506 0,-28.571427 0,-31.428571 0,-8.571429 c 0,-0.479188 -0.0288,-0.957789 -0.0755,-1.4347 -0.0233,-0.238455 -0.0458,-0.477567 -0.0426,-0.71714 0.003,-0.239573 0.0332,-0.481258 0.11807,-0.705303 0.12223,-0.322519 0.35373,-0.59421 0.61848,-0.815267 0.26475,-0.221056 0.56385,-0.396416 0.85877,-0.575251 0.29492,-0.178835 0.58928,-0.363834 0.84005,-0.600634 0.25076,-0.236801 0.45781,-0.530983 0.53984,-0.86599 0.0579,-0.236458 0.0518,-0.484572 0.0184,-0.725711 -0.0334,-0.241139 -0.0935,-0.477638 -0.14315,-0.715969 -0.0496,-0.238331 -0.0889,-0.480826 -0.0799,-0.724099 0.009,-0.243273 0.0692,-0.489103 0.20464,-0.691364 0.1494,-0.223044 0.38476,-0.381849 0.64115,-0.461433 0.25639,-0.07958 0.53262,-0.08328 0.7969,-0.03612 0.52856,0.0943 0.99914,0.381644 1.46366,0.650892 0.46452,0.269249 0.95607,0.531566 1.49183,0.566777 0.26788,0.01761 0.54275,-0.02462 0.78242,-0.145571 0.23967,-0.120949 0.44167,-0.324089 0.53833,-0.57454 0.0896,-0.232082 0.0859,-0.491078 0.0404,-0.735635 -0.0456,-0.244557 -0.13107,-0.479532 -0.20274,-0.717751 -0.0717,-0.238218 -0.13014,-0.484542 -0.11913,-0.733065 0.006,-0.124261 0.0286,-0.248272 0.0747,-0.363816 0.0461,-0.115545 0.11541,-0.222508 0.20681,-0.306876 0.17961,-0.165802 0.43153,-0.233956 0.67585,-0.2416 0.24432,-0.0076 0.48689,0.03825 0.72661,0.08607 0.47943,0.09563 0.9658,0.155532 1.45468,0.155532 l 2.85714,0 8.57143,0 28.57143,0 c 3.35377,0 6.70353,0.19919 10.04177,0.521548 3.33825,0.322359 6.81649,0.65201 9.95823,-0.521548 1.9969,-0.745916 3.72962,-2.07927 5.71429,-2.857143 1.41017,-0.552704 2.9143,-0.812215 4.38793,-1.162158 1.47364,-0.349943 2.95592,-0.807786 4.1835,-1.694985 1.09723,-0.792999 1.93303,-1.886232 2.78229,-2.940526 0.84925,-1.054294 1.75375,-2.107028 2.93199,-2.77376 0.86667,-0.490427 1.86133,-0.75234 2.85714,-0.75234 0.99582,0 1.99048,0.261913 2.85715,0.75234 4.50215,-2.483728 9.31262,-4.407916 14.28571,-5.714285 2.34573,-0.616195 4.7402,-1.096997 7.16406,-1.181092 2.42386,-0.08409 4.88655,0.23957 7.12166,1.181092 1.96416,0.827389 3.71715,2.112833 5.71428,2.857143 1.42072,0.529488 2.92887,0.771584 4.40457,1.119583 1.47571,0.347999 2.95921,0.820836 4.16686,1.737559 1.07404,0.815297 1.87151,1.936925 2.85714,2.857143 1.44181,1.346131 3.26942,2.237124 5.17575,2.74387 1.90633,0.506745 3.89465,0.643249 5.86691,0.610679 3.94454,-0.06514 7.88071,-0.795714 11.81449,-0.497406 1.91125,0.144935 3.8716,0.527633 5.71428,0 1.17853,-0.337459 2.23409,-1.03616 3.10143,-1.902486 0.86735,-0.866325 1.55556,-1.897215 2.14301,-2.973185 1.1749,-2.15194 1.97038,-4.510633 3.32699,-6.5529 1.49666,-2.253104 3.60702,-4.0184496 5.71429,-5.714286 3.16528,-2.5472693 6.46725,-5.0957921 8.57142,-8.5714286 0.89978,-1.4862475 1.55605,-3.1058865 2.38546,-4.6325232 0.82941,-1.5266367 1.86967,-2.9958268 3.32883,-3.9389052 1.26855,-0.819882 2.76222,-1.204081 4.22431,-1.58316 1.46209,-0.379079 2.9142,-0.796341 4.34712,-1.273983 l 8.57143,-2.857143 c -0.25866,-0.13612 -0.4791,-0.343972 -0.63017,-0.594191 -0.15107,-0.25022 -0.23235,-0.542091 -0.23235,-0.834381 0,-0.292289 0.0813,-0.58416 0.23235,-0.83438 0.15107,-0.250219 0.37151,-0.458071 0.63017,-0.594191 0.24894,-0.131003 0.53076,-0.195183 0.81203,-0.199563 0.28127,-0.0044 0.56198,0.05001 0.82666,0.145268 0.52937,0.190518 0.98763,0.538817 1.40155,0.919867 0.41391,0.381049 0.79274,0.799745 1.21888,1.167071 0.42615,0.367326 0.90969,0.686695 1.45516,0.8245 0.46347,0.117089 0.94974,0.09812 1.42614,0.05878 0.47641,-0.03935 0.95462,-0.09834 1.43101,-0.05878 0.69809,0.05798 1.369,0.328707 1.95028,0.719611 0.58129,0.390905 1.07682,0.899053 1.50699,1.45191 0.86034,1.105712 1.4648,2.387262 2.25701,3.542765 1.35823,1.9810998 3.24085,3.5503243 5.24089,4.880514 2.00004,1.3301897 4.13458,2.4441898 6.18768,3.6909144 8.14611,4.9466364 14.89458,11.9059038 22.85715,17.1428576 2.57015,1.690379 5.26086,3.197174 7.77153,4.974709 2.51066,1.777535 4.86405,3.857684 6.51418,6.453862 1.62952,2.56375 2.51654,5.552798 2.85714,8.571429 0.59369,5.26168 -0.44131,10.639232 -2.54634,15.497894 -2.10503,4.858661 -5.25141,9.219326 -8.88223,13.073534 -3.69543,3.922794 -7.90335,7.352136 -11.42857,11.428572 -6.22122,7.193995 -10.13067,16.292363 -11.42857,25.714282 -0.6519,4.73237 -0.66275,9.55485 0,14.28572 1.02055,7.28496 3.72722,14.46414 8.57143,20 2.66203,3.04211 5.90709,5.53134 8.57143,8.57143 4.03045,4.59886 6.69662,10.41237 11.42857,14.28571 2.6584,2.17604 5.71297,3.80865 8.57143,5.71429 l 17.14285,11.42857 c 2.56458,1.70972 5.19914,3.31213 7.76705,5.01684 2.56791,1.70472 5.11992,3.66515 6.51867,6.41173 1.32541,2.60258 1.4447,5.63201 1.50923,8.55194 0.0645,2.91993 0.1228,5.93964 1.34791,8.59092 0.22122,0.47874 0.48246,0.95225 0.55463,1.47467 0.0361,0.26121 0.0224,0.53243 -0.067,0.78049 -0.0894,0.24806 -0.25844,0.47148 -0.48758,0.60198 -0.21216,0.12083 -0.46415,0.15713 -0.70796,0.14419 -0.24381,-0.0129 -0.48248,-0.0724 -0.71912,-0.13246 -0.23664,-0.0601 -0.47463,-0.12147 -0.71819,-0.13844 -0.24357,-0.017 -0.49583,0.013 -0.71187,0.12671 -0.23829,0.12547 -0.41859,0.34806 -0.51627,0.59903 -0.0977,0.25097 -0.11635,0.5285 -0.0794,0.79526 0.0739,0.53353 0.35823,1.01108 0.63346,1.47406 0.27523,0.46299 0.55346,0.94583 0.61269,1.48119 0.0296,0.26767 0.001,0.54486 -0.10654,0.79161 -0.10791,0.24674 -0.29911,0.46089 -0.54392,0.57313 -0.22351,0.10247 -0.47908,0.1165 -0.72304,0.0858 -0.24396,-0.0307 -0.48024,-0.10364 -0.71716,-0.16938 -0.23693,-0.0658 -0.47855,-0.12488 -0.72442,-0.12666 -0.24587,-0.002 -0.49909,0.0584 -0.69253,0.21019 -0.19767,0.1551 -0.31756,0.39494 -0.36176,0.64228 -0.0442,0.24734 -0.0181,0.50261 0.0358,0.748 0.10794,0.49079 0.32743,0.96436 0.32594,1.46687 -8.6e-4,0.28981 -0.0771,0.57762 -0.20865,0.83585 -0.13155,0.25823 -0.31757,0.48719 -0.53514,0.67864 -0.43513,0.3829 -0.98766,0.6113 -1.55115,0.74708 -1.12697,0.27156 -2.33008,0.19894 -3.41934,0.59557 -0.82822,0.30158 -1.54575,0.86337 -2.11796,1.53379 -0.57222,0.67042 -1.00668,1.44797 -1.37479,2.24883 -0.73621,1.60174 -1.22976,3.33143 -2.22154,4.78881 -0.79042,1.16148 -1.87132,2.10459 -3.05357,2.86359 -1.18225,0.759 -2.46809,1.342 -3.7665,1.8786 -2.59682,1.0732 -5.32626,2.00763 -7.46564,3.82924 -2.05653,1.75106 -3.45442,4.23492 -5.71429,5.71428 -1.26521,0.82824 -2.73166,1.29226 -4.1973,1.66458 -1.46565,0.37232 -2.95713,0.66449 -4.37413,1.19257 -1.99696,0.74421 -3.79234,1.93636 -5.71428,2.85714 -3.55924,1.70519 -7.50245,2.45536 -11.42857,2.85714 -4.74539,0.48562 -9.54033,0.48562 -14.28572,0 -1.79986,3.0639 -5.05096,5.23131 -8.57143,5.71429 -2.83315,0.38869 -5.71173,0 -8.57142,0 l -20,0 c -1.91146,0 -3.82161,-0.0861 -5.72797,-0.22567 -1.90636,-0.13958 -3.85878,-0.28554 -5.70061,0.22567 -2.07671,0.5764 -3.81594,1.95805 -5.57217,3.20729 -0.87811,0.62462 -1.77881,1.22569 -2.75248,1.68744 -0.97366,0.46175 -2.02696,0.78232 -3.10392,0.81955 -0.96168,0.0332 -1.91487,-0.15851 -2.87152,-0.26228 -0.95664,-0.10377 -1.9569,-0.11347 -2.84276,0.26228 -0.62878,0.26671 -1.16653,0.71536 -1.62387,1.22263 -0.45735,0.50728 -0.84124,1.07524 -1.23328,1.63452 -2.33669,3.33348 -5.07963,6.47867 -8.57142,8.57142 -1.8366,1.10073 -3.85983,1.89815 -5.57033,3.18613 -0.85525,0.64399 -1.6288,1.41323 -2.18267,2.32942 -0.55387,0.91619 -0.87959,1.98703 -0.81843,3.05588 0.0276,0.482 0.13211,0.9564 0.17731,1.43708 0.0452,0.48067 0.0271,0.9827 -0.17731,1.42007 -0.14502,0.31024 -0.37741,0.57298 -0.63775,0.79547 -0.26035,0.22249 -0.54971,0.40796 -0.83542,0.59677 -0.2857,0.18882 -0.57024,0.38291 -0.81752,0.61983 -0.24728,0.23693 -0.45759,0.52037 -0.56646,0.84507 -0.15265,0.45525 -0.0961,0.95118 -0.0284,1.42655 0.0677,0.47536 0.14433,0.96463 0.0284,1.43059 -0.13457,0.54098 -0.52237,0.99518 -0.98926,1.29979 -0.46689,0.30461 -1.00943,0.47341 -1.55428,0.59132 -0.54486,0.11792 -1.0994,0.18862 -1.64191,0.31687 -0.54252,0.12825 -1.08007,0.31843 -1.52883,0.64916 -0.43482,0.32045 -0.76999,0.76192 -1.02278,1.23927 -0.25279,0.47734 -0.42731,0.99186 -0.58384,1.50883 -0.31305,1.03395 -0.57561,2.12266 -1.25052,2.96619 -0.6733,0.84153 -1.683,1.34063 -2.69546,1.70999 -1.01246,0.36936 -2.06847,0.6389 -3.01883,1.14715 -1.01283,0.54167 -1.88887,1.36015 -2.42664,2.37506 -0.53777,1.01491 -0.7216,2.22815 -0.4305,3.33923 0.12887,0.49186 0.34698,0.96114 0.42251,1.46396 0.0378,0.25141 0.0386,0.5111 -0.0259,0.75699 -0.0646,0.2459 -0.19784,0.47766 -0.39659,0.63619 -0.19146,0.15272 -0.4347,0.2311 -0.6786,0.25337 -0.24389,0.0223 -0.48976,-0.009 -0.73003,-0.0561 -0.48055,-0.0949 -0.96234,-0.25692 -1.44852,-0.1973 -0.34434,0.0422 -0.66905,0.19577 -0.94555,0.40529 -0.27651,0.20952 -0.50758,0.47365 -0.71233,0.75371 -0.40951,0.56011 -0.72355,1.19304 -1.19926,1.69814 -0.47026,0.49931 -1.07408,0.84795 -1.62139,1.26135 -0.27366,0.2067 -0.53564,0.43195 -0.75482,0.69571 -0.21919,0.26376 -0.39509,0.56806 -0.48093,0.90009 -0.12982,0.50214 -0.0473,1.03712 0.10958,1.53148 0.15686,0.49437 0.38588,0.96281 0.55816,1.45202 0.17227,0.4892 0.2879,1.01373 0.20581,1.52584 -0.0411,0.25606 -0.13231,0.50576 -0.28003,0.7189 -0.14772,0.21314 -0.35322,0.38854 -0.59352,0.48604 -0.22441,0.091 -0.47212,0.1125 -0.71381,0.0971 -0.24169,-0.0154 -0.47952,-0.0662 -0.71665,-0.11537 -0.23713,-0.0492 -0.47583,-0.097 -0.71783,-0.10615 -0.242,-0.009 -0.4894,0.022 -0.70885,0.12437 -0.23377,0.1091 -0.42729,0.29656 -0.5594,0.51814 -0.13211,0.22158 -0.20444,0.47609 -0.22682,0.73309 -0.0448,0.51401 0.1056,1.02521 0.29582,1.50482 0.19021,0.47961 0.42264,0.94491 0.55485,1.44363 0.13221,0.49873 0.15631,1.04827 -0.0644,1.51461 -0.14826,0.31318 -0.39755,0.56911 -0.67381,0.77825 -0.27626,0.20914 -0.58141,0.37623 -0.87872,0.55418 -0.29731,0.17796 -0.59055,0.36972 -0.83127,0.61894 -0.24073,0.24923 -0.42753,0.56232 -0.47335,0.90577 -0.0333,0.24968 0.009,0.50379 0.0743,0.74695 0.0657,0.24317 0.1552,0.47945 0.21988,0.72289 0.0647,0.24344 0.10442,0.49813 0.0679,0.74735 -0.0183,0.12462 -0.0558,0.24692 -0.11599,0.35753 -0.0602,0.11062 -0.14353,0.20935 -0.24611,0.28242 -0.20369,0.1451 -0.46947,0.17966 -0.71772,0.14944 -0.24825,-0.0302 -0.48488,-0.11934 -0.72045,-0.2033 -0.23557,-0.084 -0.47664,-0.1642 -0.72648,-0.17539 -0.12491,-0.006 -0.25126,0.006 -0.37077,0.0432 -0.11951,0.0368 -0.23209,0.0988 -0.32172,0.18603 -0.0879,0.0856 -0.15228,0.19376 -0.19378,0.30922 -0.0415,0.11547 -0.0607,0.23819 -0.0649,0.36081 -0.008,0.24524 0.0407,0.48851 0.0919,0.7285 0.10244,0.47996 0.16677,0.96784 0.16677,1.45862 l 0,14.28571 c 0,0.48807 0.0579,0.97379 0.15047,1.453 0.0463,0.23961 0.0907,0.48188 0.0834,0.7258 -0.007,0.24393 -0.0727,0.49507 -0.23387,0.67834 -0.1644,0.18697 -0.4138,0.28406 -0.66192,0.30461 -0.24812,0.0206 -0.4969,-0.0287 -0.7368,-0.0953 -0.23989,-0.0666 -0.47513,-0.15086 -0.71859,-0.20295 -0.24346,-0.0521 -0.49941,-0.071 -0.73983,-0.006 -0.25492,0.0686 -0.48075,0.23018 -0.64293,0.43847 -0.16218,0.20829 -0.26239,0.46135 -0.30566,0.72176 -0.0865,0.52082 0.0501,1.05427 0.24611,1.54448 0.19606,0.49021 0.45229,0.95608 0.62201,1.45602 0.16973,0.49994 0.24866,1.0531 0.0805,1.55356 -0.10898,0.32427 -0.31632,0.60876 -0.56065,0.84819 -0.24434,0.23944 -0.52587,0.43719 -0.80951,0.62843 -0.28364,0.19125 -0.57163,0.37777 -0.83317,0.59827 -0.26154,0.22051 -0.49774,0.47784 -0.65382,0.78225 -0.22389,0.43668 -0.27018,0.94669 -0.22121,1.43497 0.049,0.48828 0.18781,0.96233 0.31797,1.43549 0.13016,0.47315 0.25297,0.95334 0.26854,1.44382 0.0156,0.49049 -0.0841,0.99784 -0.3653,1.40001 -0.31984,0.45742 -0.87042,0.74426 -1.42857,0.74426 -0.55815,0 -1.10873,-0.28684 -1.42857,-0.74426 l 0,2.85714 c 0,0.492 0.067,0.98085 0.17364,1.46117 0.0533,0.24015 0.10442,0.48388 0.0955,0.72972 -0.004,0.12292 -0.0246,0.24593 -0.0679,0.36106 -0.0433,0.11514 -0.11033,0.22236 -0.20126,0.30519 -0.0933,0.085 -0.20989,0.14251 -0.33226,0.17332 -0.12237,0.0308 -0.25044,0.0355 -0.37596,0.0225 -0.25104,-0.026 -0.48901,-0.12092 -0.72381,-0.21345 -0.2348,-0.0925 -0.47438,-0.18458 -0.72598,-0.20427 -0.12581,-0.01 -0.25381,-0.001 -0.37494,0.0343 -0.12112,0.0354 -0.23527,0.0981 -0.32419,0.18759 -0.089,0.0896 -0.1509,0.20422 -0.18547,0.32565 -0.0346,0.12144 -0.0425,0.24955 -0.0319,0.37537 0.0212,0.25163 0.11441,0.49085 0.20746,0.7256 0.0931,0.23475 0.1879,0.47306 0.21263,0.72436 0.0124,0.12565 0.007,0.25381 -0.0253,0.37595 -0.032,0.12213 -0.091,0.23817 -0.17745,0.33022 -0.086,0.0916 -0.19756,0.15772 -0.31694,0.19708 -0.11939,0.0394 -0.2465,0.0526 -0.37208,0.0471 -0.25118,-0.011 -0.49281,-0.0952 -0.72817,-0.18362 -0.23535,-0.0884 -0.47171,-0.18262 -0.72101,-0.21514 -0.12465,-0.0163 -0.25199,-0.0167 -0.37545,0.007 -0.12345,0.0237 -0.24304,0.072 -0.34349,0.1476 -0.10028,0.0754 -0.17987,0.17688 -0.23536,0.28944 -0.0555,0.11255 -0.0873,0.23605 -0.0998,0.36091 -0.025,0.24973 0.026,0.50111 0.097,0.74186 0.0709,0.24076 0.16196,0.47571 0.22008,0.71988 0.0581,0.24416 0.0823,0.50241 0.0181,0.74505 -0.0676,0.25559 -0.23223,0.48098 -0.4439,0.63936 -0.21168,0.15839 -0.46825,0.25172 -0.73031,0.28659 -0.52413,0.0697 -1.05262,-0.0883 -1.53786,-0.29836 -0.48524,-0.21002 -0.94863,-0.47421 -1.45217,-0.6355 -0.25177,-0.0806 -0.51342,-0.13504 -0.77774,-0.14061 -0.26431,-0.006 -0.53176,0.0389 -0.77231,0.14852 -0.25917,0.11815 -0.48159,0.30978 -0.65367,0.53675 -0.17209,0.22697 -0.2952,0.4886 -0.38068,0.7603 -0.17097,0.54341 -0.19287,1.12042 -0.23182,1.68875 -0.0389,0.56833 -0.0995,1.14803 -0.33902,1.66491 -0.11974,0.25844 -0.28431,0.49826 -0.49684,0.68789 -0.21253,0.18963 -0.47437,0.32761 -0.75511,0.37569 -0.24349,0.0417 -0.49405,0.0157 -0.7359,-0.0346 -0.24186,-0.0503 -0.47806,-0.12467 -0.71861,-0.18091 -0.24055,-0.0562 -0.48848,-0.0944 -0.73437,-0.0707 -0.2459,0.0237 -0.49131,0.11393 -0.66827,0.2863 -0.17747,0.17286 -0.27417,0.41685 -0.30286,0.66293 -0.0287,0.24607 0.006,0.49552 0.061,0.73708 0.055,0.24156 0.13031,0.47815 0.1847,0.71985 0.0544,0.2417 0.0878,0.49143 0.0572,0.73728 -0.0428,0.34455 -0.21528,0.67143 -0.4755,0.9013 -0.26021,0.22987 -0.60587,0.36067 -0.95307,0.36067 -0.3472,0 -0.69286,-0.1308 -0.95307,-0.36067 -0.26022,-0.22987 -0.43267,-0.55675 -0.4755,-0.9013 l 0,2.85714 c 0,0.48385 0.0463,0.96619 0.12078,1.44428 0.0372,0.23905 0.073,0.47979 0.0675,0.72165 -0.005,0.24187 -0.0559,0.48874 -0.18827,0.69121 -0.14147,0.21632 -0.37004,0.36783 -0.61739,0.44284 -0.24735,0.075 -0.51259,0.0776 -0.76796,0.0377 -0.51076,-0.0798 -0.97962,-0.32236 -1.47179,-0.4805 -1.12268,-0.36072 -2.38509,-0.26411 -3.43981,0.26325 -1.05472,0.52736 -1.88945,1.47932 -2.27448,2.5939"
       id="path5161"
       inkscape:path-effect="#path-effect5163"
       inkscape:original-d="m 520,109.50506 c 0,-9.523808 0,-19.047617 0,-28.571427 0,-10.47619 0,-20.952381 0,-31.428571 0,-2.857143 0,-5.714286 0,-8.571429 0,-0.952381 -0.42592,-2.005307 0,-2.857143 0.60234,-1.204677 2.2548,-1.652465 2.85714,-2.857142 0.42592,-0.851836 -0.67343,-2.183708 0,-2.857143 1.34687,-1.34687 4.36742,1.34687 5.71429,0 0.67343,-0.673435 -0.67344,-2.183708 0,-2.857143 0.67343,-0.673435 1.90476,0 2.85714,0 0.95238,0 1.90476,0 2.85714,0 2.85715,0 5.71429,0 8.57143,0 9.52381,0 19.04762,0 28.57143,0 1.83859,0 18.06644,0.483389 20,0 2.06601,-0.516501 3.73701,-2.066234 5.71429,-2.857143 2.79628,-1.118515 5.98892,-1.30764 8.57143,-2.857143 2.30986,-1.385918 3.30493,-4.509608 5.71428,-5.714286 1.70367,-0.851835 3.84651,0.373555 5.71429,0 5.73754,0.655655 9.31011,-4.470386 14.28571,-5.714285 0.49958,-0.124895 13.78614,-0.124895 14.28572,0 2.066,0.516501 3.73701,2.066233 5.71428,2.857143 2.79629,1.118514 5.87769,1.510272 8.57143,2.857142 1.20468,0.602339 1.65247,2.254805 2.85714,2.857143 7.72355,3.861773 14.69682,2.857143 22.85715,2.857143 1.90476,0 3.90727,0.602339 5.71428,0 9.85352,-3.284506 2.99662,-2.137217 8.57143,-11.428571 1.38592,-2.309863 3.80952,-3.8095241 5.71429,-5.714286 2.85714,-2.8571428 5.98469,-5.4673458 8.57142,-8.5714286 2.19831,-2.637963 3.0329,-6.4263142 5.71429,-8.5714284 2.35174,-1.88139 5.71429,-1.904762 8.57143,-2.857143 2.85714,-0.952381 5.71428,-1.904762 8.57143,-2.857143 0,-0.952381 -0.85184,-2.431225 0,-2.857143 10.79365,-5.396825 3.65079,0.793651 5.71428,2.857143 0.67344,0.673435 2.06472,-0.528286 2.85715,0 2.24132,1.494218 3.64489,3.989795 5.71428,5.714286 3.6582,3.048497 7.61905,5.7142856 11.42857,8.5714284 7.61905,5.7142858 15.30835,11.336088 22.85715,17.1428576 4.83359,3.718146 10.31705,6.798462 14.28571,11.428571 1.95998,2.286648 2.2665,5.618221 2.85714,8.571429 1.8949,9.4745 -6.4516,22.17247 -11.42857,28.571428 -3.30759,4.25262 -8.33905,7.014976 -11.42857,11.428572 -2.53726,3.624654 -10.03058,18.724324 -11.42857,25.714282 -0.56706,2.83529 0,11.28387 0,14.28572 0,7.54348 3.83619,14.31771 8.57143,20 2.58673,3.10408 5.91067,5.53056 8.57143,8.57143 4.0157,4.58937 7.11648,9.97362 11.42857,14.28571 2.4281,2.4281 5.71428,3.80952 8.57143,5.71429 5.71428,3.80952 11.42857,7.61904 17.14285,11.42857 5.62298,3.74865 10.21452,6.00031 14.28572,11.42857 4.05945,5.41261 2.85714,10.84604 2.85714,17.14286 0,0.95238 0.67344,2.1837 0,2.85714 -0.67344,0.67343 -2.43123,-0.85184 -2.85714,0 -0.85184,1.70367 0.85183,4.01061 0,5.71428 -0.42592,0.85184 -2.18371,-0.67343 -2.85715,0 -0.67343,0.67344 0.67344,2.18371 0,2.85715 -1.50584,1.50584 -4.20843,1.35129 -5.71428,2.85714 -2.42811,2.4281 -3.28618,6.14332 -5.71429,8.57143 -10.7186,10.7186 -5.26737,1.80767 -14.28571,8.57143 -2.15499,1.61624 -3.40442,4.32837 -5.71429,5.71428 -2.5825,1.54951 -5.77514,1.73863 -8.57143,2.85715 -1.97727,0.79091 -3.69398,2.1837 -5.71428,2.85714 -3.72526,1.24175 -7.55523,2.21159 -11.42857,2.85714 -4.42743,0.73791 -9.93425,-1.08787 -14.28572,0 -5.17126,-1.72208 -5.31378,4.62841 -8.57143,5.71429 -2.71052,0.90351 -5.71428,0 -8.57142,0 -6.66667,0 -13.33334,0 -20,0 -0.67895,0 -10.7882,-0.32019 -11.42858,0 -11.34031,5.67015 12.62765,0.90304 -11.42857,5.71428 -1.86777,0.37356 -3.90727,-0.60234 -5.71428,0 -1.27776,0.42592 -1.73648,2.11004 -2.85715,2.85715 -11.42857,7.61904 -0.95238,-2.85715 -8.57142,8.57142 -1.73394,2.6009 -7.30524,6.03904 -8.57143,8.57143 -0.42592,0.85184 0.42591,2.00531 0,2.85715 -0.60234,1.20467 -2.25481,1.65246 -2.85715,2.85714 -0.42591,0.85183 0.67344,2.18371 0,2.85714 -1.50584,1.50585 -4.20843,1.3513 -5.71428,2.85714 -1.50585,1.50585 -1.3513,4.20844 -2.85714,5.71429 -1.50585,1.50585 -4.20844,1.3513 -5.71429,2.85714 -1.50585,1.50585 -2.18371,3.69398 -2.85714,5.71429 -0.30117,0.90351 0.67343,2.18371 0,2.85714 -0.67344,0.67344 -2.00531,-0.42592 -2.85715,0 -1.20467,0.60234 -1.90476,1.90476 -2.85714,2.85714 -0.95238,0.95239 -2.43122,1.57939 -2.85714,2.85715 -0.60234,1.80701 0.85183,4.01061 0,5.71428 -0.42592,0.85184 -2.18371,-0.67343 -2.85714,0 -1.34687,1.34687 0.85183,4.01062 0,5.71429 -0.60234,1.20468 -2.25481,1.65246 -2.85715,2.85714 -0.42591,0.85184 0.67344,2.18371 0,2.85714 -0.67343,0.67344 -2.1837,-0.67343 -2.85714,0 -0.67344,0.67344 0,1.90477 0,2.85715 0,4.7619 0,9.52381 0,14.28571 0,0.95238 0.67344,2.18371 0,2.85714 -0.67344,0.67344 -2.18371,-0.67343 -2.85714,0 -1.34687,1.34687 0.85183,4.01062 0,5.71429 -0.60234,1.20468 -2.25481,1.65247 -2.85715,2.85714 -0.85183,1.70367 1.34687,4.36742 0,5.71429 -0.67343,0.67343 -2.1837,-0.67344 -2.85714,0 0,0.95238 0,1.90476 0,2.85714 0,0.95238 0.67344,2.18371 0,2.85714 -0.67343,0.67344 -2.18371,-0.67343 -2.85714,0 -0.67344,0.67344 0.67343,2.18371 0,2.85715 -0.67344,0.67343 -2.18371,-0.67344 -2.85714,0 -0.67344,0.67343 0.67343,2.18371 0,2.85714 -1.34687,1.34687 -4.36742,-1.34687 -5.71429,0 -1.50585,1.50585 -1.3513,4.20844 -2.85714,5.71429 -0.67344,0.67343 -2.18371,-0.67344 -2.85715,0 -0.67343,0.67343 0.67344,2.1837 0,2.85714 -0.67343,0.67343 -2.1837,-0.67344 -2.85714,0 0,0.95238 0,1.90476 0,2.85714 0,0.95238 0.67344,2.18371 0,2.85714 -0.67343,0.67344 -2.00531,-0.42591 -2.85714,0 -7.06116,3.53058 0.98622,2.85715 -5.71429,2.85715"
       inkscape:connector-curvature="0" />
    <path
       style="fill:none;fill-rule:evenodd;stroke:#000000;stroke-width:1px;stroke-linecap:butt;stroke-linejoin:miter;stroke-opacity:1"
       d="m 602.85714,386.64792 14.28572,0 c 0.26614,0 0.53396,0.009 0.79368,0.0676 0.25971,0.0581 0.5065,0.16166 0.75377,0.2601 0.24726,0.0984 0.50842,0.19189 0.77316,0.1647 0.13238,-0.0136 0.26359,-0.0598 0.36532,-0.14561 0.0509,-0.0429 0.0939,-0.0954 0.12404,-0.15469 0.0301,-0.0593 0.0472,-0.12553 0.0472,-0.19206 0,-0.0665 -0.017,-0.13274 -0.0472,-0.19206 -0.0301,-0.0593 -0.0732,-0.1118 -0.12404,-0.15469 -0.10173,-0.0858 -0.23294,-0.13202 -0.36532,-0.14561 -0.26474,-0.0272 -0.5259,0.0663 -0.77316,0.1647 -0.24727,0.0984 -0.49406,0.20199 -0.75377,0.2601 -0.25972,0.0581 -0.52754,0.0676 -0.79368,0.0676 l -2.85715,0 -11.42857,0 z"
       id="path5165"
       inkscape:path-effect="#path-effect5167"
       inkscape:original-d="m 602.85714,386.64792 c 4.76191,0 9.52381,0 14.28572,0 0.95238,0 2.85714,-0.95238 2.85714,0 0,0.95238 -1.90476,0 -2.85714,0 -0.95238,0 -1.90476,0 -2.85715,0 -3.80952,0 -7.61904,0 -11.42857,0 z"
       inkscape:connector-curvature="0" />
    <path
       style="fill:none;fill-rule:evenodd;stroke:#000000;stroke-width:1px;stroke-linecap:butt;stroke-linejoin:miter;stroke-opacity:1"
       d="m 608.57143,389.50506 -20,0"
       id="path5169"
       inkscape:path-effect="#path-effect5171"
       inkscape:original-d="m 608.57143,389.50506 c -6.66667,0 -13.33333,0 -20,0"
       inkscape:connector-curvature="0" />
    <path
       style="fill:none;fill-rule:evenodd;stroke:#000000;stroke-width:1px;stroke-linecap:butt;stroke-linejoin:miter;stroke-opacity:1"
       d="m 585.71429,386.64792 20,0 2.85714,0 C 148507770,387.02192 296100460,61135278 401110880,166145700 c 105010420,105010430 166145320,252603110 166145320,401110280 0,148507160 -61134900,296099840 -166145320,401110270 C 296100460,1073376700 148507770,1134511600 607.14286,1134511600 -148506560,1134511600 -296099240,1073376700 -401109670,968366250 -506120090,863355820 -567254980,715763140 -567254980,567255980 c 0,-148507170 61134890,-296099850 166145310,-401110280 C -296099240,61135278 -148506560,387.02192 605.71429,386.64792"
       id="path5173"
       inkscape:path-effect="#path-effect5175"
       inkscape:original-d="m 585.71429,386.64792 c 6.66666,0 13.33333,0 20,0 0.95238,0 2.85714,-0.95238 2.85714,0 0,0.95238 -1.90476,0 -2.85714,0"
       inkscape:connector-curvature="0" />
    <path
       style="fill:none;fill-rule:evenodd;stroke:#000000;stroke-width:1px;stroke-linecap:butt;stroke-linejoin:miter;stroke-opacity:1"
       d="m 522.85714,98.07649 -2.85714,20"
       id="path5177"
       inkscape:path-effect="#path-effect5179"
       inkscape:original-d="M 522.85714,98.07649 C 519.73315,105.24536 520,110.9124 520,118.07649"
       inkscape:connector-curvature="0" />
    <path
       style="opacity:0.77520004;fill:#deaa87;fill-opacity:1;stroke:#000000;stroke-width:5;stroke-miterlimit:4;stroke-dasharray:none;stroke-opacity:1"
       d="m 598.71429,248.07649 0,-135.71429 -37.87758,0 -37.87759,0 -0.93932,-36.91095 c -1.13186,-44.476357 -2.388,-43.089045 39.01487,-43.089045 26.50163,0 43.1097,-3.470977 50.06057,-10.462326 1.30952,-1.317149 3.23809,-2.477849 4.28571,-2.579331 1.04762,-0.101486 7.19963,-1.86138 13.67114,-3.91088 10.93924,-3.46442 12.81356,-3.200392 26.66332,3.75594 8.19332,4.115271 19.69181,7.482311 25.55221,7.482311 9.60839,0 12.13044,-1.783274 25.66986,-18.1504663 18.70977,-22.6173857 30.63772,-27.6136747 42.56335,-17.828608 4.28168,3.5131575 16.58049,12.5991663 27.33068,20.1911313 29.83752,21.07176 31.52989,31.433492 9.05785,55.457914 -14.83174,15.856338 -18.60744,24.519126 -18.59297,42.65889 0.0166,20.87034 15.96412,42.12251 47.40047,63.16754 26.7262,17.89183 29.12791,28.99444 10.37925,47.98078 -16.68648,16.89802 -35.57184,26.52282 -52.04193,26.52282 -6.11903,0 -11.92013,1.28571 -12.89132,2.85714 -0.9712,1.57143 -11.01136,2.8765 -22.31148,2.90016 -11.30012,0.0237 -25.04755,1.6308 -30.54985,3.57143 -11.46309,4.04296 -31.42418,19.1535 -31.4243,23.78821 -5e-5,1.71429 -5.85776,9.3182 -13.01715,16.89757 -14.10978,14.93746 -24.12579,32.92272 -24.12579,43.32146 0,18.61511 -19.60686,43.80689 -34.09508,43.80689 -5.88559,0 -5.90492,-0.44429 -5.90492,-135.71429 z"
       id="path5181"
       inkscape:connector-curvature="0" />
    <path
       style="fill:#000000;fill-rule:evenodd;stroke:none;stroke-width:1px;stroke-linecap:butt;stroke-linejoin:miter;stroke-opacity:1"
       d="m 520,75.219348 c 0,-2.76 56.96,-5 127.14286,-5 70.18285,0 127.14285,2.24 127.14285,5 0,2.76 -56.96,5 -127.14285,5 -70.18286,0 -127.14286,-2.24 -127.14286,-5 z"
       id="path5183"
       inkscape:path-effect="#path-effect5185"
       inkscape:original-d="m 520,75.219348 254.28571,0"
       inkscape:connector-curvature="0" />
    <path
       style="fill:#000000;fill-rule:evenodd;stroke:none;stroke-width:1px;stroke-linecap:butt;stroke-linejoin:miter;stroke-opacity:1"
       d="m 605.71429,178.07649 c -0.0378,-2.75974 46.65151,-5.63953 104.21722,-6.4281 57.56572,-0.78857 104.3164,0.81122 104.3542,3.57096 0.0378,2.75974 -46.65151,5.63953 -104.21722,6.4281 -57.56572,0.78857 -104.3164,-0.81122 -104.3542,-3.57096 z"
       id="path5187"
       inkscape:path-effect="#path-effect5189"
       inkscape:original-d="m 605.71429,178.07649 208.57142,-2.85714"
       inkscape:connector-curvature="0" />
    <path
       style="fill:#000000;fill-rule:evenodd;stroke:none;stroke-width:1px;stroke-linecap:butt;stroke-linejoin:miter;stroke-opacity:1"
       d="m 605.71429,298.07649 c -0.13783,-2.75656 12.55031,-5.63376 28.32174,-6.42233 15.77142,-0.78857 28.68328,0.80863 28.82111,3.56519 0.13783,2.75656 -12.55031,5.63376 -28.32174,6.42233 -15.77142,0.78857 -28.68328,-0.80863 -28.82111,-3.56519 z"
       id="path5191"
       inkscape:path-effect="#path-effect5193"
       inkscape:original-d="m 605.71429,298.07649 57.14285,-2.85714"
       inkscape:connector-curvature="0" />
    <path
       style="fill:#000000;fill-rule:evenodd;stroke:none;stroke-width:1px;stroke-linecap:butt;stroke-linejoin:miter;stroke-opacity:1"
       d="m 600,178.07649 c -0.11031,-2.75779 15.80016,-5.636 35.51445,-6.42457 19.71428,-0.78858 35.80381,0.80964 35.91412,3.56743 0.11031,2.75779 -15.80016,5.636 -35.51445,6.42457 C 616.19984,182.4325 600.11031,180.83428 600,178.07649 Z"
       id="path5195"
       inkscape:path-effect="#path-effect5197"
       inkscape:original-d="m 600,178.07649 71.42857,-2.85714"
       inkscape:connector-curvature="0" />
    <path
       style="fill:#000000;fill-rule:evenodd;stroke:none;stroke-width:1px;stroke-linecap:butt;stroke-linejoin:miter;stroke-opacity:1"
       d="m 600,300.93363 c -0.39032,-2.73226 8.25289,-6.22975 19.29289,-7.80689 11.04,-1.57714 20.31679,-0.63965 20.70711,2.09261 0.39032,2.73226 -8.25289,6.22975 -19.29289,7.80689 -11.04,1.57714 -20.31679,0.63965 -20.70711,-2.09261 z"
       id="path5199"
       inkscape:path-effect="#path-effect5201"
       inkscape:original-d="m 600,300.93363 40,-5.71428"
       inkscape:connector-curvature="0" />
    <path
       style="fill:#000000;fill-rule:evenodd;stroke:none;stroke-width:1px;stroke-linecap:butt;stroke-linejoin:miter;stroke-opacity:1"
       d="m 597.14286,126.64792 c 0,-2.76 39.68,-5 88.57143,-5 48.89142,0 88.57142,2.24 88.57142,5 0,2.76 -39.68,5 -88.57142,5 -48.89143,0 -88.57143,-2.24 -88.57143,-5 z"
       id="path5203"
       inkscape:path-effect="#path-effect5205"
       inkscape:original-d="m 597.14286,126.64792 177.14285,0"
       inkscape:connector-curvature="0" />
    <path
       style="fill:#000000;fill-rule:evenodd;stroke:none;stroke-width:1px;stroke-linecap:butt;stroke-linejoin:miter;stroke-opacity:1"
       d="m 582.85715,238.07649 c -0.0349,-2.75978 50.49671,-5.6396 112.79385,-6.42817 62.29715,-0.78857 112.8855,0.81125 112.92043,3.57103 0.0349,2.75978 -50.49671,5.6396 -112.79385,6.42817 -62.29715,0.78857 -112.8855,-0.81125 -112.92043,-3.57103 z"
       id="path5207"
       inkscape:path-effect="#path-effect5209"
       inkscape:original-d="m 582.85715,238.07649 225.71428,-2.85714"
       inkscape:connector-curvature="0" />
    <path
       style="fill:#000000;fill-rule:evenodd;stroke:none;stroke-width:1px;stroke-linecap:butt;stroke-linejoin:miter;stroke-opacity:1"
       d="m 702.85714,18.07649 c 0,-2.76 18.56,-5 41.42857,-5 22.86858,0 41.42858,2.24 41.42858,5 0,2.76 -18.56,5 -41.42858,5 -22.86857,0 -41.42857,-2.24 -41.42857,-5 z"
       id="path5211"
       inkscape:path-effect="#path-effect5213"
       inkscape:original-d="m 702.85714,18.07649 82.85715,0"
       inkscape:connector-curvature="0" />
    <path
       style="fill:#000000;fill-rule:evenodd;stroke:none;stroke-width:1px;stroke-linecap:butt;stroke-linejoin:miter;stroke-opacity:1"
       d="m 585.71429,26.647919 c 2.76,0 5,12.16 5,27.142857 0,14.982857 -2.24,27.142857 -5,27.142857 -2.76,0 -5,-12.16 -5,-27.142857 0,-14.982857 2.24,-27.142857 5,-27.142857 z"
       id="path5215"
       inkscape:path-effect="#path-effect5217"
       inkscape:original-d="m 585.71429,26.647919 0,54.285714"
       inkscape:connector-curvature="0" />
    <path
       style="fill:#000000;fill-rule:evenodd;stroke:none;stroke-width:1px;stroke-linecap:butt;stroke-linejoin:miter;stroke-opacity:1"
       d="m 702.85714,18.07649 c 2.75619,0.145062 4.35309,12.422794 3.56452,27.405651 -0.78857,14.982858 -3.66547,27.025126 -6.42166,26.880064 -2.75619,-0.145062 -4.35309,-12.422794 -3.56452,-27.405651 0.78857,-14.982858 3.66547,-27.025126 6.42166,-26.880064 z"
       id="path5219"
       inkscape:path-effect="#path-effect5221"
       inkscape:original-d="M 702.85714,18.07649 700,72.362205"
       inkscape:connector-curvature="0" />
    <path
       style="fill:#000000;fill-rule:evenodd;stroke:none;stroke-width:1px;stroke-linecap:butt;stroke-linejoin:miter;stroke-opacity:1"
       d="m 642.85714,69.505062 c 2.76,0 5,14.079999 5,31.428568 0,17.34857 -2.24,31.42857 -5,31.42857 -2.76,0 -5,-14.08 -5,-31.42857 0,-17.348569 2.24,-31.428568 5,-31.428568 z"
       id="path5223"
       inkscape:path-effect="#path-effect5225"
       inkscape:original-d="m 642.85714,69.505062 0,62.857138"
       inkscape:connector-curvature="0" />
    <path
       style="fill:#000000;fill-rule:evenodd;stroke:none;stroke-width:1px;stroke-linecap:butt;stroke-linejoin:miter;stroke-opacity:1"
       d="m 745.71429,78.07649 c 2.7463,0.27463 3.69518,13.29752 2.11804,29.06895 -1.57714,15.77143 -5.08603,28.34854 -7.83233,28.07391 -2.7463,-0.27463 -3.69518,-13.29752 -2.11804,-29.06895 1.57714,-15.771428 5.08603,-28.34854 7.83233,-28.07391 z"
       id="path5227"
       inkscape:path-effect="#path-effect5229"
       inkscape:original-d="M 745.71429,78.07649 740,135.21935"
       inkscape:connector-curvature="0" />
    <path
       style="fill:#000000;fill-rule:evenodd;stroke:none;stroke-width:1px;stroke-linecap:butt;stroke-linejoin:miter;stroke-opacity:1"
       d="m 694.28571,123.79078 c 2.75688,0.13128 4.35434,13.67783 3.56577,30.23783 -0.78857,16.56 -3.66603,29.89345 -6.42291,29.76217 -2.75688,-0.13128 -4.35434,-13.67783 -3.56577,-30.23783 0.78857,-16.56 3.66603,-29.89345 6.42291,-29.76217 z"
       id="path5231"
       inkscape:path-effect="#path-effect5233"
       inkscape:original-d="m 694.28571,123.79078 -2.85714,60"
       inkscape:connector-curvature="0" />
    <path
       style="fill:#000000;fill-rule:evenodd;stroke:none;stroke-width:1px;stroke-linecap:butt;stroke-linejoin:miter;stroke-opacity:1"
       d="m 765.71429,172.3622 c 2.75047,0.22921 3.70273,15.77523 2.12558,34.70094 -1.57714,18.92572 -5.0894,34.0997 -7.83987,33.87049 -2.75047,-0.22921 -3.70273,-15.77523 -2.12558,-34.70094 1.57714,-18.92572 5.0894,-34.0997 7.83987,-33.87049 z"
       id="path5235"
       inkscape:path-effect="#path-effect5237"
       inkscape:original-d="M 765.71429,172.3622 760,240.93363"
       inkscape:connector-curvature="0" />
    <path
       style="fill:#000000;fill-rule:evenodd;stroke:none;stroke-width:1px;stroke-linecap:butt;stroke-linejoin:miter;stroke-opacity:1"
       d="m 628.57143,178.07649 c 2.7574,0.11989 4.35528,14.93719 3.56671,33.07433 -0.78857,18.13714 -3.66645,32.75985 -6.42385,32.63996 -2.7574,-0.11989 -4.35528,-14.93719 -3.56671,-33.07433 0.78857,-18.13714 3.66645,-32.75985 6.42385,-32.63996 z"
       id="path5239"
       inkscape:path-effect="#path-effect5241"
       inkscape:original-d="m 628.57143,178.07649 -2.85714,65.71429"
       inkscape:connector-curvature="0" />
    <path
       style="fill:#000000;fill-rule:evenodd;stroke:none;stroke-width:1px;stroke-linecap:butt;stroke-linejoin:miter;stroke-opacity:1"
       d="m 677.14286,238.07649 c 2.73869,0.34234 3.68139,10.86018 2.10424,23.47732 -1.57714,12.61714 -5.07984,22.57931 -7.81853,22.23697 -2.73869,-0.34234 -3.68139,-10.86018 -2.10424,-23.47732 1.57714,-12.61714 5.07984,-22.57931 7.81853,-22.23697 z"
       id="path5243"
       inkscape:path-effect="#path-effect5245"
       inkscape:original-d="m 677.14286,238.07649 -5.71429,45.71429"
       inkscape:connector-curvature="0" />
    <path
       style="fill:#000000;fill-rule:evenodd;stroke:none;stroke-width:1px;stroke-linecap:butt;stroke-linejoin:miter;stroke-opacity:1"
       d="m 602.85714,358.07649 c 0,-2.76 8.32,-5 18.57143,-5 10.25143,0 18.57143,2.24 18.57143,5 0,2.76 -8.32,5 -18.57143,5 -10.25143,0 -18.57143,-2.24 -18.57143,-5 z"
       id="path5247"
       inkscape:path-effect="#path-effect5249"
       inkscape:original-d="m 602.85714,358.07649 37.14286,0"
       inkscape:connector-curvature="0" />
    <path
       style="opacity:0.77520004;fill:#a02c2c;fill-opacity:1;stroke:#000000;stroke-width:5;stroke-miterlimit:4;stroke-dasharray:none;stroke-opacity:1"
       d="m 632.49564,207.95989 0.92421,-24.16911 45.08524,0 c 24.79689,0 53.09343,-0.83702 62.88121,-1.86005 l 17.79597,-1.86005 -2.0291,24.00291 c -1.116,13.20159 -2.18558,24.14665 -2.37684,24.32233 -0.19127,0.1757 -27.99062,1.08751 -61.77633,2.02626 l -61.42857,1.70682 0.92421,-24.16911 z"
       id="path5251"
       inkscape:connector-curvature="0" />
    <path
       style="opacity:0.77520004;fill:#a02c2c;fill-opacity:1;stroke:#000000;stroke-width:5;stroke-miterlimit:4;stroke-dasharray:none;stroke-opacity:1"
       d="m 601.57143,117.02175 0,-7.51669 -36.87843,0 -36.87843,0 -0.97871,-16.04946 -0.97872,-16.049463 16.84769,1.763748 c 9.26623,0.970062 34.33766,1.763748 55.71429,1.763748 l 38.86659,0 0,19.999997 c 0,19.42019 -0.20708,20.00091 -7.14285,20.03145 -3.92857,0.0174 -11.96429,0.82838 -17.85715,1.8024 -10.11467,1.67186 -10.71428,1.3503 -10.71428,-5.74573 z"
       id="path5253"
       inkscape:connector-curvature="0" />
    <path
       style="opacity:0.77520004;fill:#a02c2c;fill-opacity:1;stroke:#000000;stroke-width:5;stroke-miterlimit:4;stroke-dasharray:none;stroke-opacity:1"
       d="m 726.27104,70.233059 c -21.54997,-0.940206 -22.37599,-1.230049 -20.7533,-7.28216 0.92947,-3.46664 1.70821,-14.017266 1.73054,-23.445837 l 0.0406,-17.142857 38.13527,0.329105 c 39.71032,0.342698 44.69207,1.474689 49.85695,11.328887 3.65961,6.982257 -0.99977,17.911553 -12.99631,30.484865 -6.2746,6.576266 -9.622,7.763408 -20.5336,7.28216 -7.17029,-0.316243 -23.13634,-1.015614 -35.48013,-1.554163 z"
       id="path5255"
       inkscape:connector-curvature="0" />
    <path
       style="opacity:0.77520004;fill:#a02c2c;fill-opacity:1;stroke:#000000;stroke-width:5;stroke-miterlimit:4;stroke-dasharray:none;stroke-opacity:1"
       d="m 648.71429,100.93363 0,-19.999997 46.73425,0 c 41.48262,0 46.53897,0.508912 44.99639,4.528805 -0.95583,2.490842 -2.55612,11.490842 -3.5562,20.000002 l -1.81834,15.47119 -43.17805,0 -43.17805,0 0,-20 z"
       id="path5257"
       inkscape:connector-curvature="0" />
    <path
       style="opacity:0.77520004;fill:#a02c2c;fill-opacity:1;stroke:#000000;stroke-width:5;stroke-miterlimit:4;stroke-dasharray:none;stroke-opacity:1"
       d="m 591.63122,51.865673 c 0.0442,-13.037833 1.16206,-17.978437 4.28572,-18.941575 2.32425,-0.716654 10.77855,-4.350542 18.78732,-8.075307 17.86549,-8.308982 25.33539,-8.454565 43.05887,-0.839187 8.86426,3.808772 18.15603,5.591642 25.95116,4.979412 l 12.14285,-0.953702 0,20.734874 0,20.734874 -52.14285,-4.12e-4 -52.14286,-4.11e-4 0.0598,-17.638566 z"
       id="path5259"
       inkscape:connector-curvature="0" />
    <path
       style="opacity:0.77520004;fill:#a02c2c;fill-opacity:1;stroke:#000000;stroke-width:5;stroke-miterlimit:4;stroke-dasharray:none;stroke-opacity:1"
       d="m 524.98671,57.099103 c 0.73701,-8.887373 2.30419,-17.124633 3.48263,-18.305022 1.17844,-1.180389 13.28707,-2.58407 26.90807,-3.119291 l 24.76545,-0.97313 0,17.393713 0,17.393712 -10.29517,0.008 c -5.66234,0.0043 -18.37398,0.852391 -28.24809,1.88444 l -17.95291,1.87644 1.34002,-16.158862 z"
       id="path5261"
       inkscape:connector-curvature="0" />
    <path
       style="opacity:0.77520004;fill:#a02c2c;fill-opacity:1;stroke:#000000;stroke-width:5;stroke-miterlimit:4;stroke-dasharray:none;stroke-opacity:1"
       d="m 601.57143,152.18091 0,-23.42352 10.71428,1.77096 c 5.89286,0.97403 25.5,1.78397 43.57143,1.79986 l 32.85715,0.0289 -1.42858,19.28827 -1.42857,19.28826 -35.71428,0.0899 C 630.5,171.07299 611.53571,172.12392 608,173.35893 c -6.3265,2.20984 -6.42857,1.87359 -6.42857,-21.17802 z"
       id="path5263"
       inkscape:connector-curvature="0" />
    <path
       style="opacity:0.77520004;fill:#a02c2c;fill-opacity:1;stroke:#000000;stroke-width:5;stroke-miterlimit:4;stroke-dasharray:none;stroke-opacity:1"
       d="m 743.71429,170.22478 -45,-0.86482 0,-18.72237 0,-18.72237 23.57142,0.65065 c 12.96429,0.35786 28.90363,-0.32763 35.42075,-1.5233 10.35757,-1.90028 12.07596,-1.45988 13.64959,3.49819 0.99015,3.11968 9.38394,12.90574 18.65286,21.7468 l 16.85259,16.07464 -9.07361,-0.6363 c -4.99048,-0.34997 -29.3236,-1.02548 -54.0736,-1.50112 z"
       id="path5265"
       inkscape:connector-curvature="0" />
    <path
       style="opacity:0.77520004;fill:#a02c2c;fill-opacity:1;stroke:#000000;stroke-width:5;stroke-miterlimit:4;stroke-dasharray:none;stroke-opacity:1"
       d="m 601.57143,207.37331 0,-26.69861 10.71428,1.93707 c 5.89286,1.06538 10.72827,2.08793 10.74535,2.27232 0.0171,0.18439 -0.39817,10.81269 -0.9228,23.61844 l -0.95386,23.28318 -9.79148,1.1431 -9.79149,1.14311 0,-26.69861 z"
       id="path5267"
       inkscape:connector-curvature="0" />
    <path
       style="opacity:0.77520004;fill:#a02c2c;fill-opacity:1;stroke:#000000;stroke-width:5;stroke-miterlimit:4;stroke-dasharray:none;stroke-opacity:1"
       d="m 773.34557,230.29751 c -6.4039,-1.21206 -6.69471,-2.14035 -5.02484,-16.03948 0.97485,-8.11413 1.78363,-18.76552 1.79729,-23.66975 l 0.0248,-8.91679 23.18068,-2.02207 c 22.66491,-1.97709 23.3642,-1.84626 31.42857,5.8799 11.58818,11.10217 10.49756,18.33576 -5.08,33.69326 -12.16146,11.98968 -14.47442,13.10557 -26.42857,12.75053 -7.20537,-0.214 -16.15946,-0.96802 -19.89797,-1.6756 z"
       id="path5269"
       inkscape:connector-curvature="0" />
    <path
       style="opacity:0.77520004;fill:#a02c2c;fill-opacity:1;stroke:#000000;stroke-width:5;stroke-miterlimit:4;stroke-dasharray:none;stroke-opacity:1"
       d="m 601.57143,268.02908 0,-27.80973 8.92857,1.78571 c 4.91071,0.98214 20.26448,1.78572 34.11948,1.78572 l 25.19091,0 -1.62562,20.71428 c -0.8941,11.39286 -2.62289,21.81074 -3.84176,23.15085 -1.21888,1.34011 -12.3054,2.76451 -24.63672,3.16532 -12.33132,0.40082 -25.95629,1.69375 -30.27772,2.87318 l -7.85714,2.14441 0,-27.80974 z"
       id="path5271"
       inkscape:connector-curvature="0" />
    <path
       style="opacity:0.77520004;fill:#a02c2c;fill-opacity:1;stroke:#000000;stroke-width:5;stroke-miterlimit:4;stroke-dasharray:none;stroke-opacity:1"
       d="m 601.57143,329.81074 0,-26.01996 16.78571,0 c 9.23215,0 20.93815,-0.83049 26.01334,-1.84553 l 9.22763,-1.84552 -7.46915,11.83189 c -4.10803,6.50754 -8.84915,18.2666 -10.53581,26.13124 -3.03301,14.14244 -3.1869,14.29934 -14.0248,14.29934 -6.02697,0 -12.99186,0.78042 -15.47753,1.73426 -3.91721,1.50317 -4.51939,-1.73274 -4.51939,-24.28572 z"
       id="path5273"
       inkscape:connector-curvature="0" />
    <path
       style="opacity:0.77520004;fill:#a02c2c;fill-opacity:1;stroke:#000000;stroke-width:5;stroke-miterlimit:4;stroke-dasharray:none;stroke-opacity:1"
       d=""
       id="path5275"
       inkscape:connector-curvature="0" />
    <path
       style="opacity:0.77520004;fill:#a02c2c;fill-opacity:1;stroke:#000000;stroke-width:5;stroke-miterlimit:4;stroke-dasharray:none;stroke-opacity:1"
       d="M 718.09984,2.955817 C 733.27779,-12.586061 738.3697,-12.988909 755.79447,-0.02639985 772.54464,12.43426 774.02794,11.609856 732.40215,12.974814 l -24.88356,0.815962 10.58125,-10.834959 z"
       id="path5277"
       inkscape:connector-curvature="0" />
    <path
       style="opacity:0.77520004;fill:#a02c2c;fill-opacity:1;stroke:#000000;stroke-width:5;stroke-miterlimit:4;stroke-dasharray:none;stroke-opacity:1"
       d=""
       id="path5279"
       inkscape:connector-curvature="0" />
    <path
       style="opacity:0.77520004;fill:#a02c2c;fill-opacity:1;stroke:#000000;stroke-width:5;stroke-miterlimit:4;stroke-dasharray:none;stroke-opacity:1"
       d=""
       id="path5283"
       inkscape:connector-curvature="0" />
    <path
       style="opacity:0.77520004;fill:#a02c2c;fill-opacity:1;stroke:#000000;stroke-width:5;stroke-miterlimit:4;stroke-dasharray:none;stroke-opacity:1"
       d=""
       id="path5287"
       inkscape:connector-curvature="0" />
  </g>
</svg>
