<?xml version="1.0" encoding="UTF-8" standalone="no"?>
<!-- Created with Inkscape (http://www.inkscape.org/) -->

<svg
   xmlns:dc="http://purl.org/dc/elements/1.1/"
   xmlns:cc="http://creativecommons.org/ns#"
   xmlns:rdf="http://www.w3.org/1999/02/22-rdf-syntax-ns#"
   xmlns:svg="http://www.w3.org/2000/svg"
   xmlns="http://www.w3.org/2000/svg"
   xmlns:sodipodi="http://sodipodi.sourceforge.net/DTD/sodipodi-0.dtd"
   xmlns:inkscape="http://www.inkscape.org/namespaces/inkscape"
   width="210mm"
   height="297mm"
   viewBox="0 0 744.09448819 1052.3622047"
   id="svg2"
   version="1.1"
   inkscape:version="0.91 r13725"
   sodipodi:docname="ninja_hit.svg">
  <defs
     id="defs4" />
  <sodipodi:namedview
     id="base"
     pagecolor="#ffffff"
     bordercolor="#666666"
     borderopacity="1.0"
     inkscape:pageopacity="0.0"
     inkscape:pageshadow="2"
     inkscape:zoom="0.49497475"
     inkscape:cx="531.45981"
     inkscape:cy="688.72221"
     inkscape:document-units="px"
     inkscape:current-layer="layer1"
     showgrid="false"
     inkscape:window-width="1920"
     inkscape:window-height="1017"
     inkscape:window-x="-8"
     inkscape:window-y="-8"
     inkscape:window-maximized="1" />
  <metadata
     id="metadata7">
    <rdf:RDF>
      <cc:Work
         rdf:about="">
        <dc:format>image/svg+xml</dc:format>
        <dc:type
           rdf:resource="http://purl.org/dc/dcmitype/StillImage" />
        <dc:title></dc:title>
      </cc:Work>
    </rdf:RDF>
  </metadata>
  <g
     inkscape:label="Ebene 1"
     inkscape:groupmode="layer"
     id="layer1">
    <ellipse
       style="fill:#1a1a1a;fill-rule:evenodd;stroke:#000000;stroke-width:1px;stroke-linecap:butt;stroke-linejoin:miter;stroke-opacity:1"
       id="path3336"
       cx="354.10928"
       cy="586.55927"
       rx="98.571426"
       ry="184.28572"
       transform="matrix(0.98480775,-0.17364818,0.17364818,0.98480775,0,0)" />
    <ellipse
       style="fill:#1a1a1a"
       id="path3338"
       cx="447.5838"
       cy="264.87271"
       rx="95.714287"
       ry="92.85714" />
    <ellipse
       style="fill:#1a1a1a"
       id="path3340"
       cx="473.11893"
       cy="692.72034"
       rx="17.142857"
       ry="61.42857"
       transform="matrix(0.99756405,0.06975647,-0.06975647,0.99756405,0,0)" />
    <ellipse
       style="fill:#1a1a1a"
       id="path3342"
       cx="617.90295"
       cy="630.60419"
       rx="15.714286"
       ry="60"
       transform="matrix(0.98480775,0.17364818,-0.17364818,0.98480775,0,0)" />
    <rect
       style="fill:#f2f2f2"
       id="rect3344"
       width="182.85715"
       height="37.14286"
       x="356.74695"
       y="247.83138"
       ry="18.57143"
       rx="0" />
    <rect
       style="fill:#f2f2f2"
       id="rect3346"
       width="17.142857"
       height="5.7142859"
       x="445.31839"
       y="276.40283" />
    <ellipse
       style="fill:#000000"
       id="path3348"
       cx="415.31839"
       cy="263.54568"
       rx="10"
       ry="24.285713" />
    <ellipse
       style="fill:#000000"
       id="path3350"
       cx="476.74695"
       cy="264.97424"
       rx="14.285714"
       ry="20" />
    <path
       style="fill:#1a1a1a"
       d="m 516.09604,210.67286 c 1.88049,-1.71103 40.04009,-28.34474 44.68349,-31.18708 2.40768,-1.47381 22.05563,24.34541 20.05151,26.34953 -1.18953,1.18953 -49.41216,6.47277 -59.68424,6.53897 -4.04861,0.0261 -6.1656,-0.68704 -5.05076,-1.70142 z"
       id="path3364"
       inkscape:connector-curvature="0" />
    <path
       style="fill:#1a1a1a"
       d="m 535.52013,226.12415 c -11.48455,-7.71795 -20.38607,-14.52757 -19.78115,-15.13249 2.01095,-2.01096 39.91657,5.82715 40.92808,8.46309 0.54224,1.41307 0.70424,6.6491 0.35998,11.63563 l -0.62591,9.06641 -20.881,-14.03264 z"
       id="path3366"
       inkscape:connector-curvature="0" />
    <path
       style="fill:#1a1a1a"
       d=""
       id="path3368"
       inkscape:connector-curvature="0" />
    <path
       style="fill:#1a1a1a"
       d=""
       id="path3370"
       inkscape:connector-curvature="0" />
    <path
       style="fill:#1a1a1a"
       d=""
       id="path3372"
       inkscape:connector-curvature="0" />
    <path
       style="fill:#1a1a1a"
       d=""
       id="path3374"
       inkscape:connector-curvature="0" />
    <path
       d="m 126.37914,684.44971 a 79.802048,17.172594 0 0 1 -52.679871,16.15036 79.802048,17.172594 0 0 1 -88.488296,-5.17238 79.802048,17.172594 0 0 1 -7.468832,-19.66621 l 68.834954,8.68823 z"
       sodipodi:end="3.6720589"
       sodipodi:start="0"
       sodipodi:ry="17.172594"
       sodipodi:rx="79.802048"
       sodipodi:cy="684.44971"
       sodipodi:cx="46.577095"
       sodipodi:type="arc"
       id="path3395"
       style="fill:#1a1a1a"
       transform="matrix(0.60042022,-0.79968466,0.79968466,0.60042022,0,0)" />
    <path
       d="m 129.69946,570.12537 a 79.802048,17.172594 0 0 1 -52.679879,16.15036 79.802048,17.172594 0 0 1 -88.488295,-5.17238 79.802048,17.172594 0 0 1 -7.468832,-19.66621 l 68.834954,8.68823 z"
       sodipodi:end="3.6720589"
       sodipodi:start="0"
       sodipodi:ry="17.172594"
       sodipodi:rx="79.802048"
       sodipodi:cy="570.12537"
       sodipodi:cx="49.897408"
       sodipodi:type="arc"
       id="path3395-0"
       style="fill:#1a1a1a"
       transform="matrix(0.87881711,-0.47715876,0.47715876,0.87881711,0,0)" />
    <path
       style="fill:#808080"
       d="M 189.94639,377.59864 A 192.35945,10.379626 55.821533 0 1 288.85037,541.78698 192.35945,10.379626 55.821533 0 1 172.05294,388.20079 192.35945,10.379626 55.821533 0 1 72.754654,223.49393 192.35945,10.379626 55.821533 0 1 189.21684,376.52405 l -8.39953,6.107 z"
       id="path4238"
       inkscape:connector-curvature="0" />
  </g>
</svg>
