<?xml version="1.0" encoding="UTF-8" standalone="no"?>
<!-- Created with Inkscape (http://www.inkscape.org/) -->

<svg
   xmlns:dc="http://purl.org/dc/elements/1.1/"
   xmlns:cc="http://creativecommons.org/ns#"
   xmlns:rdf="http://www.w3.org/1999/02/22-rdf-syntax-ns#"
   xmlns:svg="http://www.w3.org/2000/svg"
   xmlns="http://www.w3.org/2000/svg"
   xmlns:sodipodi="http://sodipodi.sourceforge.net/DTD/sodipodi-0.dtd"
   xmlns:inkscape="http://www.inkscape.org/namespaces/inkscape"
   width="210mm"
   height="297mm"
   viewBox="0 0 744.09448819 1052.3622047"
   id="svg2"
   version="1.1"
   inkscape:version="0.91 r13725"
   sodipodi:docname="ninja_step.svg">
  <defs
     id="defs4" />
  <sodipodi:namedview
     id="base"
     pagecolor="#ffffff"
     bordercolor="#666666"
     borderopacity="1.0"
     inkscape:pageopacity="0.0"
     inkscape:pageshadow="2"
     inkscape:zoom="0.49497475"
     inkscape:cx="186.99779"
     inkscape:cy="688.72221"
     inkscape:document-units="px"
     inkscape:current-layer="layer1"
     showgrid="false"
     inkscape:window-width="1920"
     inkscape:window-height="1017"
     inkscape:window-x="-8"
     inkscape:window-y="-8"
     inkscape:window-maximized="1"
     inkscape:object-paths="true" />
  <metadata
     id="metadata7">
    <rdf:RDF>
      <cc:Work
         rdf:about="">
        <dc:format>image/svg+xml</dc:format>
        <dc:type
           rdf:resource="http://purl.org/dc/dcmitype/StillImage" />
        <dc:title />
      </cc:Work>
    </rdf:RDF>
  </metadata>
  <g
     inkscape:label="Ebene 1"
     inkscape:groupmode="layer"
     id="layer1">
    <ellipse
       style="fill:#1a1a1a;fill-rule:evenodd;stroke:#000000;stroke-width:1px;stroke-linecap:butt;stroke-linejoin:miter;stroke-opacity:1"
       id="path3336"
       cx="390.70322"
       cy="447.02286"
       rx="98.571426"
       ry="184.28572"
       transform="matrix(0.98480775,0.17364818,-0.17364818,0.98480775,0,0)" />
    <ellipse
       style="fill:#1a1a1a"
       id="path3338"
       cx="396.30569"
       cy="21.138792"
       rx="95.714287"
       ry="92.85714"
       transform="matrix(0.76604444,0.64278762,-0.64278762,0.76604444,0,0)" />
    <ellipse
       style="fill:#1a1a1a"
       id="path3340"
       cx="188.28752"
       cy="753.90826"
       rx="17.142857"
       ry="61.42857"
       transform="matrix(0.99452189,-0.10452847,0.10452847,0.99452189,0,0)" />
    <ellipse
       style="fill:#1a1a1a"
       id="path3342"
       cx="537.31628"
       cy="519.8371"
       rx="16.029869"
       ry="68.57444"
       transform="matrix(0.92119265,0.3891068,-0.29925448,0.95417334,0,0)" />
    <rect
       style="fill:#f2f2f2"
       id="rect3344"
       width="182.85715"
       height="37.14286"
       x="197.14285"
       y="243.79077"
       ry="18.57143"
       rx="0" />
    <rect
       style="fill:#f2f2f2"
       id="rect3346"
       width="17.142857"
       height="5.7142859"
       x="285.71429"
       y="272.36221" />
    <ellipse
       style="fill:#000000"
       id="path3348"
       cx="255.71428"
       cy="259.50507"
       rx="10"
       ry="24.285713" />
    <ellipse
       style="fill:#000000"
       id="path3350"
       cx="317.14285"
       cy="260.93362"
       rx="14.285714"
       ry="20" />
    <path
       style="fill:#1a1a1a"
       d="m 356.49194,206.63225 c 1.88049,-1.71103 40.04009,-28.34474 44.68349,-31.18708 2.40768,-1.47381 22.05563,24.34541 20.05151,26.34953 -1.18953,1.18953 -49.41216,6.47277 -59.68424,6.53897 -4.04861,0.0261 -6.1656,-0.68704 -5.05076,-1.70142 z"
       id="path3364"
       inkscape:connector-curvature="0" />
    <path
       style="fill:#1a1a1a"
       d="m 375.91603,222.08354 c -11.48455,-7.71795 -20.38607,-14.52757 -19.78115,-15.13249 2.01095,-2.01096 39.91657,5.82715 40.92808,8.46309 0.54224,1.41307 0.70424,6.6491 0.35998,11.63563 l -0.62591,9.06641 -20.881,-14.03264 z"
       id="path3366"
       inkscape:connector-curvature="0" />
    <path
       style="fill:#1a1a1a"
       d=""
       id="path3368"
       inkscape:connector-curvature="0" />
    <path
       style="fill:#1a1a1a"
       d=""
       id="path3370"
       inkscape:connector-curvature="0" />
    <path
       style="fill:#1a1a1a"
       d=""
       id="path3372"
       inkscape:connector-curvature="0" />
    <path
       style="fill:#1a1a1a"
       d=""
       id="path3374"
       inkscape:connector-curvature="0" />
    <path
       d="m -200.79083,755.05072 a 81.932556,21.075859 0 0 1 -54.08629,19.82128 81.932556,21.075859 0 0 1 -90.85071,-6.34804 81.932556,21.075859 0 0 1 -7.66823,-24.13627 l 70.67267,10.66303 z"
       sodipodi:end="3.6720589"
       sodipodi:start="0"
       sodipodi:ry="21.075859"
       sodipodi:rx="81.932556"
       sodipodi:cy="755.05072"
       sodipodi:cx="-282.72339"
       sodipodi:type="arc"
       id="path3395"
       style="fill:#1a1a1a"
       transform="matrix(0.84554927,-0.53389739,0.94209661,0.33534158,0,0)" />
    <path
       d="m 300.07394,388.34106 a 79.802048,17.172594 0 0 1 -52.67987,16.15037 79.802048,17.172594 0 0 1 -88.4883,-5.17238 79.802048,17.172594 0 0 1 -7.46883,-19.66621 l 68.83496,8.68822 z"
       sodipodi:end="3.6720589"
       sodipodi:start="0"
       sodipodi:ry="17.172594"
       sodipodi:rx="79.802048"
       sodipodi:cy="388.34106"
       sodipodi:cx="220.2719"
       sodipodi:type="arc"
       id="path3395-0"
       style="fill:#1a1a1a"
       transform="matrix(0.98510932,0.17192911,-0.17192911,0.98510932,0,0)" />
    <path
       style="fill:#808080"
       d="M 148.11401,263.15095 A 10.379626,192.35945 15.821533 0 1 85.912698,444.45402 10.379626,192.35945 15.821533 0 1 128.4906,256.25871 10.379626,192.35945 15.821533 0 1 190.83569,74.320275 10.379626,192.35945 15.821533 0 1 148.46825,261.90133 l -10.07735,-2.5089 z"
       id="path4238"
       inkscape:connector-curvature="0" />
  </g>
</svg>
