<?xml version="1.0" encoding="UTF-8" standalone="no"?>
<!-- Created with Inkscape (http://www.inkscape.org/) -->

<svg
   xmlns:dc="http://purl.org/dc/elements/1.1/"
   xmlns:cc="http://creativecommons.org/ns#"
   xmlns:rdf="http://www.w3.org/1999/02/22-rdf-syntax-ns#"
   xmlns:svg="http://www.w3.org/2000/svg"
   xmlns="http://www.w3.org/2000/svg"
   xmlns:sodipodi="http://sodipodi.sourceforge.net/DTD/sodipodi-0.dtd"
   xmlns:inkscape="http://www.inkscape.org/namespaces/inkscape"
   width="210mm"
   height="297mm"
   viewBox="0 0 744.09448819 1052.3622047"
   id="svg2"
   version="1.1"
   inkscape:version="0.91 r13725"
   sodipodi:docname="ninja.svg">
  <defs
     id="defs4" />
  <sodipodi:namedview
     id="base"
     pagecolor="#ffffff"
     bordercolor="#666666"
     borderopacity="1.0"
     inkscape:pageopacity="0.0"
     inkscape:pageshadow="2"
     inkscape:zoom="0.49497475"
     inkscape:cx="531.45981"
     inkscape:cy="688.72221"
     inkscape:document-units="px"
     inkscape:current-layer="layer1"
     showgrid="false"
     inkscape:window-width="1920"
     inkscape:window-height="1017"
     inkscape:window-x="-8"
     inkscape:window-y="-8"
     inkscape:window-maximized="1" />
  <metadata
     id="metadata7">
    <rdf:RDF>
      <cc:Work
         rdf:about="">
        <dc:format>image/svg+xml</dc:format>
        <dc:type
           rdf:resource="http://purl.org/dc/dcmitype/StillImage" />
        <dc:title />
      </cc:Work>
    </rdf:RDF>
  </metadata>
  <g
     inkscape:label="Ebene 1"
     inkscape:groupmode="layer"
     id="layer1">
    <ellipse
       style="fill:#1a1a1a;fill-rule:evenodd;stroke:#000000;stroke-width:1px;stroke-linecap:butt;stroke-linejoin:miter;stroke-opacity:1"
       id="path3336"
       cx="307.14285"
       cy="508.07648"
       rx="98.571426"
       ry="184.28572" />
    <ellipse
       style="fill:#1a1a1a"
       id="path3338"
       cx="290"
       cy="270.93362"
       rx="95.714287"
       ry="92.85714" />
    <ellipse
       style="fill:#1a1a1a"
       id="path3340"
       cx="533.65723"
       cy="559.37952"
       rx="17.142857"
       ry="61.42857"
       transform="matrix(0.91354546,0.40673664,-0.40673664,0.91354546,0,0)" />
    <ellipse
       style="fill:#1a1a1a"
       id="path3342"
       cx="101.0797"
       cy="803.25378"
       rx="15.714286"
       ry="60"
       transform="matrix(0.93969262,-0.34202015,0.34202015,0.93969262,0,0)" />
    <rect
       style="fill:#f2f2f2"
       id="rect3344"
       width="182.85715"
       height="37.14286"
       x="197.14285"
       y="243.79077"
       ry="18.57143"
       rx="0" />
    <rect
       style="fill:#f2f2f2"
       id="rect3346"
       width="17.142857"
       height="5.7142859"
       x="285.71429"
       y="272.36221" />
    <ellipse
       style="fill:#000000"
       id="path3348"
       cx="255.71428"
       cy="259.50507"
       rx="10"
       ry="24.285713" />
    <ellipse
       style="fill:#000000"
       id="path3350"
       cx="317.14285"
       cy="260.93362"
       rx="14.285714"
       ry="20" />
    <path
       style="fill:#1a1a1a"
       d="m 356.49194,206.63225 c 1.88049,-1.71103 40.04009,-28.34474 44.68349,-31.18708 2.40768,-1.47381 22.05563,24.34541 20.05151,26.34953 -1.18953,1.18953 -49.41216,6.47277 -59.68424,6.53897 -4.04861,0.0261 -6.1656,-0.68704 -5.05076,-1.70142 z"
       id="path3364"
       inkscape:connector-curvature="0" />
    <path
       style="fill:#1a1a1a"
       d="m 375.91603,222.08354 c -11.48455,-7.71795 -20.38607,-14.52757 -19.78115,-15.13249 2.01095,-2.01096 39.91657,5.82715 40.92808,8.46309 0.54224,1.41307 0.70424,6.6491 0.35998,11.63563 l -0.62591,9.06641 -20.881,-14.03264 z"
       id="path3366"
       inkscape:connector-curvature="0" />
    <path
       style="fill:#1a1a1a"
       d=""
       id="path3368"
       inkscape:connector-curvature="0" />
    <path
       style="fill:#1a1a1a"
       d=""
       id="path3370"
       inkscape:connector-curvature="0" />
    <path
       style="fill:#1a1a1a"
       d=""
       id="path3372"
       inkscape:connector-curvature="0" />
    <path
       style="fill:#1a1a1a"
       d=""
       id="path3374"
       inkscape:connector-curvature="0" />
    <path
       d="m -542.27968,-99.608521 a 79.802048,17.172594 0 0 1 -52.67987,16.150363 79.802048,17.172594 0 0 1 -88.4883,-5.172375 79.802048,17.172594 0 0 1 -7.46883,-19.666217 l 68.83495,8.688229 z"
       sodipodi:end="3.6720589"
       sodipodi:start="0"
       sodipodi:ry="17.172594"
       sodipodi:rx="79.802048"
       sodipodi:cy="-99.608521"
       sodipodi:cx="-622.08173"
       sodipodi:type="arc"
       id="path3395"
       style="fill:#1a1a1a"
       transform="matrix(-0.79968467,-0.60042021,0.60042021,-0.79968467,0,0)" />
    <path
       d="m 470.26979,205.33798 a 79.802048,17.172594 0 0 1 -52.67987,16.15036 79.802048,17.172594 0 0 1 -88.4883,-5.17237 79.802048,17.172594 0 0 1 -7.46883,-19.66621 l 68.83495,8.68822 z"
       sodipodi:end="3.6720589"
       sodipodi:start="0"
       sodipodi:ry="17.172594"
       sodipodi:rx="79.802048"
       sodipodi:cy="205.33798"
       sodipodi:cx="390.46774"
       sodipodi:type="arc"
       id="path3395-0"
       style="fill:#1a1a1a"
       transform="matrix(0.74895572,0.66262005,-0.66262005,0.74895572,0,0)" />
    <path
       style="fill:#808080"
       d="M 168.31708,246.98851 A 10.379626,192.35945 15.821533 0 1 106.11576,428.29158 10.379626,192.35945 15.821533 0 1 148.69366,240.09626 10.379626,192.35945 15.821533 0 1 211.03873,58.157833 10.379626,192.35945 15.821533 0 1 168.67131,245.73889 l -10.07736,-2.5089 z"
       id="path4238"
       inkscape:connector-curvature="0" />
  </g>
</svg>
