<?xml version="1.0" encoding="UTF-8" standalone="no"?>
<!-- Created with Inkscape (http://www.inkscape.org/) -->

<svg
   xmlns:dc="http://purl.org/dc/elements/1.1/"
   xmlns:cc="http://creativecommons.org/ns#"
   xmlns:rdf="http://www.w3.org/1999/02/22-rdf-syntax-ns#"
   xmlns:svg="http://www.w3.org/2000/svg"
   xmlns="http://www.w3.org/2000/svg"
   xmlns:sodipodi="http://sodipodi.sourceforge.net/DTD/sodipodi-0.dtd"
   xmlns:inkscape="http://www.inkscape.org/namespaces/inkscape"
   width="297mm"
   height="210mm"
   viewBox="0 0 1052.3622 744.09448"
   id="svg2"
   version="1.1"
   inkscape:version="0.91 r13725"
   sodipodi:docname="skyline.svg">
  <defs
     id="defs4" />
  <sodipodi:namedview
     id="base"
     pagecolor="#ffffff"
     bordercolor="#666666"
     borderopacity="1.0"
     inkscape:pageopacity="0.0"
     inkscape:pageshadow="2"
     inkscape:zoom="0.34588852"
     inkscape:cx="681.71365"
     inkscape:cy="664.32432"
     inkscape:document-units="px"
     inkscape:current-layer="layer1"
     showgrid="false"
     inkscape:window-width="1920"
     inkscape:window-height="1102"
     inkscape:window-x="25"
     inkscape:window-y="25"
     inkscape:window-maximized="0" />
  <metadata
     id="metadata7">
    <rdf:RDF>
      <cc:Work
         rdf:about="">
        <dc:format>image/svg+xml</dc:format>
        <dc:type
           rdf:resource="http://purl.org/dc/dcmitype/StillImage" />
        <dc:title />
      </cc:Work>
    </rdf:RDF>
  </metadata>
  <g
     inkscape:label="Layer 1"
     inkscape:groupmode="layer"
     id="layer1"
     transform="translate(0,-308.26772)">
    <rect
       style="fill:#ffffff;stroke:#000000;stroke-width:0;stroke-miterlimit:4;stroke-dasharray:none;stroke-opacity:1"
       id="rect4178"
       width="278.25876"
       height="159.73276"
       x="-176.09595"
       y="862.48016"
       inkscape:export-filename="/Users/joseph/Documents/Stud 4. Semester/PyRasp/repository/planet_of_the_grizzlies/potg/gfx/skyline.png"
       inkscape:export-xdpi="90"
       inkscape:export-ydpi="90" />
    <path
       style="fill:#f9f9f9;fill-rule:evenodd;stroke:#000000;stroke-width:0;stroke-linecap:butt;stroke-linejoin:miter;stroke-opacity:1;stroke-miterlimit:4;stroke-dasharray:none"
       d="m 29.150845,1026.7639 0,-141.42138 53.538085,-44.44671 -1.010152,185.86809 z"
       id="path4136"
       inkscape:connector-curvature="0"
       sodipodi:nodetypes="ccccc"
       inkscape:export-filename="/Users/joseph/Documents/Stud 4. Semester/PyRasp/repository/planet_of_the_grizzlies/potg/gfx/skyline.png"
       inkscape:export-xdpi="90"
       inkscape:export-ydpi="90" />
    <rect
       style="fill:#f9f9f9;stroke:#000000;stroke-width:0;stroke-miterlimit:4;stroke-dasharray:none;stroke-opacity:1"
       id="rect4138"
       width="54.778458"
       height="114.37746"
       x="92.675354"
       y="912.50159"
       inkscape:export-filename="/Users/joseph/Documents/Stud 4. Semester/PyRasp/repository/planet_of_the_grizzlies/potg/gfx/skyline.png"
       inkscape:export-xdpi="90"
       inkscape:export-ydpi="90" />
    <path
       sodipodi:nodetypes="ccccccccc"
       inkscape:connector-curvature="0"
       id="path4140"
       d="m 216.02907,1023.7334 0,-141.42134 13.43961,-10.94775 -1.16401,-135.3403 29.65534,34.80141 0.63865,76.20319 10.96849,-9.16326 -1.01015,185.86805 z"
       style="fill:#f9f9f9;fill-rule:evenodd;stroke:#000000;stroke-width:0;stroke-linecap:butt;stroke-linejoin:miter;stroke-opacity:1;stroke-miterlimit:4;stroke-dasharray:none"
       inkscape:export-filename="/Users/joseph/Documents/Stud 4. Semester/PyRasp/repository/planet_of_the_grizzlies/potg/gfx/skyline.png"
       inkscape:export-xdpi="90"
       inkscape:export-ydpi="90" />
    <path
       style="fill:#cccccc;fill-rule:evenodd;stroke:#000000;stroke-width:0;stroke-linecap:butt;stroke-linejoin:miter;stroke-opacity:1;stroke-miterlimit:4;stroke-dasharray:none"
       d="m 151.88438,1026.2588 0,-64.14469 11.92438,-10.44267 -0.32444,-55.71806 -11.00326,-15.66123 1.07232,-106.8925 40.26194,-0.0489 0.63865,76.20319 10.96849,-9.16326 -1.01015,185.86802 z"
       id="path4142"
       inkscape:connector-curvature="0"
       sodipodi:nodetypes="ccccccccccc"
       inkscape:export-filename="/Users/joseph/Documents/Stud 4. Semester/PyRasp/repository/planet_of_the_grizzlies/potg/gfx/skyline.png"
       inkscape:export-xdpi="90"
       inkscape:export-ydpi="90" />
    <path
       sodipodi:nodetypes="ccccccccccc"
       inkscape:connector-curvature="0"
       id="path4144"
       d="m 279.66868,1024.2385 0,-64.1447 6.87362,0.16393 0.18063,-135.52011 8.69472,-0.004 -0.44291,-124.57017 59.95991,107.53234 -1.38165,83.27426 11.56132,-0.0576 -0.0878,133.32585 z"
       style="fill:#cccccc;fill-rule:evenodd;stroke:#000000;stroke-width:0;stroke-linecap:butt;stroke-linejoin:miter;stroke-opacity:1;stroke-miterlimit:4;stroke-dasharray:none"
       inkscape:export-filename="/Users/joseph/Documents/Stud 4. Semester/PyRasp/repository/planet_of_the_grizzlies/potg/gfx/skyline.png"
       inkscape:export-xdpi="90"
       inkscape:export-ydpi="90" />
    <rect
       y="903.01532"
       x="-316.82062"
       height="114.37746"
       width="54.778458"
       id="rect4146"
       style="fill:#cccccc;stroke:#000000;stroke-width:0;stroke-miterlimit:4;stroke-dasharray:none;stroke-opacity:1"
       inkscape:export-filename="/Users/joseph/Documents/Stud 4. Semester/PyRasp/repository/planet_of_the_grizzlies/potg/gfx/skyline.png"
       inkscape:export-xdpi="90"
       inkscape:export-ydpi="90" />
    <path
       style="fill:#f9f9f9;fill-rule:evenodd;stroke:#000000;stroke-width:0;stroke-linecap:butt;stroke-linejoin:miter;stroke-opacity:1;stroke-miterlimit:4;stroke-dasharray:none"
       d="m 443.02485,1020.7826 1.49345,-419.37935 13.44104,-21.44554 -7.46724,-362.19132 13.44103,-23.82837 -2.98689,-316.91741 7.46724,-2.38284 5.97379,316.9174 16.42793,23.82839 1.49345,359.80847 14.93448,19.06271 0,426.52786 z"
       id="path4148"
       inkscape:connector-curvature="0"
       inkscape:export-filename="/Users/joseph/Documents/Stud 4. Semester/PyRasp/repository/planet_of_the_grizzlies/potg/gfx/skyline.png"
       inkscape:export-xdpi="90"
       inkscape:export-ydpi="90" />
    <path
       style="fill:#cccccc;fill-rule:evenodd;stroke:#000000;stroke-width:0;stroke-linecap:butt;stroke-linejoin:miter;stroke-opacity:1;stroke-miterlimit:4;stroke-dasharray:none"
       d="m 590.08929,1018.3444 50,-61.42863 -1.42858,-274.28571 -84.28571,-18.57143 -1.42857,-15.71428 84.28571,-22.85714 5.71429,-110.00001 10,-1.42857 10,111.42858 80,15.71428 1.42857,22.85714 -74.28571,18.57143 10,274.28571 54.28571,61.42863 z"
       id="path4150"
       inkscape:connector-curvature="0"
       sodipodi:nodetypes="ccccccccccccccc"
       inkscape:export-filename="/Users/joseph/Documents/Stud 4. Semester/PyRasp/repository/planet_of_the_grizzlies/potg/gfx/skyline.png"
       inkscape:export-xdpi="90"
       inkscape:export-ydpi="90" />
    <path
       sodipodi:nodetypes="ccccccccccccccccccccc"
       inkscape:connector-curvature="0"
       id="path4152"
       d="m -402.45973,1029.233 86.10375,-91.7323 -2.46013,-409.59532 -145.14628,-27.73302 -2.4601,-23.46638 145.14627,-34.13296 3.32043,-55.42728 -94.16642,-48.87521 97.99666,-15.06234 0.22966,-179.29845 17.22076,-2.1333 7.3374,181.52606 96.96862,20.87046 -91.03557,36.4586 6.4104,61.94146 137.76598,23.46641 2.46008,34.13293 -127.92553,27.73302 17.22076,409.59532 93.48403,91.7323 z"
       style="fill:#b3b3b3;fill-rule:evenodd;stroke:#000000;stroke-width:0;stroke-linecap:butt;stroke-linejoin:miter;stroke-miterlimit:4;stroke-dasharray:none;stroke-opacity:1"
       inkscape:export-filename="/Users/joseph/Documents/Stud 4. Semester/PyRasp/repository/planet_of_the_grizzlies/potg/gfx/skyline.png"
       inkscape:export-xdpi="90"
       inkscape:export-ydpi="90" />
    <path
       style="fill:#f9f9f9;fill-rule:evenodd;stroke:#000000;stroke-width:0;stroke-linecap:butt;stroke-linejoin:miter;stroke-opacity:1;stroke-miterlimit:4;stroke-dasharray:none"
       d="m 857.41071,1018.3444 40,-72.8572 -40,-54.28571 37.14286,-91.42857 -42.85714,-50 52.85714,-107.14286 -1.42857,92.85714 52.8571,-1.42857 -8.57139,141.42857 37.14289,0 -10e-5,141.4286 z"
       id="path4154"
       inkscape:connector-curvature="0"
       sodipodi:nodetypes="cccccccccccc"
       inkscape:export-filename="/Users/joseph/Documents/Stud 4. Semester/PyRasp/repository/planet_of_the_grizzlies/potg/gfx/skyline.png"
       inkscape:export-xdpi="90"
       inkscape:export-ydpi="90" />
    <path
       style="fill:#cccccc;fill-opacity:1;fill-rule:evenodd;stroke:#000000;stroke-width:0;stroke-linecap:butt;stroke-linejoin:miter;stroke-opacity:1;stroke-miterlimit:4;stroke-dasharray:none"
       d="m 750.8477,686.64858 -41.4278,0 5.7149,2.85742 15.7129,20 8.5722,34.28516 -40,1.42773 21.4278,34.28711 17.1425,42.85547 10,60 -98.57028,0 25.71485,18.57227 27.14253,41.42773 25.7129,75.71483 86.0977,0 25.7148,-75.71483 27.1426,-41.42773 25.7129,-18.57227 -98.5703,0 10,-60 17.1426,-42.85547 21.4277,-34.28711 -40,-1.42773 8.5723,-34.28516 15.7148,-20 5.7129,-2.85742 -41.4277,0 -18.9532,-212.85742 z"
       id="path4156"
       inkscape:connector-curvature="0"
       sodipodi:nodetypes="cccccccccccccccccccccccccccc"
       inkscape:export-filename="/Users/joseph/Documents/Stud 4. Semester/PyRasp/repository/planet_of_the_grizzlies/potg/gfx/skyline.png"
       inkscape:export-xdpi="90"
       inkscape:export-ydpi="90" />
    <path
       style="fill:#cccccc;fill-rule:evenodd;stroke:#000000;stroke-width:0;stroke-linecap:butt;stroke-linejoin:miter;stroke-opacity:1;stroke-miterlimit:4;stroke-dasharray:none"
       d="m 608.78176,1022.1768 0,-141.42712 -13.20841,-10.9482 1.14398,-135.34587 -29.1452,34.80284 -0.62766,76.20633 -10.77981,-9.16364 0.33612,62.93103 -23.85008,-12.47596 -2.59958,53.79392 -33.08281,-14.73657 -0.2657,34.39837 -43.9022,-15.65205 -1.78513,77.61692 z"
       id="path4161"
       inkscape:connector-curvature="0"
       sodipodi:nodetypes="ccccccccccccccc"
       inkscape:export-filename="/Users/joseph/Documents/Stud 4. Semester/PyRasp/repository/planet_of_the_grizzlies/potg/gfx/skyline.png"
       inkscape:export-xdpi="90"
       inkscape:export-ydpi="90" />
    <path
       sodipodi:nodetypes="ccccccccccccccc"
       inkscape:connector-curvature="0"
       id="path4163"
       d="m -119.77169,1057.8844 2.53313,-545.0132 21.788315,-12.6233 -1.887095,-156.05399 48.077279,40.12773 1.03538,87.86601 17.782133,-10.56569 -3.087578,250.92183 39.342556,-14.3848 1.7550803,182.73428 54.5726907,-16.99128 2.971419,122.53676 72.42009,-18.04683 2.94472,89.49248 z"
       style="fill:#808080;fill-rule:evenodd;stroke:#000000;stroke-width:0;stroke-linecap:butt;stroke-linejoin:miter;stroke-opacity:1;stroke-miterlimit:4;stroke-dasharray:none"
       inkscape:export-filename="/Users/joseph/Documents/Stud 4. Semester/PyRasp/repository/planet_of_the_grizzlies/potg/gfx/skyline.png"
       inkscape:export-xdpi="90"
       inkscape:export-ydpi="90" />
    <path
       sodipodi:nodetypes="ccccccccccccccc"
       inkscape:connector-curvature="0"
       id="path4167"
       d="m 179.15085,1034.5764 0,-71.2767 10.9375,-18.75 -10.9375,-17.1875 0,-51.5625 14.0625,-14.0625 -14.0625,-15.625 0,-43.75 12.5,-15.625 -12.5,-15.625 0,-71.70718 53.53808,-44.44671 -0.27166,102.09034 -0.73849,277.52775 z"
       style="fill:#cccccc;fill-rule:evenodd;stroke:#000000;stroke-width:0;stroke-linecap:butt;stroke-linejoin:miter;stroke-opacity:1;stroke-miterlimit:4;stroke-dasharray:none"
       inkscape:export-filename="/Users/joseph/Documents/Stud 4. Semester/PyRasp/repository/planet_of_the_grizzlies/potg/gfx/skyline.png"
       inkscape:export-xdpi="90"
       inkscape:export-ydpi="90" />
    <rect
       y="554.68909"
       x="986.42542"
       height="484.68994"
       width="100.09094"
       id="rect4176"
       style="fill:#cccccc;stroke:#000000;stroke-width:0;stroke-miterlimit:4;stroke-dasharray:none;stroke-opacity:1"
       inkscape:export-filename="/Users/joseph/Documents/Stud 4. Semester/PyRasp/repository/planet_of_the_grizzlies/potg/gfx/skyline.png"
       inkscape:export-xdpi="90"
       inkscape:export-ydpi="90" />
    <path
       style="fill:#cccccc;fill-rule:evenodd;stroke:#000000;stroke-width:0;stroke-linecap:butt;stroke-linejoin:miter;stroke-opacity:1;stroke-miterlimit:4;stroke-dasharray:none"
       d="m 1260.1003,1049.2523 -2.6694,-206.52633 -22.9607,-4.78346 1.9886,-59.13482 -50.6641,15.20593 -1.0912,33.29579 -18.7389,-4.00374 3.2538,95.08388 -41.4595,-5.45095 -1.8496,69.24501 -57.5091,-6.43864 -3.1313,46.43393 -76.31682,-6.8387 -3.10321,33.9121 z"
       id="path4192"
       inkscape:connector-curvature="0"
       sodipodi:nodetypes="ccccccccccccccc"
       inkscape:export-filename="/Users/joseph/Documents/Stud 4. Semester/PyRasp/repository/planet_of_the_grizzlies/potg/gfx/skyline.png"
       inkscape:export-xdpi="90"
       inkscape:export-ydpi="90" />
    <path
       style="fill:#999999;fill-rule:evenodd;stroke:#000000;stroke-width:0;stroke-linecap:butt;stroke-linejoin:miter;stroke-opacity:1;stroke-miterlimit:4;stroke-dasharray:none"
       d="m 920.06505,634.86358 0.7123,415.38392 107.00755,0 0,-127.93092 -22.2816,-33.6531 22.2816,-30.8487 0,-92.5461 -28.64775,-25.2398 28.64775,-28.0443 0,-78.524 -25.4647,-28.0442 25.4647,-28.0443 0,-128.7022 -109.06465,-79.77187 0.4622,153.09317 -54.1971,-1.4072 0.4579,-151.68597 -109.0686,79.77187 0,128.7022 25.46474,28.0443 -25.46474,28.0442 0,78.524 28.64783,28.0443 -28.64783,25.2398 0,92.5461 22.28164,30.8487 -22.28164,33.6531 0,127.93092 107.0116,0 2.2933,-415.38522 z"
       id="path4169"
       inkscape:connector-curvature="0"
       sodipodi:nodetypes="ccccccccccccccccccccccccccccccc"
       inkscape:export-filename="/Users/joseph/Documents/Stud 4. Semester/PyRasp/repository/planet_of_the_grizzlies/potg/gfx/skyline.png"
       inkscape:export-xdpi="90"
       inkscape:export-ydpi="90" />
    <path
       style="fill:#f9f9f9;fill-rule:evenodd;stroke:#000000;stroke-width:0;stroke-linecap:butt;stroke-linejoin:miter;stroke-opacity:1;stroke-miterlimit:4;stroke-dasharray:none"
       d="m 321.33835,1072.0764 24.21875,-23.6204 -23.4375,-10.9375 -0.78125,-36.7188 23.4375,-21.09375 -23.4375,-17.96875 0,-48.4375 28.125,-26.5625 -28.125,-3.125 0,-43.75 23.4375,-21.09375 -23.4375,-10.15625 0,-71.70718 53.53808,-44.44671 -0.27166,102.09034 29.51973,-39.44083 0.0368,80.84881 -29.75403,32.81232 -0.24946,93.74934 28.85429,-27.34805 -0.40599,69.37666 -28.62708,25.1584 31.9185,42.3711 z"
       id="path4174"
       inkscape:connector-curvature="0"
       sodipodi:nodetypes="cccccccccccccccccccccccc"
       inkscape:export-filename="/Users/joseph/Documents/Stud 4. Semester/PyRasp/repository/planet_of_the_grizzlies/potg/gfx/skyline.png"
       inkscape:export-xdpi="90"
       inkscape:export-ydpi="90" />
    <path
       sodipodi:nodetypes="ccccccccccccccccccccccccccccccc"
       inkscape:connector-curvature="0"
       id="path4194"
       d="m 1347.6761,809.87056 0.4881,227.47534 73.3345,0 0,-70.05836 -15.27,-18.42933 15.27,-16.89358 0,-50.68073 -19.6329,-13.82199 19.6329,-15.35782 0,-43.00185 -17.4515,-15.35776 17.4515,-15.35781 0,-70.48079 -74.7442,-43.68522 0.3167,83.83794 -37.1423,-0.77062 0.3138,-83.06732 -74.7469,43.68522 0,70.48079 17.4515,15.35781 -17.4515,15.35776 0,43.00185 19.6329,15.35782 -19.6329,13.82199 0,50.68073 15.2701,16.89358 -15.2701,18.42933 0,70.05836 73.3372,0 1.5716,-227.47605 z"
       style="fill:#ececec;fill-rule:evenodd;stroke:#000000;stroke-width:0;stroke-linecap:butt;stroke-linejoin:miter;stroke-opacity:1;stroke-miterlimit:4;stroke-dasharray:none"
       inkscape:export-filename="/Users/joseph/Documents/Stud 4. Semester/PyRasp/repository/planet_of_the_grizzlies/potg/gfx/skyline.png"
       inkscape:export-xdpi="90"
       inkscape:export-ydpi="90" />
    <path
       sodipodi:nodetypes="cccccccccccccccccccccccccccc"
       inkscape:connector-curvature="0"
       id="path4182"
       d="m 1601.5855,722.00392 -41.4278,0 5.7149,2.85742 15.7129,20 8.5722,34.28516 -40,1.42773 21.4278,34.28711 17.1425,42.85547 10,60 -98.5703,0 25.7149,18.57227 27.1425,41.42773 25.7129,75.71479 86.0977,0 25.7148,-75.71479 27.1426,-41.42773 25.7129,-18.57227 -98.5703,0 10,-60 17.1426,-42.85547 21.4277,-34.28711 -40,-1.42773 8.5723,-34.28516 15.7148,-20 5.7129,-2.85742 -41.4277,0 -18.9532,-212.85742 z"
       style="fill:#cccccc;fill-opacity:1;fill-rule:evenodd;stroke:#000000;stroke-width:0;stroke-linecap:butt;stroke-linejoin:miter;stroke-opacity:1;stroke-miterlimit:4;stroke-dasharray:none"
       inkscape:export-filename="/Users/joseph/Documents/Stud 4. Semester/PyRasp/repository/planet_of_the_grizzlies/potg/gfx/skyline.png"
       inkscape:export-xdpi="90"
       inkscape:export-ydpi="90" />
    <path
       sodipodi:nodetypes="cccccccccccccccccccccccc"
       inkscape:connector-curvature="0"
       id="path4180"
       d="m 1354.7117,1081.715 93.6978,-98.49948 -90.675,-45.61048 -3.0228,-153.12123 90.6751,-87.96301 -90.6751,-74.93156 0,-201.98944 108.8101,-110.76838 -108.8101,-13.03157 0,-182.44207 90.6751,-87.963154 -90.6751,-42.35262 0,-299.026426 207.1285,-185.3474 -1.0512,425.727365 114.2063,-164.472385 0.1431,337.147979 -115.1127,136.830791 -0.9649,390.94453 111.6316,-114.04424 -1.5707,289.3078 -110.7526,104.91315 123.4864,176.69183 z"
       style="fill:#999999;fill-rule:evenodd;stroke:#000000;stroke-width:0;stroke-linecap:butt;stroke-linejoin:miter;stroke-opacity:1;stroke-miterlimit:4;stroke-dasharray:none"
       inkscape:export-filename="/Users/joseph/Documents/Stud 4. Semester/PyRasp/repository/planet_of_the_grizzlies/potg/gfx/skyline.png"
       inkscape:export-xdpi="90"
       inkscape:export-ydpi="90" />
    <path
       sodipodi:nodetypes="ccccccccccccccc"
       inkscape:connector-curvature="0"
       id="path4186"
       d="m 1852.9581,1066.5208 71.6777,-157.40317 -2.048,-702.82256 -120.828,-47.58694 -2.048,-40.26587 120.828,-58.568537 8.1918,-281.861163 14.3355,-3.66053 14.3355,285.521693 114.6843,40.265857 2.0479,58.56855 -106.4925,47.58694 14.3356,702.82256 77.8214,157.40317 z"
       style="fill:#cccccc;fill-rule:evenodd;stroke:#000000;stroke-width:0;stroke-linecap:butt;stroke-linejoin:miter;stroke-opacity:1;stroke-miterlimit:4;stroke-dasharray:none"
       inkscape:export-filename="/Users/joseph/Documents/Stud 4. Semester/PyRasp/repository/planet_of_the_grizzlies/potg/gfx/skyline.png"
       inkscape:export-xdpi="90"
       inkscape:export-ydpi="90" />
    <path
       sodipodi:nodetypes="ccccccccccccccc"
       inkscape:connector-curvature="0"
       id="path4188"
       d="m -374.53861,1026.5962 0,-141.4271 -13.20841,-10.9482 1.14398,-135.34587 -29.1452,34.80284 -0.62766,76.20633 -10.77981,-9.16364 0.33612,62.93103 -23.85008,-12.47596 -2.59958,53.79392 -33.08281,-14.73657 -0.2657,34.39837 -43.9022,-15.65205 -1.78513,77.6169 z"
       style="fill:#cccccc;fill-rule:evenodd;stroke:#000000;stroke-width:0;stroke-linecap:butt;stroke-linejoin:miter;stroke-opacity:1;stroke-miterlimit:4;stroke-dasharray:none"
       inkscape:export-filename="/Users/joseph/Documents/Stud 4. Semester/PyRasp/repository/planet_of_the_grizzlies/potg/gfx/skyline.png"
       inkscape:export-xdpi="90"
       inkscape:export-ydpi="90" />
    <path
       inkscape:connector-curvature="0"
       id="path4190"
       d="m 1207.4617,1054.0323 1.4991,-287.69054 13.4922,-14.71145 -7.4956,-248.46003 13.4922,-16.34606 -2.9983,-217.40253 7.4958,-1.63461 5.9966,217.40253 16.4905,16.34607 1.4992,246.82542 14.9913,13.07685 0,292.59435 z"
       style="fill:#f9f9f9;fill-rule:evenodd;stroke:#000000;stroke-width:0;stroke-linecap:butt;stroke-linejoin:miter;stroke-opacity:1;stroke-miterlimit:4;stroke-dasharray:none"
       inkscape:export-filename="/Users/joseph/Documents/Stud 4. Semester/PyRasp/repository/planet_of_the_grizzlies/potg/gfx/skyline.png"
       inkscape:export-xdpi="90"
       inkscape:export-ydpi="90" />
    <rect
       y="871.1535"
       x="2050.0549"
       height="159.73276"
       width="278.25876"
       id="rect4196"
       style="fill:#ffffff;stroke:#000000;stroke-width:0;stroke-miterlimit:4;stroke-dasharray:none;stroke-opacity:1"
       inkscape:export-filename="/Users/joseph/Documents/Stud 4. Semester/PyRasp/repository/planet_of_the_grizzlies/potg/gfx/skyline.png"
       inkscape:export-xdpi="90"
       inkscape:export-ydpi="90" />
    <path
       sodipodi:nodetypes="ccccc"
       inkscape:connector-curvature="0"
       id="path4198"
       d="m 2255.3017,1035.4372 0,-141.42137 53.538,-44.44671 -1.0101,185.86808 z"
       style="fill:#f9f9f9;fill-rule:evenodd;stroke:#000000;stroke-width:0;stroke-linecap:butt;stroke-linejoin:miter;stroke-opacity:1;stroke-miterlimit:4;stroke-dasharray:none"
       inkscape:export-filename="/Users/joseph/Documents/Stud 4. Semester/PyRasp/repository/planet_of_the_grizzlies/potg/gfx/skyline.png"
       inkscape:export-xdpi="90"
       inkscape:export-ydpi="90" />
    <rect
       y="921.17493"
       x="2318.8262"
       height="114.37746"
       width="54.778458"
       id="rect4200"
       style="fill:#f9f9f9;stroke:#000000;stroke-width:0;stroke-miterlimit:4;stroke-dasharray:none;stroke-opacity:1"
       inkscape:export-filename="/Users/joseph/Documents/Stud 4. Semester/PyRasp/repository/planet_of_the_grizzlies/potg/gfx/skyline.png"
       inkscape:export-xdpi="90"
       inkscape:export-ydpi="90" />
    <path
       style="fill:#f9f9f9;fill-rule:evenodd;stroke:#000000;stroke-width:0;stroke-linecap:butt;stroke-linejoin:miter;stroke-opacity:1;stroke-miterlimit:4;stroke-dasharray:none"
       d="m 2442.1799,1032.4067 0,-141.42133 13.4396,-10.94775 -1.164,-135.3403 29.6553,34.80141 0.6387,76.20319 10.9685,-9.16326 -1.0102,185.86804 z"
       id="path4202"
       inkscape:connector-curvature="0"
       sodipodi:nodetypes="ccccccccc"
       inkscape:export-filename="/Users/joseph/Documents/Stud 4. Semester/PyRasp/repository/planet_of_the_grizzlies/potg/gfx/skyline.png"
       inkscape:export-xdpi="90"
       inkscape:export-ydpi="90" />
    <path
       sodipodi:nodetypes="ccccccccccc"
       inkscape:connector-curvature="0"
       id="path4204"
       d="m 2378.0352,1034.9321 0,-64.14468 11.9244,-10.44267 -0.3245,-55.71806 -11.0032,-15.66123 1.0723,-106.8925 40.2619,-0.0489 0.6387,76.20319 10.9685,-9.16326 -1.0102,185.86801 z"
       style="fill:#cccccc;fill-rule:evenodd;stroke:#000000;stroke-width:0;stroke-linecap:butt;stroke-linejoin:miter;stroke-opacity:1;stroke-miterlimit:4;stroke-dasharray:none"
       inkscape:export-filename="/Users/joseph/Documents/Stud 4. Semester/PyRasp/repository/planet_of_the_grizzlies/potg/gfx/skyline.png"
       inkscape:export-xdpi="90"
       inkscape:export-ydpi="90" />
    <path
       style="fill:#cccccc;fill-rule:evenodd;stroke:#000000;stroke-width:0;stroke-linecap:butt;stroke-linejoin:miter;stroke-opacity:1;stroke-miterlimit:4;stroke-dasharray:none"
       d="m 2505.8195,1032.9118 0,-64.14469 6.8736,0.16393 0.1806,-135.52011 8.6948,-0.004 -0.4429,-124.57017 59.9599,107.53234 -1.3817,83.27426 11.5613,-0.0576 -0.088,133.32584 z"
       id="path4206"
       inkscape:connector-curvature="0"
       sodipodi:nodetypes="ccccccccccc"
       inkscape:export-filename="/Users/joseph/Documents/Stud 4. Semester/PyRasp/repository/planet_of_the_grizzlies/potg/gfx/skyline.png"
       inkscape:export-xdpi="90"
       inkscape:export-ydpi="90" />
    <rect
       style="fill:#cccccc;stroke:#000000;stroke-width:0;stroke-miterlimit:4;stroke-dasharray:none;stroke-opacity:1"
       id="rect4208"
       width="54.778458"
       height="114.37746"
       x="1909.3302"
       y="911.68866"
       inkscape:export-filename="/Users/joseph/Documents/Stud 4. Semester/PyRasp/repository/planet_of_the_grizzlies/potg/gfx/skyline.png"
       inkscape:export-xdpi="90"
       inkscape:export-ydpi="90" />
    <path
       style="fill:#b3b3b3;fill-rule:evenodd;stroke:#000000;stroke-width:0;stroke-linecap:butt;stroke-linejoin:miter;stroke-miterlimit:4;stroke-dasharray:none;stroke-opacity:1"
       d="m 1960.8056,1038.4475 41.855,-43.43909 -1.1958,-193.96062 -70.5557,-13.13275 -1.1959,-11.11232 70.5557,-16.16339 1.6141,-26.24715 -45.7744,-23.14447 47.6362,-7.13265 0.1117,-84.90536 8.371,-1.01021 3.5667,85.96023 47.1365,9.88304 -44.2524,17.26468 3.1161,29.33189 66.9681,11.11233 1.1958,16.16338 -62.1846,13.13275 8.371,193.96062 45.4426,43.43909 z"
       id="path4210"
       inkscape:connector-curvature="0"
       sodipodi:nodetypes="ccccccccccccccccccccc"
       inkscape:export-filename="/Users/joseph/Documents/Stud 4. Semester/PyRasp/repository/planet_of_the_grizzlies/potg/gfx/skyline.png"
       inkscape:export-xdpi="90"
       inkscape:export-ydpi="90" />
    <path
       style="fill:#808080;fill-rule:evenodd;stroke:#000000;stroke-width:0;stroke-linecap:butt;stroke-linejoin:miter;stroke-opacity:1;stroke-miterlimit:4;stroke-dasharray:none"
       d="m 2106.3791,1066.5577 2.5332,-545.01319 21.7883,-12.6233 -1.8871,-156.05399 48.0773,40.12773 1.0353,87.86601 17.7822,-10.56569 -3.0876,250.92183 39.3425,-14.3848 1.7551,182.73428 54.5727,-16.99128 2.9714,122.53676 72.4201,-18.04683 2.9447,89.49247 z"
       id="path4212"
       inkscape:connector-curvature="0"
       sodipodi:nodetypes="ccccccccccccccc"
       inkscape:export-filename="/Users/joseph/Documents/Stud 4. Semester/PyRasp/repository/planet_of_the_grizzlies/potg/gfx/skyline.png"
       inkscape:export-xdpi="90"
       inkscape:export-ydpi="90" />
    <path
       style="fill:#cccccc;fill-rule:evenodd;stroke:#000000;stroke-width:0;stroke-linecap:butt;stroke-linejoin:miter;stroke-opacity:1;stroke-miterlimit:4;stroke-dasharray:none"
       d="m 2405.3017,1043.2497 0,-71.27669 10.9375,-18.75 -10.9375,-17.1875 0,-51.5625 14.0625,-14.0625 -14.0625,-15.625 0,-43.75 12.5,-15.625 -12.5,-15.625 0,-71.70718 53.538,-44.44671 -0.2716,102.09034 -0.7385,277.52774 z"
       id="path4214"
       inkscape:connector-curvature="0"
       sodipodi:nodetypes="ccccccccccccccc"
       inkscape:export-filename="/Users/joseph/Documents/Stud 4. Semester/PyRasp/repository/planet_of_the_grizzlies/potg/gfx/skyline.png"
       inkscape:export-xdpi="90"
       inkscape:export-ydpi="90" />
    <path
       sodipodi:nodetypes="cccccccccccccccccccccccc"
       inkscape:connector-curvature="0"
       id="path4216"
       d="m 2547.4892,1080.7497 24.2187,-23.6204 -23.4375,-10.9375 -0.7812,-36.7188 23.4375,-21.09374 -23.4375,-17.96875 0,-48.4375 28.125,-26.5625 -28.125,-3.125 0,-43.75 23.4375,-21.09375 -23.4375,-10.15625 0,-71.70718 53.538,-44.44671 -0.2716,102.09034 29.5197,-39.44083 0.037,80.84881 -29.754,32.81232 -0.2495,93.74934 28.8543,-27.34805 -0.406,69.37665 -28.6271,25.1584 31.9185,42.3711 z"
       style="fill:#f9f9f9;fill-rule:evenodd;stroke:#000000;stroke-width:0;stroke-linecap:butt;stroke-linejoin:miter;stroke-opacity:1;stroke-miterlimit:4;stroke-dasharray:none"
       inkscape:export-filename="/Users/joseph/Documents/Stud 4. Semester/PyRasp/repository/planet_of_the_grizzlies/potg/gfx/skyline.png"
       inkscape:export-xdpi="90"
       inkscape:export-ydpi="90" />
    <path
       sodipodi:nodetypes="cccccccccccc"
       inkscape:connector-curvature="0"
       id="path4184"
       d="m 1717.1916,1044.8609 40,-72.8572 -40,-54.2857 37.1428,-91.42857 -42.8571,-50 52.8571,-107.14286 -1.4285,92.85714 52.8571,-1.42857 -8.5714,141.42857 37.1429,0 -10e-5,141.42859 z"
       style="fill:#f9f9f9;fill-rule:evenodd;stroke:#000000;stroke-width:0;stroke-linecap:butt;stroke-linejoin:miter;stroke-opacity:1;stroke-miterlimit:4;stroke-dasharray:none"
       inkscape:export-filename="/Users/joseph/Documents/Stud 4. Semester/PyRasp/repository/planet_of_the_grizzlies/potg/gfx/skyline.png"
       inkscape:export-xdpi="90"
       inkscape:export-ydpi="90" />
    <path
       style="fill:#cccccc;fill-rule:evenodd;stroke:#000000;stroke-width:0;stroke-linecap:butt;stroke-linejoin:miter;stroke-opacity:1;stroke-miterlimit:4;stroke-dasharray:none"
       d="m 1851.6122,1035.2695 0,-141.42709 -13.2084,-10.9482 1.144,-135.34587 -29.1452,34.80284 -0.6277,76.20633 -10.7798,-9.16364 0.3361,62.93103 -23.8501,-12.47596 -2.5995,53.79392 -33.0828,-14.73657 -0.2657,34.39837 -43.9022,-15.65205 -1.7852,77.61689 z"
       id="path4218"
       inkscape:connector-curvature="0"
       sodipodi:nodetypes="ccccccccccccccc"
       inkscape:export-filename="/Users/joseph/Documents/Stud 4. Semester/PyRasp/repository/planet_of_the_grizzlies/potg/gfx/skyline.png"
       inkscape:export-xdpi="90"
       inkscape:export-ydpi="90" />
    <path
       sodipodi:nodetypes="cccccccccccc"
       inkscape:connector-curvature="0"
       id="path4173"
       d="m -717.16363,1058.8285 76.24759,-145.60608 -76.24759,-108.49069 70.80123,-182.7212 -81.69377,-99.92566 100.75566,-214.12641 -2.72299,185.57621 100.75567,-2.85501 -16.33872,282.64686 70.80142,0 -1.9e-4,282.64688 z"
       style="fill:#808080;fill-rule:evenodd;stroke:#000000;stroke-width:0;stroke-linecap:butt;stroke-linejoin:miter;stroke-opacity:1;stroke-miterlimit:4;stroke-dasharray:none"
       inkscape:export-filename="/Users/joseph/Documents/Stud 4. Semester/PyRasp/repository/planet_of_the_grizzlies/potg/gfx/skyline.png"
       inkscape:export-xdpi="90"
       inkscape:export-ydpi="90" />
  </g>
</svg>
