<?xml version="1.0" encoding="UTF-8" standalone="no"?>
<!-- Created with Inkscape (http://www.inkscape.org/) -->

<svg
   xmlns:dc="http://purl.org/dc/elements/1.1/"
   xmlns:cc="http://creativecommons.org/ns#"
   xmlns:rdf="http://www.w3.org/1999/02/22-rdf-syntax-ns#"
   xmlns:svg="http://www.w3.org/2000/svg"
   xmlns="http://www.w3.org/2000/svg"
   xmlns:sodipodi="http://sodipodi.sourceforge.net/DTD/sodipodi-0.dtd"
   xmlns:inkscape="http://www.inkscape.org/namespaces/inkscape"
   width="210mm"
   height="297mm"
   viewBox="0 0 744.09448819 1052.3622047"
   id="svg5982"
   version="1.1"
   inkscape:version="0.91 r13725"
   sodipodi:docname="soldat_step2.svg">
  <defs
     id="defs5984">
    <inkscape:path-effect
       effect="skeletal"
       id="path-effect6330"
       is_visible="true"
       pattern="M 0,5 C 0,2.24 2.24,0 5,0 7.76,0 10,2.24 10,5 10,7.76 7.76,10 5,10 2.24,10 0,7.76 0,5 Z"
       copytype="single_stretched"
       prop_scale="1"
       scale_y_rel="false"
       spacing="0"
       normal_offset="0"
       tang_offset="0"
       prop_units="false"
       vertical_pattern="false"
       fuse_tolerance="0" />
    <inkscape:path-effect
       effect="spiro"
       id="path-effect6328"
       is_visible="true" />
    <inkscape:path-effect
       effect="skeletal"
       id="path-effect6314"
       is_visible="true"
       pattern="m 37.142857,-54.999996 c 0,-2.76 2.24,-5 5,-5 2.76,0 5,2.24 5,5 0,2.76 -2.24,5 -5,5 -2.76,0 -5,-2.24 -5,-5 z"
       copytype="single_stretched"
       prop_scale="1"
       scale_y_rel="false"
       spacing="0"
       normal_offset="0"
       tang_offset="0"
       prop_units="false"
       vertical_pattern="false"
       fuse_tolerance="0" />
    <inkscape:path-effect
       effect="spiro"
       id="path-effect6312"
       is_visible="true" />
    <inkscape:path-effect
       effect="skeletal"
       id="path-effect6308"
       is_visible="true"
       pattern="M 0,5 C 0,2.24 2.24,0 5,0 7.76,0 10,2.24 10,5 10,7.76 7.76,10 5,10 2.24,10 0,7.76 0,5 Z"
       copytype="single_stretched"
       prop_scale="1"
       scale_y_rel="false"
       spacing="0"
       normal_offset="0"
       tang_offset="0"
       prop_units="false"
       vertical_pattern="false"
       fuse_tolerance="0" />
    <inkscape:path-effect
       effect="spiro"
       id="path-effect6306"
       is_visible="true" />
    <inkscape:path-effect
       effect="skeletal"
       id="path-effect6302"
       is_visible="true"
       pattern="M 0,5 C 0,2.24 2.24,0 5,0 7.76,0 10,2.24 10,5 10,7.76 7.76,10 5,10 2.24,10 0,7.76 0,5 Z"
       copytype="single_stretched"
       prop_scale="1"
       scale_y_rel="false"
       spacing="0"
       normal_offset="0"
       tang_offset="0"
       prop_units="false"
       vertical_pattern="false"
       fuse_tolerance="0" />
    <inkscape:path-effect
       effect="spiro"
       id="path-effect6300"
       is_visible="true" />
    <inkscape:path-effect
       effect="skeletal"
       id="path-effect6296"
       is_visible="true"
       pattern="M 0,5 C 0,2.24 2.24,0 5,0 7.76,0 10,2.24 10,5 10,7.76 7.76,10 5,10 2.24,10 0,7.76 0,5 Z"
       copytype="single_stretched"
       prop_scale="1"
       scale_y_rel="false"
       spacing="0"
       normal_offset="0"
       tang_offset="0"
       prop_units="false"
       vertical_pattern="false"
       fuse_tolerance="0" />
    <inkscape:path-effect
       effect="spiro"
       id="path-effect6294"
       is_visible="true" />
    <inkscape:path-effect
       effect="spiro"
       id="path-effect6288"
       is_visible="true" />
    <inkscape:path-effect
       effect="spiro"
       id="path-effect6282"
       is_visible="true" />
    <inkscape:path-effect
       effect="spiro"
       id="path-effect6272"
       is_visible="true" />
    <inkscape:path-effect
       effect="spiro"
       id="path-effect6266"
       is_visible="true" />
    <inkscape:path-effect
       effect="spiro"
       id="path-effect6165"
       is_visible="true" />
    <inkscape:path-effect
       effect="spiro"
       id="path-effect6161"
       is_visible="true" />
    <inkscape:path-effect
       effect="spiro"
       id="path-effect6129"
       is_visible="true" />
    <inkscape:path-effect
       effect="spiro"
       id="path-effect6125"
       is_visible="true" />
    <inkscape:path-effect
       effect="spiro"
       id="path-effect6121"
       is_visible="true" />
    <inkscape:path-effect
       effect="spiro"
       id="path-effect6117"
       is_visible="true" />
    <inkscape:path-effect
       effect="skeletal"
       id="path-effect6111"
       is_visible="true"
       pattern="m 65.714286,-232.14286 c 0,-2.76 2.24,-5 5,-5 2.76,0 5,2.24 5,5 0,2.76 -2.24,5 -5,5 -2.76,0 -5,-2.24 -5,-5 z"
       copytype="single_stretched"
       prop_scale="1"
       scale_y_rel="false"
       spacing="0"
       normal_offset="0"
       tang_offset="0"
       prop_units="false"
       vertical_pattern="false"
       fuse_tolerance="0" />
    <inkscape:path-effect
       effect="spiro"
       id="path-effect6109"
       is_visible="true" />
    <inkscape:path-effect
       effect="spiro"
       id="path-effect6101"
       is_visible="true" />
    <inkscape:path-effect
       effect="spiro"
       id="path-effect6097"
       is_visible="true" />
    <inkscape:path-effect
       effect="spiro"
       id="path-effect6093"
       is_visible="true" />
    <inkscape:path-effect
       effect="spiro"
       id="path-effect6089"
       is_visible="true" />
    <inkscape:path-effect
       effect="spiro"
       id="path-effect6085"
       is_visible="true" />
    <inkscape:path-effect
       effect="spiro"
       id="path-effect6081"
       is_visible="true" />
    <inkscape:path-effect
       effect="spiro"
       id="path-effect6077"
       is_visible="true" />
    <inkscape:path-effect
       effect="skeletal"
       id="path-effect6056"
       is_visible="true"
       pattern="m 57.142857,53.571429 c 0,-2.76 2.24,-5 5,-5 2.76,0 5,2.24 5,5 0,2.76 -2.24,5 -5,5 -2.76,0 -5,-2.24 -5,-5 z"
       copytype="single_stretched"
       prop_scale="1"
       scale_y_rel="false"
       spacing="0"
       normal_offset="0"
       tang_offset="0"
       prop_units="false"
       vertical_pattern="false"
       fuse_tolerance="0" />
    <inkscape:path-effect
       effect="skeletal"
       id="path-effect5992"
       is_visible="true"
       pattern="M 0,5 C 0,2.24 2.24,0 5,0 7.76,0 10,2.24 10,5 10,7.76 7.76,10 5,10 2.24,10 0,7.76 0,5 Z"
       copytype="single_stretched"
       prop_scale="1"
       scale_y_rel="false"
       spacing="0"
       normal_offset="0"
       tang_offset="0"
       prop_units="false"
       vertical_pattern="false"
       fuse_tolerance="0" />
  </defs>
  <sodipodi:namedview
     id="base"
     pagecolor="#ffffff"
     bordercolor="#666666"
     borderopacity="1.0"
     inkscape:pageopacity="0.0"
     inkscape:pageshadow="2"
     inkscape:zoom="0.35"
     inkscape:cx="-736.42857"
     inkscape:cy="520"
     inkscape:document-units="px"
     inkscape:current-layer="layer1"
     showgrid="false"
     inkscape:window-width="1920"
     inkscape:window-height="1017"
     inkscape:window-x="-8"
     inkscape:window-y="-8"
     inkscape:window-maximized="1" />
  <metadata
     id="metadata5987">
    <rdf:RDF>
      <cc:Work
         rdf:about="">
        <dc:format>image/svg+xml</dc:format>
        <dc:type
           rdf:resource="http://purl.org/dc/dcmitype/StillImage" />
        <dc:title />
      </cc:Work>
    </rdf:RDF>
  </metadata>
  <g
     inkscape:label="Ebene 1"
     inkscape:groupmode="layer"
     id="layer1">
    <path
       style="fill:#a05a2c;fill-opacity:1;stroke:#000000;stroke-width:4.99999857;stroke-miterlimit:4;stroke-dasharray:none;stroke-opacity:1"
       d="m 88.369988,692.41851 c -5.96353,0.91826 -9.61502,26.9537 -3.79766,27.07733 2.64854,0.0561 11.75313,2.6946 20.233522,5.86147 15.00059,5.60313 15.34748,6.15804 12.81666,20.50967 -1.4786,8.38683 -0.78068,15.07158 1.61818,15.49457 2.71339,0.47841 2.65376,4.79179 -0.16711,12.08764 -3.62181,9.36801 -2.76813,13.69281 4.90115,24.83101 7.57109,10.9946 10.45294,12.8104 15.59489,9.8259 4.08869,-2.373 15.27019,-1.5449 31.78668,2.3551 l 25.47935,6.0158 7.42757,-16.1108 c 5.13851,-11.1455 6.44165,-17.5428 4.22842,-20.75679 -1.7594,-2.5551 -2.22112,-10.19105 -1.02607,-16.96866 2.52994,-14.34813 0.27393,-27.20591 -7.23197,-41.21788 -5.07509,-9.47422 -8.02077,-10.50454 -56.62676,-19.80463 -28.20033,-5.39511 -53.057032,-9.53529 -55.237132,-9.19961 z"
       id="path6290-2"
       inkscape:connector-curvature="0" />
    <path
       style="fill:#a05a2c;fill-opacity:1;stroke:#000000;stroke-width:4.99999857;stroke-miterlimit:4;stroke-dasharray:none;stroke-opacity:1"
       d="m 223.03604,666.40919 c -5.86082,1.43458 -7.22926,27.68931 -1.42321,27.30536 2.64319,-0.17489 11.94322,1.65994 20.66725,4.07571 15.43189,4.27454 15.82574,4.79698 14.55547,19.31468 -0.74225,8.48387 0.53583,15.0823 2.96236,15.29456 2.74481,0.2402 3.06112,4.54256 0.88706,12.0562 -2.79153,9.6479 -1.5641,13.8819 7.0467,24.3093 8.50052,10.293 11.52976,11.8507 16.3919,8.4295 3.86644,-2.7206 15.07752,-2.8699 31.87105,-0.4245 l 25.9067,3.7725 5.99517,-16.697 c 4.14757,-11.5509 4.88809,-18.0374 2.40328,-21.0463 -1.97541,-2.392 -3.1009,-9.95864 -2.50108,-16.81466 1.2698,-14.51406 -2.09826,-27.12626 -10.79686,-40.43088 -5.88155,-8.99578 -8.90576,-9.76525 -58.13736,-14.7936 -28.5632,-2.91688 -53.6862,-4.87505 -55.82881,-4.35036 z"
       id="path6290-1"
       inkscape:connector-curvature="0" />
    <path
       style="fill:#a05a2c;fill-opacity:1;stroke:#000000;stroke-width:4.99999857;stroke-miterlimit:4;stroke-dasharray:none;stroke-opacity:1"
       d="m 350.67803,678.47746 c 1.43443,5.86069 27.68914,7.22893 27.30541,1.42295 -0.17463,-2.64325 1.65988,-11.94331 4.07555,-20.66705 4.27449,-15.43195 4.79695,-15.82583 19.31463,-14.55574 8.48371,0.74223 15.08224,-0.5358 15.2945,-2.96231 0.24018,-2.74475 4.54227,-3.06123 12.05614,-0.88703 9.64811,2.79171 13.88197,1.56417 24.30934,-7.04678 10.29306,-8.50035 11.85092,-11.52948 8.42954,-16.39171 -2.72057,-3.86638 -2.86991,-15.07754 -0.42444,-31.871 l 3.77251,-25.9068 -16.69703,-5.99518 c -11.55091,-4.14756 -18.03752,-4.88799 -21.04635,-2.40317 -2.39204,1.9753 -9.95866,3.10082 -16.81464,2.50105 -14.51403,-1.26976 -27.12626,2.09825 -40.43088,10.79687 -8.99576,5.88139 -9.76532,8.90572 -14.79366,58.13719 -2.91673,28.56342 -4.8749,53.68617 -4.35025,55.82885 z"
       id="path6290-0"
       inkscape:connector-curvature="0" />
    <path
       style="fill:#445500;fill-opacity:1;stroke:#000000;stroke-width:5.86578131;stroke-miterlimit:4;stroke-dasharray:none;stroke-opacity:1"
       id="path6262"
       sodipodi:type="arc"
       sodipodi:cx="-217.70398"
       sodipodi:cy="579.50507"
       sodipodi:rx="196.70995"
       sodipodi:ry="183.8528"
       sodipodi:start="0"
       sodipodi:end="6.2678613"
       sodipodi:open="true"
       d="M -20.994034,579.50507 A 196.70995,183.8528 0 0 1 -216.95039,763.35652 196.70995,183.8528 0 0 1 -414.40815,580.91373 196.70995,183.8528 0 0 1 -219.96472,395.66441 196.70995,183.8528 0 0 1 -21.01713,576.68781"
       transform="scale(-1,1)" />
    <path
       style="fill:#f2f2f2;fill-opacity:1;stroke:#000000;stroke-width:5.96076965;stroke-miterlimit:4;stroke-dasharray:none;stroke-opacity:1"
       id="path5994"
       sodipodi:type="arc"
       sodipodi:cx="-243.4183"
       sodipodi:cy="378.07651"
       sodipodi:rx="168.09105"
       sodipodi:ry="136.66246"
       sodipodi:start="0"
       sodipodi:end="6.2678613"
       sodipodi:open="true"
       d="M -75.327255,378.07651 A 168.09105,136.66246 0 0 1 -242.77435,514.73797 168.09105,136.66246 0 0 1 -411.50442,379.12361 168.09105,136.66246 0 0 1 -245.35013,241.42307 168.09105,136.66246 0 0 1 -75.346991,375.98237"
       transform="scale(-1,1)" />
    <path
       style="fill:#4d4d4d;fill-opacity:1;stroke:#000000;stroke-width:7.02865505;stroke-miterlimit:4;stroke-dasharray:none;stroke-opacity:1"
       id="path5996"
       sodipodi:type="arc"
       sodipodi:cx="57.205173"
       sodipodi:cy="-439.05243"
       sodipodi:rx="174.06514"
       sodipodi:ry="201.56526"
       sodipodi:start="0"
       sodipodi:end="3.1103302"
       sodipodi:open="true"
       d="M 231.27031,-439.05243 A 174.06514,201.56526 0 0 1 59.925914,-237.51179 174.06514,201.56526 0 0 1 -116.77491,-432.75203"
       transform="matrix(0.9044229,-0.42663711,-0.41862088,-0.90816109,0,0)" />
    <path
       style="fill:#ffffff;fill-opacity:1;stroke:#000000;stroke-width:2.95245004;stroke-miterlimit:4;stroke-dasharray:none;stroke-opacity:1"
       id="path6034"
       sodipodi:type="arc"
       sodipodi:cx="-300.56116"
       sodipodi:cy="375.2193"
       sodipodi:rx="33.742287"
       sodipodi:ry="35.429398"
       sodipodi:start="0"
       sodipodi:end="6.2678613"
       sodipodi:open="true"
       d="m -266.81887,375.2193 a 33.742287,35.429398 0 0 1 -33.61302,35.42914 33.742287,35.429398 0 0 1 -33.87056,-35.15768 33.742287,35.429398 0 0 1 33.3535,-35.69852 33.742287,35.429398 0 0 1 34.12612,34.88416"
       transform="scale(-1,1)" />
    <path
       style="fill:#000000;fill-opacity:1;stroke:#000000;stroke-width:5;stroke-miterlimit:4;stroke-dasharray:none;stroke-opacity:1"
       id="path6032"
       sodipodi:type="arc"
       sodipodi:cx="-316.27542"
       sodipodi:cy="383.79077"
       sodipodi:rx="12.857142"
       sodipodi:ry="17.142857"
       sodipodi:start="0"
       sodipodi:end="6.2678613"
       sodipodi:open="true"
       d="m -303.41828,383.79077 a 12.857142,17.142857 0 0 1 -12.80789,17.14273 12.857142,17.142857 0 0 1 -12.90602,-17.01138 12.857142,17.142857 0 0 1 12.709,-17.27307 12.857142,17.142857 0 0 1 13.0034,16.87903"
       transform="scale(-1,1)" />
    <path
       style="fill:#ffffff;fill-opacity:1;stroke:#000000;stroke-width:2.95245004;stroke-miterlimit:4;stroke-dasharray:none;stroke-opacity:1"
       id="path6034-5"
       sodipodi:type="arc"
       sodipodi:cx="-240.56116"
       sodipodi:cy="389.5051"
       sodipodi:rx="33.742287"
       sodipodi:ry="35.429398"
       sodipodi:start="0"
       sodipodi:end="6.2678613"
       sodipodi:open="true"
       d="m -206.81887,389.5051 a 33.742287,35.429398 0 0 1 -33.61302,35.42913 33.742287,35.429398 0 0 1 -33.87056,-35.15768 33.742287,35.429398 0 0 1 33.3535,-35.69851 33.742287,35.429398 0 0 1 34.12612,34.88416"
       transform="scale(-1,1)" />
    <path
       style="fill:#000000;fill-opacity:1;stroke:#000000;stroke-width:5;stroke-miterlimit:4;stroke-dasharray:none;stroke-opacity:1"
       id="path6032-8"
       sodipodi:type="arc"
       sodipodi:cx="-259.13257"
       sodipodi:cy="392.36227"
       sodipodi:rx="12.857142"
       sodipodi:ry="17.142857"
       sodipodi:start="0"
       sodipodi:end="6.2678613"
       sodipodi:open="true"
       d="m -246.27543,392.36227 a 12.857142,17.142857 0 0 1 -12.80788,17.14273 12.857142,17.142857 0 0 1 -12.90602,-17.01138 12.857142,17.142857 0 0 1 12.709,-17.27307 12.857142,17.142857 0 0 1 13.00339,16.87904"
       transform="scale(-1,1)" />
    <path
       style="fill:#000000;fill-opacity:1;stroke:#000000;stroke-width:14.28571415;stroke-miterlimit:4;stroke-dasharray:none;stroke-opacity:1"
       d="m 296.60261,352.34598 c 11.82615,-9.5432 20.85021,-18.54188 20.05349,-19.99705 -0.79673,-1.45519 -5.96839,-8.08379 -11.49257,-14.7302 l -10.04397,-12.08442 -9.39973,25.66713 c -5.16985,14.11691 -10.7524,28.84311 -12.40565,32.72488 -4.13532,9.70958 -1.42348,8.36109 23.28843,-11.58034 z"
       id="path6058"
       inkscape:connector-curvature="0" />
    <path
       style="fill:#000000;fill-opacity:1;stroke:#000000;stroke-width:14.28571415;stroke-miterlimit:4;stroke-dasharray:none;stroke-opacity:1"
       d="m 247.30892,348.76655 c -10.53762,-10.9494 -20.28851,-19.15482 -21.66877,-18.23433 -1.3802,0.92055 -7.53282,6.65024 -13.67246,12.73268 l -11.16306,11.05897 26.38866,7.12691 c 14.51382,3.91983 29.67052,8.19766 33.6816,9.50631 10.03304,3.27335 8.45333,0.68941 -13.56598,-22.19049 z"
       id="path6058-8"
       inkscape:connector-curvature="0" />
    <path
       style="fill:#000000;fill-rule:evenodd;stroke:none;stroke-width:1px;stroke-linecap:butt;stroke-linejoin:miter;stroke-opacity:1"
       d="m 352.91773,484.23024 c -0.89054,1.27206 -10.1294,-4.42663 -25.9129,-11.4047 -16.16007,-7.14456 -37.78068,-14.88115 -64.13188,-18.35935 -3.6262,-0.47864 -7.21028,-0.85858 -10.74817,-1.14658 0,0 -10e-6,0 -10e-6,0 -23.80614,-1.94142 -44.16161,0.32872 -59.41652,2.91917 -14.97004,2.54207 -24.0017,5.12167 -24.49047,3.78321 -0.38604,-1.05714 7.87243,-5.89317 22.98987,-10.29139 15.27357,-4.44365 36.66096,-8.0577 61.66425,-6.31787 0,0 0,0 0,0 3.72419,0.25967 7.49694,0.63718 11.30957,1.14048 27.65545,3.65071 50.22284,12.93081 66.01778,21.96526 15.57325,8.90765 23.39798,16.74116 22.71848,17.71177 z"
       id="path6107"
       inkscape:path-effect="#path-effect6109;#path-effect6111"
       inkscape:original-d="m 352.91773,484.23024 c 0,0 -67.24512,-101.316 -100.41939,-35.86407 -33.17427,65.45192 -84.28056,11.65582 -84.28056,11.65582"
       inkscape:connector-curvature="0" />
    <path
       style="fill:none;fill-rule:evenodd;stroke:#000000;stroke-width:1px;stroke-linecap:butt;stroke-linejoin:miter;stroke-opacity:1"
       d="m 214.29944,680.85352 c -1.1077,1.05283 -2.20911,2.11118 -3.3125,3.16796 -0.17198,0.0903 -0.34365,0.18117 -0.51562,0.27149 0.62385,-1.12945 1.51237,-2.11342 2.59765,-2.8125 0.38831,-0.25013 0.80378,-0.45259 1.23047,-0.62695 z"
       id="path6115"
       inkscape:connector-curvature="0" />
    <path
       style="fill:none;fill-rule:evenodd;stroke:#000000;stroke-width:1px;stroke-linecap:butt;stroke-linejoin:miter;stroke-opacity:1"
       d="m 129.13259,478.07649 c -0.71676,7.11151 -5.13977,13.74604 -11.42857,17.14286 -0.61901,0.33435 -1.25998,0.64285 -1.802,1.09137 -0.27101,0.22427 -0.51568,0.48328 -0.70327,0.78086 -0.18758,0.29758 -0.31697,0.63488 -0.35188,0.98491 -0.0481,0.4827 0.0825,0.96255 0.15923,1.44153 0.0384,0.23949 0.0635,0.48262 0.0459,0.72453 -0.0176,0.24191 -0.0794,0.48362 -0.20509,0.69108 -0.13195,0.21785 -0.33131,0.39156 -0.55802,0.50763 -0.2267,0.11607 -0.47997,0.1759 -0.73424,0.19064 -0.50853,0.0295 -1.01065,-0.11741 -1.48749,-0.29657 -0.47684,-0.17915 -0.9436,-0.39295 -1.44006,-0.50696 -0.49647,-0.11401 -1.03779,-0.12038 -1.49447,0.10526 -0.31068,0.15351 -0.56375,0.40509 -0.77148,0.68246 -0.20773,0.27738 -0.37468,0.58255 -0.55344,0.87943 -0.17875,0.29688 -0.3722,0.58914 -0.62304,0.82824 -0.25084,0.2391 -0.56538,0.42353 -0.90918,0.46702 -0.25036,0.0317 -0.50462,-0.012 -0.74787,-0.0792 -0.24325,-0.0671 -0.47961,-0.15772 -0.72342,-0.22284 -0.2438,-0.0651 -0.49918,-0.10458 -0.74866,-0.0667 -0.12474,0.019 -0.24704,0.0574 -0.35728,0.11881 -0.11023,0.0614 -0.2082,0.14606 -0.27992,0.24987 -0.0713,0.10328 -0.11575,0.22395 -0.13641,0.34777 -0.0207,0.12382 -0.0181,0.25082 -4.8e-4,0.37512 0.0352,0.24859 0.12887,0.48442 0.21537,0.72011 0.0865,0.23569 0.16726,0.47821 0.17459,0.72916 0.004,0.12548 -0.0114,0.25219 -0.0524,0.37086 -0.0409,0.11866 -0.10829,0.22913 -0.20068,0.31412 -0.0929,0.0854 -0.20923,0.14347 -0.33148,0.17474 -0.12224,0.0313 -0.2503,0.0364 -0.37585,0.0237 -0.25109,-0.0253 -0.48921,-0.11997 -0.724,-0.21249 -0.23479,-0.0925 -0.4742,-0.18484 -0.72574,-0.20516 -0.12577,-0.0102 -0.25378,-0.002 -0.37503,0.0331 -0.12126,0.0349 -0.23566,0.0971 -0.32504,0.18613 -0.0894,0.089 -0.15191,0.20318 -0.18724,0.32428 -0.0353,0.12109 -0.0441,0.24904 -0.0343,0.3748 0.0195,0.25154 0.11125,0.49113 0.20349,0.72595 0.0922,0.23482 0.18693,0.47277 0.21292,0.72372 0.013,0.12547 0.008,0.25349 -0.0223,0.37586 -0.0306,0.12236 -0.0879,0.23902 -0.17258,0.33253 -0.0842,0.093 -0.1939,0.1613 -0.31205,0.20341 -0.11815,0.0421 -0.24459,0.0586 -0.370001,0.0563 -0.250818,-0.005 -0.493993,-0.083 -0.729951,-0.1682 -0.235958,-0.0852 -0.471474,-0.17863 -0.719584,-0.21568 -0.24811,-0.0371 -0.515148,-0.0124 -0.725556,0.12422 -0.212847,0.13819 -0.345576,0.37869 -0.392527,0.62808 -0.04695,0.24939 -0.01557,0.50773 0.04563,0.75401 0.0612,0.24628 0.151681,0.48419 0.225219,0.72707 0.07354,0.24288 0.130505,0.49436 0.121677,0.74798 -0.0102,0.29298 -0.109801,0.58067 -0.27329,0.824 -0.163488,0.24333 -0.389527,0.44259 -0.645873,0.58481 -0.512692,0.28443 -1.132724,0.33514 -1.708864,0.22643 -0.57614,-0.10872 -1.114235,-0.36681 -1.616198,-0.66977 -0.501963,-0.30297 -0.974279,-0.6525 -1.470065,-0.96547 -0.45009,-0.28413 -0.935806,-0.54325 -1.465429,-0.59625 -0.264812,-0.0265 -0.537273,7.5e-4 -0.784565,0.0991 -0.247292,0.0984 -0.468148,0.2702 -0.607146,0.49715 -0.126779,0.207 -0.182013,0.45196 -0.190137,0.69457 -0.0081,0.2426 0.02877,0.48446 0.07516,0.72273 0.09278,0.47653 0.224253,0.96683 0.114981,1.43985 -0.09038,0.39125 -0.345207,0.73562 -0.674419,0.96553 -0.329211,0.22992 -0.728432,0.34951 -1.129227,0.37411 -0.80159,0.0492 -1.579646,-0.26652 -2.292745,-0.63592 -0.7131,-0.3694 -1.404142,-0.8023 -2.177274,-1.01964 -0.386565,-0.10867 -0.792199,-0.16135 -1.191469,-0.11862 -0.399269,0.0427 -0.79232,0.18422 -1.106296,0.43454 -0.427489,0.34082 -0.688078,0.88185 -0.688078,1.42857 0,0.54672 0.260589,1.08775 0.688078,1.42857 -0.03101,-0.35314 -0.198494,-0.69256 -0.459899,-0.93201 -0.261406,-0.23946 -0.614168,-0.37661 -0.968671,-0.37661 -0.354503,0 -0.707265,0.13715 -0.968671,0.37661 -0.261405,0.23945 -0.428888,0.57887 -0.459899,0.93201 -0.0219,0.24937 0.02182,0.50017 0.08494,0.7424 0.06312,0.24224 0.145745,0.4792 0.204065,0.72264 0.05832,0.24344 0.0921,0.49666 0.05544,0.74429 -0.03666,0.24763 -0.149711,0.49052 -0.344448,0.64781 -0.189324,0.15292 -0.439157,0.21375 -0.682432,0.22049 -0.243274,0.007 -0.485052,-0.0351 -0.724478,-0.0788 -0.478853,-0.0872 -0.963504,-0.14173 -1.45024,-0.14173 l -2.85714,0 -28.57143,0 -2.85714,0 c -0.476748,0 -0.953387,0.0124 -1.429709,0.0326 -0.476321,0.0202 -0.956493,0.0416 -1.427431,-0.0326 -0.711227,-0.11206 -1.384265,-0.45464 -1.893383,-0.96376 -0.509118,-0.50912 -0.851707,-1.18215 -0.963767,-1.89338"
       id="path6264"
       inkscape:path-effect="#path-effect6266"
       inkscape:original-d="m 129.13259,478.07649 c -2.70515,8.75526 -5.87985,11.59413 -11.42857,17.14286 -0.95238,0.95238 -2.25481,1.65246 -2.85715,2.85714 -0.42591,0.85184 0.67344,2.18371 0,2.85714 -1.34687,1.34687 -4.01061,-0.85183 -5.71428,0 -1.20468,0.60234 -1.65247,2.25481 -2.85714,2.85715 -0.85184,0.42591 -2.18371,-0.67344 -2.85715,0 -0.67343,0.67343 0.67344,2.1837 0,2.85714 -0.67343,0.67343 -2.1837,-0.67344 -2.85714,0 -0.673442,0.67343 0.67344,2.18371 0,2.85714 -0.673442,0.67344 -2.183712,-0.67343 -2.857142,0 -0.67344,0.67344 0.85183,2.43123 0,2.85714 -1.70367,0.85184 -3.80953,0 -5.71429,0 -0.95238,0 -2.18371,-0.67343 -2.85714,0 -0.67344,0.67344 0.67343,2.18371 0,2.85715 -1.42857,1.42857 -7.14286,-1.42857 -8.57143,0 -0.67344,0.67343 0,1.90476 0,2.85714 -0.95238,0 -2.18371,-0.67343 -2.85714,0 -0.67344,0.67344 0.67343,2.18371 0,2.85714 -0.67344,0.67344 -1.90476,0 -2.85715,0 -0.95238,0 -1.90476,0 -2.85714,0 -9.52381,0 -19.04762,0 -28.57143,0 -0.95238,0 -1.90476,0 -2.85714,0 -0.95238,0 -2.18371,0.67344 -2.85714,0 -3.80953,-3.80952 4.7619,-2.85714 -2.85715,-2.85714"
       inkscape:connector-curvature="0" />
    <path
       style="fill:none;fill-rule:evenodd;stroke:#000000;stroke-width:1px;stroke-linecap:butt;stroke-linejoin:miter;stroke-opacity:1"
       d="m 291.98973,503.79078 c 11.28001,3.50731 21.41502,10.60182 28.57143,20 0.8246,1.08291 1.61236,2.19735 2.52433,3.20777 0.91198,1.01042 1.96065,1.92218 3.18996,2.50651 1.79238,0.85198 3.83327,0.95463 5.8088,1.14372 0.98777,0.0946 1.977,0.21496 2.93623,0.46892 0.95923,0.25397 1.89195,0.64617 2.68354,1.2445 1.07581,0.81316 1.84441,1.96665 2.85714,2.85715 1.12208,0.98665 2.5251,1.62626 3.98395,1.94917 1.45886,0.32291 2.97401,0.33843 4.45882,0.17154 2.96964,-0.33378 5.80499,-1.38011 8.70009,-2.12071 0.47201,-0.12074 0.9493,-0.23394 1.43581,-0.25993 0.48651,-0.026 0.98689,0.0394 1.42133,0.25993 0.60675,0.308 1.02646,0.88144 1.42458,1.43326 0.39813,0.55182 0.82211,1.1233 1.43256,1.42388 0.36614,0.18028 0.78086,0.25066 1.18872,0.23615 0.40786,-0.0145 0.8097,-0.11159 1.19296,-0.25186 0.7665,-0.28054 1.45824,-0.72988 2.19394,-1.08339 0.73571,-0.35351 1.55633,-0.6149 2.36129,-0.47974 0.40248,0.0676 0.79208,0.23734 1.09339,0.51261 0.30131,0.27526 0.509,0.65938 0.54113,1.06623 0.0197,0.24965 -0.0252,0.50019 -0.0889,0.74239 -0.0637,0.24219 -0.14624,0.47928 -0.20415,0.72292 -0.0579,0.24364 -0.0909,0.4971 -0.0534,0.74471 0.0375,0.24761 0.15135,0.49018 0.3465,0.64712 0.18962,0.15249 0.43939,0.21309 0.68263,0.21981 0.24324,0.007 0.485,-0.035 0.72441,-0.0785 0.47884,-0.087 0.96343,-0.14128 1.4501,-0.14128 l 2.85715,0 37.14285,0"
       id="path6270"
       inkscape:path-effect="#path-effect6272"
       inkscape:original-d="m 291.98973,503.79078 c 8.41824,8.13974 19.51888,12.75795 28.57143,20 2.10346,1.68276 3.30493,4.5096 5.71429,5.71428 3.5122,1.75611 7.78266,1.39878 11.42857,2.85714 1.25053,0.50022 1.65246,2.25481 2.85714,2.85715 0.84993,0.42496 15.94096,0 17.14286,0 0.95238,0 2.0053,-0.42592 2.85714,0 1.20468,0.60234 1.65247,2.2548 2.85714,2.85714 1.13284,0.56642 7.98733,-0.5841 8.57143,0 0.67344,0.67344 -0.67343,2.18371 0,2.85714 0.67344,0.67344 1.90476,0 2.85714,0 0.95239,0 1.90477,0 2.85715,0 12.38095,0 24.7619,0 37.14285,0"
       inkscape:connector-curvature="0" />
    <path
       style="fill:#aa4400;fill-opacity:1;stroke:#000000;stroke-width:5;stroke-miterlimit:4;stroke-dasharray:none;stroke-opacity:1"
       d="m 389.97393,538.6321 c 15.01069,-0.85814 15.23742,-1.00365 13.35571,-8.57143 -2.88279,-11.59385 -17.54967,-40.89588 -25.14139,-50.22836 l -6.70641,-8.24418 -14.10319,10.81285 c -14.16001,10.85641 -39.57631,24.1669 -46.24606,24.21903 -5.39591,0.0422 -4.49679,1.71128 6.86686,12.74751 5.74106,5.57565 12.73661,10.13754 15.54566,10.13754 2.80906,0 5.902,1.28572 6.87319,2.85714 0.9712,1.57143 8.65422,2.85715 17.07339,2.85715 8.41916,0 15.73614,0.96428 16.25995,2.14285 0.52381,1.17858 7.82384,1.75003 16.22229,1.2699 z"
       id="path6274"
       inkscape:connector-curvature="0" />
    <path
       style="fill:#000000;fill-opacity:1;stroke:#000000;stroke-width:5;stroke-miterlimit:4;stroke-dasharray:none;stroke-opacity:1"
       d="m 76.869778,517.29869 c 0.40355,-1.21351 4.58134,-2.9021 9.28398,-3.75244 4.70264,-0.85033 11.20455,-4.03603 14.448692,-7.07934 3.24414,-3.0433 6.96208,-5.53328 8.2621,-5.53328 1.30002,0 6.24703,-4.06356 10.99336,-9.03013 l 8.62967,-9.03013 -9.74892,-8.705 c -5.36191,-4.78775 -14.00764,-13.79891 -19.212742,-20.02479 l -9.46381,-11.31979 -16.41129,17.24659 c -9.02621,9.48562 -21.23046,26.41747 -27.12055,37.62634 -5.8901,11.20888 -10.31773,20.44538 -9.83919,20.52557 8.42599,1.41197 39.64063,0.69443 40.1787,-0.9236 z"
       id="path6276"
       inkscape:connector-curvature="0" />
    <path
       style="fill:#000000;fill-opacity:1;stroke:#000000;stroke-width:5;stroke-miterlimit:4;stroke-dasharray:none;stroke-opacity:1"
       d="m 398.98973,531.04008 c 0,-5.81297 -18.73242,-44.08487 -24.45388,-49.96132 -3.51208,-3.60723 -5.23306,-3.24371 -13.36018,2.82203 -5.13084,3.82944 -18.13545,11.62109 -28.89915,17.31478 l -19.57035,10.35217 9.5527,6.8258 c 13.65214,9.75503 25.48575,13.23298 52.75302,15.50433 21.44233,1.78614 23.97784,1.48394 23.97784,-2.85779 z"
       id="path6278"
       inkscape:connector-curvature="0" />
    <path
       style="fill:#803300;fill-opacity:1;stroke:#000000;stroke-width:5;stroke-miterlimit:4;stroke-dasharray:none;stroke-opacity:1"
       d="m 400.6712,650.65853 c 24.59156,-55.53112 18.55238,-120.981 -15.76561,-170.86049 -5.68446,-8.26208 -8.10734,-14.55495 -6.90665,-17.93838 1.27966,-3.60595 -1.1438,-2.47833 -7.86556,3.65978 -55.12323,50.33688 -142.82713,61.48248 -212.72587,27.03364 -25.46684,-12.55105 -44.47281,-27.84398 -56.91169,-45.79332 l -8.195122,-11.82554 -16.80771,16.57114 c -22.67112,22.35201 -36.05272,43.21114 -45.37534,70.73065 -8.89118,26.24587 -13.64266,54.87478 -8.58915,51.75152 1.74655,-1.07941 3.17552,-6.62377 3.17552,-12.32079 0,-5.69702 2.00474,-17.514 4.45497,-26.25995 l 4.45494,-15.90173 18.38463,0.9573 c 12.75814,0.66433 22.54343,-0.61988 31.9736,-4.19616 16.218402,-6.15064 36.221662,-19.14938 41.863462,-27.2042 4.01328,-5.72976 4.37148,-5.65449 27.89551,5.86242 13.10652,6.41669 31.54432,13.65603 40.97289,16.08743 21.00575,5.41687 67.91563,6.04403 92.32025,1.23427 l 18.03454,-3.55432 10.53689,10.28415 c 5.79529,5.65628 15.71065,12.1083 22.03414,14.33782 16.35463,5.76628 56.43539,8.92733 63.72541,5.02583 5.41212,-2.89648 6.02887,-2.10827 8.17275,10.44485 5.58773,32.71799 0.99567,69.8823 -12.41117,100.44551 -3.72489,8.49156 -6.12968,16.08205 -5.34396,16.86776 0.78571,0.78572 4.78996,-6.16192 8.89833,-15.43919 z M 376.9064,536.3503 c 0.9494,-0.9494 3.41369,-1.05091 5.47619,-0.22557 2.27924,0.91207 1.60222,1.58909 -1.72619,1.72619 -3.01191,0.12406 -4.69941,-0.55122 -3.75,-1.50063 z"
       id="path6322"
       inkscape:connector-curvature="0" />
    <path
       style="fill:#000000;fill-opacity:1;stroke:#000000;stroke-width:5;stroke-miterlimit:4;stroke-dasharray:none;stroke-opacity:1"
       d="m 233.69513,661.87801 c 2.58798,-0.68745 17.81372,-15.94444 33.83498,-33.90442 l 29.12954,-32.65452 25.45077,1.80654 25.45074,1.80655 0,-11.85641 0,-11.8564 59.53653,0 c 32.7451,0 92.57632,-0.85017 132.95828,-1.88926 l 73.42176,-1.88926 12.66031,-18.11074 12.66031,-18.11074 -164.90431,0.0549 c -90.69737,0.0302 -199.89853,-0.2912 -242.66928,-0.71429 l -77.76494,-0.76924 -21.2612,60 c -11.69369,33 -22.15843,62.25 -23.25503,65 -1.86383,4.6741 1.98354,4.9784 59.02617,4.66857 33.561,-0.18228 63.1374,-0.89389 65.72537,-1.58133 z"
       id="path6324"
       inkscape:connector-curvature="0" />
    <path
       style="fill:#a05a2c;fill-opacity:1;stroke:#000000;stroke-width:4.99999857;stroke-miterlimit:4;stroke-dasharray:none;stroke-opacity:1"
       d="m 245.39705,631.71619 c 5.96345,-0.91822 9.61474,-26.95382 3.79746,-27.0775 -2.64844,-0.0564 -11.75327,-2.69446 -20.23327,-5.86138 -15.0008,-5.60318 -15.34757,-6.15801 -12.81698,-20.50967 1.47881,-8.38679 0.78076,-15.07155 -1.618,-15.49452 -2.71341,-0.47844 -2.65375,-4.79185 0.16707,-12.08758 3.622,-9.36812 2.76816,-13.69281 -4.90119,-24.83103 -7.57092,-10.99473 -10.4528,-12.81056 -15.59474,-9.82608 -4.08876,2.37328 -15.27027,1.54497 -31.78674,-2.3549 l -25.47932,-6.01601 -7.42761,16.11096 c -5.13849,11.14549 -6.44159,17.54275 -4.22843,20.75678 1.75938,2.55509 2.22116,10.191 1.02608,16.96864 -2.52997,14.3481 -0.27393,27.20591 7.23202,41.21794 5.07508,9.47417 8.02076,10.50442 56.62667,19.80442 28.20045,5.39508 53.05703,9.53537 55.2372,9.19952 z"
       id="path6290"
       inkscape:connector-curvature="0" />
    <path
       style="fill:#000000;fill-rule:evenodd;stroke:none;stroke-width:1px;stroke-linecap:butt;stroke-linejoin:miter;stroke-opacity:1"
       d="m 585.96016,511.80581 c 0.66382,0.0837 1.33792,0.0947 1.99776,0.059 0.14363,0.0207 0.26659,0.0419 0.39995,0.0631 0.27447,0.0657 0.56697,0.1137 0.87782,0.14082 0.0356,0.006 0.0736,0.0122 0.10851,0.0177 1.33709,0.44144 2.01208,0.807 1.9593,1.00238 0.67004,0 0.92135,8.52894 0.6978,20.47645 -2.01233,0.25747 -4.11166,0.51768 -6.28918,0.78284 10e-4,-0.42916 0.003,-0.86105 0.004,-1.2955 0.0308,-8.5789 0.13245,-16.42843 0.24362,-21.24675 z m 0.57404,0.15072 c 0.11585,4.68609 0.22531,12.09481 0.25692,19.91842 10e-4,0.38615 0.002,0.77077 0.004,1.1531 1.30569,-0.26112 2.56144,-0.50732 3.8106,-0.74265 -0.20673,-10.22536 -0.002,-18.21134 0.58439,-19.10952 -0.45728,0.13484 -2.23286,-0.26511 -4.65586,-1.21935 z"
       id="path6326"
       inkscape:connector-curvature="0" />
    <path
       style="fill:#ffffff;fill-opacity:1;stroke:#000000;stroke-width:5.00000048;stroke-miterlimit:4;stroke-dasharray:none;stroke-opacity:1"
       d="m 588.51963,475.71206 a 17.674624,19.073233 0 0 1 17.20957,19.39949 17.674624,19.073233 0 0 1 -17.82601,18.73975 17.674624,19.073233 0 0 1 -17.52077,-19.0725 l 0.41229,0 c 0.0384,0.90266 0.51895,1.80471 1.44888,2.4606 0.14258,0.58797 0.32309,1.15628 0.5765,1.68664 -0.0461,1.04331 0.0986,2.04933 0.55676,2.98892 -0.0817,0.3258 -0.0977,0.62716 0.009,0.86052 1.2059,2.64025 3.03213,3.80693 2.7,3.69298 -0.13737,-0.0933 -0.27733,-0.16916 -0.42164,-0.19192 0.23119,0.1097 0.35965,0.17065 0.42164,0.19192 0.0939,0.0638 0.18596,0.13615 0.27764,0.20704 0.0666,0.0843 0.12998,0.16179 0.1953,0.24304 0.0388,0.0676 0.11922,0.1762 0.35457,0.50484 1.55281,1.69716 0.71746,0.82873 -0.35457,-0.50484 -0.0265,-0.0463 -0.0388,-0.0823 -0.0533,-0.13925 0.24078,0.17572 0.47658,0.30346 0.71459,0.1815 0.35691,-0.18289 -0.52999,-0.44866 -0.92664,-0.75883 -0.091,-0.21776 -0.21033,-0.49078 -0.40834,-0.9106 -0.12033,-0.25516 0.11538,0.58129 0.28949,0.79899 0.0302,0.0378 0.0719,0.075 0.11885,0.11161 0.14156,0.33887 0.19235,0.49929 0.21205,0.57733 -0.0468,-0.0342 -0.0948,-0.0672 -0.14203,-0.10373 -1.48606,-1.88049 -3.16166,-4.38801 0.32746,-2.32239 0.0111,0.0356 0.0224,0.0708 0.033,0.10639 0.15497,0.41609 0.91668,1.1674 1.61803,1.71063 0.52794,1.10171 0.84243,2.43342 1.51694,3.42126 0.1185,0.17355 0.40492,0.009 0.60707,-0.001 0.0523,-0.002 0.19099,-0.002 0.15239,-0.0401 -0.3254,-0.31506 -0.70652,-0.55863 -1.0598,-0.8381 0.85153,0.37181 1.48293,0.67577 2.01602,0.88504 0.0572,0.0612 0.11592,0.12097 0.17211,0.18306 0.73722,0.13601 -0.26515,-0.074 1.49968,1.08583 1.40524,0.92351 3.10361,1.08643 4.71159,0.99926 0.14362,0.0207 0.26659,0.0419 0.39994,0.0632 0.27448,0.0657 0.56698,0.11368 0.87782,0.14081 1.2971,0.21036 2.18628,0.27724 3.59213,-0.47667 0.12655,-0.0347 0.21905,-0.0626 0.36494,-0.10119 0.25907,-0.22636 0.56767,-0.40424 0.80876,-0.64827 0.0892,-0.0775 0.16936,-0.16105 0.22735,-0.25607 0.20184,-0.1166 0.4027,-0.23514 0.60411,-0.35256 0.0432,-0.0588 0.0714,-0.13462 0.1297,-0.17628 0.19581,-0.13982 0.6168,-0.11003 0.62137,-0.35986 5.1e-4,-0.0342 -0.0116,-0.0529 -0.0291,-0.0662 2.99452,-0.68177 -1.00408,0.49761 3.55712,-3.67734 0.0433,-0.0396 0.07,-0.0526 0.0853,-0.0474 -0.0864,0.15894 -0.16261,0.33036 -0.2022,0.49234 0.0487,-0.0782 0.10138,-0.15398 0.1519,-0.23104 -0.25087,0.6549 -1.13596,2.27598 -0.84922,1.81858 1.20953,-1.92931 1.46812,-2.59422 1.38626,-2.65617 0.0627,-0.10594 0.12361,-0.21286 0.17902,-0.32336 0.0447,-0.0892 0.0407,-0.14482 0.0128,-0.18044 0.77915,-0.41889 1.28407,-0.96912 1.56575,-1.75809 l 0.3181,-0.28633 c 0.36702,-0.50089 0.75397,-0.98609 1.1012,-1.50253 0.0594,-0.0884 -0.31103,0.25217 -0.27222,0.15177 1.14071,-2.95069 1.48203,-2.15633 1.29798,-4.41166 -0.0743,-2.28685 0.76804,-4.45823 -0.50006,-6.60419 -0.20407,-0.25721 -0.2998,-0.76466 -0.60411,-0.7896 -0.21361,-0.53556 -0.47939,-1.1453 -0.72149,-1.64126 -0.0366,-0.21398 -0.0728,-0.41813 -0.0863,-0.5643 -0.15501,-1.67881 -0.86188,-2.97564 -1.74921,-4.29013 -0.20473,-0.79763 -0.52693,-1.74093 -1.03118,-2.0293 -0.0805,-0.0461 -0.0668,0.0346 -0.0143,0.16168 -0.72175,-1.37386 -0.0926,-0.65824 -0.90691,-1.51454 -0.88633,-0.46056 -1.73643,-1.00921 -2.65909,-1.38153 -0.54835,-0.22128 -2.63777,0.1868 -3.37266,0.0453 -1.82016,-0.0921 -3.84832,-0.52557 -5.47451,0.49233 -0.0168,10e-4 -0.0455,0.006 -0.0607,0.007 -1.66529,0.1226 -3.09607,0.94319 -4.54737,1.71898 -0.36299,0.0897 -0.71849,0.23314 -1.06767,0.36872 -0.3064,0.11897 -0.8827,0.16474 -0.85316,0.5085 0.006,0.0708 0.0679,0.0894 0.15486,0.0793 -0.75418,0.33254 -1.0576,0.40179 -1.23733,0.4579 -0.0863,-0.014 -0.17259,-0.0275 -0.25891,-0.0365 -0.57448,0.0484 -1.17292,-0.0348 -1.72357,0.14499 -2.22885,0.72803 -3.42837,2.73413 -3.59312,5.07608 -0.12735,0.23593 -0.25729,0.48609 -0.39599,0.76718 -0.0475,0.0963 0.30339,-0.47061 0.2589,-0.1768 -0.40287,1.06616 -0.79738,2.13551 -1.20873,3.19804 -10e-4,-0.0255 -1.4e-4,-0.0511 -10e-4,-0.0766 -0.002,-0.0408 -0.0299,0.15931 -0.0153,0.12152 0.006,-0.0148 0.0112,-0.03 0.0167,-0.0448 0.0155,0.38761 -0.007,0.77292 -0.0399,1.15728 -0.75226,0.512 -1.20522,1.21237 -1.35025,1.95627 l -0.45074,-0.0171 a 17.674624,19.073233 0 0 1 18.12635,-18.40128 z m 0.96067,10.83799 c 0.01,0.0172 0.0201,0.0346 0.0306,0.0526 -0.02,-0.0146 -0.0402,-0.03 -0.0601,-0.0448 0.01,-0.002 0.0196,-0.006 0.0296,-0.008 z m -15.36125,13.38932 c 0.0249,0.0568 0.0515,0.11231 0.0784,0.16742 -0.1537,0.2766 -0.33702,0.60982 -0.49907,0.95493 0.002,-0.0578 0.004,-0.11579 0.0128,-0.17367 0.0331,-0.23407 0.22123,-0.62414 0.40783,-0.94868 z"
       id="path6336"
       inkscape:connector-curvature="0" />
    <path
       sodipodi:type="spiral"
       style="fill:none;fill-rule:evenodd;stroke:#000000;stroke-width:2.93417978px;stroke-linecap:butt;stroke-linejoin:miter;stroke-opacity:1"
       id="path6364"
       sodipodi:cx="177.14287"
       sodipodi:cy="886.64789"
       sodipodi:expansion="1"
       sodipodi:revolution="6.9099998"
       sodipodi:radius="56.928169"
       sodipodi:argument="-9.4793301"
       sodipodi:t0="0"
       d="m 177.14287,886.64789 c -1.23736,0.0676 -0.70155,-1.6346 -0.1123,-2.05657 1.59682,-1.14351 3.63123,0.26628 4.22543,1.83197 1.06288,2.80064 -1.08996,5.66916 -3.77623,6.3943 -3.94221,1.06416 -7.74275,-1.91587 -8.56317,-5.7205 -1.09348,-5.07097 2.7414,-9.83005 7.66476,-10.73203 6.19555,-1.13505 11.92415,3.56646 12.9009,9.60902 1.18299,7.31835 -4.3912,14.02211 -11.55328,15.06977 -8.44027,1.23463 -16.1225,-5.21574 -17.23864,-13.49755 -1.28862,-9.56168 6.04013,-18.22451 15.44182,-19.40751 10.68279,-1.34419 20.32765,6.86444 21.57637,17.38608 1.40087,11.8037 -7.68867,22.43163 -19.33035,23.74524 -12.92447,1.45837 -24.53621,-8.51285 -25.9141,-21.2746 -1.51647,-14.04515 9.337,-26.64128 23.21887,-28.08298 15.16575,-1.57503 28.74672,10.16112 30.25184,25.16314 1.63398,16.28629 -10.98522,30.85245 -27.1074,32.42071 -17.4068,1.69321 -32.95844,-11.8093 -34.58958,-29.05167 -1.75269,-18.52728 12.63337,-35.06462 30.99593,-36.75844 19.64773,-1.81237 37.17098,13.45743 38.92732,32.94019 1.87221,20.76815 -14.28148,39.27747 -34.88446,41.09618 -21.88856,1.93219 -41.38409,-15.10552 -43.26505,-36.82872 -1.9923,-23.00896 15.92955,-43.4908 38.77299,-45.43392 24.12933,-2.0525 45.5976,16.75359 47.60278,40.71726 2.11279,25.2497 -17.57761,47.70448 -42.66152,49.77165 -26.37007,2.17315 -49.81143,-18.40164 -51.94052,-44.60579 -2.23359,-27.49042 19.22566,-51.91844 46.55005,-54.10938 28.61077,-2.29409 54.02551,20.04967 56.27825,48.49431 2.35464,29.73111 -20.87368,56.13262 -50.43857,58.44712 -19.0484,1.49122 -37.92125,-7.17816 -49.36344,-22.44817"
       transform="matrix(-0.33641843,0,0,0.34526043,648.90629,188.87465)" />
    <path
       style="fill:#000000;fill-opacity:1;stroke:#000000;stroke-width:5.00000048;stroke-miterlimit:4;stroke-dasharray:none;stroke-opacity:1"
       d="m 587.15914,525.6773 c -0.0146,-1.25883 -0.17638,-1.68144 -0.3593,-0.93914 -0.18291,0.74232 -0.17087,1.77226 0.0268,2.28879 0.19761,0.51654 0.34726,-0.0908 0.33256,-1.34965 z"
       id="path6366"
       inkscape:connector-curvature="0" />
    <path
       style="fill:#000000;fill-opacity:1;stroke:#000000;stroke-width:5.00000048;stroke-miterlimit:4;stroke-dasharray:none;stroke-opacity:1"
       d="m 585.68958,526.05877 c 0,-1.46864 -0.14847,-2.06945 -0.32992,-1.33513 -0.18145,0.73432 -0.18145,1.93594 0,2.67026 0.18145,0.73432 0.32992,0.13351 0.32992,-1.33513 z"
       id="path6368"
       inkscape:connector-curvature="0" />
    <path
       style="fill:#000000;fill-opacity:1;stroke:#000000;stroke-width:5.00000048;stroke-miterlimit:4;stroke-dasharray:none;stroke-opacity:1"
       d="m 591.47228,523.57924 c 0.0857,-5.35003 0.42651,-9.72735 0.75716,-9.72735 0.33065,0 0.60117,-0.51497 0.60117,-1.14439 0,-0.8949 -0.87811,-1.11826 -4.02789,-1.02453 l -4.02789,0.11986 3.60706,0.5232 c 1.98389,0.28777 2.9578,0.58241 2.16425,0.65476 -0.97759,0.0891 -1.1596,0.32186 -0.56449,0.72177 0.59178,0.39767 0.95277,3.69188 1.10649,10.09714 l 0.22815,9.50689 0.15599,-9.72735 z"
       id="path6370"
       inkscape:connector-curvature="0" />
    <path
       style="fill:#000000;fill-opacity:1;stroke:#000000;stroke-width:5.00000048;stroke-miterlimit:4;stroke-dasharray:none;stroke-opacity:1"
       d="m 590.18543,525.77266 c 0,-8.57127 -0.53286,-11.15784 -2.29862,-11.15784 -1.2633,0 -1.34385,0.34652 -0.84245,3.62392 0.30492,1.99315 0.51283,5.94131 0.46201,8.77369 -0.0826,4.60434 0.0544,5.14977 1.29333,5.14977 1.25639,0 1.38573,-0.59639 1.38573,-6.38954 z"
       id="path6372"
       inkscape:connector-curvature="0" />
    <path
       style="fill:#28170b;fill-opacity:1;stroke:#000000;stroke-width:5;stroke-miterlimit:4;stroke-dasharray:none;stroke-opacity:1"
       d="m 200.21449,800.60986 c 2.57692,-6.44037 4.4013,-16.52329 4.05416,-22.4065 l -0.63115,-10.69674 -21.11134,-3.28211 c -11.61123,-1.80516 -29.15071,-6.49837 -38.97663,-10.42935 -9.8259,-3.93098 -18.51928,-7.14724 -19.31861,-7.14724 -0.79933,0 -1.51465,9.51579 -1.5896,21.14621 -0.18685,28.99584 5.18661,37.48135 23.0399,36.38346 6.96826,-0.42851 17.63476,0.46593 23.70333,1.98766 27.4778,6.89021 25.72373,7.20629 30.82994,-5.55539 z"
       id="path6407"
       inkscape:connector-curvature="0" />
    <path
       style="fill:#28170b;fill-opacity:1;stroke:#000000;stroke-width:5;stroke-miterlimit:4;stroke-dasharray:none;stroke-opacity:1"
       d="m 344.66282,762.50934 c 2.20002,-7.85771 2.55623,-16.30469 1.00773,-23.89716 l -2.3951,-11.74346 -14.28572,9.0271 c -7.85714,4.96491 -24.74896,13.00599 -37.53737,17.86908 -20.67531,7.86226 -22.86125,9.37588 -19.72823,13.66056 2.85262,3.90118 9.80741,5.04885 36.52965,6.02808 l 33.00621,1.2095 3.40283,-12.1537 z"
       id="path6415"
       inkscape:connector-curvature="0" />
  </g>
</svg>
