<?xml version="1.0" encoding="UTF-8" standalone="no"?>
<!-- Created with Inkscape (http://www.inkscape.org/) -->

<svg
   xmlns:dc="http://purl.org/dc/elements/1.1/"
   xmlns:cc="http://creativecommons.org/ns#"
   xmlns:rdf="http://www.w3.org/1999/02/22-rdf-syntax-ns#"
   xmlns:svg="http://www.w3.org/2000/svg"
   xmlns="http://www.w3.org/2000/svg"
   xmlns:sodipodi="http://sodipodi.sourceforge.net/DTD/sodipodi-0.dtd"
   xmlns:inkscape="http://www.inkscape.org/namespaces/inkscape"
   width="297mm"
   height="210mm"
   viewBox="0 0 1052.3622 744.09448"
   id="svg2"
   version="1.1"
   inkscape:version="0.91 r13725"
   sodipodi:docname="kick.svg">
  <defs
     id="defs4" />
  <sodipodi:namedview
     id="base"
     pagecolor="#ffffff"
     bordercolor="#666666"
     borderopacity="1.0"
     inkscape:pageopacity="0.0"
     inkscape:pageshadow="2"
     inkscape:zoom="0.7"
     inkscape:cx="588.85344"
     inkscape:cy="372.04724"
     inkscape:document-units="px"
     inkscape:current-layer="layer1"
     showgrid="false"
     inkscape:window-width="1366"
     inkscape:window-height="705"
     inkscape:window-x="-8"
     inkscape:window-y="-8"
     inkscape:window-maximized="1"
     showguides="true"
     inkscape:guide-bbox="true"
     units="mm">
    <sodipodi:guide
       position="450.00001,634.28571"
       orientation="1,0"
       id="guide3348" />
    <sodipodi:guide
       position="900.00001,601.42857"
       orientation="1,0"
       id="guide3349" />
  </sodipodi:namedview>
  <metadata
     id="metadata7">
    <rdf:RDF>
      <cc:Work
         rdf:about="">
        <dc:format>image/svg+xml</dc:format>
        <dc:type
           rdf:resource="http://purl.org/dc/dcmitype/StillImage" />
        <dc:title />
      </cc:Work>
    </rdf:RDF>
  </metadata>
  <g
     inkscape:label="Ebene 1"
     inkscape:groupmode="layer"
     id="layer1"
     transform="translate(0,-308.26772)">
    <path
       style="fill:#000000;fill-opacity:1;fill-rule:nonzero;stroke:none;stroke-width:1px;stroke-linecap:butt;stroke-linejoin:miter;stroke-opacity:1"
       id="path3350"
       d="m 201.75334,546.6068 c 8.24373,50.56246 21.52885,100.09392 37.09716,148.85232 3.60286,11.2838 7.51186,22.46757 11.26779,33.70135 0,0 -12.69586,6.98276 -12.69586,6.98276 l 0,0 C 226.11667,700.78599 214.90784,665.3987 204.6801,629.70996 c -5.54727,-19.35673 -10.66101,-38.83526 -16.09036,-58.22539 -1.44601,-5.16419 -2.94004,-10.31482 -4.41006,-15.47223 0,0 17.57366,-9.40554 17.57366,-9.40554 z"
       inkscape:connector-curvature="0" />
    <path
       style="fill:#000000;fill-opacity:1;fill-rule:nonzero;stroke:none;stroke-width:1px;stroke-linecap:butt;stroke-linejoin:miter;stroke-opacity:1"
       id="path3362"
       d="m 250.85633,740.35414 c -0.96142,20.0098 2.07322,39.93583 4.94646,59.67329 4.63385,26.50436 7.38035,53.23977 9.11214,80.07169 -0.11601,5.49324 2.61196,18.70357 -1.32973,23.52841 -6.01077,7.3575 -22.80968,16.65188 -29.33418,20.52801 -8.30867,4.93609 -16.73891,9.66458 -25.10837,14.49687 -9.58287,5.59036 -19.16573,11.18072 -28.7486,16.77108 0,0 -14.02306,5.39381 -14.02306,5.39381 l 0,0 c 9.30696,-5.48637 18.61391,-10.97274 27.92087,-16.45911 7.94698,-4.65319 15.94497,-9.22032 23.84093,-13.95955 3.10075,-1.8611 22.66403,-13.3323 27.18401,-18.24721 4.886,-5.31289 2.08285,-17.01538 2.49255,-23.2185 -1.20935,-26.91565 -3.72052,-53.74347 -8.23675,-80.32421 -3.09792,-19.45465 -6.50134,-38.94997 -7.57179,-58.64721 0,0 18.85552,-9.60737 18.85552,-9.60737 z"
       inkscape:connector-curvature="0" />
    <path
       style="fill:#000000;fill-opacity:1;fill-rule:nonzero;stroke:none;stroke-width:1px;stroke-linecap:butt;stroke-linejoin:miter;stroke-opacity:1"
       id="path3364"
       d="m 178.80155,554.30565 c -18.08498,-0.056 -36.06714,-1.43684 -54.03165,-3.44125 -12.72323,-1.76138 -25.487614,-3.8928 -37.69294,-8.02571 -6.046398,-2.04741 -10.91558,-4.03652 -15.937537,-7.98432 -1.939611,-1.52474 -3.499912,-3.47827 -5.249868,-5.2174 -3.347312,-5.24101 -8.13885,-12.73382 -6.315295,-19.44298 3.429147,-12.6164 20.079265,-20.16226 29.868468,-26.13475 12.199222,-6.04339 24.094362,-12.74401 36.597672,-18.13018 11.95533,-5.15011 41.09082,-13.35609 53.43033,-16.51495 15.19411,-3.88962 35.66528,-8.31367 51.32947,-10.77847 7.1895,-1.13129 14.44496,-1.79383 21.66744,-2.69074 14.58791,-1.6017 29.31879,-2.35434 43.9556,-0.93456 4.55397,0.44174 10.317,1.28455 14.73317,2.93278 1.61284,0.60196 3.06948,1.5597 4.60422,2.33955 2.07111,1.74311 4.41331,3.09803 5.14458,5.96586 1.94134,7.61339 -5.93039,18.55006 -9.63142,24.4995 -5.77655,7.53816 -7.07672,9.94747 -14.52594,16.4788 -11.18774,9.8092 -24.26867,17.46565 -37.10358,24.85922 -9.43104,5.43278 -18.93011,10.74659 -28.39516,16.11989 -9.46693,5.18353 -18.95062,10.32026 -28.30609,15.70174 -2.1105,1.214 -8.44961,4.84274 -6.33386,3.6379 13.04735,-7.42993 16.44604,-9.63851 8.18727,-4.45825 -13.01974,9.40986 -26.71128,18.05309 -41.56962,24.29463 0,0 16.03623,-12.68105 16.03623,-12.68105 l 0,0 c 9.70462,-4.30789 4.75008,-2.3348 -8.51328,5.839 -1.31429,0.80996 2.72244,-1.46163 4.0305,-2.28163 3.78118,-2.37035 7.26236,-5.22552 10.93151,-7.75715 19.40445,-12.35601 39.90774,-22.89985 60.03735,-33.99595 -5.34182,3.55844 -13.01694,8.58107 9.91105,-5.5596 11.34825,-6.99895 22.56427,-14.3987 31.51744,-24.41722 2.18739,-2.44767 4.00768,-5.20015 6.01152,-7.80023 3.06387,-4.9198 5.34354,-8.14702 7.64946,-13.37797 0.88254,-2.00201 2.53683,-6.16697 2.06947,-8.73696 -0.44009,-2.42003 -2.59558,-3.67253 -4.25733,-5.09752 -1.38887,-0.71899 -2.71027,-1.58691 -4.16662,-2.15698 -4.14068,-1.62081 -9.45287,-2.59146 -13.74782,-3.1292 -13.975,-1.74972 -28.09529,-1.3307 -42.08609,0.007 -7.03705,0.80199 -14.10579,1.36283 -21.11116,2.40596 -15.8626,2.36203 -35.25015,6.46766 -50.63811,10.44446 -40.94665,10.58209 -14.18424,4.5085 -54.03484,17.28747 -2.13841,0.68572 -4.41977,0.79856 -6.62966,1.19785 -8.162155,4.90719 -25.241265,13.10366 -28.746215,23.46063 -2.082103,6.15252 2.43849,13.30687 5.480934,18.14183 1.621632,1.64753 3.062543,3.49499 4.864897,4.94261 4.626066,3.71556 9.560158,5.87776 15.127384,7.86686 11.93974,4.26592 24.48648,6.47329 37.02247,8.06443 4.71764,0.45546 9.42636,1.0154 14.15293,1.36637 13.91426,1.03318 27.87754,0.9495 41.81013,0.43246 0,0 -17.14741,12.45832 -17.14741,12.45832 z"
       inkscape:connector-curvature="0" />
    <path
       style="fill:#000000;fill-opacity:1;fill-rule:nonzero;stroke:none;stroke-width:1px;stroke-linecap:butt;stroke-linejoin:miter;stroke-opacity:1"
       id="path3366"
       d="m 215.48416,588.99018 c 16.88684,3.08067 32.54507,11.5569 46.87867,20.70144 5.3478,3.41179 10.43708,7.21279 15.65563,10.81919 7.0469,5.29458 22.21162,16.57361 29.27391,22.31083 8.4387,6.85537 15.5163,11.46676 18.6955,22.61854 3.66444,12.85383 2.1288,34.71704 1.90385,47.11043 -1.71027,32.8955 -5.15682,65.66412 -8.3034,98.44343 0,0 -15.58811,7.73008 -15.58811,7.73008 l 0,0 c 4.01269,-32.81109 8.2892,-65.65274 9.27792,-98.73285 -0.17506,-13.72956 0.80625,-31.56581 -3.43087,-45.25899 -3.32996,-10.76149 -9.58808,-15.34277 -17.79516,-22.32056 -9.52186,-8.09563 -18.93939,-14.8684 -28.9643,-22.35733 -5.27743,-3.50933 -10.40927,-7.24811 -15.83228,-10.528 -14.75254,-8.9225 -31.41044,-17.14044 -48.91877,-18.07788 0,0 17.14741,-12.45833 17.14741,-12.45833 z"
       inkscape:connector-curvature="0" />
    <path
       style="fill:#000000;fill-opacity:1;fill-rule:nonzero;stroke:none;stroke-width:1px;stroke-linecap:butt;stroke-linejoin:miter;stroke-opacity:1"
       id="path3368"
       d="m 207.34697,597.4048 c -5.82468,17.10483 -11.5602,34.23688 -17.44624,51.32192 -3.71865,12.33663 -7.7762,24.50716 -13.08897,36.24982 -0.17393,0.35465 -2.589,5.14772 -2.71622,5.8639 -0.94516,5.32048 1.5621,15.41443 2.27424,18.58827 3.44641,15.3599 7.54713,27.79302 12.14198,42.96195 10.27346,29.24261 5.06312,15.06126 15.57182,42.56577 0,0 -15.0628,8.36059 -15.0628,8.36059 l 0,0 c -9.98295,-27.81958 -4.90606,-13.5365 -15.21703,-42.85408 -3.75587,-11.32903 -10.12431,-30.42079 -13.87656,-42.16145 -0.75147,-2.35133 -5.1312,-13.63625 -4.76374,-18.74852 0.0783,-1.08893 2.51852,-5.32611 2.91006,-6.04826 1.12427,-2.28417 3.20254,-6.45537 4.17438,-8.66551 3.97407,-9.03783 6.67303,-18.56261 9.99013,-27.845 5.86321,-16.71745 11.78578,-33.42497 16.19081,-50.6042 0,0 18.91814,-8.9852 18.91814,-8.9852 z"
       inkscape:connector-curvature="0" />
    <path
       style="fill:#000000;fill-opacity:1;fill-rule:nonzero;stroke:none;stroke-width:1px;stroke-linecap:butt;stroke-linejoin:miter;stroke-opacity:1"
       id="path3372"
       d="m 185.48416,948.99018 c 4.95624,0.75867 9.97118,1.05016 14.97521,1.28565 0.72159,0.0253 1.44317,0.0506 2.16476,0.076 0,0 -17.05216,12.27081 -17.05216,12.27081 l 0,0 c -0.714,-0.0401 -1.428,-0.0803 -2.142,-0.1204 -5.03251,-0.33216 -10.05489,-0.85443 -15.09322,-1.05369 0,0 17.14741,-12.45833 17.14741,-12.45833 z"
       inkscape:connector-curvature="0" />
    <path
       style="fill:#000000;fill-opacity:1;fill-rule:nonzero;stroke:none;stroke-width:1px;stroke-linecap:butt;stroke-linejoin:miter;stroke-opacity:1"
       id="path3359"
       d="m 629.62912,540.35603 c -17.75305,25.69145 -31.94221,53.51002 -43.7581,82.37787 -3.33725,8.15336 -6.3101,16.45115 -9.46515,24.67672 -15.17133,39.94727 -24.17295,81.72595 -31.58107,123.68788 -2.84129,18.0516 -1.32269,7.89797 -3.5386,23.64987 -0.52837,3.7559 -1.27545,10.21394 -2.44141,14.02932 -1.93628,6.33611 -4.3845,10.42385 -7.43051,16.45268 -4.7614,9.46101 -13.70157,19.66768 -16.11349,30.13838 -1.83252,7.95538 -1.09311,17.59627 0.79357,25.3971 1.12786,4.66333 3.12596,9.07211 4.68893,13.60816 6.62931,13.91144 16.10108,26.04278 26.63975,37.18478 3.05629,3.23125 6.36261,6.21649 9.54391,9.32473 0,0 -16.05045,9.83284 -16.05045,9.83284 l 0,0 c -13.93025,-14.33143 -27.56493,-29.17626 -36.40105,-47.34337 -1.67648,-4.61024 -3.77492,-9.08824 -5.02944,-13.83071 -1.92158,-7.26415 -3.25724,-18.47114 -1.74334,-26.06419 2.07818,-10.42321 11.39424,-20.74502 15.92548,-30.2126 2.94114,-6.03748 4.95533,-9.56862 6.99791,-15.7551 1.42105,-4.30402 2.39644,-9.9011 3.2265,-14.25114 5.73778,-30.06949 -2.47827,12.17964 4.64055,-24.24108 3.88849,-19.16572 7.62218,-38.41067 12.23882,-57.41795 4.08606,-16.82283 7.07034,-27.09983 12.56194,-43.61251 2.64443,-7.95153 5.54255,-15.81643 8.31382,-23.72465 9.09647,-23.83104 18.24436,-47.53517 29.60551,-70.40796 6.33674,-12.75741 9.11715,-16.89372 15.61395,-28.4201 1.23599,-2.19286 2.41785,-4.41579 3.62677,-6.62368 0,0 19.1352,-8.45529 19.1352,-8.45529 z"
       inkscape:connector-curvature="0" />
    <path
       style="fill:#000000;fill-opacity:1;fill-rule:nonzero;stroke:none;stroke-width:1px;stroke-linecap:butt;stroke-linejoin:miter;stroke-opacity:1"
       id="path3361"
       d="m 551.95419,757.42815 c 12.28079,16.82206 23.03398,34.63778 32.93198,52.9423 8.36511,16.22667 15.10944,33.20391 19.02421,51.04278 1.58715,4.9977 0.44316,11.11031 3.51795,15.66727 8.36424,12.39613 27.29177,22.1152 39.50459,29.61172 0,0 -14.28517,9.25337 -14.28517,9.25337 l 0,0 c -6.61105,-3.78684 -13.31339,-7.4186 -19.83316,-11.36052 -8.06589,-4.87673 -17.30743,-9.7529 -23.21336,-17.56485 -3.451,-4.56474 -1.98193,-10.97125 -3.40519,-16.11929 -3.48446,-17.79232 -9.60582,-34.8878 -17.82542,-51.06111 -9.77355,-18.2562 -20.36303,-36.26879 -34.3918,-51.6413 0,0 17.97537,-10.77037 17.97537,-10.77037 z"
       inkscape:connector-curvature="0" />
    <path
       style="fill:#000000;fill-opacity:1;fill-rule:nonzero;stroke:none;stroke-width:1px;stroke-linecap:butt;stroke-linejoin:miter;stroke-opacity:1"
       id="path3365"
       d="m 565.60067,629.75313 c 4.80655,-2.73711 9.48397,-5.71457 14.41965,-8.21132 1.88737,-0.95475 -3.50607,2.36707 -5.24547,3.57048 -2.31867,1.60418 -4.59072,3.27585 -6.92846,4.8521 -14.02202,9.45448 -28.83075,17.62386 -43.90138,25.26519 -8.61223,4.3683 -17.54808,8.02229 -26.37287,11.91699 -2.11236,0.93226 -8.23477,4.15005 -6.28272,2.9169 16.05329,-10.14123 14.50513,-9.58611 8.58314,-1.56611 -0.92631,2.41069 -2.06577,4.74997 -2.77894,7.23208 -3.13121,10.89797 -3.37756,22.58046 -3.55994,33.81628 -0.1742,10.73135 0.0758,17.59267 0.30927,28.2863 0.15392,4.13999 0.30784,8.27998 0.46177,12.41997 0,0 -16.89902,8.6677 -16.89902,8.6677 l 0,0 c -0.0697,-4.18786 -0.13935,-8.37571 -0.20903,-12.56357 -0.0953,-5.13247 -0.44851,-23.23643 -0.47398,-28.28693 -0.0569,-11.27305 -0.21347,-22.83791 2.34696,-33.90453 0.59651,-2.57822 1.58561,-5.04956 2.37841,-7.57433 1.12799,-1.99632 1.54388,-4.62083 3.38395,-5.98895 16.52392,-12.28579 36.03534,-18.29309 54.16974,-27.44054 3.24134,-1.67951 6.22172,-4.00848 9.724,-5.03854 2.7315,-0.80337 -9.09966,6.59252 -7.35565,4.34198 1.95811,-2.52681 5.39756,-3.42866 8.04094,-5.22631 10.83674,-7.36964 19.80296,-15.74149 32.65746,-20.55787 0,0 -16.46783,13.07303 -16.46783,13.07303 z"
       inkscape:connector-curvature="0" />
    <path
       style="fill:#000000;fill-opacity:1;fill-rule:nonzero;stroke:none;stroke-width:1px;stroke-linecap:butt;stroke-linejoin:miter;stroke-opacity:1"
       id="path3367"
       d="m 592.85055,624.35811 c 0.70157,1.56598 1.32101,3.1714 2.1047,4.69793 3.92627,7.64789 6.80874,12.01942 11.76352,19.56 9.62696,14.65106 19.81549,28.90618 29.98501,43.1814 9.35669,13.23813 19.33967,25.83532 16.19502,43.11902 -1.39478,7.66601 -4.97298,14.19717 -8.19971,21.15757 -6.29905,11.80478 -3.19731,6.18482 -9.26814,16.88031 0,0 -17.99079,7.99862 -17.99079,7.99862 l 0,0 c 6.45853,-10.74471 3.18468,-5.1122 9.78065,-16.92121 4.54916,-9.51747 9.74731,-19.084 9.0379,-30.04889 -0.81438,-12.58741 -8.59348,-22.83435 -15.20084,-32.97009 -8.33471,-12.13196 -11.26755,-16.55412 -20.05924,-28.69784 -8.95226,-12.36551 -18.57791,-24.31781 -26.42608,-37.44418 0,0 18.278,-10.51264 18.278,-10.51264 z"
       inkscape:connector-curvature="0" />
    <path
       style="fill:#000000;fill-opacity:1;fill-rule:nonzero;stroke:none;stroke-width:1px;stroke-linecap:butt;stroke-linejoin:miter;stroke-opacity:1"
       id="path3369"
       d="m 558.63562,946.47597 c -5.77617,4.1567 -11.24741,8.72509 -16.65116,13.3507 -2.67946,2.53567 -5.22417,5.21168 -7.66063,7.98018 0,0 -19.32498,8.18731 -19.32498,8.18731 l 0,0 c 2.43486,-2.9553 5.19382,-5.60232 7.80988,-8.3963 5.30247,-4.55313 10.67632,-9.02744 16.1633,-13.35488 0,0 19.66359,-7.76701 19.66359,-7.76701 z"
       inkscape:connector-curvature="0" />
    <path
       style="fill:#000000;fill-opacity:1;fill-rule:nonzero;stroke:none;stroke-width:1px;stroke-linecap:butt;stroke-linejoin:miter;stroke-opacity:1"
       id="path3371"
       d="m 648.51188,916.77499 c -4.98085,5.48948 -10.18676,10.75725 -15.72977,15.67764 0,0 -19.18027,7.79975 -19.18027,7.79975 l 0,0 c 5.48523,-4.76698 10.76686,-9.74986 15.49393,-15.28313 0,0 19.41611,-8.19426 19.41611,-8.19426 z"
       inkscape:connector-curvature="0" />
    <path
       style="fill:#000000;fill-opacity:1;fill-rule:nonzero;stroke:none;stroke-width:1px;stroke-linecap:butt;stroke-linejoin:miter;stroke-opacity:1"
       id="path3349"
       d="m 684.20103,517.71464 c -13.04106,-0.7737 -25.27568,-5.21634 -36.60991,-11.56281 -3.67048,-2.05525 -7.17165,-4.39926 -10.75748,-6.59889 -21.17983,-14.14433 -41.30496,-29.81007 -59.95071,-47.15401 -4.33815,-4.35604 -8.77557,-8.66163 -12.58677,-13.5035 -0.52255,-0.66386 -3.21795,-4.20202 -3.39651,-5.41907 -0.15723,-1.07161 0.29657,-2.14578 0.44486,-3.21867 8.83811,-9.55511 3.81936,-4.78815 26.23635,-16.88028 6.41426,-3.45997 13.97216,-5.07196 20.94955,-6.61352 14.25127,-3.14863 21.19767,-4.02514 35.9002,-6.38024 37.09309,-5.46033 74.30593,-9.9411 111.67121,-13.01933 21.40282,-1.77905 43.05816,-2.0375 64.26446,1.82212 10.88883,1.98181 16.26509,3.82539 26.59869,6.85368 4.42025,1.82479 12.55294,3.43752 13.96395,9.70069 1.38303,6.13898 -3.77354,16.21187 -6.26957,20.79469 -5.37224,9.86369 -9.46697,14.38501 -16.37374,23.30345 -9.44049,11.06743 -20.51848,20.57692 -32.34994,28.99317 -14.01828,9.97185 -29.73464,18.02842 -44.62765,26.41292 -7.40782,3.64164 -15.1323,6.73171 -23.14585,8.77222 -9.41797,2.39813 -19.16491,3.54759 -28.75618,4.99958 -13.25074,1.90282 -26.55339,3.39679 -39.91803,4.17198 -4.5897,0.17895 -2.35321,0.192 -6.70958,-0.009 0,0 16.88846,-12.17928 16.88846,-12.17928 l 0,0 c 4.1779,0.0999 2.02576,0.10139 6.45637,-0.0243 13.00719,-0.53592 25.97445,-1.79062 38.86107,-3.64204 17.75165,-2.73589 35.56923,-5.7167 51.58463,-14.36415 -2.76416,1.7147 -11.38357,6.15702 -8.29249,5.1441 3.52267,-1.15435 6.45575,-3.64841 9.62022,-5.57918 15.97939,-9.74966 30.96644,-21.19874 43.30556,-35.36971 8.05025,-10.29357 16.49324,-20.56291 20.84206,-33.12271 0.89674,-2.58988 2.05058,-5.35044 1.63083,-8.05884 -0.90188,-5.81939 -8.56421,-7.50013 -12.40123,-9.23581 -10.6323,-3.35379 -14.49789,-4.90812 -25.89966,-6.97978 -21.07059,-3.82845 -42.58698,-3.19757 -63.843,-1.63818 -37.21414,2.89436 -74.28092,7.30081 -111.19372,12.85352 -16.73323,2.89747 -33.85852,5.38244 -49.92072,11.17447 -2.92848,1.05601 -10.72944,6.05217 -8.4911,3.88861 3.24382,-3.13544 7.70076,-4.70583 11.63002,-6.92266 1.15321,-0.65062 -2.19613,1.47981 -3.29419,2.21971 -0.3879,0.60927 -1.1297,1.10635 -1.16369,1.82783 -0.0481,1.02164 2.55265,4.81571 2.82062,5.19823 3.45357,4.92997 7.58172,9.33963 11.63597,13.76803 17.94109,17.82819 37.75974,33.6545 59.20385,47.10534 3.63339,2.10206 7.18113,4.35967 10.90018,6.30617 11.67156,6.10874 24.35293,10.1666 37.63611,9.74678 0,0 -17.0935,12.41915 -17.0935,12.41915 z"
       inkscape:connector-curvature="0" />
    <path
       style="fill:#000000;fill-opacity:1;fill-rule:nonzero;stroke:none;stroke-width:1px;stroke-linecap:butt;stroke-linejoin:miter;stroke-opacity:1"
       id="path3353"
       d="m 264.34526,726.52086 c 13.30355,-13.17544 30.009,-22.11989 45.19856,-32.84443 5.28861,-3.73401 10.42841,-7.67445 15.64261,-11.51167 5.32433,-4.22759 10.67684,-8.41992 15.97298,-12.68277 19.89912,-16.01675 12.16971,-10.24542 32.18065,-25.93542 14.17345,-11.11299 28.65605,-21.75244 43.27397,-32.26766 15.26582,-11.93834 31.47596,-21.98813 48.625,-31.09986 3.8897,-2.0667 8.04099,-3.60473 12.13365,-5.23296 11.17461,-4.44572 19.80591,-7.18292 31.26398,-11.05232 15.77261,-5.28695 31.71511,-10.01724 47.80307,-14.23652 0,0 -15.68353,12.00075 -15.68353,12.00075 l 0,0 c -15.63023,3.81897 -31.11251,8.20261 -46.37106,13.32513 -12.82472,4.436 -19.3518,6.45934 -31.76949,11.65501 -4.1421,1.73308 -7.96655,4.26757 -12.26146,5.57692 -2.25991,0.68895 7.93686,-5.11283 6.05472,-3.68474 -7.41899,5.62921 -15.88163,9.80556 -22.86153,16.05974 -14.88648,10.56577 -29.64078,21.24752 -44.04081,32.47461 -17.22174,13.42706 -15.14519,12.12646 -32.13392,25.91222 -5.23296,4.24636 -10.50623,8.44279 -15.75935,12.66419 -5.09081,3.81524 -10.1066,7.73269 -15.27242,11.44573 -14.27428,10.25994 -30.03882,18.7543 -42.57951,31.23978 0,0 -19.41611,8.19427 -19.41611,8.19427 z"
       inkscape:connector-curvature="0" />
    <path
       style="fill:#000000;fill-opacity:1;fill-rule:nonzero;stroke:none;stroke-width:1px;stroke-linecap:butt;stroke-linejoin:miter;stroke-opacity:1"
       id="path3351"
       d="m 61.891311,484.48665 c -0.409343,-4.17491 -1.94374,-8.08766 -3.028178,-12.10669 -1.783036,-5.96558 0.288469,-9.36434 3.699272,-14.29178 4.134627,-5.22902 9.366837,-9.46881 15.106596,-12.83246 20.979594,-12.29461 14.378999,-9.25208 25.712959,-14.17226 4.97732,-1.92958 9.7599,-4.60722 15.00031,-5.77008 3.78086,-0.7053 7.64159,-0.60069 11.46926,-0.60645 3.70135,-0.002 7.4027,0.005 11.10405,0.008 2.92406,-0.2755 5.33104,0.31188 7.54892,2.23871 2.01589,1.59521 3.20598,3.64487 4.45643,5.8283 1.07671,2.16391 2.09138,4.30993 3.90232,5.95223 0.32528,0.19637 0.65056,0.39275 0.97584,0.58912 0,0 -17.85211,11.38855 -17.85211,11.38855 l 0,0 c -0.38696,-0.29581 -0.77391,-0.59162 -1.16087,-0.88744 -1.83683,-1.88132 -3.11404,-4.08544 -4.23775,-6.45387 -1.10271,-1.96154 -2.14817,-3.76117 -4.04722,-5.10142 -2.04489,-1.34627 -4.29471,-1.20917 -6.67566,-1.14809 -3.66557,-0.0264 -7.33119,-0.0729 -10.99691,-0.055 -3.75133,0.054 -7.5474,0.096 -11.19798,1.06766 -4.930786,1.55323 -9.648496,3.74817 -14.409539,5.7419 -7.928191,3.7342 -7.410104,3.63569 9.468585,-6.03404 1.444852,-0.82775 -2.846033,1.73065 -4.23955,2.64218 -2.928706,1.91571 -5.278311,3.52089 -7.817483,5.94567 -1.136798,1.08558 -2.126837,2.31512 -3.190255,3.47268 -3.555205,4.63125 -5.460501,6.64241 -4.084398,12.44029 0.998646,4.12364 2.43205,8.12791 3.226118,12.30378 0,0 -18.732757,9.84013 -18.732757,9.84013 z"
       inkscape:connector-curvature="0" />
    <path
       style="fill:#000000;fill-opacity:1;fill-rule:nonzero;stroke:none;stroke-width:1px;stroke-linecap:butt;stroke-linejoin:miter;stroke-opacity:1"
       id="path3354"
       d="m 199.50031,435.67536 c 3.00091,-3.62576 5.99761,-7.2553 8.99884,-10.8811 2.36732,-2.99082 4.35415,-6.26935 6.40234,-9.48431 5.5327,-8.71737 11.63303,-9.77562 23.02189,-16.06637 0.70801,-0.39108 1.57926,-0.3514 2.36361,-0.54893 0.81728,-0.20582 1.62699,-0.44061 2.44048,-0.66091 4.43273,-1.06412 8.9615,-1.57636 13.50522,-1.81925 3.13615,-0.12328 6.27581,-0.10994 9.41363,-0.0817 4.46332,-0.1776 8.86737,0.3207 13.29363,0.79641 3.93601,0.56909 6.92949,2.79728 9.57831,5.60898 2.40817,2.50659 4.03451,5.59256 5.90788,8.48578 1.34119,1.68739 2.93765,3.13552 4.37482,4.73715 0,0 -18.05293,10.93734 -18.05293,10.93734 l 0,0 c -1.5202,-1.67059 -3.2127,-3.188 -4.53531,-5.03108 -1.80875,-2.77571 -3.3537,-5.7599 -5.70513,-8.13788 -2.42496,-2.45337 -5.16073,-4.12051 -8.67997,-4.44669 -4.41449,-0.47954 -8.82336,-0.73244 -13.26676,-0.543 -3.10099,0.0126 -6.20458,-0.0149 -9.30183,0.16679 -4.42571,0.30884 -8.84187,0.87302 -13.11761,2.10245 -0.80609,0.24561 -1.62624,0.4491 -2.41827,0.73684 -0.73686,0.26769 -2.82736,1.34082 -2.16154,0.92695 5.33771,-3.31783 10.79806,-6.43415 16.19709,-9.65123 -0.44721,0.36076 -0.94257,0.66888 -1.34164,1.08226 -0.84341,0.87367 -1.33574,2.0484 -2.27523,2.84517 -1.81906,3.43807 -4.24015,6.58827 -6.34816,9.85216 -2.98853,3.53285 -5.95166,7.08472 -8.78407,10.73909 0,0 -19.50929,8.33512 -19.50929,8.33512 z"
       inkscape:connector-curvature="0" />
    <path
       style="fill:#000000;fill-opacity:1;fill-rule:nonzero;stroke:none;stroke-width:1px;stroke-linecap:butt;stroke-linejoin:miter;stroke-opacity:1"
       id="path3356"
       d="m 79.635951,466.99147 c 8.697818,-8.53135 19.589591,-14.77245 30.852799,-19.3174 5.68414,-2.30256 11.51423,-4.21125 17.25156,-6.36181 3.56934,-1.45842 7.0488,-2.78304 10.87431,-3.34925 0.46313,-0.0753 0.92627,-0.15054 1.3894,-0.22582 0,0 -16.91725,12.7143 -16.91725,12.7143 l 0,0 c -0.43516,0.0713 -0.87032,0.14269 -1.30548,0.21403 -3.64515,0.80289 -7.02794,2.33278 -10.55111,3.5368 -5.73396,1.98 -11.438904,4.04295 -17.04,6.3786 -7.464858,3.56981 -7.717291,3.79204 12.0964,-7.41334 0.81124,-0.45878 -1.53121,1.0631 -2.28671,1.60883 -1.70636,1.2326 -3.3929,2.51048 -4.784146,4.10486 0,0 -19.579773,8.1102 -19.579773,8.1102 z"
       inkscape:connector-curvature="0" />
    <path
       style="fill:#000000;fill-opacity:1;fill-rule:nonzero;stroke:none;stroke-width:1px;stroke-linecap:butt;stroke-linejoin:miter;stroke-opacity:1"
       id="path3358"
       d="m 239.76988,423.2759 c 4.52121,0.0968 9.04416,0.0791 13.56612,0.0616 3.5438,-0.0187 7.0876,-0.0349 10.63144,-0.043 2.2369,0.19636 4.30569,-0.13776 6.44723,-0.74098 0,0 -16.76552,12.74778 -16.76552,12.74778 l 0,0 c -2.25138,0.37486 -4.49306,0.5129 -6.7779,0.41431 -3.50436,-0.008 -7.00868,-0.0242 -10.51299,-0.043 -4.57854,-0.0178 -9.15796,-0.0332 -13.73579,0.0616 0,0 17.14741,-12.45833 17.14741,-12.45833 z"
       inkscape:connector-curvature="0" />
    <path
       style="fill:#000000;fill-opacity:1;fill-rule:nonzero;stroke:none;stroke-width:1px;stroke-linecap:butt;stroke-linejoin:miter;stroke-opacity:1"
       id="path3360"
       d="m 191.79262,506.30437 c -4.25303,3.68165 -8.81839,6.97092 -12.5671,11.18803 -2.08982,2.94406 -3.30995,6.36383 -1.1151,9.52352 1.46104,2.28445 3.63444,2.95512 6.17681,3.29501 4.13008,0.17251 8.18203,-1.56381 12.03651,-2.87937 6.00159,-1.84935 11.62191,-4.62871 17.12461,-7.60184 -5.48312,3.13318 -10.92632,6.33726 -16.44934,9.39955 -0.50597,0.28053 0.94734,-0.66771 1.38446,-1.04669 1.96663,-1.70508 3.33067,-3.81077 4.51243,-6.09652 1.14086,-3.04041 1.05702,-6.50635 -1.98347,-8.23348 -3.27641,-0.90105 -6.70456,-1.35654 -10.07632,-1.8673 0,0 17.25905,-12.12015 17.25905,-12.12015 l 0,0 c 3.58929,0.62079 7.39993,0.8869 10.64164,2.6483 3.49412,2.85527 4.27548,6.46317 3.28007,10.82449 -4.22899,10.88927 -14.33697,14.11063 -24.93147,19.64723 -5.51552,2.88022 -11.2687,5.2731 -17.18106,7.21723 -4.15032,1.40202 -8.54383,3.07889 -12.98204,2.21785 -2.93744,-0.74256 -5.38378,-2.09392 -7.04987,-4.72627 -2.67251,-4.18561 -2.16359,-7.71466 0.11342,-12.0337 3.46939,-4.37829 7.82274,-7.84492 12.227,-11.24568 0,0 19.57977,-8.11021 19.57977,-8.11021 z"
       inkscape:connector-curvature="0" />
    <path
       style="fill:#000000;fill-opacity:1;fill-rule:nonzero;stroke:none;stroke-width:1px;stroke-linecap:butt;stroke-linejoin:miter;stroke-opacity:1"
       id="path3363"
       d="m 120.8499,495.02414 c -5.4006,3.11 -10.78283,6.25213 -16.2018,9.33 -0.85316,0.48457 1.67486,-1.02275 2.50281,-1.54925 4.54312,-2.88901 0.76378,-0.53332 5.41638,-3.66719 7.12714,-4.80066 19.38495,-11.38794 23.7927,-13.92918 6.31279,-3.36658 13.0592,-5.85649 19.74086,-8.38704 4.40261,-2.40345 8.99015,-3.57204 13.74079,-4.89984 5.41647,-1.56184 5.85593,0.30432 7.91621,4.88652 1.11971,3.24506 3.50708,5.95406 1.58691,9.31183 -7.0485,7.50655 -17.53959,9.92443 -26.12065,15.05141 5.44409,-3.12754 10.86976,-6.28736 16.33226,-9.38264 0.63378,-0.35913 -1.22551,0.78797 -1.84393,1.17296 -2.0048,1.24806 -4.01818,2.52623 -6.05854,3.71326 -6.77925,3.94402 -13.58523,7.84188 -20.37784,11.76281 -0.8474,0.48328 -3.38781,1.93619 -2.54219,1.44982 5.13545,-2.95369 10.26253,-5.92206 15.41168,-8.85181 0.82155,-0.46744 -1.61018,0.99094 -2.4282,1.46452 -9.20434,5.3287 -15.81988,9.37884 -24.35455,13.63292 36.59593,-22.2047 5.0067,-0.57578 -4.83029,2.38552 0,0 16.62766,-13.03754 16.62766,-13.03754 l 0,0 c 16.05291,-7.70665 -61.738005,34.45225 4.60714,-2.45853 1.35499,-0.66508 5.34226,-2.80785 4.0424,-2.04057 -5.16698,3.04997 -10.3676,6.04272 -15.56657,9.03785 -0.81945,0.47209 1.6107,-0.99186 2.42755,-1.46843 17.48768,-10.20296 13.93952,-8.17532 22.83337,-13.23162 -5.12099,2.97507 -10.22509,5.97939 -15.36296,8.9252 -0.7342,0.42095 1.43694,-0.8946 2.15044,-1.34976 6.27805,-4.00499 -2.11655,1.24449 3.84423,-2.31712 0.61467,-0.36727 1.20479,-0.77414 1.80719,-1.16121 6.55104,-3.83347 13.10207,-7.66693 19.65311,-11.50039 1.55513,-0.8634 3.14564,-1.56316 4.73511,-2.35306 0.42573,-0.21157 1.6633,-0.92138 1.25278,-0.68164 -16.98999,9.92192 -23.00581,12.1934 -15.81913,9.40203 0.11655,-0.0635 1.40111,-0.71895 1.5359,-0.93966 0.87166,-1.42727 -1.59661,-4.68765 -1.85148,-6.1783 -2.00138,-4.13315 -1.8669,-3.57891 -6.30805,-2.43028 -4.61576,1.18163 -8.99031,2.96169 -13.34979,4.87845 -6.63284,2.60648 -13.36868,5.05441 -19.56067,8.62808 4.88223,-2.84123 9.75759,-5.6943 14.64668,-8.52369 1.00505,-0.58164 -2.02686,1.13817 -2.99437,1.78033 -0.93285,0.61915 -1.7864,1.35076 -2.69944,1.99878 -7.85254,5.57328 -16.6682,9.76992 -24.78402,14.83554 0,0 16.45031,-13.30908 16.45031,-13.30908 z"
       inkscape:connector-curvature="0" />
    <path
       style="fill:#000000;fill-opacity:1;fill-rule:nonzero;stroke:none;stroke-width:1px;stroke-linecap:butt;stroke-linejoin:miter;stroke-opacity:1"
       id="path3370"
       d="m 212.8011,462.77055 c 9.12947,-1.4408 18.025,-3.98088 27.00186,-6.11842 8.21013,-1.96703 16.52794,-3.33821 24.85864,-4.66994 5.2646,-0.60022 10.93453,-3.26199 16.1176,-1.17745 2.74393,1.98468 2.91209,5.13997 3.03026,8.24814 -0.26353,2.5231 0.73137,5.72448 -0.68424,8.03668 -0.29791,0.48659 -0.77835,0.83443 -1.16752,1.25164 -12.31981,8.14114 -14.69343,10.71852 -24.98512,11.42869 -2.52766,0.17442 -4.81408,0.38699 -7.28405,0.97456 -3.33025,0.74871 -6.60603,1.81204 -9.70112,3.25711 -2.67821,1.89958 -5.89447,2.43922 -9.07773,2.85667 -3.00621,0.7793 -6.17026,1.40578 -8.93791,2.86193 -2.34155,1.22149 -4.95299,1.47246 -7.54256,1.64037 -3.21381,-0.12548 -6.33443,0.65741 -9.50425,1.06435 -1.99993,0.24118 -4.0128,0.32363 -6.02437,0.3914 0,0 17.0502,-12.5042 17.0502,-12.5042 l 0,0 c 1.9694,-0.10976 3.93841,-0.24544 5.89139,-0.53389 3.18806,-0.46512 6.36489,-0.91878 9.5898,-1.03087 2.50353,-0.34068 4.88053,-1.00837 7.15119,-2.14222 3.01857,-0.99187 6.04828,-1.95901 9.20177,-2.43193 3.13615,-0.62339 6.00439,-1.74323 8.81489,-3.26609 3.20789,-1.16511 6.42233,-2.28026 9.81026,-2.81866 3.24535,-0.51913 6.56197,-0.54757 9.78819,-1.16375 7.31761,-1.3976 11.71504,-6.17147 -13.91555,9.10311 0.59578,-0.1945 2.00606,-0.49609 2.42737,-1.16802 0.88734,-1.41518 0.006,-4.5448 0.31628,-6.16351 -0.0464,-2.01334 0.32621,-4.88154 -1.73014,-5.99271 -5.04212,-1.03887 -10.1969,1.28417 -15.19119,1.71275 -8.22617,1.31081 -16.43601,2.69674 -24.54386,4.63206 -9.17754,2.22817 -18.32827,4.56131 -27.57213,6.50771 0,0 16.81204,-12.78551 16.81204,-12.78551 z"
       inkscape:connector-curvature="0" />
    <path
       style="fill:#000000;fill-opacity:1;fill-rule:nonzero;stroke:none;stroke-width:1px;stroke-linecap:butt;stroke-linejoin:miter;stroke-opacity:1"
       id="path3373"
       d="m 691.21046,486.89795 c 0.59583,-0.43636 1.15237,-0.93218 1.78749,-1.30907 6.63493,-3.93716 13.28947,-7.84331 20.01293,-11.62731 1.49992,-0.84415 3.19312,-1.28986 4.75391,-2.01532 2.14227,-0.99573 2.30173,-1.14034 4.32636,-2.29196 0.65693,-0.34514 2.61312,-1.40699 1.97078,-1.03541 -5.4376,3.14562 -10.89328,6.26003 -16.35799,9.35831 -0.49115,0.27847 0.94721,-0.61568 1.43607,-0.89815 7.60825,-4.39613 13.9145,-10.03197 22.2133,-11.96982 4.41542,-0.38732 8.74064,-1.41866 13.09457,-2.21793 4.80588,-0.88366 9.71002,-0.86462 14.57798,-0.93123 5.1785,-0.0264 10.3571,-0.0708 15.5357,-0.0692 0.69809,-10e-4 1.4339,0.22314 2.09428,-0.003 0.86557,-0.29667 3.11968,-1.90373 2.29755,-1.50208 -4.79785,2.34402 -9.16959,5.66393 -14.24058,7.33692 -1.64703,0.54338 2.45774,-2.45724 3.54516,-3.80834 3.44399,-4.2791 3.36107,-5.01939 5.71768,-10.20572 0.64247,-2.03415 1.28493,-4.06829 1.9274,-6.10244 0,0 18.23097,-8.6229 18.23097,-8.6229 l 0,0 c -0.60889,2.09296 -1.21777,4.18592 -1.82665,6.27888 -0.76529,2.01063 -1.35112,4.09908 -2.29587,6.03188 -5.57089,11.39707 -16.43171,15.57391 -27.40125,22.06351 -0.88726,0.52491 -1.94794,0.70783 -2.96367,0.884 -0.68161,0.11822 -1.38356,-0.007 -2.07534,-0.01 -5.1378,-0.013 -10.27617,-0.0798 -15.41344,0.0356 -4.83656,0.12692 -9.68817,0.30717 -14.44716,1.26101 -4.36894,0.82216 -8.76164,1.55981 -13.09837,2.52255 -6.59732,2.56013 -16.32828,9.05706 14.19892,-8.58862 0.5003,-0.28919 -0.98148,0.61056 -1.48071,0.9016 -19.48982,11.36202 -13.02806,7.8936 -21.56707,12.43616 -2.22381,1.13863 -4.4982,2.12275 -6.75212,3.19568 -0.77203,0.36751 -3.02487,1.59276 -2.29018,1.15536 33.50704,-19.94853 19.1858,-11.25642 14.11901,-8.17588 0,0 -19.62966,7.92315 -19.62966,7.92315 z"
       inkscape:connector-curvature="0" />
    <path
       style="fill:#000000;fill-opacity:1;fill-rule:nonzero;stroke:none;stroke-width:1px;stroke-linecap:butt;stroke-linejoin:miter;stroke-opacity:1"
       id="path3375"
       d="m 701.10825,418.69899 c 8.32071,-1.20406 16.66433,-2.2768 24.95028,-3.74033 7.4179,-1.13407 14.75677,-2.72037 22.1838,-3.79093 3.80725,-0.54836 7.6495,-0.71126 11.49051,-0.75964 0.52191,0.47618 1.28266,-0.30627 1.84334,-0.0543 1.3578,0.61031 1.45103,2.25446 0.76437,3.32079 -1.20849,2.31348 -1.23542,5.01504 -1.39557,7.56324 -0.27958,3.14972 -0.10445,6.22864 0.45986,9.32629 0.27293,1.2773 0.83729,2.47689 1.02061,3.77636 1.19311,8.45744 -18.875,13.47279 -19.39414,13.77969 -5.14441,0.39933 -10.29344,0.74296 -15.43339,1.26846 -8.56911,0.98437 -16.96433,2.92467 -25.26654,5.20679 -6.32433,1.68048 -8.28386,0.38444 -12.47027,-4.10218 -2.40434,-3.113 -4.30467,-6.54913 -6.29664,-9.92949 -1.05264,-1.7697 -2.24704,-3.43286 -3.4098,-5.12881 0,0 18.24443,-10.7084 18.24443,-10.7084 l 0,0 c 1.16738,1.74643 2.3407,3.48094 3.43393,5.27568 1.88733,3.24793 3.60355,6.61044 5.98101,9.54227 4.09836,4.15925 5.23493,3.75701 10.96587,2.43338 8.35514,-2.15333 16.81641,-3.86317 25.38859,-4.90089 4.60158,-0.51503 3.173,-0.37418 7.36328,-0.77811 2.22355,-0.21434 4.62876,-0.21859 6.79082,-0.85675 0.44265,-0.13065 0.85007,-0.35974 1.2751,-0.53962 -5.65495,3.42036 -11.36115,6.75737 -16.96485,10.26107 -0.23968,0.14986 0.61027,0.005 0.83023,-0.17293 0.19141,-0.15451 0.22878,-0.45038 0.24593,-0.69577 0.0924,-1.32244 -0.75217,-2.52725 -0.98813,-3.7847 -0.58734,-3.25409 -0.90281,-6.46745 -0.60741,-9.78335 0.0753,-2.75939 0.12321,-5.57357 0.83603,-8.25558 0.11751,-0.32458 0.3146,-1.05869 0.59025,-0.8509 0.57971,0.437 0.91891,1.21179 0.80483,1.26366 -0.51138,0.23251 -1.2165,-0.51976 -1.68507,-0.0262 -3.72457,0.0824 -7.44699,0.29479 -11.13768,0.82931 -7.2832,1.05926 -14.51209,2.4683 -21.79062,3.56125 -8.52624,1.40592 -17.09361,2.56837 -25.58997,4.14959 0,0 16.96701,-12.69896 16.96701,-12.69896 z"
       inkscape:connector-curvature="0" />
    <path
       style="fill:#000000;fill-opacity:1;fill-rule:nonzero;stroke:none;stroke-width:1px;stroke-linecap:butt;stroke-linejoin:miter;stroke-opacity:1"
       id="path3377"
       d="m 639.98998,453.73812 c 6.29902,-2.42016 12.86027,-4.05368 19.2325,-6.25624 4.58865,-1.56959 9.38115,-2.31838 14.1494,-3.09719 3.82792,-0.46742 7.56056,-1.75978 10.94005,0.63575 2.30528,2.65206 3.23411,6.12736 4.07138,9.46469 0.42987,2.87436 1.74143,5.53225 1.65144,8.46669 -4.05839,13.39255 -20.52435,12.53198 -31.04208,12.68049 -3.83992,0.0506 -7.68004,0.0759 -11.52027,0.0743 0,0 16.94411,-12.30331 16.94411,-12.30331 l 0,0 c 3.78088,0.0198 7.56217,0.0627 11.34284,-0.008 3.15169,-0.0915 6.45434,-0.0123 9.56339,-0.63551 0.63507,-0.1273 2.39519,-0.94325 1.85052,-0.59273 -14.33814,9.22721 -23.14483,12.97453 -16.27228,10.02056 1.30579,-2.28341 -1.14395,-5.25812 -1.0568,-7.69959 -0.63137,-2.76543 -1.31673,-5.81552 -3.32732,-7.93547 -3.0991,-1.27767 -6.72127,0.20862 -9.89514,0.44462 -4.67711,0.84991 -9.37354,1.65073 -13.86417,3.27052 -6.48003,2.04828 -13.07051,3.81251 -19.32989,6.49446 0,0 16.56232,-13.02398 16.56232,-13.02398 z"
       inkscape:connector-curvature="0" />
  </g>
</svg>
