<?xml version="1.0" encoding="UTF-8" standalone="no"?>
<!-- Created with Inkscape (http://www.inkscape.org/) -->

<svg
   xmlns:dc="http://purl.org/dc/elements/1.1/"
   xmlns:cc="http://creativecommons.org/ns#"
   xmlns:rdf="http://www.w3.org/1999/02/22-rdf-syntax-ns#"
   xmlns:svg="http://www.w3.org/2000/svg"
   xmlns="http://www.w3.org/2000/svg"
   xmlns:sodipodi="http://sodipodi.sourceforge.net/DTD/sodipodi-0.dtd"
   xmlns:inkscape="http://www.inkscape.org/namespaces/inkscape"
   width="297mm"
   height="210mm"
   viewBox="0 0 1052.3622 744.09448"
   id="svg2"
   version="1.1"
   inkscape:version="0.91 r13725"
   sodipodi:docname="walk.svg">
  <defs
     id="defs4" />
  <sodipodi:namedview
     id="base"
     pagecolor="#ffffff"
     bordercolor="#666666"
     borderopacity="1.0"
     inkscape:pageopacity="0.0"
     inkscape:pageshadow="2"
     inkscape:zoom="0.7"
     inkscape:cx="588.85344"
     inkscape:cy="372.04724"
     inkscape:document-units="px"
     inkscape:current-layer="layer1"
     showgrid="false"
     inkscape:window-width="1366"
     inkscape:window-height="705"
     inkscape:window-x="-8"
     inkscape:window-y="-8"
     inkscape:window-maximized="1"
     showguides="true"
     inkscape:guide-bbox="true"
     units="mm">
    <sodipodi:guide
       position="450.00001,634.28571"
       orientation="1,0"
       id="guide3348" />
    <sodipodi:guide
       position="900.00001,474.28571"
       orientation="1,0"
       id="guide3349" />
  </sodipodi:namedview>
  <metadata
     id="metadata7">
    <rdf:RDF>
      <cc:Work
         rdf:about="">
        <dc:format>image/svg+xml</dc:format>
        <dc:type
           rdf:resource="http://purl.org/dc/dcmitype/StillImage" />
        <dc:title />
      </cc:Work>
    </rdf:RDF>
  </metadata>
  <g
     inkscape:label="Ebene 1"
     inkscape:groupmode="layer"
     id="layer1"
     transform="translate(0,-308.26772)">
    <path
       style="fill:#000000;fill-opacity:1;fill-rule:nonzero;stroke:none;stroke-width:1px;stroke-linecap:butt;stroke-linejoin:miter;stroke-opacity:1"
       id="path3350"
       d="m 201.75334,546.6068 c 8.24373,50.56246 21.52885,100.09392 37.09716,148.85232 3.60286,11.2838 7.51186,22.46757 11.26779,33.70135 0,0 -12.69586,6.98276 -12.69586,6.98276 l 0,0 C 226.11667,700.78599 214.90784,665.3987 204.6801,629.70996 c -5.54727,-19.35673 -10.66101,-38.83526 -16.09036,-58.22539 -1.44601,-5.16419 -2.94004,-10.31482 -4.41006,-15.47223 0,0 17.57366,-9.40554 17.57366,-9.40554 z"
       inkscape:connector-curvature="0" />
    <path
       style="fill:#000000;fill-opacity:1;fill-rule:nonzero;stroke:none;stroke-width:1px;stroke-linecap:butt;stroke-linejoin:miter;stroke-opacity:1"
       id="path3360"
       d="m 254.28883,726.42124 c 3.64872,0.95722 6.65362,1.66204 10.3011,3.17508 11.38984,4.72469 21.68193,10.36025 32.56689,16.31711 14.38931,7.87463 35.39114,19.99489 49.48792,28.06631 14.7702,8.90573 30.15028,16.77512 44.92358,25.67694 10.35157,6.23745 20.56388,9.40485 21.77972,23.23701 1.16519,13.2561 -10.6147,27.30078 -16.40869,36.78849 -25.22832,35.33867 -54.67843,67.38217 -84.83141,98.52354 0,0 -16.22869,6.73391 -16.22869,6.73391 l 0,0 c 30.90141,-30.69459 60.92423,-62.57841 85.77895,-98.47929 4.79347,-8.25732 15.70379,-22.829 15.33489,-34.42574 -0.43312,-13.61584 -9.30812,-16.56182 -19.52688,-23.24207 -11.44887,-7.4844 -32.6989,-19.65961 -43.98705,-26.24724 -19.03077,-10.65559 -31.03898,-17.743 -50.54233,-27.25879 -14.48683,-7.06821 -29.76447,-14.38195 -45.92012,-16.64157 0,0 17.27212,-12.22369 17.27212,-12.22369 z"
       inkscape:connector-curvature="0" />
    <path
       style="fill:#000000;fill-opacity:1;fill-rule:nonzero;stroke:none;stroke-width:1px;stroke-linecap:butt;stroke-linejoin:miter;stroke-opacity:1"
       id="path3362"
       d="m 250.85633,740.35414 c -0.96142,20.0098 2.07322,39.93583 4.94646,59.67329 4.63385,26.50436 7.38035,53.23977 9.11214,80.07169 -0.11601,5.49324 2.61196,18.70357 -1.32973,23.52841 -6.01077,7.3575 -22.80968,16.65188 -29.33418,20.52801 -8.30867,4.93609 -16.73891,9.66458 -25.10837,14.49687 -9.58287,5.59036 -19.16573,11.18072 -28.7486,16.77108 0,0 -14.02306,5.39381 -14.02306,5.39381 l 0,0 c 9.30696,-5.48637 18.61391,-10.97274 27.92087,-16.45911 7.94698,-4.65319 15.94497,-9.22032 23.84093,-13.95955 3.10075,-1.8611 22.66403,-13.3323 27.18401,-18.24721 4.886,-5.31289 2.08285,-17.01538 2.49255,-23.2185 -1.20935,-26.91565 -3.72052,-53.74347 -8.23675,-80.32421 -3.09792,-19.45465 -6.50134,-38.94997 -7.57179,-58.64721 0,0 18.85552,-9.60737 18.85552,-9.60737 z"
       inkscape:connector-curvature="0" />
    <path
       style="fill:#000000;fill-opacity:1;fill-rule:nonzero;stroke:none;stroke-width:1px;stroke-linecap:butt;stroke-linejoin:miter;stroke-opacity:1"
       id="path3364"
       d="m 178.80155,554.30565 c -18.08498,-0.056 -36.06714,-1.43684 -54.03165,-3.44125 -12.72323,-1.76138 -25.487614,-3.8928 -37.69294,-8.02571 -6.046398,-2.04741 -10.91558,-4.03652 -15.937537,-7.98432 -1.939611,-1.52474 -3.499912,-3.47827 -5.249868,-5.2174 -3.347312,-5.24101 -8.13885,-12.73382 -6.315295,-19.44298 3.429147,-12.6164 20.079265,-20.16226 29.868468,-26.13475 12.199222,-6.04339 24.094362,-12.74401 36.597672,-18.13018 11.95533,-5.15011 41.09082,-13.35609 53.43033,-16.51495 15.19411,-3.88962 35.66528,-8.31367 51.32947,-10.77847 7.1895,-1.13129 14.44496,-1.79383 21.66744,-2.69074 14.58791,-1.6017 29.31879,-2.35434 43.9556,-0.93456 4.55397,0.44174 10.317,1.28455 14.73317,2.93278 1.61284,0.60196 3.06948,1.5597 4.60422,2.33955 2.07111,1.74311 4.41331,3.09803 5.14458,5.96586 1.94134,7.61339 -5.93039,18.55006 -9.63142,24.4995 -5.77655,7.53816 -7.07672,9.94747 -14.52594,16.4788 -11.18774,9.8092 -24.26867,17.46565 -37.10358,24.85922 -9.43104,5.43278 -18.93011,10.74659 -28.39516,16.11989 -9.46693,5.18353 -18.95062,10.32026 -28.30609,15.70174 -2.1105,1.214 -8.44961,4.84274 -6.33386,3.6379 13.04735,-7.42993 16.44604,-9.63851 8.18727,-4.45825 -13.01974,9.40986 -26.71128,18.05309 -41.56962,24.29463 0,0 16.03623,-12.68105 16.03623,-12.68105 l 0,0 c 9.70462,-4.30789 4.75008,-2.3348 -8.51328,5.839 -1.31429,0.80996 2.72244,-1.46163 4.0305,-2.28163 3.78118,-2.37035 7.26236,-5.22552 10.93151,-7.75715 19.40445,-12.35601 39.90774,-22.89985 60.03735,-33.99595 -5.34182,3.55844 -13.01694,8.58107 9.91105,-5.5596 11.34825,-6.99895 22.56427,-14.3987 31.51744,-24.41722 2.18739,-2.44767 4.00768,-5.20015 6.01152,-7.80023 3.06387,-4.9198 5.34354,-8.14702 7.64946,-13.37797 0.88254,-2.00201 2.53683,-6.16697 2.06947,-8.73696 -0.44009,-2.42003 -2.59558,-3.67253 -4.25733,-5.09752 -1.38887,-0.71899 -2.71027,-1.58691 -4.16662,-2.15698 -4.14068,-1.62081 -9.45287,-2.59146 -13.74782,-3.1292 -13.975,-1.74972 -28.09529,-1.3307 -42.08609,0.007 -7.03705,0.80199 -14.10579,1.36283 -21.11116,2.40596 -15.8626,2.36203 -35.25015,6.46766 -50.63811,10.44446 -40.94665,10.58209 -14.18424,4.5085 -54.03484,17.28747 -2.13841,0.68572 -4.41977,0.79856 -6.62966,1.19785 -8.162155,4.90719 -25.241265,13.10366 -28.746215,23.46063 -2.082103,6.15252 2.43849,13.30687 5.480934,18.14183 1.621632,1.64753 3.062543,3.49499 4.864897,4.94261 4.626066,3.71556 9.560158,5.87776 15.127384,7.86686 11.93974,4.26592 24.48648,6.47329 37.02247,8.06443 4.71764,0.45546 9.42636,1.0154 14.15293,1.36637 13.91426,1.03318 27.87754,0.9495 41.81013,0.43246 0,0 -17.14741,12.45832 -17.14741,12.45832 z"
       inkscape:connector-curvature="0" />
    <path
       style="fill:#000000;fill-opacity:1;fill-rule:nonzero;stroke:none;stroke-width:1px;stroke-linecap:butt;stroke-linejoin:miter;stroke-opacity:1"
       id="path3366"
       d="m 215.48416,588.99018 c 16.88684,3.08067 32.54507,11.5569 46.87867,20.70144 5.3478,3.41179 10.43708,7.21279 15.65563,10.81919 7.0469,5.29458 22.21162,16.57361 29.27391,22.31083 8.4387,6.85537 15.5163,11.46676 18.6955,22.61854 3.66444,12.85383 2.1288,34.71704 1.90385,47.11043 -1.71027,32.8955 -5.15682,65.66412 -8.3034,98.44343 0,0 -15.58811,7.73008 -15.58811,7.73008 l 0,0 c 4.01269,-32.81109 8.2892,-65.65274 9.27792,-98.73285 -0.17506,-13.72956 0.80625,-31.56581 -3.43087,-45.25899 -3.32996,-10.76149 -9.58808,-15.34277 -17.79516,-22.32056 -9.52186,-8.09563 -18.93939,-14.8684 -28.9643,-22.35733 -5.27743,-3.50933 -10.40927,-7.24811 -15.83228,-10.528 -14.75254,-8.9225 -31.41044,-17.14044 -48.91877,-18.07788 0,0 17.14741,-12.45833 17.14741,-12.45833 z"
       inkscape:connector-curvature="0" />
    <path
       style="fill:#000000;fill-opacity:1;fill-rule:nonzero;stroke:none;stroke-width:1px;stroke-linecap:butt;stroke-linejoin:miter;stroke-opacity:1"
       id="path3368"
       d="m 207.34697,597.4048 c -5.82468,17.10483 -11.5602,34.23688 -17.44624,51.32192 -3.71865,12.33663 -7.7762,24.50716 -13.08897,36.24982 -0.17393,0.35465 -2.589,5.14772 -2.71622,5.8639 -0.94516,5.32048 1.5621,15.41443 2.27424,18.58827 3.44641,15.3599 7.54713,27.79302 12.14198,42.96195 10.27346,29.24261 5.06312,15.06126 15.57182,42.56577 0,0 -15.0628,8.36059 -15.0628,8.36059 l 0,0 c -9.98295,-27.81958 -4.90606,-13.5365 -15.21703,-42.85408 -3.75587,-11.32903 -10.12431,-30.42079 -13.87656,-42.16145 -0.75147,-2.35133 -5.1312,-13.63625 -4.76374,-18.74852 0.0783,-1.08893 2.51852,-5.32611 2.91006,-6.04826 1.12427,-2.28417 3.20254,-6.45537 4.17438,-8.66551 3.97407,-9.03783 6.67303,-18.56261 9.99013,-27.845 5.86321,-16.71745 11.78578,-33.42497 16.19081,-50.6042 0,0 18.91814,-8.9852 18.91814,-8.9852 z"
       inkscape:connector-curvature="0" />
    <path
       style="fill:#000000;fill-opacity:1;fill-rule:nonzero;stroke:none;stroke-width:1px;stroke-linecap:butt;stroke-linejoin:miter;stroke-opacity:1"
       id="path3370"
       d="m 317.38495,956.16242 c 7.3388,0.0864 14.62301,1.10163 21.9116,1.86225 0,0 -16.29071,11.59598 -16.29071,11.59598 l 0,0 c -7.54163,-0.68231 -15.10318,-1.48932 -22.68744,-1.05866 0,0 17.06655,-12.39957 17.06655,-12.39957 z"
       inkscape:connector-curvature="0" />
    <path
       style="fill:#000000;fill-opacity:1;fill-rule:nonzero;stroke:none;stroke-width:1px;stroke-linecap:butt;stroke-linejoin:miter;stroke-opacity:1"
       id="path3372"
       d="m 185.48416,948.99018 c 4.95624,0.75867 9.97118,1.05016 14.97521,1.28565 0.72159,0.0253 1.44317,0.0506 2.16476,0.076 0,0 -17.05216,12.27081 -17.05216,12.27081 l 0,0 c -0.714,-0.0401 -1.428,-0.0803 -2.142,-0.1204 -5.03251,-0.33216 -10.05489,-0.85443 -15.09322,-1.05369 0,0 17.14741,-12.45833 17.14741,-12.45833 z"
       inkscape:connector-curvature="0" />
    <path
       style="fill:#000000;fill-opacity:1;fill-rule:nonzero;stroke:none;stroke-width:1px;stroke-linecap:butt;stroke-linejoin:miter;stroke-opacity:1"
       id="path3359"
       d="m 629.62912,540.35603 c -17.75305,25.69145 -31.94221,53.51002 -43.7581,82.37787 -3.33725,8.15336 -6.3101,16.45115 -9.46515,24.67672 -15.17133,39.94727 -24.17295,81.72595 -31.58107,123.68788 -2.84129,18.0516 -1.32269,7.89797 -3.5386,23.64987 -0.52837,3.7559 -1.27545,10.21394 -2.44141,14.02932 -1.93628,6.33611 -4.3845,10.42385 -7.43051,16.45268 -4.7614,9.46101 -13.70157,19.66768 -16.11349,30.13838 -1.83252,7.95538 -1.09311,17.59627 0.79357,25.3971 1.12786,4.66333 3.12596,9.07211 4.68893,13.60816 6.62931,13.91144 16.10108,26.04278 26.63975,37.18478 3.05629,3.23125 6.36261,6.21649 9.54391,9.32473 0,0 -16.05045,9.83284 -16.05045,9.83284 l 0,0 c -13.93025,-14.33143 -27.56493,-29.17626 -36.40105,-47.34337 -1.67648,-4.61024 -3.77492,-9.08824 -5.02944,-13.83071 -1.92158,-7.26415 -3.25724,-18.47114 -1.74334,-26.06419 2.07818,-10.42321 11.39424,-20.74502 15.92548,-30.2126 2.94114,-6.03748 4.95533,-9.56862 6.99791,-15.7551 1.42105,-4.30402 2.39644,-9.9011 3.2265,-14.25114 5.73778,-30.06949 -2.47827,12.17964 4.64055,-24.24108 3.88849,-19.16572 7.62218,-38.41067 12.23882,-57.41795 4.08606,-16.82283 7.07034,-27.09983 12.56194,-43.61251 2.64443,-7.95153 5.54255,-15.81643 8.31382,-23.72465 9.09647,-23.83104 18.24436,-47.53517 29.60551,-70.40796 6.33674,-12.75741 9.11715,-16.89372 15.61395,-28.4201 1.23599,-2.19286 2.41785,-4.41579 3.62677,-6.62368 0,0 19.1352,-8.45529 19.1352,-8.45529 z"
       inkscape:connector-curvature="0" />
    <path
       style="fill:#000000;fill-opacity:1;fill-rule:nonzero;stroke:none;stroke-width:1px;stroke-linecap:butt;stroke-linejoin:miter;stroke-opacity:1"
       id="path3361"
       d="m 551.95419,757.42815 c 12.28079,16.82206 23.03398,34.63778 32.93198,52.9423 8.36511,16.22667 15.10944,33.20391 19.02421,51.04278 1.58715,4.9977 0.44316,11.11031 3.51795,15.66727 8.36424,12.39613 27.29177,22.1152 39.50459,29.61172 0,0 -14.28517,9.25337 -14.28517,9.25337 l 0,0 c -6.61105,-3.78684 -13.31339,-7.4186 -19.83316,-11.36052 -8.06589,-4.87673 -17.30743,-9.7529 -23.21336,-17.56485 -3.451,-4.56474 -1.98193,-10.97125 -3.40519,-16.11929 -3.48446,-17.79232 -9.60582,-34.8878 -17.82542,-51.06111 -9.77355,-18.2562 -20.36303,-36.26879 -34.3918,-51.6413 0,0 17.97537,-10.77037 17.97537,-10.77037 z"
       inkscape:connector-curvature="0" />
    <path
       style="fill:#000000;fill-opacity:1;fill-rule:nonzero;stroke:none;stroke-width:1px;stroke-linecap:butt;stroke-linejoin:miter;stroke-opacity:1"
       id="path3365"
       d="m 565.60067,629.75313 c 4.80655,-2.73711 9.48397,-5.71457 14.41965,-8.21132 1.88737,-0.95475 -3.50607,2.36707 -5.24547,3.57048 -2.31867,1.60418 -4.59072,3.27585 -6.92846,4.8521 -14.02202,9.45448 -28.83075,17.62386 -43.90138,25.26519 -8.61223,4.3683 -17.54808,8.02229 -26.37287,11.91699 -2.11236,0.93226 -8.23477,4.15005 -6.28272,2.9169 16.05329,-10.14123 14.50513,-9.58611 8.58314,-1.56611 -0.92631,2.41069 -2.06577,4.74997 -2.77894,7.23208 -3.13121,10.89797 -3.37756,22.58046 -3.55994,33.81628 -0.1742,10.73135 0.0758,17.59267 0.30927,28.2863 0.15392,4.13999 0.30784,8.27998 0.46177,12.41997 0,0 -16.89902,8.6677 -16.89902,8.6677 l 0,0 c -0.0697,-4.18786 -0.13935,-8.37571 -0.20903,-12.56357 -0.0953,-5.13247 -0.44851,-23.23643 -0.47398,-28.28693 -0.0569,-11.27305 -0.21347,-22.83791 2.34696,-33.90453 0.59651,-2.57822 1.58561,-5.04956 2.37841,-7.57433 1.12799,-1.99632 1.54388,-4.62083 3.38395,-5.98895 16.52392,-12.28579 36.03534,-18.29309 54.16974,-27.44054 3.24134,-1.67951 6.22172,-4.00848 9.724,-5.03854 2.7315,-0.80337 -9.09966,6.59252 -7.35565,4.34198 1.95811,-2.52681 5.39756,-3.42866 8.04094,-5.22631 10.83674,-7.36964 19.80296,-15.74149 32.65746,-20.55787 0,0 -16.46783,13.07303 -16.46783,13.07303 z"
       inkscape:connector-curvature="0" />
    <path
       style="fill:#000000;fill-opacity:1;fill-rule:nonzero;stroke:none;stroke-width:1px;stroke-linecap:butt;stroke-linejoin:miter;stroke-opacity:1"
       id="path3367"
       d="m 592.85055,624.35811 c 0.70157,1.56598 1.32101,3.1714 2.1047,4.69793 3.92627,7.64789 6.80874,12.01942 11.76352,19.56 9.62696,14.65106 19.81549,28.90618 29.98501,43.1814 9.35669,13.23813 19.33967,25.83532 16.19502,43.11902 -1.39478,7.66601 -4.97298,14.19717 -8.19971,21.15757 -6.29905,11.80478 -3.19731,6.18482 -9.26814,16.88031 0,0 -17.99079,7.99862 -17.99079,7.99862 l 0,0 c 6.45853,-10.74471 3.18468,-5.1122 9.78065,-16.92121 4.54916,-9.51747 9.74731,-19.084 9.0379,-30.04889 -0.81438,-12.58741 -8.59348,-22.83435 -15.20084,-32.97009 -8.33471,-12.13196 -11.26755,-16.55412 -20.05924,-28.69784 -8.95226,-12.36551 -18.57791,-24.31781 -26.42608,-37.44418 0,0 18.278,-10.51264 18.278,-10.51264 z"
       inkscape:connector-curvature="0" />
    <path
       style="fill:#000000;fill-opacity:1;fill-rule:nonzero;stroke:none;stroke-width:1px;stroke-linecap:butt;stroke-linejoin:miter;stroke-opacity:1"
       id="path3369"
       d="m 558.63562,946.47597 c -5.77617,4.1567 -11.24741,8.72509 -16.65116,13.3507 -2.67946,2.53567 -5.22417,5.21168 -7.66063,7.98018 0,0 -19.32498,8.18731 -19.32498,8.18731 l 0,0 c 2.43486,-2.9553 5.19382,-5.60232 7.80988,-8.3963 5.30247,-4.55313 10.67632,-9.02744 16.1633,-13.35488 0,0 19.66359,-7.76701 19.66359,-7.76701 z"
       inkscape:connector-curvature="0" />
    <path
       style="fill:#000000;fill-opacity:1;fill-rule:nonzero;stroke:none;stroke-width:1px;stroke-linecap:butt;stroke-linejoin:miter;stroke-opacity:1"
       id="path3371"
       d="m 648.51188,916.77499 c -4.98085,5.48948 -10.18676,10.75725 -15.72977,15.67764 0,0 -19.18027,7.79975 -19.18027,7.79975 l 0,0 c 5.48523,-4.76698 10.76686,-9.74986 15.49393,-15.28313 0,0 19.41611,-8.19426 19.41611,-8.19426 z"
       inkscape:connector-curvature="0" />
    <path
       style="fill:#000000;fill-opacity:1;fill-rule:nonzero;stroke:none;stroke-width:1px;stroke-linecap:butt;stroke-linejoin:miter;stroke-opacity:1"
       id="path3349"
       d="m 604.20103,545.71464 c -13.04106,-0.7737 -25.27568,-5.21634 -36.60991,-11.56281 -3.67048,-2.05525 -7.17165,-4.39926 -10.75748,-6.59889 -21.17983,-14.14433 -41.30496,-29.81007 -59.95071,-47.15401 -4.33815,-4.35604 -8.77557,-8.66163 -12.58677,-13.5035 -0.52255,-0.66386 -3.21795,-4.20202 -3.39651,-5.41907 -0.15723,-1.07161 0.29657,-2.14578 0.44486,-3.21867 8.83811,-9.55511 3.81936,-4.78815 26.23635,-16.88028 6.41426,-3.45997 13.97216,-5.07196 20.94955,-6.61352 14.25127,-3.14863 21.19767,-4.02514 35.9002,-6.38024 37.09309,-5.46033 74.30593,-9.9411 111.67121,-13.01933 21.40282,-1.77905 43.05816,-2.0375 64.26446,1.82212 10.88883,1.98181 16.26509,3.82539 26.59869,6.85368 4.42025,1.82479 12.55294,3.43752 13.96395,9.70069 1.38303,6.13898 -3.77354,16.21187 -6.26957,20.79469 -5.37224,9.86369 -9.46697,14.38501 -16.37374,23.30345 -9.44049,11.06743 -20.51848,20.57692 -32.34994,28.99317 -14.01828,9.97185 -29.73464,18.02842 -44.62765,26.41292 -7.40782,3.64164 -15.1323,6.73171 -23.14585,8.77222 -9.41797,2.39813 -19.16491,3.54759 -28.75618,4.99958 -13.25074,1.90282 -26.55339,3.39679 -39.91803,4.17198 -4.5897,0.17895 -2.35321,0.192 -6.70958,-0.009 0,0 16.88846,-12.17928 16.88846,-12.17928 l 0,0 c 4.1779,0.0999 2.02576,0.10139 6.45637,-0.0243 13.00719,-0.53592 25.97445,-1.79062 38.86107,-3.64204 17.75165,-2.73589 35.56923,-5.7167 51.58463,-14.36415 -2.76416,1.7147 -11.38357,6.15702 -8.29249,5.1441 3.52267,-1.15435 6.45575,-3.64841 9.62022,-5.57918 15.97939,-9.74966 30.96644,-21.19874 43.30556,-35.36971 8.05025,-10.29357 16.49324,-20.56291 20.84206,-33.12271 0.89674,-2.58988 2.05058,-5.35044 1.63083,-8.05884 -0.90188,-5.81939 -8.56421,-7.50013 -12.40123,-9.23581 -10.6323,-3.35379 -14.49789,-4.90812 -25.89966,-6.97978 -21.07059,-3.82845 -42.58698,-3.19757 -63.843,-1.63818 -37.21414,2.89436 -74.28092,7.30081 -111.19372,12.85352 -16.73323,2.89747 -33.85852,5.38244 -49.92072,11.17447 -2.92848,1.05601 -10.72944,6.05217 -8.4911,3.88861 3.24382,-3.13544 7.70076,-4.70583 11.63002,-6.92266 1.15321,-0.65062 -2.19613,1.47981 -3.29419,2.21971 -0.3879,0.60927 -1.1297,1.10635 -1.16369,1.82783 -0.0481,1.02164 2.55265,4.81571 2.82062,5.19823 3.45357,4.92997 7.58172,9.33963 11.63597,13.76803 17.94109,17.82819 37.75974,33.6545 59.20385,47.10534 3.63339,2.10206 7.18113,4.35967 10.90018,6.30617 11.67156,6.10874 24.35293,10.1666 37.63611,9.74678 0,0 -17.0935,12.41915 -17.0935,12.41915 z"
       inkscape:connector-curvature="0" />
    <path
       style="fill:#000000;fill-opacity:1;fill-rule:nonzero;stroke:none;stroke-width:1px;stroke-linecap:butt;stroke-linejoin:miter;stroke-opacity:1"
       id="path3351"
       d="m 132.53682,484.41328 c 5.65127,-0.42075 11.31131,-0.69995 16.97354,-0.92001 3.92917,-0.38915 7.78007,-1.12319 11.62672,-1.95126 4.02497,-0.40852 7.98211,-1.10644 11.96611,-1.79446 3.87217,-0.50629 5.47036,-2.30384 8.00776,1.59014 1.29663,2.99015 1.16908,6.33039 1.21376,9.52786 -0.24972,2.1887 0.97892,6.57032 -1.3969,8.04077 -6.46637,4.00219 -13.1955,7.56336 -19.79326,11.34504 -4.58129,0.97834 -9.28725,1.12683 -13.95549,1.21752 -4.27125,-4.3e-4 -8.54232,-0.0396 -12.81363,-0.0433 -3.46085,-0.10511 -6.95167,0.29533 -10.29306,1.20905 -2.99887,0.74004 -6.10199,1.89228 -9.09172,0.69536 -2.43907,-1.77622 -2.75963,-4.6519 -2.94072,-7.44741 -0.068,-2.21005 -0.0435,-1.10214 -0.0733,-3.32376 0,0 18.79618,-9.6013 18.79618,-9.6013 l 0,0 c 0.0149,2.16208 -0.002,1.08965 0.0503,3.21731 0.0908,1.65369 -0.16347,4.35384 1.64672,5.1328 2.85838,0.20658 5.62135,-0.91604 8.39496,-1.43891 3.48854,-0.61513 6.98868,-1.02668 10.53928,-0.80217 4.2581,0.0391 8.51691,0.0818 12.77482,-5.3e-4 4.52406,-0.11793 9.1838,-0.21397 13.44217,-1.91008 -5.41223,3.23453 -10.86214,6.40685 -16.2367,9.70359 -0.43796,0.26864 1.00653,-0.29982 1.41472,-0.61184 0.32485,-0.24831 0.59139,-0.61234 0.70182,-1.00603 0.41521,-1.48013 -0.27943,-3.2768 0.0404,-4.78007 -0.009,-2.78894 0.13309,-5.6973 -0.72306,-8.38218 -0.12502,-0.16938 -0.20025,-0.39082 -0.37504,-0.50816 -1.04295,-0.70013 -4.88768,1.03194 -6.15944,0.84987 -3.96919,0.68862 -7.97351,1.1015 -11.92602,1.87515 -3.84649,0.83897 -7.77459,1.28112 -11.70039,1.54203 -5.70395,0.19047 -11.42861,0.41244 -17.07756,1.27392 0,0 16.96701,-12.69895 16.96701,-12.69895 z"
       inkscape:connector-curvature="0" />
    <path
       style="fill:#000000;fill-opacity:1;fill-rule:nonzero;stroke:none;stroke-width:1px;stroke-linecap:butt;stroke-linejoin:miter;stroke-opacity:1"
       id="path3353"
       d="m 208.58614,468.74525 c 5.87186,-0.34142 11.71792,-1.59884 17.36383,-3.226 3.80829,-1.49011 7.57785,-3.12763 11.56664,-4.0666 3.81298,-0.7819 7.72113,-0.9191 11.6012,-1.01389 3.2023,0.24358 5.5562,-1.23605 8.31681,0.74868 1.8452,2.08609 1.92142,4.84784 2.02757,7.49041 -0.15846,2.85774 0.36514,5.65091 0.77606,8.46222 0.10564,1.42513 0.49007,2.87929 0.33181,4.3188 -0.80849,7.3541 -19.11143,13.1602 -20.14976,13.76953 -4.72153,0.60235 -9.47494,0.93966 -14.19092,1.5952 -4.98722,0.574 -9.90456,1.4564 -14.83823,2.35681 -3.2651,1.15415 -6.61777,1.75471 -10.05427,2.0413 -3.99741,0.37846 -5.12102,0.36523 -8.09535,-2.2826 -1.59378,-1.69083 -2.07973,-3.84222 -2.39178,-6.06662 0,0 18.71906,-9.84317 18.71906,-9.84317 l 0,0 c 0.19828,1.69978 0.38108,3.43013 1.68137,4.67946 2.06089,1.67905 4.50388,1.20661 7.02163,0.9308 3.36732,-0.44274 6.60706,-1.37595 9.91327,-2.12508 4.88874,-0.87291 9.80307,-1.52477 14.72965,-2.1487 4.66558,-0.57433 9.62813,-0.66978 14.02194,-2.41491 -5.66447,3.36429 -11.35224,6.68965 -16.99341,10.09286 -0.57433,0.34648 1.39995,-0.4817 1.69535,-1.08389 0.57953,-1.18142 -0.15092,-2.74328 -0.10391,-3.95598 -0.3946,-2.88054 -1.08286,-5.73111 -0.89918,-8.65709 -0.0413,-1.74609 0.22596,-4.15756 -0.99806,-5.54627 -2.4183,-0.6087 -5.07711,0.42869 -7.54429,0.0865 -3.78541,0.13804 -7.59694,0.35823 -11.26505,1.38269 -3.87156,1.20559 -7.60045,2.81406 -11.48476,3.9807 -5.83423,1.39186 -11.7333,2.53856 -17.71077,3.10123 0,0 16.95355,-12.60644 16.95355,-12.60644 z"
       inkscape:connector-curvature="0" />
    <path
       style="fill:#000000;fill-opacity:1;fill-rule:nonzero;stroke:none;stroke-width:1px;stroke-linecap:butt;stroke-linejoin:miter;stroke-opacity:1"
       id="path3355"
       d="m 164.213,516.14284 c 5.03399,0.17346 10.07497,-0.11753 15.09662,0.29773 4.67739,0.48171 9.3644,0.85044 14.06252,1.04358 3.56676,0.43876 6.43434,-1.54422 9.51963,-2.9383 4.53063,-1.43906 9.24247,-2.42474 13.93264,-3.2259 9.0178,-0.94974 24.45026,-11.49474 -7.6504,6.75115 1.87426,-1.22821 2.49929,-3.19514 2.70732,-5.32241 -0.009,-0.24959 -0.0179,-0.49918 -0.0268,-0.74877 0,0 19.62142,-8.44123 19.62142,-8.44123 l 0,0 c -0.15054,-0.0632 -0.30108,-0.12637 -0.45163,-0.18956 -0.51088,2.4002 -0.51147,4.95406 -2.18125,6.93548 -10.86199,6.36509 -17.32652,12.2246 -28.75996,13.65343 -4.61635,0.92287 -9.33398,1.74289 -13.65326,3.67806 -3.2672,1.55813 -6.48179,2.65993 -10.16474,2.13986 -4.66053,-0.30034 -9.30345,-0.79703 -13.95981,-1.15035 -5.06582,-0.24212 -10.14301,-0.0943 -15.21275,-0.044 0,0 17.12046,-12.43874 17.12046,-12.43874 z"
       inkscape:connector-curvature="0" />
    <path
       style="fill:#000000;fill-opacity:1;fill-rule:nonzero;stroke:none;stroke-width:1px;stroke-linecap:butt;stroke-linejoin:miter;stroke-opacity:1"
       id="path3357"
       d="m 73.033106,490.97869 c -0.64371,-1.16472 -1.423826,-2.35912 -1.639872,-3.71153 -0.754029,-4.72005 3.341187,-10.31053 5.631483,-14.13393 4.578069,-6.97665 9.342463,-13.82042 15.359924,-19.63242 9.714189,-7.13077 20.041649,-14.57808 32.002599,-16.97036 3.20797,-0.51913 6.34842,-1.27763 9.59234,-1.59677 3.32235,-0.59114 5.76745,0.38996 8.34256,2.40559 2.58662,2.08005 3.83599,5.00713 5.37081,7.84312 1.11651,2.03426 2.4756,3.88953 3.83097,5.76592 0,0 -18.14541,10.72302 -18.14541,10.72302 l 0,0 c -1.40452,-1.94908 -2.81452,-3.87483 -3.98774,-5.97711 -1.41203,-2.54928 -2.48792,-5.22356 -4.917,-7.01782 -2.36826,-1.53979 -4.68777,-1.60195 -7.45125,-1.11248 -3.14724,0.44335 -6.24429,1.15592 -9.37135,1.71813 -1.70943,0.4541 -2.22865,0.54292 -3.9234,1.207 -0.75928,0.29753 -2.9396,1.39987 -2.24451,0.97339 28.58546,-17.53892 16.42209,-9.6788 10.1257,-5.8301 -6.29943,5.50952 -11.20905,12.22489 -15.791732,19.19767 -2.801355,4.42351 -2.027582,2.95274 -4.312147,7.51154 -1.656302,3.30511 -2.497715,4.77959 -0.190955,7.92502 0,0 -18.28102,10.71212 -18.28102,10.71212 z"
       inkscape:connector-curvature="0" />
    <path
       style="fill:#000000;fill-opacity:1;fill-rule:nonzero;stroke:none;stroke-width:1px;stroke-linecap:butt;stroke-linejoin:miter;stroke-opacity:1"
       id="path3363"
       d="m 198.20738,439.84862 c 4.10323,-3.95499 8.88798,-7.07959 13.38893,-10.54668 5.11321,-4.02177 9.1669,-9.12394 13.4847,-13.93943 7.19909,-7.51527 16.5868,-14.0238 26.92343,-15.85537 3.44711,-0.38752 6.97923,-0.82884 10.42476,-0.2847 3.57424,1.50961 5.02479,4.99546 6.88348,8.12022 1.55739,3.31752 4.11394,5.82921 6.53198,8.49319 2.7476,2.37348 5.0541,5.07281 6.94398,8.16566 0,0 -18.26039,10.59591 -18.26039,10.59591 l 0,0 c -1.80506,-2.99728 -4.10312,-5.51541 -6.72404,-7.82957 -2.50313,-2.77412 -5.05353,-5.48803 -6.75973,-8.86484 -1.46715,-2.55192 -2.62577,-5.77867 -5.82738,-6.43731 -3.33347,-0.12474 -6.70121,0.0903 -9.95775,0.84238 -6.90312,2.25144 -16.74981,8.95197 13.40454,-8.47346 0.47166,-0.27256 -0.89885,0.61575 -1.3433,0.93074 -1.868,1.32386 -1.1417,0.76022 -2.93108,2.47494 -4.3809,4.89391 -8.61828,9.937 -13.50492,14.33981 -4.31633,3.4652 -8.9743,6.46258 -13.09744,10.1583 0,0 -19.57977,8.11021 -19.57977,8.11021 z"
       inkscape:connector-curvature="0" />
    <path
       style="fill:#000000;fill-opacity:1;fill-rule:nonzero;stroke:none;stroke-width:1px;stroke-linecap:butt;stroke-linejoin:miter;stroke-opacity:1"
       id="path3373"
       d="m 95.295638,471.34364 c 2.180899,-1.58975 4.283542,-3.27896 6.467622,-4.86352 0,0 19.56761,-7.67699 19.56761,-7.67699 l 0,0 c -2.23341,1.42061 -4.19442,3.12274 -6.34626,4.63917 0,0 -19.688972,7.90134 -19.688972,7.90134 z"
       inkscape:connector-curvature="0" />
    <path
       style="fill:#000000;fill-opacity:1;fill-rule:nonzero;stroke:none;stroke-width:1px;stroke-linecap:butt;stroke-linejoin:miter;stroke-opacity:1"
       id="path3375"
       d="m 241.35585,421.85712 c 2.97591,0.0761 5.9532,0.0584 8.92976,0.0511 0,0 -16.97986,12.33659 -16.97986,12.33659 l 0,0 c -3.02344,-0.007 -6.04752,-0.0235 -9.07035,0.0511 0,0 17.12045,-12.43874 17.12045,-12.43874 z"
       inkscape:connector-curvature="0" />
    <path
       style="fill:#000000;fill-opacity:1;fill-rule:nonzero;stroke:none;stroke-width:1px;stroke-linecap:butt;stroke-linejoin:miter;stroke-opacity:1"
       id="path3377"
       d="m 588.84474,501.2337 c 6.65791,2.42015 13.14187,5.23409 19.98753,7.08765 4.94174,1.00432 9.98858,1.97344 15.05967,1.76415 1.70953,-0.0706 4.76847,-0.51062 6.47945,-0.73583 4.99606,-0.96107 9.51591,-3.34702 14.42048,-4.62963 4.5901,-1.81312 9.15209,-3.6924 13.76064,-5.45798 0.59068,-0.27437 1.18454,-0.54203 1.77206,-0.82312 1.22673,-0.58692 4.77887,-2.59748 3.59868,-1.92185 -29.2999,16.77327 -18.78671,11.8779 -13.41657,7.09569 0,0 19.46604,-8.10474 19.46604,-8.10474 l 0,0 c -7.02558,8.38717 -18.15401,12.23017 -27.9597,16.73194 -4.58898,1.80229 -9.15881,3.67296 -13.82199,5.27033 -4.80557,1.52667 -9.43522,3.72728 -14.50876,4.25989 -7.38684,0.73239 -14.70216,0.18462 -21.89575,-1.76389 -6.91176,-2.01038 -13.48866,-4.94127 -20.41253,-6.91888 0,0 17.47075,-11.85373 17.47075,-11.85373 z"
       inkscape:connector-curvature="0" />
    <path
       style="fill:#000000;fill-opacity:1;fill-rule:nonzero;stroke:none;stroke-width:1px;stroke-linecap:butt;stroke-linejoin:miter;stroke-opacity:1"
       id="path3379"
       d="m 559.84845,454.43804 c 12.2336,-0.34763 24.42514,-1.35023 36.56537,-2.87744 3.3394,-0.0421 10.00411,-2.19611 12.90676,0.59273 1.17042,1.12454 1.27101,2.22038 1.69753,3.69463 0.0404,3.24131 1.03524,9.19044 -0.50374,12.12278 -0.39768,0.75771 -1.07505,1.33168 -1.61257,1.99752 -7.10243,3.76851 -13.99902,7.9536 -21.30729,11.30553 -1.50144,0.68863 -3.26845,0.4811 -4.90349,0.71599 -1.92296,0.27626 -3.84972,0.52636 -5.77049,0.81745 -5.3262,0.80719 -10.60914,1.75249 -15.95626,2.41504 -6.19359,0.0873 -9.21121,-0.55011 -11.83709,-6.26352 -0.92693,-2.2874 -0.49813,-1.09809 -1.27189,-3.57311 0,0 18.46688,-10.11944 18.46688,-10.11944 l 0,0 c 0.70036,2.28221 0.30496,1.17259 1.17907,3.3314 2.06102,4.7249 5.10196,4.44414 9.93436,4.35093 7.20794,-0.85552 14.44612,-1.92274 21.57877,-3.27574 1.67021,-0.31682 6.27964,-2.19034 4.98158,-1.0926 -4.38363,3.70712 -9.70859,6.13018 -14.56289,9.19527 0.6739,-0.29824 1.47722,-0.3981 2.02169,-0.89473 2.0943,-1.91031 0.95073,-8.42048 1.01494,-10.99546 -0.13309,-0.66787 -0.14991,-1.66613 -0.8043,-2.1492 -2.22364,-1.64151 -9.08851,-0.0436 -11.41925,-0.14299 -12.44308,1.30098 -24.92053,2.18046 -37.36048,3.49439 0,0 16.96279,-12.64943 16.96279,-12.64943 z"
       inkscape:connector-curvature="0" />
    <path
       style="fill:#000000;fill-opacity:1;fill-rule:nonzero;stroke:none;stroke-width:1px;stroke-linecap:butt;stroke-linejoin:miter;stroke-opacity:1"
       id="path3381"
       d="m 646.05671,447.35337 c 10.02863,-0.92162 20.07673,-1.57329 30.10872,-2.46636 9.02114,-0.82644 18.07496,-1.16109 27.1269,-1.41561 1.46756,0.0668 4.00807,-0.0496 5.40719,0.8226 3.09743,1.93082 3.8862,6.20473 4.54268,9.4407 0.59136,4.20462 0.74803,8.48913 0.4565,12.7253 -4.51663,13.15907 -25.31959,14.54773 -37.293,16.30143 -5.75451,0.85172 -11.55231,1.26657 -17.32825,1.92454 -3.8002,0.1631 -8.43851,1.50453 -11.96323,-0.63146 -0.54889,-0.33263 -0.98862,-0.81873 -1.48293,-1.2281 -2.16997,-1.88901 -4.33131,-3.76432 -6.23383,-5.92742 -2.34667,-2.45668 -3.34691,-5.70229 -4.01292,-8.95091 -0.0796,-0.39766 -0.1591,-0.79533 -0.23866,-1.19299 0,0 18.7244,-9.9284 18.7244,-9.9284 l 0,0 c 0.0508,0.39453 0.10156,0.78907 0.15234,1.1836 0.49804,2.92825 1.28506,5.79112 3.49216,7.92287 1.83943,2.01437 3.847,3.85925 5.9504,5.59594 3.69368,2.30068 8.30931,0.98111 12.38211,0.67889 5.68393,-0.65155 11.39968,-0.97835 17.06415,-1.80718 4.22412,-0.61128 8.58422,-1.06514 12.72828,-2.11554 1.24157,-0.3147 4.6955,-1.9341 3.65414,-1.18837 -21.83017,15.63293 -19.42421,13.44888 -14.50628,8.72031 0.69511,-4.01623 0.26076,-8.18943 -0.028,-12.22894 -1.06794,-6.23715 -1.45747,-7.8639 -8.20949,-7.89559 -8.93321,0.14737 -17.86261,0.51809 -26.76402,1.3133 -10.22604,0.8698 -20.48684,1.44306 -30.6548,2.88045 0,0 16.92545,-12.53306 16.92545,-12.53306 z"
       inkscape:connector-curvature="0" />
  </g>
</svg>
