<?xml version="1.0" encoding="UTF-8" standalone="no"?>
<!-- Created with Inkscape (http://www.inkscape.org/) -->

<svg
   xmlns:dc="http://purl.org/dc/elements/1.1/"
   xmlns:cc="http://creativecommons.org/ns#"
   xmlns:rdf="http://www.w3.org/1999/02/22-rdf-syntax-ns#"
   xmlns:svg="http://www.w3.org/2000/svg"
   xmlns="http://www.w3.org/2000/svg"
   xmlns:sodipodi="http://sodipodi.sourceforge.net/DTD/sodipodi-0.dtd"
   xmlns:inkscape="http://www.inkscape.org/namespaces/inkscape"
   width="297mm"
   height="210mm"
   viewBox="0 0 1052.3622 744.09448"
   id="svg2"
   version="1.1"
   inkscape:version="0.91 r13725"
   sodipodi:docname="punch.svg">
  <defs
     id="defs4" />
  <sodipodi:namedview
     id="base"
     pagecolor="#ffffff"
     bordercolor="#666666"
     borderopacity="1.0"
     inkscape:pageopacity="0.0"
     inkscape:pageshadow="2"
     inkscape:zoom="0.7"
     inkscape:cx="588.85344"
     inkscape:cy="372.04724"
     inkscape:document-units="px"
     inkscape:current-layer="layer1"
     showgrid="false"
     inkscape:window-width="1366"
     inkscape:window-height="705"
     inkscape:window-x="-8"
     inkscape:window-y="-8"
     inkscape:window-maximized="1"
     showguides="true"
     inkscape:guide-bbox="true"
     units="mm">
    <sodipodi:guide
       position="450.00001,634.28571"
       orientation="1,0"
       id="guide3348" />
    <sodipodi:guide
       position="900.00001,528.57143"
       orientation="1,0"
       id="guide3349" />
  </sodipodi:namedview>
  <metadata
     id="metadata7">
    <rdf:RDF>
      <cc:Work
         rdf:about="">
        <dc:format>image/svg+xml</dc:format>
        <dc:type
           rdf:resource="http://purl.org/dc/dcmitype/StillImage" />
        <dc:title />
      </cc:Work>
    </rdf:RDF>
  </metadata>
  <g
     inkscape:label="Ebene 1"
     inkscape:groupmode="layer"
     id="layer1"
     transform="translate(0,-308.26772)">
    <path
       style="fill:#000000;fill-opacity:1;fill-rule:nonzero;stroke:none;stroke-width:1px;stroke-linecap:butt;stroke-linejoin:miter;stroke-opacity:1"
       id="path3350"
       d="m 201.75334,546.6068 c 8.24373,50.56246 21.52885,100.09392 37.09716,148.85232 3.60286,11.2838 7.51186,22.46757 11.26779,33.70135 0,0 -12.69586,6.98276 -12.69586,6.98276 l 0,0 C 226.11667,700.78599 214.90784,665.3987 204.6801,629.70996 c -5.54727,-19.35673 -10.66101,-38.83526 -16.09036,-58.22539 -1.44601,-5.16419 -2.94004,-10.31482 -4.41006,-15.47223 0,0 17.57366,-9.40554 17.57366,-9.40554 z"
       inkscape:connector-curvature="0" />
    <path
       style="fill:#000000;fill-opacity:1;fill-rule:nonzero;stroke:none;stroke-width:1px;stroke-linecap:butt;stroke-linejoin:miter;stroke-opacity:1"
       id="path3360"
       d="m 254.28883,726.42124 c 3.64872,0.95722 6.65362,1.66204 10.3011,3.17508 11.38984,4.72469 21.68193,10.36025 32.56689,16.31711 14.38931,7.87463 35.39114,19.99489 49.48792,28.06631 14.7702,8.90573 30.15028,16.77512 44.92358,25.67694 10.35157,6.23745 20.56388,9.40485 21.77972,23.23701 1.16519,13.2561 -10.6147,27.30078 -16.40869,36.78849 -25.22832,35.33867 -54.67843,67.38217 -84.83141,98.52354 0,0 -16.22869,6.73391 -16.22869,6.73391 l 0,0 c 30.90141,-30.69459 60.92423,-62.57841 85.77895,-98.47929 4.79347,-8.25732 15.70379,-22.829 15.33489,-34.42574 -0.43312,-13.61584 -9.30812,-16.56182 -19.52688,-23.24207 -11.44887,-7.4844 -32.6989,-19.65961 -43.98705,-26.24724 -19.03077,-10.65559 -31.03898,-17.743 -50.54233,-27.25879 -14.48683,-7.06821 -29.76447,-14.38195 -45.92012,-16.64157 0,0 17.27212,-12.22369 17.27212,-12.22369 z"
       inkscape:connector-curvature="0" />
    <path
       style="fill:#000000;fill-opacity:1;fill-rule:nonzero;stroke:none;stroke-width:1px;stroke-linecap:butt;stroke-linejoin:miter;stroke-opacity:1"
       id="path3362"
       d="m 250.85633,740.35414 c -0.96142,20.0098 2.07322,39.93583 4.94646,59.67329 4.63385,26.50436 7.38035,53.23977 9.11214,80.07169 -0.11601,5.49324 2.61196,18.70357 -1.32973,23.52841 -6.01077,7.3575 -22.80968,16.65188 -29.33418,20.52801 -8.30867,4.93609 -16.73891,9.66458 -25.10837,14.49687 -9.58287,5.59036 -19.16573,11.18072 -28.7486,16.77108 0,0 -14.02306,5.39381 -14.02306,5.39381 l 0,0 c 9.30696,-5.48637 18.61391,-10.97274 27.92087,-16.45911 7.94698,-4.65319 15.94497,-9.22032 23.84093,-13.95955 3.10075,-1.8611 22.66403,-13.3323 27.18401,-18.24721 4.886,-5.31289 2.08285,-17.01538 2.49255,-23.2185 -1.20935,-26.91565 -3.72052,-53.74347 -8.23675,-80.32421 -3.09792,-19.45465 -6.50134,-38.94997 -7.57179,-58.64721 0,0 18.85552,-9.60737 18.85552,-9.60737 z"
       inkscape:connector-curvature="0" />
    <path
       style="fill:#000000;fill-opacity:1;fill-rule:nonzero;stroke:none;stroke-width:1px;stroke-linecap:butt;stroke-linejoin:miter;stroke-opacity:1"
       id="path3364"
       d="m 178.80155,554.30565 c -18.08498,-0.056 -36.06714,-1.43684 -54.03165,-3.44125 -12.72323,-1.76138 -25.487614,-3.8928 -37.69294,-8.02571 -6.046398,-2.04741 -10.91558,-4.03652 -15.937537,-7.98432 -1.939611,-1.52474 -3.499912,-3.47827 -5.249868,-5.2174 -3.347312,-5.24101 -8.13885,-12.73382 -6.315295,-19.44298 3.429147,-12.6164 20.079265,-20.16226 29.868468,-26.13475 12.199222,-6.04339 24.094362,-12.74401 36.597672,-18.13018 11.95533,-5.15011 41.09082,-13.35609 53.43033,-16.51495 15.19411,-3.88962 35.66528,-8.31367 51.32947,-10.77847 7.1895,-1.13129 14.44496,-1.79383 21.66744,-2.69074 14.58791,-1.6017 29.31879,-2.35434 43.9556,-0.93456 4.55397,0.44174 10.317,1.28455 14.73317,2.93278 1.61284,0.60196 3.06948,1.5597 4.60422,2.33955 2.07111,1.74311 4.41331,3.09803 5.14458,5.96586 1.94134,7.61339 -5.93039,18.55006 -9.63142,24.4995 -5.77655,7.53816 -7.07672,9.94747 -14.52594,16.4788 -11.18774,9.8092 -24.26867,17.46565 -37.10358,24.85922 -9.43104,5.43278 -18.93011,10.74659 -28.39516,16.11989 -9.46693,5.18353 -18.95062,10.32026 -28.30609,15.70174 -2.1105,1.214 -8.44961,4.84274 -6.33386,3.6379 13.04735,-7.42993 16.44604,-9.63851 8.18727,-4.45825 -13.01974,9.40986 -26.71128,18.05309 -41.56962,24.29463 0,0 16.03623,-12.68105 16.03623,-12.68105 l 0,0 c 9.70462,-4.30789 4.75008,-2.3348 -8.51328,5.839 -1.31429,0.80996 2.72244,-1.46163 4.0305,-2.28163 3.78118,-2.37035 7.26236,-5.22552 10.93151,-7.75715 19.40445,-12.35601 39.90774,-22.89985 60.03735,-33.99595 -5.34182,3.55844 -13.01694,8.58107 9.91105,-5.5596 11.34825,-6.99895 22.56427,-14.3987 31.51744,-24.41722 2.18739,-2.44767 4.00768,-5.20015 6.01152,-7.80023 3.06387,-4.9198 5.34354,-8.14702 7.64946,-13.37797 0.88254,-2.00201 2.53683,-6.16697 2.06947,-8.73696 -0.44009,-2.42003 -2.59558,-3.67253 -4.25733,-5.09752 -1.38887,-0.71899 -2.71027,-1.58691 -4.16662,-2.15698 -4.14068,-1.62081 -9.45287,-2.59146 -13.74782,-3.1292 -13.975,-1.74972 -28.09529,-1.3307 -42.08609,0.007 -7.03705,0.80199 -14.10579,1.36283 -21.11116,2.40596 -15.8626,2.36203 -35.25015,6.46766 -50.63811,10.44446 -40.94665,10.58209 -14.18424,4.5085 -54.03484,17.28747 -2.13841,0.68572 -4.41977,0.79856 -6.62966,1.19785 -8.162155,4.90719 -25.241265,13.10366 -28.746215,23.46063 -2.082103,6.15252 2.43849,13.30687 5.480934,18.14183 1.621632,1.64753 3.062543,3.49499 4.864897,4.94261 4.626066,3.71556 9.560158,5.87776 15.127384,7.86686 11.93974,4.26592 24.48648,6.47329 37.02247,8.06443 4.71764,0.45546 9.42636,1.0154 14.15293,1.36637 13.91426,1.03318 27.87754,0.9495 41.81013,0.43246 0,0 -17.14741,12.45832 -17.14741,12.45832 z"
       inkscape:connector-curvature="0" />
    <path
       style="fill:#000000;fill-opacity:1;fill-rule:nonzero;stroke:none;stroke-width:1px;stroke-linecap:butt;stroke-linejoin:miter;stroke-opacity:1"
       id="path3368"
       d="m 207.34697,597.4048 c -5.82468,17.10483 -11.5602,34.23688 -17.44624,51.32192 -3.71865,12.33663 -7.7762,24.50716 -13.08897,36.24982 -0.17393,0.35465 -2.589,5.14772 -2.71622,5.8639 -0.94516,5.32048 1.5621,15.41443 2.27424,18.58827 3.44641,15.3599 7.54713,27.79302 12.14198,42.96195 10.27346,29.24261 5.06312,15.06126 15.57182,42.56577 0,0 -15.0628,8.36059 -15.0628,8.36059 l 0,0 c -9.98295,-27.81958 -4.90606,-13.5365 -15.21703,-42.85408 -3.75587,-11.32903 -10.12431,-30.42079 -13.87656,-42.16145 -0.75147,-2.35133 -5.1312,-13.63625 -4.76374,-18.74852 0.0783,-1.08893 2.51852,-5.32611 2.91006,-6.04826 1.12427,-2.28417 3.20254,-6.45537 4.17438,-8.66551 3.97407,-9.03783 6.67303,-18.56261 9.99013,-27.845 5.86321,-16.71745 11.78578,-33.42497 16.19081,-50.6042 0,0 18.91814,-8.9852 18.91814,-8.9852 z"
       inkscape:connector-curvature="0" />
    <path
       style="fill:#000000;fill-opacity:1;fill-rule:nonzero;stroke:none;stroke-width:1px;stroke-linecap:butt;stroke-linejoin:miter;stroke-opacity:1"
       id="path3370"
       d="m 317.38495,956.16242 c 7.3388,0.0864 14.62301,1.10163 21.9116,1.86225 0,0 -16.29071,11.59598 -16.29071,11.59598 l 0,0 c -7.54163,-0.68231 -15.10318,-1.48932 -22.68744,-1.05866 0,0 17.06655,-12.39957 17.06655,-12.39957 z"
       inkscape:connector-curvature="0" />
    <path
       style="fill:#000000;fill-opacity:1;fill-rule:nonzero;stroke:none;stroke-width:1px;stroke-linecap:butt;stroke-linejoin:miter;stroke-opacity:1"
       id="path3372"
       d="m 185.48416,948.99018 c 4.95624,0.75867 9.97118,1.05016 14.97521,1.28565 0.72159,0.0253 1.44317,0.0506 2.16476,0.076 0,0 -17.05216,12.27081 -17.05216,12.27081 l 0,0 c -0.714,-0.0401 -1.428,-0.0803 -2.142,-0.1204 -5.03251,-0.33216 -10.05489,-0.85443 -15.09322,-1.05369 0,0 17.14741,-12.45833 17.14741,-12.45833 z"
       inkscape:connector-curvature="0" />
    <path
       style="fill:#000000;fill-opacity:1;fill-rule:nonzero;stroke:none;stroke-width:1px;stroke-linecap:butt;stroke-linejoin:miter;stroke-opacity:1"
       id="path3359"
       d="m 629.62912,540.35603 c -17.75305,25.69145 -31.94221,53.51002 -43.7581,82.37787 -3.33725,8.15336 -6.3101,16.45115 -9.46515,24.67672 -15.17133,39.94727 -24.17295,81.72595 -31.58107,123.68788 -2.84129,18.0516 -1.32269,7.89797 -3.5386,23.64987 -0.52837,3.7559 -1.27545,10.21394 -2.44141,14.02932 -1.93628,6.33611 -4.3845,10.42385 -7.43051,16.45268 -4.7614,9.46101 -13.70157,19.66768 -16.11349,30.13838 -1.83252,7.95538 -1.09311,17.59627 0.79357,25.3971 1.12786,4.66333 3.12596,9.07211 4.68893,13.60816 6.62931,13.91144 16.10108,26.04278 26.63975,37.18478 3.05629,3.23125 6.36261,6.21649 9.54391,9.32473 0,0 -16.05045,9.83284 -16.05045,9.83284 l 0,0 c -13.93025,-14.33143 -27.56493,-29.17626 -36.40105,-47.34337 -1.67648,-4.61024 -3.77492,-9.08824 -5.02944,-13.83071 -1.92158,-7.26415 -3.25724,-18.47114 -1.74334,-26.06419 2.07818,-10.42321 11.39424,-20.74502 15.92548,-30.2126 2.94114,-6.03748 4.95533,-9.56862 6.99791,-15.7551 1.42105,-4.30402 2.39644,-9.9011 3.2265,-14.25114 5.73778,-30.06949 -2.47827,12.17964 4.64055,-24.24108 3.88849,-19.16572 7.62218,-38.41067 12.23882,-57.41795 4.08606,-16.82283 7.07034,-27.09983 12.56194,-43.61251 2.64443,-7.95153 5.54255,-15.81643 8.31382,-23.72465 9.09647,-23.83104 18.24436,-47.53517 29.60551,-70.40796 6.33674,-12.75741 9.11715,-16.89372 15.61395,-28.4201 1.23599,-2.19286 2.41785,-4.41579 3.62677,-6.62368 0,0 19.1352,-8.45529 19.1352,-8.45529 z"
       inkscape:connector-curvature="0" />
    <path
       style="fill:#000000;fill-opacity:1;fill-rule:nonzero;stroke:none;stroke-width:1px;stroke-linecap:butt;stroke-linejoin:miter;stroke-opacity:1"
       id="path3361"
       d="m 551.95419,757.42815 c 12.28079,16.82206 23.03398,34.63778 32.93198,52.9423 8.36511,16.22667 15.10944,33.20391 19.02421,51.04278 1.58715,4.9977 0.44316,11.11031 3.51795,15.66727 8.36424,12.39613 27.29177,22.1152 39.50459,29.61172 0,0 -14.28517,9.25337 -14.28517,9.25337 l 0,0 c -6.61105,-3.78684 -13.31339,-7.4186 -19.83316,-11.36052 -8.06589,-4.87673 -17.30743,-9.7529 -23.21336,-17.56485 -3.451,-4.56474 -1.98193,-10.97125 -3.40519,-16.11929 -3.48446,-17.79232 -9.60582,-34.8878 -17.82542,-51.06111 -9.77355,-18.2562 -20.36303,-36.26879 -34.3918,-51.6413 0,0 17.97537,-10.77037 17.97537,-10.77037 z"
       inkscape:connector-curvature="0" />
    <path
       style="fill:#000000;fill-opacity:1;fill-rule:nonzero;stroke:none;stroke-width:1px;stroke-linecap:butt;stroke-linejoin:miter;stroke-opacity:1"
       id="path3365"
       d="m 565.60067,629.75313 c 4.80655,-2.73711 9.48397,-5.71457 14.41965,-8.21132 1.88737,-0.95475 -3.50607,2.36707 -5.24547,3.57048 -2.31867,1.60418 -4.59072,3.27585 -6.92846,4.8521 -14.02202,9.45448 -28.83075,17.62386 -43.90138,25.26519 -8.61223,4.3683 -17.54808,8.02229 -26.37287,11.91699 -2.11236,0.93226 -8.23477,4.15005 -6.28272,2.9169 16.05329,-10.14123 14.50513,-9.58611 8.58314,-1.56611 -0.92631,2.41069 -2.06577,4.74997 -2.77894,7.23208 -3.13121,10.89797 -3.37756,22.58046 -3.55994,33.81628 -0.1742,10.73135 0.0758,17.59267 0.30927,28.2863 0.15392,4.13999 0.30784,8.27998 0.46177,12.41997 0,0 -16.89902,8.6677 -16.89902,8.6677 l 0,0 c -0.0697,-4.18786 -0.13935,-8.37571 -0.20903,-12.56357 -0.0953,-5.13247 -0.44851,-23.23643 -0.47398,-28.28693 -0.0569,-11.27305 -0.21347,-22.83791 2.34696,-33.90453 0.59651,-2.57822 1.58561,-5.04956 2.37841,-7.57433 1.12799,-1.99632 1.54388,-4.62083 3.38395,-5.98895 16.52392,-12.28579 36.03534,-18.29309 54.16974,-27.44054 3.24134,-1.67951 6.22172,-4.00848 9.724,-5.03854 2.7315,-0.80337 -9.09966,6.59252 -7.35565,4.34198 1.95811,-2.52681 5.39756,-3.42866 8.04094,-5.22631 10.83674,-7.36964 19.80296,-15.74149 32.65746,-20.55787 0,0 -16.46783,13.07303 -16.46783,13.07303 z"
       inkscape:connector-curvature="0" />
    <path
       style="fill:#000000;fill-opacity:1;fill-rule:nonzero;stroke:none;stroke-width:1px;stroke-linecap:butt;stroke-linejoin:miter;stroke-opacity:1"
       id="path3367"
       d="m 592.85055,624.35811 c 0.70157,1.56598 1.32101,3.1714 2.1047,4.69793 3.92627,7.64789 6.80874,12.01942 11.76352,19.56 9.62696,14.65106 19.81549,28.90618 29.98501,43.1814 9.35669,13.23813 19.33967,25.83532 16.19502,43.11902 -1.39478,7.66601 -4.97298,14.19717 -8.19971,21.15757 -6.29905,11.80478 -3.19731,6.18482 -9.26814,16.88031 0,0 -17.99079,7.99862 -17.99079,7.99862 l 0,0 c 6.45853,-10.74471 3.18468,-5.1122 9.78065,-16.92121 4.54916,-9.51747 9.74731,-19.084 9.0379,-30.04889 -0.81438,-12.58741 -8.59348,-22.83435 -15.20084,-32.97009 -8.33471,-12.13196 -11.26755,-16.55412 -20.05924,-28.69784 -8.95226,-12.36551 -18.57791,-24.31781 -26.42608,-37.44418 0,0 18.278,-10.51264 18.278,-10.51264 z"
       inkscape:connector-curvature="0" />
    <path
       style="fill:#000000;fill-opacity:1;fill-rule:nonzero;stroke:none;stroke-width:1px;stroke-linecap:butt;stroke-linejoin:miter;stroke-opacity:1"
       id="path3369"
       d="m 558.63562,946.47597 c -5.77617,4.1567 -11.24741,8.72509 -16.65116,13.3507 -2.67946,2.53567 -5.22417,5.21168 -7.66063,7.98018 0,0 -19.32498,8.18731 -19.32498,8.18731 l 0,0 c 2.43486,-2.9553 5.19382,-5.60232 7.80988,-8.3963 5.30247,-4.55313 10.67632,-9.02744 16.1633,-13.35488 0,0 19.66359,-7.76701 19.66359,-7.76701 z"
       inkscape:connector-curvature="0" />
    <path
       style="fill:#000000;fill-opacity:1;fill-rule:nonzero;stroke:none;stroke-width:1px;stroke-linecap:butt;stroke-linejoin:miter;stroke-opacity:1"
       id="path3371"
       d="m 648.51188,916.77499 c -4.98085,5.48948 -10.18676,10.75725 -15.72977,15.67764 0,0 -19.18027,7.79975 -19.18027,7.79975 l 0,0 c 5.48523,-4.76698 10.76686,-9.74986 15.49393,-15.28313 0,0 19.41611,-8.19426 19.41611,-8.19426 z"
       inkscape:connector-curvature="0" />
    <path
       style="fill:#000000;fill-opacity:1;fill-rule:nonzero;stroke:none;stroke-width:1px;stroke-linecap:butt;stroke-linejoin:miter;stroke-opacity:1"
       id="path3349"
       d="m 660.20103,543.71464 c -13.04106,-0.7737 -25.27568,-5.21634 -36.60991,-11.56281 -3.67048,-2.05525 -7.17165,-4.39926 -10.75748,-6.59889 -21.17983,-14.14433 -41.30496,-29.81007 -59.95071,-47.15401 -4.33815,-4.35604 -8.77557,-8.66163 -12.58677,-13.5035 -0.52255,-0.66386 -3.21795,-4.20202 -3.39651,-5.41907 -0.15723,-1.07161 0.29657,-2.14578 0.44486,-3.21867 8.83811,-9.55511 3.81936,-4.78815 26.23635,-16.88028 6.41426,-3.45997 13.97216,-5.07196 20.94955,-6.61352 14.25127,-3.14863 21.19767,-4.02514 35.9002,-6.38024 37.09309,-5.46033 74.30593,-9.9411 111.67121,-13.01933 21.40282,-1.77905 43.05816,-2.0375 64.26446,1.82212 10.88883,1.98181 16.26509,3.82539 26.59869,6.85368 4.42025,1.82479 12.55294,3.43752 13.96395,9.70069 1.38303,6.13898 -3.77354,16.21187 -6.26957,20.79469 -5.37224,9.86369 -9.46697,14.38501 -16.37374,23.30345 -9.44049,11.06743 -20.51848,20.57692 -32.34994,28.99317 -14.01828,9.97185 -29.73464,18.02842 -44.62765,26.41292 -7.40782,3.64164 -15.1323,6.73171 -23.14585,8.77222 -9.41797,2.39813 -19.16491,3.54759 -28.75618,4.99958 -13.25074,1.90282 -26.55339,3.39679 -39.91803,4.17198 -4.5897,0.17895 -2.35321,0.192 -6.70958,-0.009 0,0 16.88846,-12.17928 16.88846,-12.17928 l 0,0 c 4.1779,0.0999 2.02576,0.10139 6.45637,-0.0243 13.00719,-0.53592 25.97445,-1.79062 38.86107,-3.64204 17.75165,-2.73589 35.56923,-5.7167 51.58463,-14.36415 -2.76416,1.7147 -11.38357,6.15702 -8.29249,5.1441 3.52267,-1.15435 6.45575,-3.64841 9.62022,-5.57918 15.97939,-9.74966 30.96644,-21.19874 43.30556,-35.36971 8.05025,-10.29357 16.49324,-20.56291 20.84206,-33.12271 0.89674,-2.58988 2.05058,-5.35044 1.63083,-8.05884 -0.90188,-5.81939 -8.56421,-7.50013 -12.40123,-9.23581 -10.6323,-3.35379 -14.49789,-4.90812 -25.89966,-6.97978 -21.07059,-3.82845 -42.58698,-3.19757 -63.843,-1.63818 -37.21414,2.89436 -74.28092,7.30081 -111.19372,12.85352 -16.73323,2.89747 -33.85852,5.38244 -49.92072,11.17447 -2.92848,1.05601 -10.72944,6.05217 -8.4911,3.88861 3.24382,-3.13544 7.70076,-4.70583 11.63002,-6.92266 1.15321,-0.65062 -2.19613,1.47981 -3.29419,2.21971 -0.3879,0.60927 -1.1297,1.10635 -1.16369,1.82783 -0.0481,1.02164 2.55265,4.81571 2.82062,5.19823 3.45357,4.92997 7.58172,9.33963 11.63597,13.76803 17.94109,17.82819 37.75974,33.6545 59.20385,47.10534 3.63339,2.10206 7.18113,4.35967 10.90018,6.30617 11.67156,6.10874 24.35293,10.1666 37.63611,9.74678 0,0 -17.0935,12.41915 -17.0935,12.41915 z"
       inkscape:connector-curvature="0" />
    <path
       style="fill:#000000;fill-opacity:1;fill-rule:nonzero;stroke:none;stroke-width:1px;stroke-linecap:butt;stroke-linejoin:miter;stroke-opacity:1"
       id="path3351"
       d="m 214.38156,602.46847 c 7.04721,-4.0635 13.93917,-8.409 21.14163,-12.1905 1.94804,-1.02278 4.13312,-1.5144 6.23011,-2.18043 9.22002,-2.92843 11.20474,-3.17275 21.09176,-5.86171 8.97408,-2.44068 17.91414,-5.00476 26.87326,-7.49974 21.77199,-6.16522 43.68299,-11.89046 64.91599,-19.78521 13.36289,-4.96852 15.37833,-6.11913 27.96643,-11.79331 3.70352,-1.78076 7.42233,-3.53006 11.11055,-5.34229 3.06771,-1.50733 6.12932,-3.02853 9.15636,-4.61595 7.02288,-3.68291 13.65902,-7.83394 21.06998,-10.70305 1.61584,-0.28344 3.21792,-0.6615 4.84753,-0.85033 4.31113,-0.49954 10.86002,-0.62762 14.99479,-0.7046 10.61531,-0.19762 21.23687,-0.15254 31.85339,-0.15931 15.76063,-0.009 31.52112,-0.0882 47.28145,-0.18117 4.83877,-0.024 9.67746,-0.0533 14.51611,-0.0946 0,0 -16.89964,12.27332 -16.89964,12.27332 l 0,0 c -4.71557,-0.0599 -9.4312,-0.11387 -14.14669,-0.17978 -15.44353,-0.22968 -30.88743,-0.48997 -46.33314,-0.49094 -10.7318,0.0466 -21.47495,0.023 -32.19867,0.51604 -4.64155,0.21341 -10.67255,0.5494 -15.36945,1.40279 -1.61025,0.29257 -3.17023,0.8147 -4.75535,1.22205 -9.93232,4.16996 -19.20473,9.80284 -28.92688,14.44113 -3.59617,1.71567 -7.21998,3.3728 -10.82997,5.0592 -12.37564,5.4057 -14.48771,6.54633 -27.62335,11.32609 -21.43138,7.7984 -43.49694,13.5655 -65.35774,19.9908 -13.0812,3.72096 -26.27445,7.20022 -39.27865,11.18275 -3.28071,1.00471 -6.54851,2.06096 -9.76481,3.25591 -2.21421,0.82264 -8.4495,4.14456 -6.51313,2.79182 4.61947,-3.22715 9.7556,-5.64308 14.6334,-8.46463 0,0 -19.68527,7.63563 -19.68527,7.63563 z"
       inkscape:connector-curvature="0" />
    <path
       style="fill:#000000;fill-opacity:1;fill-rule:nonzero;stroke:none;stroke-width:1px;stroke-linecap:butt;stroke-linejoin:miter;stroke-opacity:1"
       id="path3352"
       d="m 128.3413,480.41876 c 4.25272,0.0896 8.50697,0.0672 12.76034,0.0501 3.48368,-0.16175 6.87269,-0.0736 10.20197,1.02024 2.73018,0.66163 5.32099,1.69779 8.00395,2.50039 3.03575,0.68778 6.18221,0.68591 9.28034,0.74369 3.21227,-0.1714 6.32001,0.13012 9.45447,0.8064 0,0 -17.40102,12.10929 -17.40102,12.10929 l 0,0 c -3.02139,-0.59209 -6.0712,-0.52981 -9.13892,-0.57174 -3.26009,-0.11259 -6.5852,-0.16194 -9.71714,-1.17847 -2.60898,-0.91017 -5.23573,-1.72746 -7.90289,-2.45629 -3.23049,-0.70711 -6.49537,-0.65273 -9.79026,-0.61538 -4.29935,-0.0174 -8.59951,-0.0379 -12.89824,0.0501 0,0 17.1474,-12.45832 17.1474,-12.45832 z"
       inkscape:connector-curvature="0" />
    <path
       style="fill:#000000;fill-opacity:1;fill-rule:nonzero;stroke:none;stroke-width:1px;stroke-linecap:butt;stroke-linejoin:miter;stroke-opacity:1"
       id="path3354"
       d="m 216.44772,480.94097 c 7.44901,-4.3113 -4.06445,2.35458 -14.64216,8.40484 -0.6477,0.37047 1.29032,-0.75006 1.9256,-1.14144 1.94849,-1.20039 3.7378,-2.56684 5.55221,-3.95657 2.71272,-1.97038 5.04908,-4.34836 7.41808,-6.69996 2.67603,-2.36023 5.59334,-4.40867 8.35174,-6.67609 2.73549,-2.12499 5.3723,-4.35448 8.13821,-6.44308 9.03223,-6.70023 18.62684,-12.79995 28.91817,-17.38002 0,0 -16.45939,13.10598 -16.45939,13.10598 l 0,0 c -6.1906,3.12224 -8.17285,4.16566 13.30851,-7.92972 1.14411,-0.6442 -2.20472,1.42783 -3.27809,2.18405 -1.05235,0.74141 -2.06458,1.53821 -3.09687,2.30731 -2.71477,2.02241 -5.24074,4.24506 -7.94019,6.25615 -1.27052,1.05816 -2.5034,2.18871 -3.78263,3.22843 -2.87929,2.34023 -0.21904,-0.0617 -3.24576,2.12523 -0.50249,0.36307 -0.93446,0.81488 -1.40169,1.22232 -2.55964,2.22243 -4.63687,4.95064 -7.41692,6.9386 -1.84247,1.3549 -3.55297,2.93922 -5.46669,4.19115 -7.52893,4.92532 -15.51444,9.22685 -23.44128,13.50858 0,0 16.55915,-13.24576 16.55915,-13.24576 z"
       inkscape:connector-curvature="0" />
    <path
       style="fill:#000000;fill-opacity:1;fill-rule:nonzero;stroke:none;stroke-width:1px;stroke-linecap:butt;stroke-linejoin:miter;stroke-opacity:1"
       id="path3356"
       d="m 135.48416,500.41876 c 4.25693,0.18583 8.46799,0.11135 12.68865,-0.45196 3.78143,-0.63502 7.6007,-0.79657 11.42636,-0.8457 4.56015,-0.0403 9.12028,-0.0812 13.68057,-0.10291 3.35908,-0.59225 5.56305,-1.37172 7.82822,1.66403 1.2564,2.4651 1.20402,5.27759 1.24116,7.97675 -0.0408,3.03206 0.12605,6.07259 -0.2959,9.08039 -5.90392,12.09545 -22.08151,14.11055 -33.98333,14.89928 -4.54984,0.27256 -9.10797,0.26608 -13.66363,0.24845 -3.09159,-0.20622 -6.45402,-0.0571 -9.4444,-1.03043 -1.80477,-0.58745 -2.26405,-1.11524 -3.71503,-2.21336 -2.80315,-3.1305 -3.22268,-7.21286 -3.5115,-11.22568 -0.0951,-1.67836 -0.0968,-3.35946 -0.10165,-5.03976 0,0 18.81987,-9.57951 18.81987,-9.57951 l 0,0 c -0.0184,1.64772 -0.0419,3.29587 0.004,4.94346 0.14369,3.33917 0.18429,6.98949 2.56718,9.59061 3.66723,2.3857 8.1883,2.14902 12.42112,2.18714 4.46179,0.0243 8.92839,0.0413 13.38316,-0.24944 3.1605,-0.26504 6.35433,-0.50328 9.45016,-1.24197 1.04488,-0.24931 3.96824,-1.53631 3.0886,-0.91974 -4.98868,3.49672 -10.35197,6.42593 -15.52796,9.6389 0.39146,-0.28314 0.78292,-0.56628 1.17438,-0.84942 0.96714,-2.72227 0.26491,-5.76315 0.49473,-8.61711 -0.0103,-2.22424 0.12759,-4.57839 -0.63792,-6.69763 -1.53603,-1.62219 -4.71791,0.17688 -6.63204,-0.18288 -4.52501,-0.0188 -9.05171,-0.0478 -13.57501,0.10215 -3.80079,0.17558 -7.58523,0.5013 -11.3568,1.0131 -4.31585,0.40832 -8.63981,0.27704 -12.96993,0.36156 0,0 17.14741,-12.45832 17.14741,-12.45832 z"
       inkscape:connector-curvature="0" />
    <path
       style="fill:#000000;fill-opacity:1;fill-rule:nonzero;stroke:none;stroke-width:1px;stroke-linecap:butt;stroke-linejoin:miter;stroke-opacity:1"
       id="path3358"
       d="m 260.5758,467.58849 c -2.08308,4.02383 -4.36808,7.93886 -6.79175,11.76601 -1.55227,2.54298 -3.68405,4.63074 -6.03679,6.42771 -7.54828,12.8371 -14.10777,8.1406 -21.91916,12.25183 -1.39253,0.73291 -2.61979,1.54947 -4.08308,2.16903 -6.23758,3.86924 -15.46124,8.65663 14.82201,-8.47934 0.28,-0.15844 -0.60333,0.30852 -0.76751,0.58519 -0.49147,0.82819 0.81347,2.38772 0.97281,2.67627 1.28078,1.33885 3.58017,4.33922 5.58761,4.68468 0.97783,0.16827 2.85904,-1.00682 3.5628,-1.37531 -5.35445,2.98141 -10.7089,5.96282 -16.06335,8.94423 9.7021,-8.07505 20.68706,-13.59597 31.68496,-19.913 0.7638,-0.37408 1.51751,-0.7695 2.2914,-1.12224 2.01504,-0.91847 4.1862,-1.4372 6.17793,-2.39388 0.53633,-0.25762 2.06027,-1.19144 1.54294,-0.89751 -5.60259,3.18321 -11.19921,6.37692 -16.79881,9.56538 1.85297,-1.2553 1.80058,-3.25529 1.29744,-5.22308 0,0 18.67765,-10.09465 18.67765,-10.09465 l 0,0 c 0.60566,2.51084 1.07822,5.20928 -0.33379,7.53597 -6.43336,3.79715 -12.83211,7.65356 -19.30009,11.39144 -3.08715,1.78408 -6.91162,2.22997 -9.84557,4.36955 29.88352,-17.39859 16.59607,-10.14142 10.66532,-6.10541 -2.31255,1.57374 -4.37684,3.49305 -6.53012,5.26742 -6.68671,3.85155 -13.25469,7.91701 -20.06014,11.55464 -1.28082,0.68461 -3.3978,0.40221 -4.63439,-0.14495 -2.47266,-1.09408 -4.21355,-3.70675 -6.04246,-5.53838 -0.88636,-1.38539 -2.11235,-2.86108 -2.2489,-4.61581 -0.0374,-0.48066 0.0406,-1.11461 0.44576,-1.37594 6.4814,-4.18076 14.12145,-8.73989 21.43301,-12.45965 7.4054,-3.86542 21.92838,-11.27083 -10.2988,6.37523 2.6247,-1.20782 4.71739,-3.37868 6.53888,-5.58113 2.38774,-3.74482 4.9227,-7.42749 6.73444,-11.50343 0,0 19.31975,-8.74087 19.31975,-8.74087 z"
       inkscape:connector-curvature="0" />
    <path
       style="fill:#000000;fill-opacity:1;fill-rule:nonzero;stroke:none;stroke-width:1px;stroke-linecap:butt;stroke-linejoin:miter;stroke-opacity:1"
       id="path3363"
       d="m 61.794012,485.02629 c -1.280268,-3.762 -3.060882,-7.30915 -4.168843,-11.12932 -0.914084,-3.45728 -1.181426,-7.02459 -1.31477,-10.58317 -0.368614,-3.95044 0.438147,-7.62738 1.924502,-11.25914 6.141377,-10.43881 18.296666,-14.72676 28.312675,-20.51986 4.276779,-1.89834 8.531384,-3.84799 12.773935,-5.8377 4.497349,-1.54154 9.055279,-2.81906 13.776159,-3.41559 3.59356,-0.25285 7.25909,-0.7554 10.83792,-0.1869 2.95914,0.41127 5.55509,2.07003 8.11755,3.52303 2.876,1.77561 6.0195,2.99097 9.09374,4.35428 2.84736,0.91821 5.13841,2.8773 7.52592,4.59188 2.12391,1.73677 2.97082,4.37671 4.0494,6.79975 0.22668,0.42476 0.45336,0.84953 0.68003,1.27429 0,0 -18.3275,10.52061 -18.3275,10.52061 l 0,0 c -0.25761,-0.46449 -0.51522,-0.92898 -0.77283,-1.39347 -0.96817,-2.07408 -1.63158,-4.42169 -3.51969,-5.86537 -2.23356,-1.68973 -4.52381,-3.31414 -7.20164,-4.23355 -3.15576,-1.34136 -6.24176,-2.82355 -9.24542,-4.48172 -2.43904,-1.27795 -4.7726,-2.75646 -7.61604,-2.85005 -3.48346,-0.14607 -6.980847,0.0899 -10.434842,0.55035 -4.586186,0.80306 -9.100848,2.02565 -13.379541,3.88674 -4.217715,2.01637 -8.583972,3.71805 -12.683282,5.96824 41.782855,-24.2548 15.192385,-9.44563 12.004684,-6.76 -1.837866,1.5484 -3.36661,3.48179 -4.898924,5.31559 -1.559202,3.35653 -2.645052,6.61014 -2.220976,10.37477 0.06387,3.40767 0.200577,6.83374 0.993989,10.16436 1.038638,3.79718 2.716183,7.35268 4.279386,10.95606 0,0 -18.585592,10.23589 -18.585592,10.23589 z"
       inkscape:connector-curvature="0" />
    <path
       style="fill:#000000;fill-opacity:1;fill-rule:nonzero;stroke:none;stroke-width:1px;stroke-linecap:butt;stroke-linejoin:miter;stroke-opacity:1"
       id="path3366"
       d="m 200.5574,434.54871 c 0.13772,-4.05729 0.0633,-8.11773 0.0722,-12.17646 -0.18611,-4.0058 0.3811,-7.77777 2.3403,-11.28025 3.73543,-3.99866 8.28567,-7.23261 13.04449,-9.91151 21.41948,-12.05772 13.74465,-9.0544 24.53034,-13.00177 4.30901,-1.29255 8.86223,-2.45039 13.38188,-1.87899 3.28263,0.95753 5.45073,3.49706 7.28805,6.23345 1.48418,2.92753 3.68257,5.07045 6.11324,7.17428 2.23202,2.185 5.32916,3.08977 8.09888,4.40272 2.66314,1.19077 5.32601,2.55477 7.72217,4.23058 2.61482,2.16834 3.84953,5.10756 5.15504,8.13347 1.22063,2.86393 2.34723,5.7619 3.64331,8.59163 0.77967,1.23043 0.38686,0.60063 1.17738,1.89005 0,0 -18.34026,10.64216 -18.34026,10.64216 l 0,0 c -0.81982,-1.36519 -0.39426,-0.65426 -1.2762,-2.13308 -1.26332,-2.86094 -2.37268,-5.77982 -3.5837,-8.66399 -1.14223,-2.6567 -2.19388,-5.25185 -4.60509,-7.04401 -2.39161,-1.50649 -4.89258,-2.86869 -7.48757,-3.99061 -2.97762,-1.33506 -6.10349,-2.54583 -8.45761,-4.89197 -2.52592,-2.23525 -4.72362,-4.67724 -6.37985,-7.64779 -1.53813,-2.25262 -3.34525,-4.33694 -6.22618,-4.63304 -4.29755,0.007 -8.52133,0.92614 -12.55435,2.39346 -8.46755,3.43429 -3.07511,1.43347 11.04678,-7.20092 1.18436,-0.72413 -2.45528,1.29994 -3.6395,2.02429 -2.43015,1.48646 -4.6595,3.15011 -6.9125,4.88549 -0.83677,0.64452 -1.65028,1.31867 -2.47542,1.978 -2.58467,3.14386 -2.88789,6.16472 -2.86289,10.14947 0.009,4.03417 -0.0663,8.07016 0.0722,12.10285 0,0 -18.8852,9.62249 -18.8852,9.62249 z"
       inkscape:connector-curvature="0" />
    <path
       style="fill:#000000;fill-opacity:1;fill-rule:nonzero;stroke:none;stroke-width:1px;stroke-linecap:butt;stroke-linejoin:miter;stroke-opacity:1"
       id="path3373"
       d="m 103.87524,448.41511 c 3.73442,-0.88886 7.60338,-1.31194 11.04838,-3.09193 1.59953,-0.91269 3.34976,-1.35504 5.14101,-1.68628 0,0 -16.82977,12.85464 -16.82977,12.85464 l 0,0 c -1.68063,0.51875 -3.29012,1.19245 -4.892785,1.91696 -3.692347,1.22117 -7.528297,1.82643 -11.25354,2.93156 0,0 16.786705,-12.92495 16.786705,-12.92495 z"
       inkscape:connector-curvature="0" />
    <path
       style="fill:#000000;fill-opacity:1;fill-rule:nonzero;stroke:none;stroke-width:1px;stroke-linecap:butt;stroke-linejoin:miter;stroke-opacity:1"
       id="path3375"
       d="m 237.07014,418.99998 c 4.339,0.0946 8.67973,0.0534 13.01936,0.0337 2.31853,0.34157 5.99331,-0.47535 8.19075,-0.0264 0.47295,0.0966 0.8847,0.3865 1.32705,0.57976 0,0 -17.51239,11.94819 -17.51239,11.94819 l 0,0 c -2.98869,-0.3389 -6.03238,0.0286 -9.03311,-0.13018 -4.37057,-0.02 -8.74214,-0.0596 -13.11212,0.0337 0,0 17.12046,-12.43874 17.12046,-12.43874 z"
       inkscape:connector-curvature="0" />
    <path
       style="fill:#000000;fill-opacity:1;fill-rule:nonzero;stroke:none;stroke-width:1px;stroke-linecap:butt;stroke-linejoin:miter;stroke-opacity:1"
       id="path3377"
       d="m 615.48416,461.84733 c 6.50993,0.18752 13.02456,0.15839 19.53647,0.12075 5.22742,-0.0419 10.45493,-0.0728 15.6824,-0.0289 4.31758,0.66286 11.62448,-1.81793 15.39316,0.22646 0.82224,0.44604 1.41079,1.22876 2.11618,1.84314 0.50784,0.93465 1.12012,1.8197 1.52354,2.80395 1.30192,3.17639 2.72241,10.51694 1.89754,13.8644 -0.2663,1.08071 -0.93555,2.01995 -1.40332,3.02993 -17.07826,13.57672 -26.49549,15.1669 -45.10181,16.11823 -4.02444,0.16743 -8.05295,0.18513 -12.08013,0.20447 -2.20592,0.0106 -3.83276,0.18427 -5.9563,-0.43776 -0.80569,-0.236 -1.5344,-0.68189 -2.3016,-1.02284 -2.51501,-2.84222 -3.8192,-6.3683 -5.26503,-9.80777 0,0 18.03407,-10.12342 18.03407,-10.12342 l 0,0 c 1.25527,2.90568 2.31415,5.99449 4.65388,8.24188 6.20738,2.0572 13.04993,0.56393 19.46166,0.78712 4.78074,-0.27075 9.56176,-0.54912 14.27809,-1.4432 1.65286,-0.31334 6.17747,-2.2493 4.91779,-1.13426 -6.86083,6.07307 -19.94883,11.33264 -9.70054,7.02548 0.61202,-0.7206 1.45724,-1.29558 1.83606,-2.16179 1.17979,-2.69772 -0.27339,-10.02752 -1.37802,-12.72856 -0.2975,-0.72744 -0.77705,-1.36633 -1.16557,-2.0495 -0.52599,-0.35668 -0.98297,-0.84678 -1.57799,-1.07006 -1.43938,-0.54013 -3.71454,-0.34036 -5.12453,-0.27129 -3.315,0.16239 -6.62691,0.48876 -9.95161,0.37996 -5.20099,0.0428 -10.402,0.0147 -15.60293,-0.0289 -6.62278,-0.0389 -13.24792,-0.0614 -19.86887,0.12075 0,0 17.14741,-12.45832 17.14741,-12.45832 z"
       inkscape:connector-curvature="0" />
    <path
       style="fill:#000000;fill-opacity:1;fill-rule:nonzero;stroke:none;stroke-width:1px;stroke-linecap:butt;stroke-linejoin:miter;stroke-opacity:1"
       id="path3379"
       d="m 658.8647,507.86413 c 12.61564,-5.55714 25.3204,-10.90426 37.99677,-16.32048 11.26145,-5.11944 23.33727,-7.97465 35.1313,-11.54779 8.1113,-1.91604 15.98992,-4.64114 24.02735,-6.81914 3.51181,-1.32558 7.50573,-0.50163 10.84458,-2.20656 0,0 -16.68816,13.00929 -16.68816,13.00929 l 0,0 c -3.5476,0.75968 -7.23794,0.78306 -10.71961,1.91573 -7.86246,2.14137 -15.65896,4.51781 -23.55917,6.52164 -11.70746,3.42591 -23.58025,6.48511 -34.73332,11.52615 -12.98705,5.50681 -25.99129,10.97531 -38.78512,16.92278 0,0 16.48538,-13.00162 16.48538,-13.00162 z"
       inkscape:connector-curvature="0" />
    <path
       style="fill:#000000;fill-opacity:1;fill-rule:nonzero;stroke:none;stroke-width:1px;stroke-linecap:butt;stroke-linejoin:miter;stroke-opacity:1"
       id="path3381"
       d="m 705.99868,454.25146 c 10.35976,-1.34492 20.55583,-3.66629 30.75061,-5.90146 9.48472,-2.13902 19.17414,-3.13466 28.80643,-4.3676 4.35016,-0.72225 8.70123,-1.43837 13.05518,-2.13741 0,0 -16.54264,12.41121 -16.54264,12.41121 l 0,0 c -4.288,0.6374 -8.57023,1.31183 -12.86107,1.93029 -9.5957,1.2682 -19.2276,2.41702 -28.69068,4.4929 -10.41743,2.21289 -20.84757,4.35347 -31.32722,6.25289 0,0 16.80939,-12.68082 16.80939,-12.68082 z"
       inkscape:connector-curvature="0" />
  </g>
</svg>
