<?xml version="1.0" encoding="UTF-8" standalone="no"?>
<!-- Created with Inkscape (http://www.inkscape.org/) -->

<svg
   xmlns:dc="http://purl.org/dc/elements/1.1/"
   xmlns:cc="http://creativecommons.org/ns#"
   xmlns:rdf="http://www.w3.org/1999/02/22-rdf-syntax-ns#"
   xmlns:svg="http://www.w3.org/2000/svg"
   xmlns="http://www.w3.org/2000/svg"
   xmlns:sodipodi="http://sodipodi.sourceforge.net/DTD/sodipodi-0.dtd"
   xmlns:inkscape="http://www.inkscape.org/namespaces/inkscape"
   width="297mm"
   height="210mm"
   viewBox="0 0 1052.3622 744.09448"
   id="svg2"
   version="1.1"
   inkscape:version="0.91 r13725"
   sodipodi:docname="Walk.svg">
  <defs
     id="defs4" />
  <sodipodi:namedview
     id="base"
     pagecolor="#ffffff"
     bordercolor="#666666"
     borderopacity="1.0"
     inkscape:pageopacity="0.0"
     inkscape:pageshadow="2"
     inkscape:zoom="0.7"
     inkscape:cx="588.85344"
     inkscape:cy="372.04724"
     inkscape:document-units="px"
     inkscape:current-layer="layer1"
     showgrid="false"
     inkscape:window-width="1366"
     inkscape:window-height="705"
     inkscape:window-x="-8"
     inkscape:window-y="-8"
     inkscape:window-maximized="1"
     showguides="true"
     inkscape:guide-bbox="true"
     units="mm">
    <sodipodi:guide
       position="500.00001,504.28571"
       orientation="1,0"
       id="guide3348" />
  </sodipodi:namedview>
  <metadata
     id="metadata7">
    <rdf:RDF>
      <cc:Work
         rdf:about="">
        <dc:format>image/svg+xml</dc:format>
        <dc:type
           rdf:resource="http://purl.org/dc/dcmitype/StillImage" />
        <dc:title></dc:title>
      </cc:Work>
    </rdf:RDF>
  </metadata>
  <g
     inkscape:label="Ebene 1"
     inkscape:groupmode="layer"
     id="layer1"
     transform="translate(0,-308.26772)">
    <path
       style="fill:#000000;fill-opacity:1;fill-rule:nonzero;stroke:none;stroke-width:1px;stroke-linecap:butt;stroke-linejoin:miter;stroke-opacity:1"
       id="path3350"
       d="m 201.75334,546.6068 c 8.24373,50.56246 21.52885,100.09392 37.09716,148.85232 3.60286,11.2838 7.51186,22.46757 11.26779,33.70135 0,0 -12.69586,6.98276 -12.69586,6.98276 l 0,0 C 226.11667,700.78599 214.90784,665.3987 204.6801,629.70996 c -5.54727,-19.35673 -10.66101,-38.83526 -16.09036,-58.22539 -1.44601,-5.16419 -2.94004,-10.31482 -4.41006,-15.47223 0,0 17.57366,-9.40554 17.57366,-9.40554 z"
       inkscape:connector-curvature="0" />
    <path
       style="fill:#000000;fill-opacity:1;fill-rule:nonzero;stroke:none;stroke-width:1px;stroke-linecap:butt;stroke-linejoin:miter;stroke-opacity:1"
       id="path3360"
       d="m 254.28883,726.42124 c 3.64872,0.95722 6.65362,1.66204 10.3011,3.17508 11.38984,4.72469 21.68193,10.36025 32.56689,16.31711 14.38931,7.87463 35.39114,19.99489 49.48792,28.06631 14.7702,8.90573 30.15028,16.77512 44.92358,25.67694 10.35157,6.23745 20.56388,9.40485 21.77972,23.23701 1.16519,13.2561 -10.6147,27.30078 -16.40869,36.78849 -25.22832,35.33867 -54.67843,67.38217 -84.83141,98.52354 0,0 -16.22869,6.73391 -16.22869,6.73391 l 0,0 c 30.90141,-30.69459 60.92423,-62.57841 85.77895,-98.47929 4.79347,-8.25732 15.70379,-22.829 15.33489,-34.42574 -0.43312,-13.61584 -9.30812,-16.56182 -19.52688,-23.24207 -11.44887,-7.4844 -32.6989,-19.65961 -43.98705,-26.24724 -19.03077,-10.65559 -31.03898,-17.743 -50.54233,-27.25879 -14.48683,-7.06821 -29.76447,-14.38195 -45.92012,-16.64157 0,0 17.27212,-12.22369 17.27212,-12.22369 z"
       inkscape:connector-curvature="0" />
    <path
       style="fill:#000000;fill-opacity:1;fill-rule:nonzero;stroke:none;stroke-width:1px;stroke-linecap:butt;stroke-linejoin:miter;stroke-opacity:1"
       id="path3362"
       d="m 250.85633,740.35414 c -0.96142,20.0098 2.07322,39.93583 4.94646,59.67329 4.63385,26.50436 7.38035,53.23977 9.11214,80.07169 -0.11601,5.49324 2.61196,18.70357 -1.32973,23.52841 -6.01077,7.3575 -22.80968,16.65188 -29.33418,20.52801 -8.30867,4.93609 -16.73891,9.66458 -25.10837,14.49687 -9.58287,5.59036 -19.16573,11.18072 -28.7486,16.77108 0,0 -14.02306,5.39381 -14.02306,5.39381 l 0,0 c 9.30696,-5.48637 18.61391,-10.97274 27.92087,-16.45911 7.94698,-4.65319 15.94497,-9.22032 23.84093,-13.95955 3.10075,-1.8611 22.66403,-13.3323 27.18401,-18.24721 4.886,-5.31289 2.08285,-17.01538 2.49255,-23.2185 -1.20935,-26.91565 -3.72052,-53.74347 -8.23675,-80.32421 -3.09792,-19.45465 -6.50134,-38.94997 -7.57179,-58.64721 0,0 18.85552,-9.60737 18.85552,-9.60737 z"
       inkscape:connector-curvature="0" />
    <path
       style="fill:#000000;fill-opacity:1;fill-rule:nonzero;stroke:none;stroke-width:1px;stroke-linecap:butt;stroke-linejoin:miter;stroke-opacity:1"
       id="path3364"
       d="m 178.80155,554.30565 c -18.08498,-0.056 -36.06714,-1.43684 -54.03165,-3.44125 -12.72323,-1.76138 -25.487614,-3.8928 -37.69294,-8.02571 -6.046398,-2.04741 -10.91558,-4.03652 -15.937537,-7.98432 -1.939611,-1.52474 -3.499912,-3.47827 -5.249868,-5.2174 -3.347312,-5.24101 -8.13885,-12.73382 -6.315295,-19.44298 3.429147,-12.6164 20.079265,-20.16226 29.868468,-26.13475 12.199222,-6.04339 24.094362,-12.74401 36.597672,-18.13018 11.95533,-5.15011 41.09082,-13.35609 53.43033,-16.51495 15.19411,-3.88962 35.66528,-8.31367 51.32947,-10.77847 7.1895,-1.13129 14.44496,-1.79383 21.66744,-2.69074 14.58791,-1.6017 29.31879,-2.35434 43.9556,-0.93456 4.55397,0.44174 10.317,1.28455 14.73317,2.93278 1.61284,0.60196 3.06948,1.5597 4.60422,2.33955 2.07111,1.74311 4.41331,3.09803 5.14458,5.96586 1.94134,7.61339 -5.93039,18.55006 -9.63142,24.4995 -5.77655,7.53816 -7.07672,9.94747 -14.52594,16.4788 -11.18774,9.8092 -24.26867,17.46565 -37.10358,24.85922 -9.43104,5.43278 -18.93011,10.74659 -28.39516,16.11989 -9.46693,5.18353 -18.95062,10.32026 -28.30609,15.70174 -2.1105,1.214 -8.44961,4.84274 -6.33386,3.6379 13.04735,-7.42993 16.44604,-9.63851 8.18727,-4.45825 -13.01974,9.40986 -26.71128,18.05309 -41.56962,24.29463 0,0 16.03623,-12.68105 16.03623,-12.68105 l 0,0 c 9.70462,-4.30789 4.75008,-2.3348 -8.51328,5.839 -1.31429,0.80996 2.72244,-1.46163 4.0305,-2.28163 3.78118,-2.37035 7.26236,-5.22552 10.93151,-7.75715 19.40445,-12.35601 39.90774,-22.89985 60.03735,-33.99595 -5.34182,3.55844 -13.01694,8.58107 9.91105,-5.5596 11.34825,-6.99895 22.56427,-14.3987 31.51744,-24.41722 2.18739,-2.44767 4.00768,-5.20015 6.01152,-7.80023 3.06387,-4.9198 5.34354,-8.14702 7.64946,-13.37797 0.88254,-2.00201 2.53683,-6.16697 2.06947,-8.73696 -0.44009,-2.42003 -2.59558,-3.67253 -4.25733,-5.09752 -1.38887,-0.71899 -2.71027,-1.58691 -4.16662,-2.15698 -4.14068,-1.62081 -9.45287,-2.59146 -13.74782,-3.1292 -13.975,-1.74972 -28.09529,-1.3307 -42.08609,0.007 -7.03705,0.80199 -14.10579,1.36283 -21.11116,2.40596 -15.8626,2.36203 -35.25015,6.46766 -50.63811,10.44446 -40.94665,10.58209 -14.18424,4.5085 -54.03484,17.28747 -2.13841,0.68572 -4.41977,0.79856 -6.62966,1.19785 -8.162155,4.90719 -25.241265,13.10366 -28.746215,23.46063 -2.082103,6.15252 2.43849,13.30687 5.480934,18.14183 1.621632,1.64753 3.062543,3.49499 4.864897,4.94261 4.626066,3.71556 9.560158,5.87776 15.127384,7.86686 11.93974,4.26592 24.48648,6.47329 37.02247,8.06443 4.71764,0.45546 9.42636,1.0154 14.15293,1.36637 13.91426,1.03318 27.87754,0.9495 41.81013,0.43246 0,0 -17.14741,12.45832 -17.14741,12.45832 z"
       inkscape:connector-curvature="0" />
    <path
       style="fill:#000000;fill-opacity:1;fill-rule:nonzero;stroke:none;stroke-width:1px;stroke-linecap:butt;stroke-linejoin:miter;stroke-opacity:1"
       id="path3366"
       d="m 215.48416,588.99018 c 16.88684,3.08067 32.54507,11.5569 46.87867,20.70144 5.3478,3.41179 10.43708,7.21279 15.65563,10.81919 7.0469,5.29458 22.21162,16.57361 29.27391,22.31083 8.4387,6.85537 15.5163,11.46676 18.6955,22.61854 3.66444,12.85383 2.1288,34.71704 1.90385,47.11043 -1.71027,32.8955 -5.15682,65.66412 -8.3034,98.44343 0,0 -15.58811,7.73008 -15.58811,7.73008 l 0,0 c 4.01269,-32.81109 8.2892,-65.65274 9.27792,-98.73285 -0.17506,-13.72956 0.80625,-31.56581 -3.43087,-45.25899 -3.32996,-10.76149 -9.58808,-15.34277 -17.79516,-22.32056 -9.52186,-8.09563 -18.93939,-14.8684 -28.9643,-22.35733 -5.27743,-3.50933 -10.40927,-7.24811 -15.83228,-10.528 -14.75254,-8.9225 -31.41044,-17.14044 -48.91877,-18.07788 0,0 17.14741,-12.45833 17.14741,-12.45833 z"
       inkscape:connector-curvature="0" />
    <path
       style="fill:#000000;fill-opacity:1;fill-rule:nonzero;stroke:none;stroke-width:1px;stroke-linecap:butt;stroke-linejoin:miter;stroke-opacity:1"
       id="path3368"
       d="m 207.34697,597.4048 c -5.82468,17.10483 -11.5602,34.23688 -17.44624,51.32192 -3.71865,12.33663 -7.7762,24.50716 -13.08897,36.24982 -0.17393,0.35465 -2.589,5.14772 -2.71622,5.8639 -0.94516,5.32048 1.5621,15.41443 2.27424,18.58827 3.44641,15.3599 7.54713,27.79302 12.14198,42.96195 10.27346,29.24261 5.06312,15.06126 15.57182,42.56577 0,0 -15.0628,8.36059 -15.0628,8.36059 l 0,0 c -9.98295,-27.81958 -4.90606,-13.5365 -15.21703,-42.85408 -3.75587,-11.32903 -10.12431,-30.42079 -13.87656,-42.16145 -0.75147,-2.35133 -5.1312,-13.63625 -4.76374,-18.74852 0.0783,-1.08893 2.51852,-5.32611 2.91006,-6.04826 1.12427,-2.28417 3.20254,-6.45537 4.17438,-8.66551 3.97407,-9.03783 6.67303,-18.56261 9.99013,-27.845 5.86321,-16.71745 11.78578,-33.42497 16.19081,-50.6042 0,0 18.91814,-8.9852 18.91814,-8.9852 z"
       inkscape:connector-curvature="0" />
    <path
       style="fill:#000000;fill-opacity:1;fill-rule:nonzero;stroke:none;stroke-width:1px;stroke-linecap:butt;stroke-linejoin:miter;stroke-opacity:1"
       id="path3370"
       d="m 317.38495,956.16242 c 7.3388,0.0864 14.62301,1.10163 21.9116,1.86225 0,0 -16.29071,11.59598 -16.29071,11.59598 l 0,0 c -7.54163,-0.68231 -15.10318,-1.48932 -22.68744,-1.05866 0,0 17.06655,-12.39957 17.06655,-12.39957 z"
       inkscape:connector-curvature="0" />
    <path
       style="fill:#000000;fill-opacity:1;fill-rule:nonzero;stroke:none;stroke-width:1px;stroke-linecap:butt;stroke-linejoin:miter;stroke-opacity:1"
       id="path3372"
       d="m 185.48416,948.99018 c 4.95624,0.75867 9.97118,1.05016 14.97521,1.28565 0.72159,0.0253 1.44317,0.0506 2.16476,0.076 0,0 -17.05216,12.27081 -17.05216,12.27081 l 0,0 c -0.714,-0.0401 -1.428,-0.0803 -2.142,-0.1204 -5.03251,-0.33216 -10.05489,-0.85443 -15.09322,-1.05369 0,0 17.14741,-12.45833 17.14741,-12.45833 z"
       inkscape:connector-curvature="0" />
  </g>
</svg>
